<?xml version="1.0" encoding="iso-8859-1"?>
<!-- Generator: Adobe Illustrator 26.0.3, SVG Export Plug-In . SVG Version: 6.00 Build 0)  -->
<svg version="1.1" xmlns="http://www.w3.org/2000/svg" xmlns:xlink="http://www.w3.org/1999/xlink" x="0px" y="0px"
	 viewBox="0 0 80 80" style="enable-background:new 0 0 80 80;" xml:space="preserve">
<g id="law_31">
	<g>
		<path style="fill-rule:evenodd;clip-rule:evenodd;fill:#FFFFFF;" d="M59.487,28.626l-7.756-4.472
			c-0.97-0.376-1.397-0.209-2.327,0.23L22.878,39.68c-1.939,1.244-3.22,3.459-3.335,5.766v17.681
			c0.077,1.043,0.156,1.47,0.969,2.153l7.756,4.468c-0.853-0.683-0.891-1.11-1.008-2.153l0.039-17.677
			c0.078-2.3,1.396-4.534,3.335-5.771l26.489-15.296C58.092,28.413,58.48,28.246,59.487,28.626z"/>
		<linearGradient id="SVGID_1_" gradientUnits="userSpaceOnUse" x1="19.0764" y1="46.8478" x2="59.9443" y2="46.8478">
			<stop  offset="0" style="stop-color:#894593"/>
			<stop  offset="0.5098" style="stop-color:#338ACA"/>
			<stop  offset="0.999" style="stop-color:#6A9F5B"/>
			<stop  offset="1" style="stop-color:#5F9F55"/>
		</linearGradient>
		<path style="fill-rule:evenodd;clip-rule:evenodd;fill:url(#SVGID_1_);" d="M50.8,24.395c-0.349,0-0.659,0.143-1.202,0.404
			L23.111,40.075c-1.823,1.156-3.026,3.223-3.104,5.391v17.662c0.077,0.935,0.117,1.226,0.814,1.8l6.089,3.529
			c-0.039-0.24-0.078-0.508-0.078-0.818v-17.72c0.117-2.482,1.473-4.832,3.53-6.155l26.527-15.308
			c0.31-0.136,0.582-0.251,0.815-0.337l-6.205-3.568C51.227,24.446,50.994,24.395,50.8,24.395L50.8,24.395z M28.267,70.206
			c-0.077,0-0.155-0.024-0.232-0.063l-7.757-4.468c-1.008-0.826-1.085-1.365-1.202-2.509V45.446
			c0.117-2.478,1.474-4.828,3.567-6.151l26.527-15.308c1.087-0.496,1.591-0.69,2.754-0.26l7.796,4.503
			c0.194,0.116,0.271,0.376,0.194,0.589c-0.117,0.213-0.388,0.314-0.582,0.233c-0.853-0.319-1.125-0.199-2.016,0.212l-26.45,15.277
			c-1.785,1.137-3.025,3.258-3.142,5.394v17.658c0.117,0.935,0.117,1.23,0.816,1.8c0.193,0.151,0.232,0.419,0.116,0.613
			C28.54,70.135,28.423,70.206,28.267,70.206z"/>
		<path style="fill-rule:evenodd;clip-rule:evenodd;fill:#FFFFFF;" d="M57.122,28.851L30.634,44.147
			c-1.822,1.054-3.335,3.653-3.335,5.766l-0.039,17.681c0,2.117,1.512,2.982,3.336,1.927l26.527-15.295
			c1.862-1.059,3.335-3.654,3.335-5.77V30.779C60.458,28.661,58.984,27.796,57.122,28.851z"/>
		
			<linearGradient id="SVGID_00000106867044343060945220000006097368030073294487_" gradientUnits="userSpaceOnUse" x1="26.8324" y1="49.1867" x2="60.9236" y2="49.1867">
			<stop  offset="0" style="stop-color:#894593"/>
			<stop  offset="0.5098" style="stop-color:#338ACA"/>
			<stop  offset="0.999" style="stop-color:#6A9F5B"/>
			<stop  offset="1" style="stop-color:#5F9F55"/>
		</linearGradient>
		<path style="fill-rule:evenodd;clip-rule:evenodd;fill:url(#SVGID_00000106867044343060945220000006097368030073294487_);" d="
			M57.122,28.851l0.233,0.396L30.866,44.542c-1.706,0.969-3.142,3.432-3.142,5.371v17.681c0,0.853,0.273,1.478,0.776,1.758
			c0.466,0.282,1.126,0.196,1.901-0.225l26.489-15.296c1.705-0.969,3.103-3.432,3.103-5.375V30.779c0-0.853-0.233-1.477-0.736-1.761
			c-0.467-0.275-1.163-0.197-1.901,0.23L57.122,28.851L57.122,28.851z M29.122,70.43c-0.389,0-0.737-0.093-1.086-0.288
			c-0.776-0.45-1.203-1.353-1.203-2.548V49.914c0-2.264,1.59-5.03,3.568-6.162l26.489-15.296c1.047-0.592,2.056-0.675,2.831-0.224
			c0.776,0.45,1.203,1.353,1.203,2.548v17.678c0,2.264-1.63,5.029-3.568,6.165L30.827,69.918
			C30.245,70.259,29.663,70.43,29.122,70.43z"/>
		<path style="fill-rule:evenodd;clip-rule:evenodd;fill:#FFFFFF;" d="M43.859,42.219c1.901-1.077,3.413-0.201,3.413,1.959
			c0,1.319-0.582,2.804-1.436,4.014v6.128c0,1.031-0.736,2.3-1.628,2.816l-0.659,0.392c-0.893,0.515-1.629,0.093-1.629-0.939v-6.127
			c-0.892-0.214-1.435-1.055-1.435-2.37C40.484,45.931,41.998,43.297,43.859,42.219z"/>
		
			<linearGradient id="SVGID_00000114035074988001441080000008449941659321592976_" gradientUnits="userSpaceOnUse" x1="40.0187" y1="49.7515" x2="47.7371" y2="49.7515">
			<stop  offset="0" style="stop-color:#894593"/>
			<stop  offset="0.5098" style="stop-color:#338ACA"/>
			<stop  offset="0.999" style="stop-color:#6A9F5B"/>
			<stop  offset="1" style="stop-color:#5F9F55"/>
		</linearGradient>
		<path style="fill-rule:evenodd;clip-rule:evenodd;fill:url(#SVGID_00000114035074988001441080000008449941659321592976_);" d="
			M45.41,42.212c-0.388,0-0.854,0.134-1.32,0.402c-1.705,1.005-3.14,3.46-3.14,5.477c0,1.055,0.388,1.757,1.086,1.923
			c0.193,0.05,0.349,0.233,0.349,0.446v6.127c0,0.326,0.077,0.563,0.232,0.656c0.156,0.093,0.389,0.05,0.699-0.112l0.659-0.393
			c0.776-0.434,1.396-1.543,1.396-2.42v-6.128c0-0.092,0.04-0.189,0.117-0.267c0.815-1.175,1.318-2.576,1.318-3.747
			c0-0.872-0.271-1.515-0.776-1.8C45.835,42.266,45.642,42.212,45.41,42.212L45.41,42.212z M42.811,58.202
			c-0.232,0-0.466-0.055-0.659-0.167c-0.426-0.26-0.699-0.788-0.699-1.447v-5.801c-0.891-0.392-1.435-1.373-1.435-2.695
			c0-2.343,1.591-5.097,3.646-6.267c1.047-0.605,2.055-0.687,2.832-0.236c0.775,0.456,1.241,1.377,1.241,2.59
			c0,1.334-0.544,2.84-1.435,4.159v5.983c0,1.203-0.815,2.614-1.862,3.211l-0.698,0.392C43.431,58.109,43.121,58.202,42.811,58.202z
			"/>
		<path style="fill-rule:evenodd;clip-rule:evenodd;fill:#FFFFFF;" d="M49.056,18.159c-0.35-1.137-0.814-2.266-1.669-3.122
			c0.156,0.043,0.31,0.07,0.466,0.108c2.444,0.736,4.343,3.002,4.343,6.504l0.04,6.779l-2.871-1.656l0.04-5.239
			C49.405,20.106,49.211,18.833,49.056,18.159z"/>
		
			<linearGradient id="SVGID_00000080891854484278375930000010406330007668294071_" gradientUnits="userSpaceOnUse" x1="46.9322" y1="21.7326" x2="52.7006" y2="21.7326">
			<stop  offset="0" style="stop-color:#894593"/>
			<stop  offset="0.5098" style="stop-color:#338ACA"/>
			<stop  offset="0.999" style="stop-color:#6A9F5B"/>
			<stop  offset="1" style="stop-color:#5F9F55"/>
		</linearGradient>
		<path style="fill-rule:evenodd;clip-rule:evenodd;fill:url(#SVGID_00000080891854484278375930000010406330007668294071_);" d="
			M49.831,26.513l1.939,1.125l-0.039-5.984c0-2.595-1.163-4.681-3.064-5.683c0.31,0.583,0.581,1.257,0.814,2.061
			c0,0.012,0,0.015,0.039,0.026c0.156,0.738,0.349,2.041,0.31,3.479V26.513L49.831,26.513z M52.236,28.886
			c-0.077,0-0.155-0.019-0.233-0.062l-2.871-1.655c-0.155-0.082-0.232-0.233-0.232-0.396l0.039-5.239
			c0-1.358-0.156-2.598-0.31-3.257c-0.387-1.311-0.892-2.239-1.551-2.921c-0.156-0.147-0.194-0.38-0.079-0.558
			c0.117-0.178,0.35-0.261,0.544-0.194c0.039,0.019,0.117,0.034,0.194,0.05c0.077,0.016,0.155,0.034,0.232,0.058
			c2.871,0.865,4.693,3.525,4.693,6.938l0.039,6.779c0,0.163-0.116,0.315-0.233,0.395C52.39,28.866,52.313,28.886,52.236,28.886z"/>
		<path style="fill-rule:evenodd;clip-rule:evenodd;fill:#FFFFFF;" d="M41.609,10.409c2.327-0.566,4.15-0.597,6.36,0.512l2.831,1.59
			c-2.404-1.221-4.498-1.073-7.02-0.31c-1.899,0.691-3.257,1.454-4.925,2.617c-1.706,1.31-3.064,2.591-4.499,4.232
			c-1.241,1.473-2.21,2.842-3.218,4.479c-1.242,2.14-2.172,4.263-2.987,6.619c-0.503,1.754-1.009,3.215-1.009,5.043l-0.039,7.737
			l-2.83-1.644l-0.04-6.861c0-1.812,0.389-3.263,0.853-5.019c0.737-2.489,1.552-4.432,2.754-6.67
			c1.125-1.951,2.249-3.541,3.684-5.274c1.629-1.882,3.141-3.273,5.198-4.717C38.391,11.667,39.709,10.984,41.609,10.409z"/>
		
			<linearGradient id="SVGID_00000163050654548676532240000016963963056292076429_" gradientUnits="userSpaceOnUse" x1="23.807" y1="26.4783" x2="51.2417" y2="26.4783">
			<stop  offset="0" style="stop-color:#894593"/>
			<stop  offset="0.5098" style="stop-color:#338ACA"/>
			<stop  offset="0.999" style="stop-color:#6A9F5B"/>
			<stop  offset="1" style="stop-color:#5F9F55"/>
		</linearGradient>
		<path style="fill-rule:evenodd;clip-rule:evenodd;fill:url(#SVGID_00000163050654548676532240000016963963056292076429_);" d="
			M24.739,41.021l1.901,1.12l0.078-6.949c0-1.707,0.386-3.068,0.852-4.647l0.155-0.524c0.776-2.346,1.746-4.479,3.025-6.721
			c1.048-1.674,2.018-3.075,3.258-4.541c1.512-1.738,2.908-3.018,4.576-4.301c1.552-1.105,2.948-1.935,5.042-2.683
			c1.202-0.362,2.444-0.647,3.8-0.613c-1.978-0.912-3.683-0.799-5.7-0.31c-1.94,0.586-3.258,1.306-4.771,2.272
			c-1.899,1.343-3.374,2.688-5.08,4.635c-1.435,1.698-2.521,3.257-3.645,5.204c-1.242,2.304-2.017,4.211-2.715,6.574
			c-0.427,1.668-0.815,3.117-0.815,4.886L24.739,41.021L24.739,41.021z M27.104,43.387c-0.077,0-0.155-0.022-0.232-0.062
			l-2.831-1.644c-0.117-0.08-0.234-0.232-0.234-0.395v-6.861c0-1.88,0.388-3.389,0.816-5.131c0.736-2.444,1.551-4.398,2.831-6.772
			c1.163-2.005,2.249-3.603,3.723-5.352c1.745-2.015,3.297-3.404,5.275-4.797c1.589-1.024,2.986-1.776,5.041-2.401V9.968
			c2.288-0.55,4.267-0.667,6.671,0.547l2.831,1.601c0.233,0.12,0.31,0.392,0.194,0.612c-0.116,0.218-0.388,0.299-0.583,0.191
			c-2.364-1.195-4.382-0.982-6.708-0.28c-1.706,0.621-3.025,1.315-4.77,2.556c-1.628,1.233-2.947,2.479-4.421,4.153
			c-1.203,1.427-2.172,2.793-3.181,4.418c-1.241,2.175-2.172,4.254-2.908,6.526l-0.155,0.516c-0.466,1.505-0.854,2.808-0.854,4.386
			l-0.039,7.738c0,0.159-0.077,0.309-0.233,0.391C27.259,43.364,27.182,43.387,27.104,43.387z"/>
		<path style="fill-rule:evenodd;clip-rule:evenodd;fill:#FFFFFF;" d="M40.95,13.458c7.679-4.306,13.923-0.815,13.923,7.787
			l-0.039,5.671l-2.598,1.512l-0.04-6.779c0-6.22-5.312-8.575-11.246-5.263c-5.972,3.362-11.287,11.348-11.247,18.182l0.038,6.852
			l-2.637,1.509v-7.388C27.104,27.187,33.698,17.546,40.95,13.458L40.95,13.458z"/>
		
			<linearGradient id="SVGID_00000064312864867196277490000012258002481932604583_" gradientUnits="userSpaceOnUse" x1="26.6392" y1="27.2693" x2="55.3385" y2="27.2693">
			<stop  offset="0" style="stop-color:#894593"/>
			<stop  offset="0.5098" style="stop-color:#338ACA"/>
			<stop  offset="0.999" style="stop-color:#6A9F5B"/>
			<stop  offset="1" style="stop-color:#5F9F55"/>
		</linearGradient>
		<path style="fill-rule:evenodd;clip-rule:evenodd;fill:url(#SVGID_00000064312864867196277490000012258002481932604583_);" d="
			M40.95,13.458h0.039H40.95L40.95,13.458z M47.155,12.066c-1.785,0-3.84,0.597-5.973,1.788l0,0
			C33.698,18.057,27.57,27.789,27.57,35.541v6.597l1.706-0.982v-6.588c-0.039-6.68,5.119-15.013,11.48-18.577
			c3.219-1.807,6.399-2.06,8.726-0.694c2.055,1.187,3.18,3.444,3.18,6.352l0.039,5.992l1.706-0.99v-5.406
			c0-3.925-1.319-6.868-3.723-8.275C49.637,12.365,48.435,12.066,47.155,12.066L47.155,12.066z M27.104,43.387
			c-0.077,0-0.155-0.022-0.232-0.062c-0.117-0.082-0.233-0.232-0.233-0.395v-7.388c0.039-8.188,6.205-18.057,14.117-22.482
			c3.916-2.196,7.601-2.506,10.394-0.877c2.675,1.583,4.189,4.797,4.189,9.063l-0.04,5.671c0,0.162-0.077,0.313-0.232,0.396
			l-2.599,1.511c-0.155,0.083-0.309,0.083-0.465,0c-0.155-0.08-0.233-0.232-0.233-0.395l-0.039-6.775
			c0-2.576-0.932-4.554-2.676-5.569c-2.057-1.199-4.926-0.944-7.874,0.701c-6.088,3.421-11.052,11.398-11.014,17.779l0.04,6.853
			c0,0.162-0.117,0.313-0.233,0.399l-2.638,1.508C27.259,43.364,27.182,43.387,27.104,43.387z"/>
		<path style="fill-rule:evenodd;clip-rule:evenodd;fill:#FFFFFF;" d="M44.634,56.844c-0.156,0.112-0.271,0.209-0.427,0.291
			l-0.659,0.392c-0.893,0.515-1.629,0.093-1.629-0.939v-1.306L44.634,56.844z"/>
		
			<linearGradient id="SVGID_00000061452999695292726800000013780978033891848088_" gradientUnits="userSpaceOnUse" x1="41.4535" y1="56.515" x2="45.0706" y2="56.515">
			<stop  offset="0" style="stop-color:#894593"/>
			<stop  offset="0.5098" style="stop-color:#338ACA"/>
			<stop  offset="0.999" style="stop-color:#6A9F5B"/>
			<stop  offset="1" style="stop-color:#5F9F55"/>
		</linearGradient>
		<path style="fill-rule:evenodd;clip-rule:evenodd;fill:url(#SVGID_00000061452999695292726800000013780978033891848088_);" d="
			M42.385,56.068v0.519c0,0.326,0.077,0.563,0.232,0.656c0.156,0.089,0.389,0.05,0.699-0.112l0.427-0.261L42.385,56.068
			L42.385,56.068z M42.811,58.202c-0.232,0-0.466-0.055-0.659-0.167c-0.426-0.26-0.699-0.788-0.699-1.447v-1.306
			c0-0.163,0.078-0.316,0.233-0.396c0.117-0.077,0.311-0.077,0.466,0l2.675,1.562c0.156,0.074,0.233,0.206,0.233,0.353
			c0.039,0.148-0.039,0.291-0.155,0.388c-0.156,0.131-0.311,0.248-0.466,0.34l-0.698,0.392
			C43.431,58.109,43.121,58.202,42.811,58.202z"/>
		<path style="fill-rule:evenodd;clip-rule:evenodd;fill:#FFFFFF;" d="M43.859,42.219c1.901-1.077,3.413-0.201,3.413,1.959
			c0,0.846-0.233,1.764-0.62,2.634l-0.816,1.38l-4.731-2.729C41.726,44.109,42.734,42.879,43.859,42.219z"/>
		
			<linearGradient id="SVGID_00000013167072995153078910000010922251085215734671_" gradientUnits="userSpaceOnUse" x1="40.6481" y1="44.9731" x2="47.7371" y2="44.9731">
			<stop  offset="0" style="stop-color:#894593"/>
			<stop  offset="0.5098" style="stop-color:#338ACA"/>
			<stop  offset="0.999" style="stop-color:#6A9F5B"/>
			<stop  offset="1" style="stop-color:#5F9F55"/>
		</linearGradient>
		<path style="fill-rule:evenodd;clip-rule:evenodd;fill:url(#SVGID_00000013167072995153078910000010922251085215734671_);" d="
			M41.726,45.28l3.955,2.288l0.543-0.985c0.388-0.803,0.582-1.647,0.582-2.405c0-0.872-0.271-1.515-0.776-1.8
			c-0.465-0.282-1.163-0.196-1.939,0.237l0,0C43.2,43.146,42.307,44.123,41.726,45.28L41.726,45.28z M45.835,48.645
			c-0.076,0-0.155-0.019-0.232-0.061l-4.732-2.727c-0.194-0.116-0.271-0.371-0.194-0.585c0.699-1.482,1.785-2.77,2.987-3.448l0,0
			c1.047-0.605,2.055-0.687,2.832-0.236c0.775,0.456,1.241,1.377,1.241,2.59c0,0.889-0.233,1.862-0.699,2.824l-0.814,1.42
			C46.147,48.565,45.992,48.645,45.835,48.645z"/>
		<path style="fill-rule:evenodd;clip-rule:evenodd;fill:#FFFFFF;" d="M20.162,43.03l-0.039,0.065
			c-0.349,0.893-0.504,1.528-0.543,2.494v17.576c0.117,1.036,0.155,1.463,0.97,2.141l7.716,4.441
			c-0.853-0.679-0.891-1.101-0.969-2.141V50.031c0.039-0.862,0.156-1.773,0.543-2.556L20.162,43.03z"/>
		
			<linearGradient id="SVGID_00000031909457360579296960000011842739625619224746_" gradientUnits="userSpaceOnUse" x1="19.115" y1="56.4001" x2="28.7209" y2="56.4001">
			<stop  offset="0" style="stop-color:#894593"/>
			<stop  offset="0.5098" style="stop-color:#338ACA"/>
			<stop  offset="0.999" style="stop-color:#6A9F5B"/>
			<stop  offset="1" style="stop-color:#5F9F55"/>
		</linearGradient>
		<path style="fill-rule:evenodd;clip-rule:evenodd;fill:url(#SVGID_00000031909457360579296960000011842739625619224746_);" d="
			M20.394,43.689c-0.232,0.597-0.31,1.12-0.349,1.916v17.561c0.078,0.927,0.117,1.218,0.816,1.788l6.05,3.502
			c-0.039-0.236-0.039-0.5-0.078-0.807V50.031c0.04-0.908,0.194-1.699,0.427-2.362L20.394,43.689L20.394,43.689z M28.267,70.206
			c-0.077,0-0.155-0.024-0.232-0.063l-7.679-4.444c-1.049-0.819-1.126-1.353-1.242-2.49l0.039-17.619
			c0.04-1.079,0.194-1.773,0.544-2.665c0.037-0.12,0.155-0.248,0.271-0.291c0.155-0.043,0.309-0.062,0.425,0l7.68,4.445
			c0.193,0.12,0.271,0.376,0.193,0.589c-0.309,0.628-0.465,1.427-0.503,2.381l-0.04,17.556c0.117,0.927,0.117,1.222,0.816,1.788
			c0.193,0.151,0.232,0.419,0.116,0.613C28.54,70.135,28.423,70.206,28.267,70.206z"/>
	</g>
</g>
<g id="Layer_1">
</g>
</svg>
