<?xml version="1.0" encoding="iso-8859-1"?>
<!-- Generator: Adobe Illustrator 26.0.3, SVG Export Plug-In . SVG Version: 6.00 Build 0)  -->
<svg version="1.1" xmlns="http://www.w3.org/2000/svg" xmlns:xlink="http://www.w3.org/1999/xlink" x="0px" y="0px"
	 viewBox="0 0 80 80" style="enable-background:new 0 0 80 80;" xml:space="preserve">
<g id="law_10">
	<g>
		<path style="fill-rule:evenodd;clip-rule:evenodd;fill:#FFFFFF;" d="M23.715,68.008c0.543,0.663,1.214,1.353,1.942,1.866
			l28.595-16.486c1.179-0.684,2.152-2.355,2.152-3.732l0.012-31.177l-7.919-6.096l-0.609-0.12l-8.591-0.145l-14.473,8.304
			c-0.404,0.232-0.772,0.546-1.11,0.931V68.008z"/>
		<linearGradient id="SVGID_1_" gradientUnits="userSpaceOnUse" x1="23.2616" y1="40.9986" x2="56.874" y2="40.9986">
			<stop  offset="0" style="stop-color:#894593"/>
			<stop  offset="0.5098" style="stop-color:#338ACA"/>
			<stop  offset="0.999" style="stop-color:#6A9F5B"/>
			<stop  offset="1" style="stop-color:#5F9F55"/>
		</linearGradient>
		<path style="fill-rule:evenodd;clip-rule:evenodd;fill:url(#SVGID_1_);" d="M24.172,67.842c0.497,0.594,1.013,1.098,1.517,1.49
			l28.336-16.339c1.043-0.601,1.927-2.129,1.927-3.336l0.012-30.952l-7.656-5.895l-0.508-0.097l-8.385-0.132l-14.361,8.238
			c-0.315,0.177-0.61,0.418-0.881,0.708V67.842L24.172,67.842z M25.657,70.332c-0.088,0-0.182-0.03-0.263-0.082
			c-0.853-0.605-1.579-1.396-2.033-1.955c-0.066-0.081-0.1-0.181-0.1-0.287V21.353c0-0.108,0.034-0.214,0.109-0.294
			c0.368-0.431,0.782-0.776,1.229-1.032l14.473-8.303c0.071-0.039,0.136-0.058,0.234-0.058l8.59,0.14l0.69,0.132
			c0.07,0.015,0.135,0.042,0.19,0.086l7.92,6.091c0.111,0.09,0.178,0.222,0.178,0.365l-0.013,31.177
			c0,1.545-1.046,3.356-2.385,4.127L25.887,70.27C25.817,70.313,25.74,70.332,25.657,70.332z"/>
		<path style="fill-rule:evenodd;clip-rule:evenodd;fill:#FFFFFF;" d="M51.421,24.146l3.986-2.3
			c1.967-1.074,3.056-2.021,1.075-3.564l-8.42-6.558l3.362,5.116L51.421,24.146z"/>
		
			<linearGradient id="SVGID_00000157308928073531148870000010436894419341821094_" gradientUnits="userSpaceOnUse" x1="47.6059" y1="17.9341" x2="57.9887" y2="17.9341">
			<stop  offset="0" style="stop-color:#894593"/>
			<stop  offset="0.5098" style="stop-color:#338ACA"/>
			<stop  offset="0.999" style="stop-color:#6A9F5B"/>
			<stop  offset="1" style="stop-color:#5F9F55"/>
		</linearGradient>
		<path style="fill-rule:evenodd;clip-rule:evenodd;fill:url(#SVGID_00000157308928073531148870000010436894419341821094_);" d="
			M49.958,13.78l1.847,2.808c0.049,0.073,0.077,0.162,0.077,0.252l-0.004,6.519l3.3-1.904c0.865-0.472,1.85-1.079,1.896-1.617
			c0.031-0.399-0.457-0.873-0.872-1.195L49.958,13.78L49.958,13.78z M51.421,24.603c-0.077,0-0.155-0.019-0.225-0.062
			c-0.144-0.08-0.229-0.229-0.229-0.395l0.003-7.17l-3.288-5.003c-0.124-0.187-0.093-0.435,0.07-0.587
			c0.163-0.15,0.412-0.162,0.589-0.023l8.42,6.562c0.876,0.682,1.276,1.33,1.223,1.986c-0.074,0.911-0.998,1.594-2.355,2.334
			l-3.979,2.295C51.58,24.584,51.503,24.603,51.421,24.603z"/>
		<path style="fill-rule:evenodd;clip-rule:evenodd;fill:#FFFFFF;" d="M25.657,69.875l-2.54-1.466
			c-0.554-0.458-0.588-0.74-0.65-1.439l0.011-42.575c0.066-1.537,0.927-3.025,2.222-3.848l15.687-9.051
			c2.32-1.307,3.599-1.966,6.333-0.66c2.224,1.067,4.217,3.282,4.705,6.004l-0.003,7.306l-2.731-1.57V18.77v-1.64
			c0.059-2.49-2.75-5.635-6.608-3.681l-14.839,8.563c-1.299,0.826-2.156,2.312-2.222,3.847l-0.015,42.579
			C25.072,69.137,25.103,69.421,25.657,69.875z"/>
		
			<linearGradient id="SVGID_00000061445577441411182330000002066070303602975105_" gradientUnits="userSpaceOnUse" x1="22.0113" y1="40" x2="51.8784" y2="40">
			<stop  offset="0" style="stop-color:#894593"/>
			<stop  offset="0.5098" style="stop-color:#338ACA"/>
			<stop  offset="0.999" style="stop-color:#6A9F5B"/>
			<stop  offset="1" style="stop-color:#5F9F55"/>
		</linearGradient>
		<path style="fill-rule:evenodd;clip-rule:evenodd;fill:url(#SVGID_00000061445577441411182330000002066070303602975105_);" d="
			M44.099,10.575c-1.086,0-2.048,0.504-3.49,1.315l-15.68,9.052c-1.147,0.725-1.935,2.091-1.994,3.471L22.92,66.969
			c0.057,0.609,0.069,0.744,0.484,1.086l1.172,0.675c-0.009-0.082-0.016-0.164-0.024-0.249l0.011-42.622
			c0.074-1.71,1.009-3.324,2.436-4.231l14.853-8.576c1.785-0.903,3.561-0.887,5.019,0.031c1.395,0.881,2.311,2.509,2.276,4.053
			l-0.003,5.173l1.822,1.047l0.003-6.519c-0.418-2.277-2.167-4.499-4.448-5.593C45.553,10.785,44.801,10.575,44.099,10.575
			L44.099,10.575z M25.657,70.332c-0.077,0-0.155-0.019-0.228-0.062l-2.54-1.469c-0.742-0.598-0.807-1.025-0.878-1.788l0.013-42.618
			c0.073-1.711,1.003-3.328,2.431-4.236L40.158,11.1c2.467-1.389,3.886-2.049,6.76-0.675c2.571,1.233,4.471,3.656,4.956,6.333
			l0.004,7.388c0,0.166-0.085,0.315-0.229,0.395c-0.14,0.083-0.314,0.083-0.454,0l-2.735-1.57c-0.143-0.085-0.229-0.233-0.229-0.395
			l0.003-5.45c0.028-1.224-0.733-2.567-1.853-3.269c-0.83-0.528-2.215-0.954-4.094,0l-14.815,8.551
			c-1.163,0.74-1.936,2.075-1.998,3.472l-0.011,42.559c0.059,0.606,0.07,0.746,0.485,1.083c0.181,0.15,0.221,0.418,0.085,0.613
			C25.945,70.262,25.801,70.332,25.657,70.332z"/>
		<path style="fill-rule:evenodd;clip-rule:evenodd;fill:#FFFFFF;" d="M25.657,69.875l-2.54-1.466
			c-0.554-0.458-0.588-0.74-0.65-1.439l0.011-42.575c0.019-0.415,0.066-0.687,0.175-1.086l2.54,1.469
			c-0.105,0.399-0.151,0.672-0.171,1.082l-0.015,42.579C25.072,69.133,25.103,69.421,25.657,69.875z"/>
		
			<linearGradient id="SVGID_00000021106684318232589620000017043630242224522386_" gradientUnits="userSpaceOnUse" x1="22.0113" y1="46.5924" x2="26.1143" y2="46.5924">
			<stop  offset="0" style="stop-color:#894593"/>
			<stop  offset="0.5098" style="stop-color:#338ACA"/>
			<stop  offset="0.999" style="stop-color:#6A9F5B"/>
			<stop  offset="1" style="stop-color:#5F9F55"/>
		</linearGradient>
		<path style="fill-rule:evenodd;clip-rule:evenodd;fill:url(#SVGID_00000021106684318232589620000017043630242224522386_);" d="
			M22.966,24.018c-0.014,0.12-0.026,0.248-0.031,0.395L22.92,66.969c0.057,0.609,0.069,0.744,0.484,1.086l1.172,0.675
			c-0.009-0.082-0.016-0.164-0.024-0.249l0.011-42.622c0.016-0.329,0.047-0.574,0.105-0.861L22.966,24.018L22.966,24.018z
			 M25.657,70.332c-0.077,0-0.155-0.019-0.228-0.062l-2.54-1.469c-0.742-0.598-0.807-1.025-0.878-1.788l0.013-42.618
			c0.019-0.455,0.065-0.753,0.186-1.203c0.039-0.139,0.136-0.252,0.267-0.306c0.132-0.05,0.28-0.044,0.4,0.027l2.543,1.469
			c0.179,0.101,0.264,0.315,0.214,0.512c-0.105,0.384-0.144,0.625-0.16,0.986l-0.011,42.559c0.059,0.606,0.07,0.741,0.485,1.083
			c0.181,0.15,0.221,0.418,0.081,0.613C25.945,70.262,25.801,70.332,25.657,70.332z"/>
		<path style="fill-rule:evenodd;clip-rule:evenodd;fill:#FFFFFF;" d="M48.892,44.1c-1.155,0.666-2.098,2.295-2.098,3.633
			c0,1.339,0.943,1.881,2.098,1.215c1.16-0.671,2.098-2.301,2.098-3.638C50.99,43.971,50.052,43.428,48.892,44.1z"/>
		
			<linearGradient id="SVGID_00000126325850634170944250000005687775076248782774_" gradientUnits="userSpaceOnUse" x1="46.3364" y1="46.5208" x2="51.4481" y2="46.5208">
			<stop  offset="0" style="stop-color:#894593"/>
			<stop  offset="0.5098" style="stop-color:#338ACA"/>
			<stop  offset="0.999" style="stop-color:#6A9F5B"/>
			<stop  offset="1" style="stop-color:#5F9F55"/>
		</linearGradient>
		<path style="fill-rule:evenodd;clip-rule:evenodd;fill:url(#SVGID_00000126325850634170944250000005687775076248782774_);" d="
			M49.121,44.496c-1.013,0.585-1.869,2.07-1.869,3.237c0,0.473,0.139,0.823,0.388,0.967c0.244,0.14,0.616,0.085,1.027-0.148
			c1.012-0.585,1.869-2.071,1.869-3.242c0-0.469-0.139-0.822-0.387-0.962C49.905,44.204,49.528,44.258,49.121,44.496L49.121,44.496
			L49.121,44.496z M47.957,49.688c-0.282,0-0.542-0.065-0.775-0.202c-0.543-0.314-0.846-0.935-0.846-1.754
			c0-1.504,1.024-3.273,2.327-4.029h0.004c0.709-0.408,1.399-0.461,1.939-0.148c0.543,0.315,0.842,0.94,0.842,1.754
			c0,1.505-1.024,3.278-2.327,4.034C48.718,49.571,48.322,49.688,47.957,49.688z"/>
		
			<linearGradient id="SVGID_00000152255333072397873480000006718047849025580426_" gradientUnits="userSpaceOnUse" x1="30.0146" y1="43.3156" x2="45.912" y2="43.3156">
			<stop  offset="0" style="stop-color:#894593"/>
			<stop  offset="0.5098" style="stop-color:#338ACA"/>
			<stop  offset="0.999" style="stop-color:#6A9F5B"/>
			<stop  offset="1" style="stop-color:#5F9F55"/>
		</linearGradient>
		<path style="fill-rule:evenodd;clip-rule:evenodd;fill:url(#SVGID_00000152255333072397873480000006718047849025580426_);" d="
			M30.47,48.097c-0.159,0-0.31-0.081-0.396-0.224c-0.123-0.221-0.049-0.5,0.168-0.625l14.989-8.652
			c0.214-0.128,0.496-0.054,0.62,0.163c0.124,0.22,0.052,0.499-0.166,0.623l-14.989,8.653C30.626,48.078,30.548,48.097,30.47,48.097
			z"/>
		
			<linearGradient id="SVGID_00000088853555763206774410000016276761082110982822_" gradientUnits="userSpaceOnUse" x1="30.0146" y1="37.5055" x2="49.9566" y2="37.5055">
			<stop  offset="0" style="stop-color:#894593"/>
			<stop  offset="0.5098" style="stop-color:#338ACA"/>
			<stop  offset="0.999" style="stop-color:#6A9F5B"/>
			<stop  offset="1" style="stop-color:#5F9F55"/>
		</linearGradient>
		<path style="fill-rule:evenodd;clip-rule:evenodd;fill:url(#SVGID_00000088853555763206774410000016276761082110982822_);" d="
			M30.47,43.456c-0.159,0-0.31-0.082-0.396-0.229c-0.123-0.217-0.049-0.497,0.168-0.625l19.03-10.987
			c0.218-0.125,0.497-0.049,0.625,0.167c0.125,0.217,0.05,0.496-0.166,0.624L30.696,43.394
			C30.626,43.436,30.548,43.456,30.47,43.456z"/>
		
			<linearGradient id="SVGID_00000146491549962131224790000012614083429435120514_" gradientUnits="userSpaceOnUse" x1="30.0146" y1="33.1341" x2="49.9566" y2="33.1341">
			<stop  offset="0" style="stop-color:#894593"/>
			<stop  offset="0.5098" style="stop-color:#338ACA"/>
			<stop  offset="0.999" style="stop-color:#6A9F5B"/>
			<stop  offset="1" style="stop-color:#5F9F55"/>
		</linearGradient>
		<path style="fill-rule:evenodd;clip-rule:evenodd;fill:url(#SVGID_00000146491549962131224790000012614083429435120514_);" d="
			M30.47,39.085c-0.159,0-0.31-0.08-0.396-0.229c-0.123-0.217-0.049-0.496,0.168-0.625l19.03-10.987
			c0.218-0.123,0.497-0.054,0.625,0.167c0.125,0.217,0.05,0.496-0.166,0.625L30.696,39.022
			C30.626,39.065,30.548,39.085,30.47,39.085z"/>
		
			<linearGradient id="SVGID_00000163766326160895810110000004745700840443936439_" gradientUnits="userSpaceOnUse" x1="30.0146" y1="55.0505" x2="35.8747" y2="55.0505">
			<stop  offset="0" style="stop-color:#894593"/>
			<stop  offset="0.5098" style="stop-color:#338ACA"/>
			<stop  offset="0.999" style="stop-color:#6A9F5B"/>
			<stop  offset="1" style="stop-color:#5F9F55"/>
		</linearGradient>
		<path style="fill-rule:evenodd;clip-rule:evenodd;fill:url(#SVGID_00000163766326160895810110000004745700840443936439_);" d="
			M30.47,56.936c-0.159,0-0.31-0.081-0.396-0.225c-0.123-0.22-0.049-0.5,0.168-0.625l4.953-2.861c0.214-0.124,0.493-0.05,0.62,0.17
			c0.123,0.218,0.05,0.497-0.166,0.621l-4.953,2.859C30.626,56.917,30.548,56.936,30.47,56.936z"/>
		
			<linearGradient id="SVGID_00000053539422784451384470000008270641731330189220_" gradientUnits="userSpaceOnUse" x1="30.0146" y1="24.9604" x2="39.7959" y2="24.9604">
			<stop  offset="0" style="stop-color:#894593"/>
			<stop  offset="0.5098" style="stop-color:#338ACA"/>
			<stop  offset="0.999" style="stop-color:#6A9F5B"/>
			<stop  offset="1" style="stop-color:#5F9F55"/>
		</linearGradient>
		<path style="fill-rule:evenodd;clip-rule:evenodd;fill:url(#SVGID_00000053539422784451384470000008270641731330189220_);" d="
			M30.47,27.977c-0.159,0-0.31-0.081-0.396-0.229c-0.123-0.217-0.049-0.496,0.168-0.625l8.873-5.119
			c0.214-0.124,0.493-0.054,0.621,0.166c0.123,0.218,0.049,0.497-0.167,0.621l-8.873,5.122
			C30.626,27.959,30.548,27.977,30.47,27.977z"/>
		
			<linearGradient id="SVGID_00000054945167958041358560000012184120093788853689_" gradientUnits="userSpaceOnUse" x1="44.9938" y1="46.5229" x2="52.7897" y2="46.5229">
			<stop  offset="0" style="stop-color:#894593"/>
			<stop  offset="0.5098" style="stop-color:#338ACA"/>
			<stop  offset="0.999" style="stop-color:#6A9F5B"/>
			<stop  offset="1" style="stop-color:#5F9F55"/>
		</linearGradient>
		<path style="fill-rule:evenodd;clip-rule:evenodd;fill:url(#SVGID_00000054945167958041358560000012184120093788853689_);" d="
			M49.121,42.944c-1.773,1.024-3.215,3.517-3.215,5.564c0,0.892,0.279,1.544,0.784,1.831c0.5,0.291,1.202,0.205,1.974-0.236
			c1.772-1.025,3.215-3.522,3.215-5.57c0-0.892-0.276-1.543-0.779-1.83C50.599,42.412,49.893,42.497,49.121,42.944L49.121,42.944
			L49.121,42.944z M47.357,51.425c-0.408,0-0.788-0.098-1.126-0.295c-0.794-0.461-1.237-1.388-1.237-2.622
			c0-2.376,1.614-5.165,3.674-6.355l0,0c1.066-0.617,2.089-0.699,2.885-0.24c0.799,0.46,1.238,1.392,1.238,2.621
			c0,2.378-1.613,5.17-3.668,6.357C48.509,51.247,47.908,51.425,47.357,51.425z"/>
	</g>
</g>
<g id="Layer_1">
</g>
</svg>
