<?xml version="1.0" encoding="iso-8859-1"?>
<!-- Generator: Adobe Illustrator 26.0.3, SVG Export Plug-In . SVG Version: 6.00 Build 0)  -->
<svg version="1.1" xmlns="http://www.w3.org/2000/svg" xmlns:xlink="http://www.w3.org/1999/xlink" x="0px" y="0px"
	 viewBox="0 0 80 80" style="enable-background:new 0 0 80 80;" xml:space="preserve">
<g id="Shopping_25">
	<g>
		<polygon style="fill-rule:evenodd;clip-rule:evenodd;fill:#FFFFFF;" points="66.82,28.716 40.094,13.286 13.179,28.829 
			39.902,44.255 		"/>
		<linearGradient id="SVGID_1_" gradientUnits="userSpaceOnUse" x1="12.7233" y1="28.7709" x2="67.2661" y2="28.7709">
			<stop  offset="0" style="stop-color:#894593"/>
			<stop  offset="0.5098" style="stop-color:#338ACA"/>
			<stop  offset="0.999" style="stop-color:#6A9F5B"/>
			<stop  offset="1" style="stop-color:#5F9F55"/>
		</linearGradient>
		<path style="fill-rule:evenodd;clip-rule:evenodd;fill:url(#SVGID_1_);" d="M14.074,28.829l25.828,14.908l26.012-15.021
			l-25.82-14.908L14.074,28.829L14.074,28.829z M39.902,44.708c-0.072,0-0.15-0.023-0.226-0.062L12.953,29.219
			c-0.141-0.083-0.229-0.229-0.229-0.39c0-0.161,0.088-0.311,0.229-0.392l26.914-15.543c0.139-0.081,0.32-0.081,0.458,0
			l26.722,15.431c0.141,0.081,0.22,0.231,0.22,0.391c0,0.158-0.079,0.311-0.22,0.389L40.121,44.647
			C40.056,44.685,39.979,44.708,39.902,44.708z"/>
		<polygon style="fill-rule:evenodd;clip-rule:evenodd;fill:#FFFFFF;" points="39.902,44.255 13.179,28.829 13.179,56.062 
			39.902,71.488 		"/>
		
			<linearGradient id="SVGID_00000049924313792658083980000001049137454821120917_" gradientUnits="userSpaceOnUse" x1="12.7233" y1="50.1591" x2="40.3469" y2="50.1591">
			<stop  offset="0" style="stop-color:#894593"/>
			<stop  offset="0.5098" style="stop-color:#338ACA"/>
			<stop  offset="0.999" style="stop-color:#6A9F5B"/>
			<stop  offset="1" style="stop-color:#5F9F55"/>
		</linearGradient>
		<path style="fill-rule:evenodd;clip-rule:evenodd;fill:url(#SVGID_00000049924313792658083980000001049137454821120917_);" d="
			M13.63,55.8l25.815,14.905V44.517L13.63,29.611V55.8L13.63,55.8z M39.902,71.942c-0.072,0-0.15-0.02-0.226-0.062L12.953,56.452
			c-0.141-0.08-0.229-0.229-0.229-0.391V28.829c0-0.161,0.088-0.311,0.229-0.392c0.138-0.081,0.304-0.081,0.446,0l26.722,15.427
			c0.138,0.081,0.226,0.231,0.226,0.391v27.234c0,0.165-0.088,0.31-0.226,0.392C40.056,71.922,39.979,71.942,39.902,71.942z"/>
		<polygon style="fill-rule:evenodd;clip-rule:evenodd;fill:#FFFFFF;" points="66.82,55.95 66.82,28.713 39.902,44.255 
			39.902,71.492 		"/>
		
			<linearGradient id="SVGID_00000183940043240792295480000017911435364955101341_" gradientUnits="userSpaceOnUse" x1="39.445" y1="50.1033" x2="67.2661" y2="50.1033">
			<stop  offset="0" style="stop-color:#894593"/>
			<stop  offset="0.5098" style="stop-color:#338ACA"/>
			<stop  offset="0.999" style="stop-color:#6A9F5B"/>
			<stop  offset="1" style="stop-color:#5F9F55"/>
		</linearGradient>
		<path style="fill-rule:evenodd;clip-rule:evenodd;fill:url(#SVGID_00000183940043240792295480000017911435364955101341_);" d="
			M40.347,44.517v26.191l26.013-15.02V29.497L40.347,44.517L40.347,44.517z M39.902,71.942c-0.072,0-0.15-0.02-0.226-0.062
			c-0.142-0.082-0.231-0.227-0.231-0.388V44.255c0-0.157,0.088-0.307,0.231-0.387l26.914-15.543c0.138-0.081,0.319-0.081,0.445,0
			c0.153,0.081,0.232,0.231,0.232,0.388V55.95c0,0.16-0.079,0.311-0.22,0.392L40.121,71.88
			C40.056,71.922,39.979,71.942,39.902,71.942z"/>
		<polygon style="fill-rule:evenodd;clip-rule:evenodd;fill:#FFFFFF;" points="26.809,20.957 40.094,13.286 66.82,28.716 
			53.532,36.388 		"/>
		
			<linearGradient id="SVGID_00000037670445127984113380000001914662251310718632_" gradientUnits="userSpaceOnUse" x1="26.3524" y1="24.8372" x2="67.2661" y2="24.8372">
			<stop  offset="0" style="stop-color:#894593"/>
			<stop  offset="0.5098" style="stop-color:#338ACA"/>
			<stop  offset="0.999" style="stop-color:#6A9F5B"/>
			<stop  offset="1" style="stop-color:#5F9F55"/>
		</linearGradient>
		<path style="fill-rule:evenodd;clip-rule:evenodd;fill:url(#SVGID_00000037670445127984113380000001914662251310718632_);" d="
			M27.716,20.957l25.816,14.909l12.382-7.15l-25.82-14.908L27.716,20.957L27.716,20.957z M53.532,36.841
			c-0.072,0-0.15-0.023-0.226-0.061L26.583,21.349c-0.141-0.081-0.231-0.231-0.231-0.392c0-0.161,0.089-0.307,0.231-0.391
			l13.284-7.672c0.139-0.081,0.32-0.081,0.458,0l26.722,15.431c0.141,0.081,0.22,0.231,0.22,0.391c0,0.158-0.079,0.311-0.22,0.389
			L53.751,36.78C53.686,36.817,53.608,36.841,53.532,36.841z"/>
		<polygon style="fill-rule:evenodd;clip-rule:evenodd;fill:#FFFFFF;" points="13.179,28.829 26.465,21.157 53.19,36.584 
			39.902,44.255 		"/>
		
			<linearGradient id="SVGID_00000002346124067034939630000012757174330392834691_" gradientUnits="userSpaceOnUse" x1="12.7233" y1="32.7066" x2="53.636" y2="32.7066">
			<stop  offset="0" style="stop-color:#894593"/>
			<stop  offset="0.5098" style="stop-color:#338ACA"/>
			<stop  offset="0.999" style="stop-color:#6A9F5B"/>
			<stop  offset="1" style="stop-color:#5F9F55"/>
		</linearGradient>
		<path style="fill-rule:evenodd;clip-rule:evenodd;fill:url(#SVGID_00000002346124067034939630000012757174330392834691_);" d="
			M14.074,28.829l25.828,14.908l12.382-7.153L26.465,21.675L14.074,28.829L14.074,28.829z M39.902,44.708
			c-0.072,0-0.15-0.023-0.226-0.062L12.953,29.219c-0.141-0.083-0.229-0.229-0.229-0.39c0-0.161,0.088-0.311,0.229-0.392
			l13.284-7.672c0.139-0.08,0.304-0.08,0.446,0l26.722,15.428c0.154,0.08,0.232,0.229,0.232,0.391c0,0.163-0.078,0.311-0.232,0.392
			l-13.284,7.671C40.056,44.685,39.979,44.708,39.902,44.708z"/>
		<polygon style="fill-rule:evenodd;clip-rule:evenodd;fill:#FFFFFF;" points="24.303,22.404 28.963,19.709 55.685,35.141 
			51.024,37.832 		"/>
		
			<linearGradient id="SVGID_00000008114232158713403420000013947629195419434916_" gradientUnits="userSpaceOnUse" x1="23.8535" y1="28.7731" x2="56.1466" y2="28.7731">
			<stop  offset="0" style="stop-color:#894593"/>
			<stop  offset="0.5098" style="stop-color:#338ACA"/>
			<stop  offset="0.999" style="stop-color:#6A9F5B"/>
			<stop  offset="1" style="stop-color:#5F9F55"/>
		</linearGradient>
		<path style="fill-rule:evenodd;clip-rule:evenodd;fill:url(#SVGID_00000008114232158713403420000013947629195419434916_);" d="
			M25.204,22.404l25.821,14.905l3.755-2.168L28.963,20.232L25.204,22.404L25.204,22.404z M51.024,38.285
			c-0.077,0-0.153-0.022-0.23-0.062l-26.712-15.43c-0.138-0.081-0.229-0.231-0.229-0.389c0-0.163,0.091-0.31,0.229-0.391
			l4.665-2.691c0.138-0.081,0.304-0.081,0.446,0l26.721,15.427c0.138,0.081,0.231,0.231,0.231,0.392c0,0.16-0.092,0.31-0.231,0.391
			l-4.665,2.691C51.174,38.262,51.101,38.285,51.024,38.285z"/>
		<polygon style="fill-rule:evenodd;clip-rule:evenodd;fill:#FFFFFF;" points="55.29,22.06 50.629,19.368 23.704,34.906 
			28.376,37.601 		"/>
		
			<linearGradient id="SVGID_00000037670822784166435390000009866561657437789611_" gradientUnits="userSpaceOnUse" x1="23.2585" y1="28.4836" x2="55.7354" y2="28.4836">
			<stop  offset="0" style="stop-color:#894593"/>
			<stop  offset="0.5098" style="stop-color:#338ACA"/>
			<stop  offset="0.999" style="stop-color:#6A9F5B"/>
			<stop  offset="1" style="stop-color:#5F9F55"/>
		</linearGradient>
		<path style="fill-rule:evenodd;clip-rule:evenodd;fill:url(#SVGID_00000037670822784166435390000009866561657437789611_);" d="
			M24.606,34.906l3.771,2.174l26.012-15.02l-3.759-2.174L24.606,34.906L24.606,34.906z M28.376,38.051
			c-0.088,0-0.165-0.02-0.231-0.057l-4.661-2.695c-0.138-0.082-0.226-0.231-0.226-0.392c0-0.157,0.088-0.31,0.226-0.388
			l26.914-15.541c0.142-0.081,0.307-0.081,0.445,0l4.665,2.691c0.138,0.081,0.226,0.231,0.226,0.392c0,0.16-0.088,0.31-0.226,0.391
			L28.595,37.993C28.529,38.031,28.453,38.051,28.376,38.051z"/>
		<polygon style="fill-rule:evenodd;clip-rule:evenodd;fill:#FFFFFF;" points="23.704,34.906 28.365,37.598 28.365,64.831 
			23.704,62.139 		"/>
		
			<linearGradient id="SVGID_00000056411185684918142300000004404634814754861188_" gradientUnits="userSpaceOnUse" x1="23.2585" y1="49.8706" x2="28.8247" y2="49.8706">
			<stop  offset="0" style="stop-color:#894593"/>
			<stop  offset="0.5098" style="stop-color:#338ACA"/>
			<stop  offset="0.999" style="stop-color:#6A9F5B"/>
			<stop  offset="1" style="stop-color:#5F9F55"/>
		</linearGradient>
		<path style="fill-rule:evenodd;clip-rule:evenodd;fill:url(#SVGID_00000056411185684918142300000004404634814754861188_);" d="
			M24.161,61.878l3.759,2.168V37.859l-3.759-2.17V61.878L24.161,61.878z M28.365,65.284c-0.076,0-0.153-0.023-0.219-0.062
			l-4.661-2.691c-0.138-0.081-0.226-0.231-0.226-0.392V34.906c0-0.157,0.088-0.31,0.226-0.388c0.141-0.081,0.307-0.081,0.445,0
			l4.665,2.691c0.138,0.082,0.229,0.231,0.229,0.389v27.233c0,0.161-0.091,0.31-0.229,0.391
			C28.518,65.26,28.441,65.284,28.365,65.284z"/>
		<polygon style="fill-rule:evenodd;clip-rule:evenodd;fill:#FFFFFF;" points="55.685,35.141 51.024,37.832 51.024,65.06 
			55.685,62.373 		"/>
		
			<linearGradient id="SVGID_00000026873664880573513910000015406300083341282207_" gradientUnits="userSpaceOnUse" x1="50.5794" y1="50.1012" x2="56.1466" y2="50.1012">
			<stop  offset="0" style="stop-color:#894593"/>
			<stop  offset="0.5098" style="stop-color:#338ACA"/>
			<stop  offset="0.999" style="stop-color:#6A9F5B"/>
			<stop  offset="1" style="stop-color:#5F9F55"/>
		</linearGradient>
		<path style="fill-rule:evenodd;clip-rule:evenodd;fill:url(#SVGID_00000026873664880573513910000015406300083341282207_);" d="
			M51.481,38.092v26.189l3.759-2.169V35.923L51.481,38.092L51.481,38.092z M51.024,65.514c-0.077,0-0.153-0.019-0.219-0.062
			c-0.137-0.081-0.226-0.226-0.226-0.392V37.832c0-0.163,0.089-0.311,0.226-0.392l4.661-2.691c0.142-0.081,0.307-0.081,0.449,0
			c0.138,0.081,0.231,0.231,0.231,0.392v27.233c0,0.161-0.092,0.31-0.231,0.392l-4.665,2.687
			C51.189,65.495,51.113,65.514,51.024,65.514z"/>
		<polygon style="fill-rule:evenodd;clip-rule:evenodd;fill:#FFFFFF;" points="69.108,25.258 40.109,8.506 10.876,25.38 
			39.89,42.132 		"/>
		
			<linearGradient id="SVGID_00000054263828809620232840000009789507225256797312_" gradientUnits="userSpaceOnUse" x1="10.4305" y1="25.3212" x2="69.5695" y2="25.3212">
			<stop  offset="0" style="stop-color:#894593"/>
			<stop  offset="0.5098" style="stop-color:#338ACA"/>
			<stop  offset="0.999" style="stop-color:#6A9F5B"/>
			<stop  offset="1" style="stop-color:#5F9F55"/>
		</linearGradient>
		<path style="fill-rule:evenodd;clip-rule:evenodd;fill:url(#SVGID_00000054263828809620232840000009789507225256797312_);" d="
			M11.779,25.38L39.89,41.61l28.316-16.352L40.109,9.032L11.779,25.38L11.779,25.38z M39.89,42.584
			c-0.077,0-0.153-0.019-0.226-0.061L10.645,25.772c-0.137-0.08-0.215-0.231-0.215-0.392c0-0.157,0.078-0.311,0.215-0.392
			L39.878,8.119c0.143-0.081,0.308-0.081,0.446,0l29.013,16.75c0.142,0.082,0.232,0.231,0.232,0.389
			c0,0.161-0.089,0.311-0.232,0.391L40.121,42.524C40.044,42.565,39.968,42.584,39.89,42.584z"/>
		<polygon style="fill-rule:evenodd;clip-rule:evenodd;fill:#FFFFFF;" points="39.89,42.132 10.876,25.38 10.876,32.284 
			39.89,49.034 		"/>
		
			<linearGradient id="SVGID_00000142892280639712801340000011821536260598318774_" gradientUnits="userSpaceOnUse" x1="10.4305" y1="37.2082" x2="40.3469" y2="37.2082">
			<stop  offset="0" style="stop-color:#894593"/>
			<stop  offset="0.5098" style="stop-color:#338ACA"/>
			<stop  offset="0.999" style="stop-color:#6A9F5B"/>
			<stop  offset="1" style="stop-color:#5F9F55"/>
		</linearGradient>
		<path style="fill-rule:evenodd;clip-rule:evenodd;fill:url(#SVGID_00000142892280639712801340000011821536260598318774_);" d="
			M11.333,32.023l28.112,16.233v-5.864L11.333,26.164V32.023L11.333,32.023z M39.89,49.488c-0.077,0-0.153-0.019-0.226-0.062
			L10.645,32.676c-0.137-0.081-0.215-0.231-0.215-0.392V25.38c0-0.157,0.078-0.311,0.215-0.392c0.142-0.08,0.319-0.08,0.461,0
			l29.014,16.757c0.138,0.076,0.226,0.225,0.226,0.387v6.903c0,0.163-0.088,0.312-0.226,0.392
			C40.044,49.469,39.968,49.488,39.89,49.488z"/>
		<polygon style="fill-rule:evenodd;clip-rule:evenodd;fill:#FFFFFF;" points="69.108,32.162 69.108,25.258 39.89,42.132 
			39.89,49.034 		"/>
		
			<linearGradient id="SVGID_00000106131706597955338790000008599359689287884176_" gradientUnits="userSpaceOnUse" x1="39.445" y1="37.1467" x2="69.5695" y2="37.1467">
			<stop  offset="0" style="stop-color:#894593"/>
			<stop  offset="0.5098" style="stop-color:#338ACA"/>
			<stop  offset="0.999" style="stop-color:#6A9F5B"/>
			<stop  offset="1" style="stop-color:#5F9F55"/>
		</linearGradient>
		<path style="fill-rule:evenodd;clip-rule:evenodd;fill:url(#SVGID_00000106131706597955338790000008599359689287884176_);" d="
			M40.347,42.392v5.859l28.316-16.348v-5.863L40.347,42.392L40.347,42.392z M39.89,49.485c-0.077,0-0.153-0.019-0.226-0.058
			c-0.141-0.08-0.219-0.229-0.219-0.392v-6.903c0-0.161,0.078-0.31,0.219-0.387l29.229-16.879c0.142-0.076,0.308-0.076,0.445,0
			c0.142,0.081,0.232,0.231,0.232,0.392v6.904c0,0.165-0.089,0.314-0.232,0.391L40.121,49.427
			C40.044,49.466,39.968,49.485,39.89,49.485z"/>
		<polygon style="fill-rule:evenodd;clip-rule:evenodd;fill:#FFFFFF;" points="25.678,16.838 40.109,8.506 69.108,25.258 
			54.691,33.589 		"/>
		
			<linearGradient id="SVGID_00000128458502372567219300000002423299743014208702_" gradientUnits="userSpaceOnUse" x1="25.2315" y1="21.0486" x2="69.5695" y2="21.0486">
			<stop  offset="0" style="stop-color:#894593"/>
			<stop  offset="0.5098" style="stop-color:#338ACA"/>
			<stop  offset="0.999" style="stop-color:#6A9F5B"/>
			<stop  offset="1" style="stop-color:#5F9F55"/>
		</linearGradient>
		<path style="fill-rule:evenodd;clip-rule:evenodd;fill:url(#SVGID_00000128458502372567219300000002423299743014208702_);" d="
			M26.583,16.838l28.108,16.229l13.515-7.809L40.109,9.032L26.583,16.838L26.583,16.838z M54.691,34.039
			c-0.077,0-0.149-0.019-0.226-0.058L25.446,17.23c-0.138-0.081-0.215-0.231-0.215-0.392s0.076-0.311,0.215-0.392l14.432-8.327
			c0.143-0.081,0.308-0.081,0.446,0l29.013,16.75c0.142,0.082,0.232,0.231,0.232,0.389c0,0.161-0.089,0.311-0.232,0.391
			l-14.427,8.332C54.846,34.02,54.768,34.039,54.691,34.039z"/>
		<polygon style="fill-rule:evenodd;clip-rule:evenodd;fill:#FFFFFF;" points="10.876,25.38 25.308,17.053 54.322,33.804 
			39.89,42.132 		"/>
		
			<linearGradient id="SVGID_00000087413931542551745000000015390135602286883714_" gradientUnits="userSpaceOnUse" x1="10.4305" y1="29.5922" x2="54.7675" y2="29.5922">
			<stop  offset="0" style="stop-color:#894593"/>
			<stop  offset="0.5098" style="stop-color:#338ACA"/>
			<stop  offset="0.999" style="stop-color:#6A9F5B"/>
			<stop  offset="1" style="stop-color:#5F9F55"/>
		</linearGradient>
		<path style="fill-rule:evenodd;clip-rule:evenodd;fill:url(#SVGID_00000087413931542551745000000015390135602286883714_);" d="
			M11.779,25.38L39.89,41.61l13.526-7.806L25.308,17.575L11.779,25.38L11.779,25.38z M39.89,42.581
			c-0.077,0-0.153-0.019-0.226-0.057L10.661,25.772c-0.142-0.08-0.231-0.231-0.231-0.392c0-0.161,0.088-0.311,0.231-0.392
			l14.417-8.327c0.138-0.076,0.303-0.076,0.444,0l29.02,16.753c0.137,0.08,0.225,0.229,0.225,0.391c0,0.157-0.088,0.311-0.225,0.388
			l-14.422,8.332C40.044,42.562,39.968,42.581,39.89,42.581z"/>
		<polygon style="fill-rule:evenodd;clip-rule:evenodd;fill:#FFFFFF;" points="22.962,18.404 28.019,15.484 57.037,32.234 
			51.965,35.16 		"/>
		
			<linearGradient id="SVGID_00000181052863621711124940000013207713368288596927_" gradientUnits="userSpaceOnUse" x1="22.5053" y1="25.3208" x2="57.4831" y2="25.3208">
			<stop  offset="0" style="stop-color:#894593"/>
			<stop  offset="0.5098" style="stop-color:#338ACA"/>
			<stop  offset="0.999" style="stop-color:#6A9F5B"/>
			<stop  offset="1" style="stop-color:#5F9F55"/>
		</linearGradient>
		<path style="fill-rule:evenodd;clip-rule:evenodd;fill:url(#SVGID_00000181052863621711124940000013207713368288596927_);" d="
			M23.868,18.404l28.097,16.233l4.166-2.403L28.019,16.005L23.868,18.404L23.868,18.404z M51.965,35.608
			c-0.076,0-0.153-0.019-0.215-0.062l-29.014-16.75c-0.141-0.081-0.231-0.231-0.231-0.392c0-0.16,0.089-0.307,0.231-0.388
			l5.056-2.925c0.138-0.078,0.319-0.078,0.457,0l29.016,16.755c0.141,0.076,0.219,0.226,0.219,0.388c0,0.161-0.078,0.31-0.219,0.392
			l-5.069,2.921C52.131,35.589,52.054,35.608,51.965,35.608z"/>
		<polygon style="fill-rule:evenodd;clip-rule:evenodd;fill:#FFFFFF;" points="56.603,18.032 51.532,15.111 22.313,31.984 
			27.37,34.906 		"/>
		
			<linearGradient id="SVGID_00000114761254585968335770000009852246134529322401_" gradientUnits="userSpaceOnUse" x1="21.8571" y1="25.0066" x2="57.0486" y2="25.0066">
			<stop  offset="0" style="stop-color:#894593"/>
			<stop  offset="0.5098" style="stop-color:#338ACA"/>
			<stop  offset="0.999" style="stop-color:#6A9F5B"/>
			<stop  offset="1" style="stop-color:#5F9F55"/>
		</linearGradient>
		<path style="fill-rule:evenodd;clip-rule:evenodd;fill:url(#SVGID_00000114761254585968335770000009852246134529322401_);" d="
			M23.219,31.984l4.151,2.4l28.327-16.352l-4.165-2.404L23.219,31.984L23.219,31.984z M27.37,35.355
			c-0.077,0-0.154-0.02-0.215-0.057l-5.072-2.926c-0.138-0.081-0.226-0.226-0.226-0.388s0.088-0.311,0.226-0.392l29.232-16.874
			c0.127-0.081,0.308-0.081,0.446,0l5.057,2.922c0.141,0.081,0.229,0.231,0.229,0.392c0,0.16-0.088,0.31-0.229,0.392L27.601,35.298
			C27.535,35.335,27.447,35.355,27.37,35.355z"/>
		<polygon style="fill-rule:evenodd;clip-rule:evenodd;fill:#FFFFFF;" points="22.313,31.984 27.37,34.906 27.37,41.806 
			22.313,38.887 		"/>
		
			<linearGradient id="SVGID_00000094595747743945323330000009775600853507498662_" gradientUnits="userSpaceOnUse" x1="21.8571" y1="36.8955" x2="27.8313" y2="36.8955">
			<stop  offset="0" style="stop-color:#894593"/>
			<stop  offset="0.5098" style="stop-color:#338ACA"/>
			<stop  offset="0.999" style="stop-color:#6A9F5B"/>
			<stop  offset="1" style="stop-color:#5F9F55"/>
		</linearGradient>
		<path style="fill-rule:evenodd;clip-rule:evenodd;fill:url(#SVGID_00000094595747743945323330000009775600853507498662_);" d="
			M22.759,38.627l4.166,2.399v-5.863l-4.166-2.4V38.627L22.759,38.627z M27.37,42.259c-0.077,0-0.154-0.02-0.231-0.062l-5.056-2.923
			c-0.138-0.081-0.226-0.225-0.226-0.388v-6.903c0-0.161,0.088-0.311,0.226-0.392c0.142-0.081,0.319-0.081,0.446,0l5.071,2.919
			c0.138,0.085,0.23,0.235,0.23,0.395v6.899c0,0.16-0.092,0.311-0.23,0.392C27.523,42.239,27.447,42.259,27.37,42.259z"/>
		<polygon style="fill-rule:evenodd;clip-rule:evenodd;fill:#FFFFFF;" points="57.037,32.234 51.965,35.155 51.977,42.058 
			57.037,39.138 		"/>
		
			<linearGradient id="SVGID_00000005970835497840647750000002674153361495512488_" gradientUnits="userSpaceOnUse" x1="51.5207" y1="37.1489" x2="57.4938" y2="37.1489">
			<stop  offset="0" style="stop-color:#894593"/>
			<stop  offset="0.5098" style="stop-color:#338ACA"/>
			<stop  offset="0.999" style="stop-color:#6A9F5B"/>
			<stop  offset="1" style="stop-color:#5F9F55"/>
		</linearGradient>
		<path style="fill-rule:evenodd;clip-rule:evenodd;fill:url(#SVGID_00000005970835497840647750000002674153361495512488_);" d="
			M52.427,35.417v5.863l4.165-2.404l-0.015-5.858L52.427,35.417L52.427,35.417z M51.977,42.512c-0.088,0-0.165-0.022-0.226-0.062
			c-0.141-0.081-0.229-0.231-0.229-0.392v-6.904c0-0.16,0.088-0.306,0.229-0.39l5.056-2.919c0.142-0.081,0.319-0.081,0.458,0
			c0.141,0.076,0.219,0.226,0.219,0.388l0.011,6.904c0,0.16-0.088,0.31-0.229,0.391l-5.069,2.922
			C52.131,42.49,52.054,42.512,51.977,42.512z"/>
		<path style="fill-rule:evenodd;clip-rule:evenodd;fill:#FFFFFF;" d="M41.572,24.97l-4.316-0.58
			c-5.375,4.323-14.788,9.088-16.739,14.832c2.665,0.369,4.231,1.824,6.1,4.96C28.722,37.424,36.362,30.867,41.572,24.97z"/>
		
			<linearGradient id="SVGID_00000146493104527170677260000009921929501154972801_" gradientUnits="userSpaceOnUse" x1="20.064" y1="34.2872" x2="42.0276" y2="34.2872">
			<stop  offset="0" style="stop-color:#894593"/>
			<stop  offset="0.5098" style="stop-color:#338ACA"/>
			<stop  offset="0.999" style="stop-color:#6A9F5B"/>
			<stop  offset="1" style="stop-color:#5F9F55"/>
		</linearGradient>
		<path style="fill-rule:evenodd;clip-rule:evenodd;fill:url(#SVGID_00000146493104527170677260000009921929501154972801_);" d="
			M21.131,38.872c2.407,0.495,3.896,1.963,5.375,4.266c1.87-4.911,6.354-9.598,10.696-14.14c1.226-1.278,2.385-2.497,3.468-3.694
			l-3.287-0.441c-1.465,1.171-3.198,2.352-5.018,3.605C27.842,31.561,22.748,35.053,21.131,38.872L21.131,38.872z M26.618,44.635
			c-0.153,0-0.303-0.084-0.381-0.219c-1.934-3.217-3.39-4.416-5.781-4.749c-0.142-0.019-0.257-0.096-0.33-0.207
			c-0.066-0.115-0.076-0.257-0.042-0.385c1.467-4.296,6.946-8.047,11.771-11.352c1.871-1.282,3.644-2.5,5.107-3.683
			c0.104-0.081,0.231-0.115,0.345-0.096l4.331,0.576c0.166,0.023,0.304,0.134,0.358,0.292c0.061,0.153,0.038,0.329-0.076,0.454
			c-1.248,1.419-2.611,2.844-4.067,4.353c-4.53,4.749-9.233,9.656-10.8,14.698c-0.05,0.172-0.203,0.291-0.38,0.313
			C26.656,44.63,26.645,44.635,26.618,44.635z"/>
		<path style="fill-rule:evenodd;clip-rule:evenodd;fill:#FFFFFF;" d="M37.829,24.97l4.331-0.58
			c5.36,4.323,14.789,9.088,16.737,14.832c-2.662,0.369-4.228,1.824-6.102,4.96C50.679,37.424,43.039,30.867,37.829,24.97z"/>
		
			<linearGradient id="SVGID_00000150797742730772694660000009409414924774968237_" gradientUnits="userSpaceOnUse" x1="37.3826" y1="34.2864" x2="59.3498" y2="34.2864">
			<stop  offset="0" style="stop-color:#894593"/>
			<stop  offset="0.5098" style="stop-color:#338ACA"/>
			<stop  offset="0.999" style="stop-color:#6A9F5B"/>
			<stop  offset="1" style="stop-color:#5F9F55"/>
		</linearGradient>
		<path style="fill-rule:evenodd;clip-rule:evenodd;fill:url(#SVGID_00000150797742730772694660000009409414924774968237_);" d="
			M38.731,25.304c1.083,1.197,2.253,2.416,3.478,3.694c4.342,4.542,8.827,9.229,10.701,14.14c1.478-2.303,2.953-3.771,5.375-4.266
			c-1.62-3.819-6.71-7.311-11.234-10.404c-1.824-1.253-3.555-2.434-5.018-3.605L38.731,25.304L38.731,25.304z M52.795,44.635
			c-0.027,0-0.038-0.004-0.065-0.004c-0.176-0.022-0.319-0.141-0.369-0.313c-1.566-5.042-6.266-9.949-10.801-14.698
			c-1.451-1.509-2.814-2.934-4.062-4.353c-0.116-0.124-0.141-0.301-0.092-0.454c0.065-0.158,0.208-0.269,0.372-0.292l4.317-0.576
			c0.126-0.023,0.256,0.015,0.345,0.096c1.475,1.183,3.248,2.4,5.118,3.683c4.83,3.305,10.306,7.057,11.772,11.352
			c0.038,0.127,0.022,0.27-0.051,0.385c-0.065,0.112-0.191,0.188-0.318,0.207c-2.396,0.334-3.863,1.532-5.786,4.749
			C53.087,44.551,52.949,44.635,52.795,44.635z"/>
		<path style="fill-rule:evenodd;clip-rule:evenodd;fill:#FFFFFF;" d="M39.28,27.961l9.986-1.015
			c3.21-0.229,12.482-1.162,11.987-5.355l-0.726-3.655c-4.892,5.639-13.515,5.685-20.292,5.893L39.28,27.961z"/>
		
			<linearGradient id="SVGID_00000107548003058809484280000007559685400055672482_" gradientUnits="userSpaceOnUse" x1="38.8312" y1="22.9463" x2="61.7202" y2="22.9463">
			<stop  offset="0" style="stop-color:#894593"/>
			<stop  offset="0.5098" style="stop-color:#338ACA"/>
			<stop  offset="0.999" style="stop-color:#6A9F5B"/>
			<stop  offset="1" style="stop-color:#5F9F55"/>
		</linearGradient>
		<path style="fill-rule:evenodd;clip-rule:evenodd;fill:url(#SVGID_00000107548003058809484280000007559685400055672482_);" d="
			M40.592,24.271l-0.726,3.179l9.35-0.952c5.783-0.414,9.718-1.551,11.081-3.202c0.406-0.507,0.572-1.044,0.51-1.651l-0.549-2.753
			C55.355,23.836,47.42,24.071,41,24.259L40.592,24.271L40.592,24.271z M39.28,28.41c-0.127,0-0.242-0.054-0.33-0.151
			c-0.104-0.11-0.142-0.257-0.104-0.398l0.946-4.132c0.05-0.199,0.215-0.345,0.418-0.348l0.765-0.023
			c6.522-0.192,14.635-0.433,19.22-5.717c0.104-0.131,0.28-0.188,0.449-0.142c0.165,0.047,0.292,0.181,0.329,0.351l0.726,3.654
			c0.101,0.887-0.141,1.67-0.714,2.365c-1.946,2.365-7.425,3.226-11.679,3.533l-9.974,1.01C39.319,28.41,39.308,28.41,39.28,28.41z"
			/>
		<path style="fill-rule:evenodd;clip-rule:evenodd;fill:#FFFFFF;" d="M42.286,21.48c5.656-7.618,13.819-12.117,16.978-7.026
			c1.149,1.83,1.16,3.206,1.99,7.138c-2.397-6.35-9.069-4.367-19.044,4.281L42.286,21.48z"/>
		
			<linearGradient id="SVGID_00000137116347269964960430000015945097624298240424_" gradientUnits="userSpaceOnUse" x1="41.7633" y1="19.0804" x2="61.7046" y2="19.0804">
			<stop  offset="0" style="stop-color:#894593"/>
			<stop  offset="0.5098" style="stop-color:#338ACA"/>
			<stop  offset="0.999" style="stop-color:#6A9F5B"/>
			<stop  offset="1" style="stop-color:#5F9F55"/>
		</linearGradient>
		<path style="fill-rule:evenodd;clip-rule:evenodd;fill:url(#SVGID_00000137116347269964960430000015945097624298240424_);" d="
			M42.732,21.634l-0.051,3.244c6.8-5.77,11.768-8.163,15.171-7.295c0.955,0.238,1.77,0.733,2.446,1.482
			c-0.396-2.027-0.611-3.087-1.413-4.373c-0.764-1.232-1.874-1.89-3.314-1.952C51.965,12.568,46.832,16.161,42.732,21.634
			L42.732,21.634z M42.209,26.326c-0.065,0-0.126-0.012-0.192-0.042c-0.164-0.076-0.264-0.238-0.253-0.419l0.065-4.392
			c0-0.092,0.035-0.185,0.089-0.261c4.204-5.648,9.563-9.376,13.448-9.376c0.089,0,0.166,0,0.258,0.004
			c1.704,0.073,3.106,0.895,4.024,2.377c0.917,1.474,1.143,2.691,1.578,4.906c0.126,0.675,0.269,1.459,0.472,2.377
			c0.038,0.231-0.088,0.46-0.318,0.526c-0.231,0.062-0.473-0.054-0.549-0.276c-0.7-1.848-1.743-2.926-3.198-3.295
			c-3.184-0.802-8.267,1.808-15.132,7.759C42.424,26.286,42.309,26.326,42.209,26.326z"/>
		<path style="fill-rule:evenodd;clip-rule:evenodd;fill:#FFFFFF;" d="M40.121,27.961l-9.975-1.015
			c-3.205-0.229-12.482-1.162-11.982-5.355l0.714-3.655c4.887,5.639,13.511,5.685,20.299,5.893L40.121,27.961z"/>
		
			<linearGradient id="SVGID_00000010296435167856020670000005206364966520040067_" gradientUnits="userSpaceOnUse" x1="17.6936" y1="22.9463" x2="40.5748" y2="22.9463">
			<stop  offset="0" style="stop-color:#894593"/>
			<stop  offset="0.5098" style="stop-color:#338ACA"/>
			<stop  offset="0.999" style="stop-color:#6A9F5B"/>
			<stop  offset="1" style="stop-color:#5F9F55"/>
		</linearGradient>
		<path style="fill-rule:evenodd;clip-rule:evenodd;fill:url(#SVGID_00000010296435167856020670000005206364966520040067_);" d="
			M19.154,18.892l-0.545,2.788c-0.076,0.572,0.087,1.109,0.506,1.616c1.363,1.651,5.287,2.788,11.058,3.202l9.372,0.952
			l-0.726-3.179l-0.403-0.012C31.993,24.071,24.061,23.836,19.154,18.892L19.154,18.892z M40.121,28.41c-0.012,0-0.027,0-0.038,0
			l-9.987-1.015c-4.241-0.303-9.716-1.163-11.678-3.528c-0.573-0.695-0.803-1.478-0.699-2.33l0.726-3.689
			c0.022-0.17,0.15-0.304,0.314-0.351c0.169-0.046,0.346,0.012,0.461,0.142c4.584,5.284,12.697,5.525,19.22,5.717l0.753,0.023
			c0.203,0.003,0.379,0.15,0.429,0.348l0.946,4.132c0.026,0.141-0.012,0.288-0.1,0.398C40.375,28.356,40.248,28.41,40.121,28.41z"/>
		<path style="fill-rule:evenodd;clip-rule:evenodd;fill:#FFFFFF;" d="M37.127,21.48c-5.668-7.618-13.818-12.117-16.979-7.026
			c-1.143,1.83-1.159,3.206-1.985,7.138c2.392-6.35,9.069-4.367,19.039,4.281L37.127,21.48z"/>
		
			<linearGradient id="SVGID_00000035496125078509848640000015478039888388196530_" gradientUnits="userSpaceOnUse" x1="17.7063" y1="19.0795" x2="37.6483" y2="19.0795">
			<stop  offset="0" style="stop-color:#894593"/>
			<stop  offset="0.5098" style="stop-color:#338ACA"/>
			<stop  offset="0.999" style="stop-color:#6A9F5B"/>
			<stop  offset="1" style="stop-color:#5F9F55"/>
		</linearGradient>
		<path style="fill-rule:evenodd;clip-rule:evenodd;fill:url(#SVGID_00000035496125078509848640000015478039888388196530_);" d="
			M22.99,17.411c3.308,0,7.831,2.46,13.745,7.467l-0.054-3.244c-4.101-5.473-9.244-9.062-12.849-8.894
			c-1.429,0.058-2.535,0.719-3.299,1.952c-0.802,1.286-1.022,2.346-1.417,4.373c0.677-0.749,1.494-1.244,2.45-1.482
			C22.01,17.467,22.479,17.411,22.99,17.411L22.99,17.411z M37.202,26.326c-0.114,0-0.215-0.039-0.303-0.113
			c-6.853-5.951-11.937-8.561-15.12-7.759c-1.451,0.369-2.499,1.447-3.198,3.295c-0.088,0.222-0.319,0.338-0.548,0.276
			c-0.227-0.066-0.37-0.295-0.315-0.526c0.188-0.918,0.341-1.702,0.468-2.377c0.423-2.215,0.664-3.433,1.566-4.906
			c0.934-1.482,2.319-2.303,4.039-2.377c3.935-0.177,9.414,3.605,13.692,9.372c0.065,0.076,0.088,0.169,0.088,0.261l0.076,4.392
			c0,0.181-0.1,0.342-0.254,0.419C37.334,26.314,37.268,26.326,37.202,26.326z"/>
		<path style="fill-rule:evenodd;clip-rule:evenodd;fill:#FFFFFF;" d="M39.698,21.261c0.677,0,1.479,0.081,2.489,0.203
			c1.093,2.346,1.259,4.562,0.237,6.501c-0.66,0.234-1.678,0.418-2.726,0.506c-1.028-0.088-2.049-0.272-2.721-0.506
			c-1.01-1.939-0.845-4.155,0.237-6.501C38.224,21.342,39.026,21.261,39.698,21.261z"/>
		
			<linearGradient id="SVGID_00000044144222176992496530000000114051626764216453_" gradientUnits="userSpaceOnUse" x1="35.8499" y1="24.8659" x2="43.5635" y2="24.8659">
			<stop  offset="0" style="stop-color:#894593"/>
			<stop  offset="0.5098" style="stop-color:#338ACA"/>
			<stop  offset="0.999" style="stop-color:#6A9F5B"/>
			<stop  offset="1" style="stop-color:#5F9F55"/>
		</linearGradient>
		<path style="fill-rule:evenodd;clip-rule:evenodd;fill:url(#SVGID_00000044144222176992496530000000114051626764216453_);" d="
			M37.29,27.595c0.627,0.189,1.517,0.346,2.447,0.427c0.867-0.081,1.758-0.238,2.372-0.427c0.798-1.647,0.726-3.567-0.231-5.713
			c-1.977-0.238-2.356-0.238-4.342,0C36.582,24.029,36.504,25.949,37.29,27.595L37.29,27.595z M39.737,28.924
			c-1.183-0.1-2.215-0.295-2.903-0.533c-0.116-0.035-0.204-0.116-0.253-0.215c-1.045-2.001-0.972-4.324,0.23-6.9
			c0.073-0.141,0.2-0.238,0.354-0.257c1.175-0.15,1.911-0.207,2.533-0.211l0,0c0.638,0.004,1.363,0.062,2.55,0.211
			c0.154,0.019,0.28,0.116,0.342,0.257c1.212,2.576,1.291,4.896,0.245,6.9c-0.054,0.099-0.154,0.18-0.256,0.215
			C41.891,28.629,40.858,28.825,39.737,28.924z"/>
	</g>
</g>
<g id="Layer_1">
</g>
</svg>
