<?xml version="1.0" encoding="UTF-8"?>
<!-- Generator: Adobe Illustrator 26.0.3, SVG Export Plug-In . SVG Version: 6.00 Build 0)  -->
<svg xmlns="http://www.w3.org/2000/svg" xmlns:xlink="http://www.w3.org/1999/xlink" version="1.1" x="0px" y="0px" viewBox="0 0 80 80" style="enable-background:new 0 0 80 80;" xml:space="preserve">
<g id="social_6">
	<g>
		<linearGradient id="SVGID_1_" gradientUnits="userSpaceOnUse" x1="36.117" y1="41.6277" x2="43.0462" y2="41.6277">
			<stop offset="0" style="stop-color:#894593"></stop>
			<stop offset="0.5098" style="stop-color:#338ACA"></stop>
			<stop offset="0.999" style="stop-color:#6A9F5B"></stop>
			<stop offset="1" style="stop-color:#5F9F55"></stop>
		</linearGradient>
		<path style="fill-rule:evenodd;clip-rule:evenodd;fill:url(#SVGID_1_);" d="M40.929,38.179c-0.333,0-0.714,0.123-1.12,0.357    c-0.741,0.425-1.443,1.166-1.973,2.087c-0.533,0.92-0.82,1.893-0.82,2.744c0,0.764,0.23,1.32,0.656,1.565    c0.426,0.242,1.021,0.169,1.684-0.214l0,0c0.735-0.427,1.434-1.166,1.967-2.086c0.529-0.917,0.82-1.891,0.82-2.746    c0-0.762-0.234-1.318-0.655-1.564C41.324,38.224,41.136,38.179,40.929,38.179L40.929,38.179z M39.578,45.108h0.015H39.578    L39.578,45.108z M38.229,45.975c-0.364,0-0.706-0.088-1.008-0.265c-0.713-0.41-1.104-1.246-1.104-2.343    c0-1.007,0.333-2.144,0.942-3.197c0.606-1.055,1.423-1.914,2.297-2.416c0.951-0.549,1.868-0.621,2.581-0.214    c0.717,0.414,1.109,1.246,1.109,2.346c0,1.009-0.334,2.148-0.944,3.194c-0.606,1.055-1.423,1.918-2.296,2.421l0,0    C39.257,45.814,38.724,45.975,38.229,45.975z"></path>
		
			<linearGradient id="SVGID_00000107577392180740047740000002277055624094790568_" gradientUnits="userSpaceOnUse" x1="41.4311" y1="43.3403" x2="45.0724" y2="43.3403">
			<stop offset="0" style="stop-color:#894593"></stop>
			<stop offset="0.5098" style="stop-color:#338ACA"></stop>
			<stop offset="0.999" style="stop-color:#6A9F5B"></stop>
			<stop offset="1" style="stop-color:#5F9F55"></stop>
		</linearGradient>
		<path style="fill-rule:evenodd;clip-rule:evenodd;fill:url(#SVGID_00000107577392180740047740000002277055624094790568_);" d="    M44.622,44.583c-0.078,0-0.154-0.019-0.226-0.062l-2.739-1.583c-0.214-0.123-0.292-0.398-0.165-0.614    c0.122-0.217,0.398-0.291,0.614-0.164l2.741,1.58c0.214,0.126,0.288,0.403,0.165,0.618C44.929,44.502,44.775,44.583,44.622,44.583    z"></path>
		
			<linearGradient id="SVGID_00000097485591521665759780000002726324087493034372_" gradientUnits="userSpaceOnUse" x1="34.0973" y1="47.4734" x2="37.67" y2="47.4734">
			<stop offset="0" style="stop-color:#894593"></stop>
			<stop offset="0.5098" style="stop-color:#338ACA"></stop>
			<stop offset="0.999" style="stop-color:#6A9F5B"></stop>
			<stop offset="1" style="stop-color:#5F9F55"></stop>
		</linearGradient>
		<path style="fill-rule:evenodd;clip-rule:evenodd;fill:url(#SVGID_00000097485591521665759780000002726324087493034372_);" d="    M34.549,50.239c-0.077,0-0.154-0.019-0.227-0.061c-0.214-0.126-0.288-0.398-0.165-0.613l2.672-4.628    c0.127-0.219,0.399-0.292,0.614-0.169c0.219,0.126,0.291,0.402,0.165,0.618l-2.669,4.629    C34.854,50.158,34.705,50.239,34.549,50.239z"></path>
		<path style="fill-rule:evenodd;clip-rule:evenodd;fill:#FFFFFF;" d="M38.908,24.546c1.658-0.908,3.383-1.442,5.154-0.513    c-1.288-0.744-3.168-2.086-4.483-2.247c-1.353-0.169-2.619,0.327-3.78,0.964c-4.02,2.438-6.907,7.35-7.263,12.025l3.112,1.795    C31.998,31.898,34.889,26.982,38.908,24.546z"></path>
		
			<linearGradient id="SVGID_00000056414005963768112760000007341271168642053288_" gradientUnits="userSpaceOnUse" x1="28.0852" y1="29.1606" x2="44.5099" y2="29.1606">
			<stop offset="0" style="stop-color:#894593"></stop>
			<stop offset="0.5098" style="stop-color:#338ACA"></stop>
			<stop offset="0.999" style="stop-color:#6A9F5B"></stop>
			<stop offset="1" style="stop-color:#5F9F55"></stop>
		</linearGradient>
		<path style="fill-rule:evenodd;clip-rule:evenodd;fill:url(#SVGID_00000056414005963768112760000007341271168642053288_);" d="    M29.011,34.529l2.258,1.3c0.588-4.674,3.502-9.299,7.405-11.669c0.008-0.003,0.016-0.007,0.02-0.011    c0.854-0.468,1.867-0.929,2.971-1.032c-0.77-0.437-1.545-0.809-2.144-0.885c-1.319-0.161-2.573,0.398-3.505,0.913    C32.305,25.394,29.448,30.05,29.011,34.529L29.011,34.529z M31.649,37.021c-0.081,0-0.157-0.019-0.226-0.063l-3.109-1.793    c-0.15-0.088-0.239-0.254-0.227-0.425c0.372-4.912,3.379-9.887,7.481-12.375c1.071-0.587,2.486-1.228,4.065-1.027    c1.124,0.141,2.519,0.997,3.747,1.756c0.322,0.199,0.628,0.387,0.905,0.548c0.21,0.123,0.287,0.392,0.172,0.61    c-0.122,0.211-0.392,0.295-0.606,0.18c-1.366-0.713-2.772-0.564-4.717,0.503c-3.8,2.311-6.695,7.11-7.037,11.668    c-0.012,0.154-0.104,0.291-0.238,0.364C31.791,37.002,31.719,37.021,31.649,37.021z"></path>
		<path style="fill-rule:evenodd;clip-rule:evenodd;fill:#FFFFFF;" d="M38.912,24.543l-0.004,0.003l-3.109-1.797h0.003    L38.912,24.543L38.912,24.543z M41.937,13.76c-0.943-0.549-3.056-1.956-3.915-2.064c-4.227-0.524-8.82,8.599-5.251,10.758    l3.11,1.798C31.971,21.77,37.846,11.612,41.937,13.76L41.937,13.76z"></path>
		
			<linearGradient id="SVGID_00000084526953373633810970000002109669818142194573_" gradientUnits="userSpaceOnUse" x1="31.038" y1="18.1116" x2="42.3882" y2="18.1116">
			<stop offset="0" style="stop-color:#894593"></stop>
			<stop offset="0.5098" style="stop-color:#338ACA"></stop>
			<stop offset="0.999" style="stop-color:#6A9F5B"></stop>
			<stop offset="1" style="stop-color:#5F9F55"></stop>
		</linearGradient>
		<path style="fill-rule:evenodd;clip-rule:evenodd;fill:url(#SVGID_00000084526953373633810970000002109669818142194573_);" d="    M37.662,12.127c-2.129,0-4.368,2.687-5.284,5.338c-0.764,2.185-0.526,3.907,0.628,4.605l1.308,0.756    c-0.48-1.688,0.137-3.942,1.203-5.783c1.073-1.859,2.738-3.536,4.46-3.937c-0.779-0.462-1.615-0.911-2.014-0.959    C37.865,12.13,37.762,12.127,37.662,12.127L37.662,12.127z M35.883,24.7c-0.081,0-0.157-0.019-0.226-0.061l-3.111-1.795    c-1.551-0.939-1.928-3.059-1.023-5.678c1.102-3.172,3.846-6.243,6.554-5.914c0.713,0.085,1.932,0.805,3.34,1.665    c0.288,0.176,0.544,0.338,0.744,0.452c0.214,0.123,0.291,0.392,0.172,0.61c-0.119,0.215-0.392,0.291-0.603,0.18    c-1.767-0.924-4.067,0.977-5.429,3.336c-1.366,2.359-1.863,5.303-0.18,6.373c0.207,0.134,0.273,0.406,0.145,0.613    C36.182,24.624,36.032,24.7,35.883,24.7L35.883,24.7z M38.908,24.996c-0.076,0-0.153-0.02-0.226-0.061l-3.106-1.795    c-0.146-0.08-0.233-0.238-0.226-0.403c0.003-0.165,0.099-0.318,0.248-0.391c0.135-0.069,0.299-0.065,0.43,0.012l3.106,1.794    c0.138,0.076,0.223,0.222,0.23,0.376c0.003,0.154-0.073,0.307-0.203,0.387l-0.004,0.004    C39.085,24.969,38.996,24.996,38.908,24.996z"></path>
		<path style="fill-rule:evenodd;clip-rule:evenodd;fill:#FFFFFF;" d="M44.062,24.033c-1.373-0.793-3.214-0.609-5.154,0.513    c-2.01,1.158-3.826,3.153-5.145,5.431c-1.209,2.092-1.995,4.429-2.114,6.592l14.526-8.387    C46.056,26.157,45.269,24.731,44.062,24.033z"></path>
		
			<linearGradient id="SVGID_00000040550992027671777390000008396301861698509976_" gradientUnits="userSpaceOnUse" x1="31.1954" y1="30.0577" x2="46.6273" y2="30.0577">
			<stop offset="0" style="stop-color:#894593"></stop>
			<stop offset="0.5098" style="stop-color:#338ACA"></stop>
			<stop offset="0.999" style="stop-color:#6A9F5B"></stop>
			<stop offset="1" style="stop-color:#5F9F55"></stop>
		</linearGradient>
		<path style="fill-rule:evenodd;clip-rule:evenodd;fill:url(#SVGID_00000040550992027671777390000008396301861698509976_);" d="    M42.163,23.999c-0.916,0-1.948,0.314-3.029,0.936c-1.875,1.084-3.646,2.956-4.981,5.269c-1.043,1.805-1.73,3.742-1.972,5.537    l13.526-7.807c-0.158-1.661-0.817-2.903-1.872-3.514l0,0C43.34,24.137,42.777,23.999,42.163,23.999L42.163,23.999z M31.649,37.021    c-0.084,0-0.165-0.023-0.237-0.069c-0.143-0.085-0.227-0.245-0.215-0.411c0.126-2.163,0.898-4.575,2.174-6.787    c1.416-2.451,3.301-4.437,5.311-5.599c2.095-1.209,4.084-1.392,5.603-0.515l0,0c1.384,0.798,2.216,2.401,2.342,4.51    c0.008,0.173-0.076,0.334-0.226,0.422l-14.529,8.385C31.802,37.002,31.726,37.021,31.649,37.021z"></path>
		<path style="fill-rule:evenodd;clip-rule:evenodd;fill:#FFFFFF;" d="M38.908,23.948h0.004c1.18-0.682,2.251-1.855,3.025-3.194l0,0    c0.775-1.342,1.254-2.857,1.254-4.221c0-1.366-0.48-2.328-1.254-2.773c-0.775-0.449-1.848-0.383-3.03,0.298    c-1.181,0.683-2.251,1.857-3.025,3.199c-0.775,1.342-1.258,2.857-1.258,4.221c0,1.361,0.483,2.324,1.258,2.773    C36.657,24.697,37.727,24.635,38.908,23.948z"></path>
		
			<linearGradient id="SVGID_00000008866143005283530540000003512817580338848143_" gradientUnits="userSpaceOnUse" x1="34.172" y1="19.0049" x2="43.6437" y2="19.0049">
			<stop offset="0" style="stop-color:#894593"></stop>
			<stop offset="0.5098" style="stop-color:#338ACA"></stop>
			<stop offset="0.999" style="stop-color:#6A9F5B"></stop>
			<stop offset="1" style="stop-color:#5F9F55"></stop>
		</linearGradient>
		<path style="fill-rule:evenodd;clip-rule:evenodd;fill:url(#SVGID_00000008866143005283530540000003512817580338848143_);" d="    M40.821,13.925c-0.509,0-1.081,0.175-1.687,0.524c-1.077,0.622-2.094,1.699-2.861,3.029c-0.774,1.338-1.196,2.758-1.196,4    c0,1.15,0.364,1.998,1.028,2.381c0.666,0.384,1.583,0.277,2.576-0.302c0.007-0.004,0.015-0.007,0.027-0.011h0.004    c1.046-0.61,2.067-1.685,2.833-3.019c0.77-1.334,1.197-2.754,1.197-3.995c0-1.155-0.368-1.998-1.032-2.381    C41.45,13.997,41.151,13.925,40.821,13.925L40.821,13.925z M36.995,24.988c-0.483,0-0.936-0.115-1.338-0.349    c-0.955-0.548-1.484-1.671-1.484-3.16c0-1.4,0.468-2.98,1.319-4.447c0.844-1.47,1.979-2.662,3.191-3.364    c1.291-0.743,2.527-0.847,3.482-0.299c0.955,0.549,1.48,1.677,1.48,3.164c0,1.399-0.468,2.975-1.316,4.444    c-0.851,1.473-1.982,2.665-3.19,3.363h-0.004C38.387,24.769,37.662,24.988,36.995,24.988z"></path>
		
			<linearGradient id="SVGID_00000055664774690804815770000010769789110695154587_" gradientUnits="userSpaceOnUse" x1="39.1339" y1="36.012" x2="40.0348" y2="36.012">
			<stop offset="0" style="stop-color:#894593"></stop>
			<stop offset="0.5098" style="stop-color:#338ACA"></stop>
			<stop offset="0.999" style="stop-color:#6A9F5B"></stop>
			<stop offset="1" style="stop-color:#5F9F55"></stop>
		</linearGradient>
		<path style="fill-rule:evenodd;clip-rule:evenodd;fill:url(#SVGID_00000055664774690804815770000010769789110695154587_);" d="    M39.583,38.593c-0.249,0-0.449-0.198-0.449-0.448v-4.261c0-0.249,0.199-0.453,0.449-0.453c0.249,0,0.452,0.204,0.452,0.453v4.261    C40.035,38.394,39.832,38.593,39.583,38.593z"></path>
		<path style="fill-rule:evenodd;clip-rule:evenodd;fill:#FFFFFF;" d="M28.462,56.298c1.653-0.905,3.379-1.438,5.15-0.514    c-1.287-0.741-3.166-2.082-4.481-2.248c-1.355-0.167-2.616,0.33-3.778,0.967c-4.02,2.439-6.91,7.351-7.263,12.026l3.109,1.794    C21.549,63.653,24.443,58.736,28.462,56.298z"></path>
		
			<linearGradient id="SVGID_00000023245641104907381840000002948456708695981700_" gradientUnits="userSpaceOnUse" x1="17.6386" y1="60.914" x2="34.0634" y2="60.914">
			<stop offset="0" style="stop-color:#894593"></stop>
			<stop offset="0.5098" style="stop-color:#338ACA"></stop>
			<stop offset="0.999" style="stop-color:#6A9F5B"></stop>
			<stop offset="1" style="stop-color:#5F9F55"></stop>
		</linearGradient>
		<path style="fill-rule:evenodd;clip-rule:evenodd;fill:url(#SVGID_00000023245641104907381840000002948456708695981700_);" d="    M18.561,66.28l2.258,1.303c0.587-4.678,3.502-9.299,7.409-11.668l0.019-0.012c0.851-0.468,1.864-0.927,2.972-1.031    c-0.771-0.437-1.545-0.81-2.144-0.886c-1.331-0.169-2.573,0.403-3.509,0.913C21.858,57.153,18.999,61.804,18.561,66.28    L18.561,66.28z M21.199,68.773c-0.081,0-0.157-0.02-0.226-0.058l-3.11-1.794c-0.15-0.088-0.238-0.252-0.223-0.425    c0.369-4.913,3.374-9.886,7.479-12.374c1.069-0.591,2.472-1.228,4.064-1.028c1.123,0.138,2.515,0.993,3.743,1.753    c0.326,0.198,0.633,0.391,0.909,0.552c0.214,0.123,0.291,0.392,0.172,0.606c-0.119,0.214-0.392,0.295-0.603,0.185    c-1.361-0.713-2.772-0.565-4.716,0.502c-3.804,2.312-6.699,7.105-7.041,11.668c-0.012,0.154-0.104,0.292-0.238,0.364    C21.342,68.757,21.268,68.773,21.199,68.773z"></path>
		<path style="fill-rule:evenodd;clip-rule:evenodd;fill:#FFFFFF;" d="M28.462,56.298h-0.003l-3.106-1.794v-0.004L28.462,56.298    L28.462,56.298z M31.488,45.511c-0.944-0.544-3.057-1.953-3.916-2.06c-4.221-0.525-8.819,8.598-5.25,10.757l3.109,1.794    C21.522,53.526,27.396,43.367,31.488,45.511L31.488,45.511z"></path>
		
			<linearGradient id="SVGID_00000087390077825135033430000004490577989622727839_" gradientUnits="userSpaceOnUse" x1="20.5895" y1="49.8664" x2="31.9393" y2="49.8664">
			<stop offset="0" style="stop-color:#894593"></stop>
			<stop offset="0.5098" style="stop-color:#338ACA"></stop>
			<stop offset="0.999" style="stop-color:#6A9F5B"></stop>
			<stop offset="1" style="stop-color:#5F9F55"></stop>
		</linearGradient>
		<path style="fill-rule:evenodd;clip-rule:evenodd;fill:url(#SVGID_00000087390077825135033430000004490577989622727839_);" d="    M27.212,43.882c-2.128,0-4.368,2.688-5.285,5.334c-0.759,2.185-0.524,3.911,0.629,4.61l1.312,0.756    c-0.483-1.688,0.135-3.943,1.2-5.784c1.074-1.859,2.738-3.539,4.46-3.942c-0.778-0.456-1.615-0.904-2.013-0.954    C27.415,43.885,27.312,43.882,27.212,43.882L27.212,43.882z M25.432,56.456c-0.076,0-0.156-0.02-0.226-0.062l-3.109-1.795    c-1.554-0.939-1.929-3.06-1.021-5.679c1.101-3.171,3.854-6.243,6.549-5.913c0.713,0.088,1.937,0.805,3.341,1.664    c0.288,0.177,0.544,0.333,0.748,0.452c0.214,0.123,0.286,0.391,0.169,0.611c-0.116,0.21-0.392,0.291-0.602,0.179    c-1.769-0.929-4.073,0.978-5.431,3.336c-1.365,2.359-1.863,5.304-0.176,6.373c0.207,0.134,0.268,0.406,0.142,0.618    C25.732,56.379,25.582,56.456,25.432,56.456L25.432,56.456z M28.459,56.75c-0.078,0-0.154-0.022-0.227-0.06l-3.106-1.795    c-0.129-0.076-0.214-0.214-0.226-0.364c-0.008-0.15,0.061-0.295,0.18-0.386c0.146-0.108,0.345-0.124,0.499-0.031l3.11,1.793    c0.134,0.078,0.217,0.22,0.225,0.377c0.005,0.153-0.072,0.302-0.203,0.387l-0.003,0.003C28.635,56.724,28.547,56.75,28.459,56.75z    "></path>
		<path style="fill-rule:evenodd;clip-rule:evenodd;fill:#FFFFFF;" d="M33.612,55.785c-1.372-0.791-3.212-0.606-5.153,0.514    c-2.009,1.162-3.828,3.156-5.147,5.434c-1.208,2.094-1.991,4.428-2.113,6.592l14.529-8.39    C35.607,57.913,34.82,56.483,33.612,55.785z"></path>
		
			<linearGradient id="SVGID_00000168817000151111641910000008097174197204262535_" gradientUnits="userSpaceOnUse" x1="20.7458" y1="61.8117" x2="36.1795" y2="61.8117">
			<stop offset="0" style="stop-color:#894593"></stop>
			<stop offset="0.5098" style="stop-color:#338ACA"></stop>
			<stop offset="0.999" style="stop-color:#6A9F5B"></stop>
			<stop offset="1" style="stop-color:#5F9F55"></stop>
		</linearGradient>
		<path style="fill-rule:evenodd;clip-rule:evenodd;fill:url(#SVGID_00000168817000151111641910000008097174197204262535_);" d="    M31.719,55.751c-0.921,0-1.953,0.314-3.034,0.939c-1.875,1.086-3.643,2.955-4.981,5.269c-1.043,1.806-1.73,3.743-1.972,5.538    l13.525-7.808c-0.157-1.665-0.816-2.903-1.872-3.512C32.895,55.895,32.331,55.751,31.719,55.751L31.719,55.751z M21.199,68.773    c-0.084,0-0.164-0.02-0.238-0.065c-0.142-0.089-0.223-0.246-0.215-0.412c0.124-2.158,0.898-4.57,2.174-6.79    c1.416-2.447,3.302-4.433,5.311-5.594c2.095-1.209,4.084-1.392,5.604-0.515h0.003c1.38,0.797,2.212,2.4,2.34,4.51    c0.012,0.172-0.077,0.333-0.223,0.417l-14.535,8.391C21.352,68.753,21.277,68.773,21.199,68.773z"></path>
		<path style="fill-rule:evenodd;clip-rule:evenodd;fill:#FFFFFF;" d="M28.459,55.704h0.007c1.178-0.682,2.248-1.856,3.022-3.194    l0,0c0.778-1.342,1.254-2.857,1.254-4.221c0-1.367-0.48-2.328-1.254-2.777c-0.775-0.446-1.844-0.38-3.029,0.303    c-1.182,0.682-2.251,1.857-3.026,3.199c-0.774,1.341-1.253,2.856-1.253,4.22c0,1.366,0.48,2.325,1.253,2.77    C26.208,56.451,27.277,56.386,28.459,55.704z"></path>
		
			<linearGradient id="SVGID_00000127023996458448641570000016954532977922841744_" gradientUnits="userSpaceOnUse" x1="23.727" y1="50.7588" x2="33.1945" y2="50.7588">
			<stop offset="0" style="stop-color:#894593"></stop>
			<stop offset="0.5098" style="stop-color:#338ACA"></stop>
			<stop offset="0.999" style="stop-color:#6A9F5B"></stop>
			<stop offset="1" style="stop-color:#5F9F55"></stop>
		</linearGradient>
		<path style="fill-rule:evenodd;clip-rule:evenodd;fill:url(#SVGID_00000127023996458448641570000016954532977922841744_);" d="    M28.459,55.704h0.015H28.459L28.459,55.704z M30.372,45.676c-0.506,0-1.081,0.18-1.683,0.53c-1.081,0.621-2.098,1.699-2.865,3.03    c-0.775,1.334-1.197,2.752-1.197,3.998c0,1.151,0.365,1.999,1.031,2.382c0.66,0.38,1.577,0.279,2.577-0.304v0.004    c1.093-0.64,2.098-1.711,2.865-3.033c0.767-1.335,1.193-2.749,1.193-3.995c0-1.156-0.365-2.002-1.031-2.387    C31,45.753,30.702,45.676,30.372,45.676L30.372,45.676z M26.545,56.743c-0.484,0-0.936-0.115-1.339-0.348    c-0.955-0.55-1.479-1.672-1.479-3.161c0-1.399,0.467-2.979,1.315-4.448c0.844-1.468,1.979-2.661,3.194-3.363    c1.288-0.744,2.523-0.851,3.478-0.299c0.955,0.55,1.48,1.672,1.48,3.165c0,1.399-0.469,2.977-1.316,4.447    c-0.848,1.464-1.978,2.657-3.187,3.355l-0.007,0.004C27.941,56.524,27.212,56.743,26.545,56.743z"></path>
		<path style="fill-rule:evenodd;clip-rule:evenodd;fill:#FFFFFF;" d="M54.646,41.182c1.653-0.908,3.382-1.442,5.15-0.514    c-1.288-0.745-3.163-2.083-4.483-2.247c-1.353-0.169-2.615,0.33-3.777,0.963c-4.018,2.438-6.91,7.355-7.263,12.029l3.109,1.795    C47.736,48.534,50.627,43.621,54.646,41.182z"></path>
		
			<linearGradient id="SVGID_00000144337506415060454500000007408454955289784486_" gradientUnits="userSpaceOnUse" x1="43.8231" y1="45.7961" x2="60.2463" y2="45.7961">
			<stop offset="0" style="stop-color:#894593"></stop>
			<stop offset="0.5098" style="stop-color:#338ACA"></stop>
			<stop offset="0.999" style="stop-color:#6A9F5B"></stop>
			<stop offset="1" style="stop-color:#5F9F55"></stop>
		</linearGradient>
		<path style="fill-rule:evenodd;clip-rule:evenodd;fill:url(#SVGID_00000144337506415060454500000007408454955289784486_);" d="    M44.748,51.164l2.254,1.303c0.591-4.679,3.502-9.303,7.41-11.673c0.007-0.004,0.011-0.007,0.018-0.007    c0.851-0.468,1.865-0.933,2.972-1.031c-0.77-0.441-1.546-0.813-2.144-0.886c-1.334-0.166-2.573,0.398-3.505,0.913    C48.042,42.033,45.186,46.685,44.748,51.164L44.748,51.164z M47.382,53.656c-0.08,0-0.153-0.019-0.226-0.061L44.05,51.8    c-0.153-0.084-0.238-0.249-0.226-0.421c0.367-4.912,3.374-9.887,7.477-12.378c1.071-0.587,2.47-1.224,4.069-1.027    c1.124,0.141,2.516,1.001,3.743,1.755c0.321,0.199,0.629,0.392,0.909,0.552c0.21,0.119,0.286,0.392,0.168,0.606    c-0.115,0.215-0.392,0.296-0.602,0.18c-1.361-0.709-2.769-0.559-4.716,0.503c-3.801,2.312-6.696,7.109-7.042,11.669    c-0.012,0.156-0.103,0.291-0.238,0.367C47.525,53.641,47.455,53.656,47.382,53.656z"></path>
		<path style="fill-rule:evenodd;clip-rule:evenodd;fill:#FFFFFF;" d="M54.65,41.179l-0.004,0.003l-3.11-1.795l0.004-0.003    L54.65,41.179L54.65,41.179z M57.671,30.394c-0.943-0.544-3.052-1.951-3.915-2.06c-4.223-0.524-8.816,8.599-5.251,10.758    l3.11,1.793C47.705,38.405,53.579,28.252,57.671,30.394L57.671,30.394z"></path>
		
			<linearGradient id="SVGID_00000117665398835265679000000001918937443999968904_" gradientUnits="userSpaceOnUse" x1="46.7738" y1="34.7488" x2="58.1242" y2="34.7488">
			<stop offset="0" style="stop-color:#894593"></stop>
			<stop offset="0.5098" style="stop-color:#338ACA"></stop>
			<stop offset="0.999" style="stop-color:#6A9F5B"></stop>
			<stop offset="1" style="stop-color:#5F9F55"></stop>
		</linearGradient>
		<path style="fill-rule:evenodd;clip-rule:evenodd;fill:url(#SVGID_00000117665398835265679000000001918937443999968904_);" d="    M53.396,28.765c-2.129,0-4.368,2.687-5.285,5.334c-0.76,2.185-0.525,3.907,0.629,4.604l1.312,0.76    c-0.484-1.688,0.138-3.942,1.203-5.782c1.074-1.86,2.738-3.54,4.456-3.943c-0.778-0.456-1.614-0.908-2.013-0.954    C53.598,28.769,53.5,28.765,53.396,28.765L53.396,28.765z M51.616,41.339c-0.076,0-0.154-0.023-0.226-0.061l-3.106-1.794    c-1.553-0.94-1.933-3.06-1.024-5.679c1.1-3.175,3.857-6.247,6.554-5.917c0.709,0.087,1.932,0.809,3.336,1.668    c0.288,0.172,0.544,0.333,0.748,0.452c0.214,0.12,0.287,0.392,0.172,0.606c-0.119,0.215-0.392,0.292-0.606,0.185    c-1.76-0.924-4.068,0.977-5.43,3.332c-1.361,2.359-1.86,5.307-0.176,6.377C52.065,40.638,52.13,40.91,52,41.12    C51.915,41.258,51.769,41.339,51.616,41.339L51.616,41.339z M54.646,41.635c-0.081,0-0.157-0.024-0.226-0.061l-3.11-1.799    c-0.142-0.082-0.23-0.238-0.226-0.403c0.003-0.165,0.1-0.314,0.249-0.387c0.137-0.069,0.298-0.065,0.43,0.009l3.11,1.794    c0.133,0.081,0.221,0.222,0.225,0.376c0.004,0.157-0.069,0.307-0.199,0.391l-0.003,0.003    C54.819,41.608,54.73,41.635,54.646,41.635z"></path>
		<path style="fill-rule:evenodd;clip-rule:evenodd;fill:#FFFFFF;" d="M59.795,40.668c-1.369-0.789-3.213-0.606-5.15,0.514    c-2.009,1.161-3.832,3.152-5.147,5.433c-1.208,2.094-1.994,4.43-2.117,6.593l14.53-8.39    C61.789,42.796,61.007,41.366,59.795,40.668z"></path>
		
			<linearGradient id="SVGID_00000020389032673306052500000000419242466785540007_" gradientUnits="userSpaceOnUse" x1="46.9332" y1="46.6938" x2="62.3614" y2="46.6938">
			<stop offset="0" style="stop-color:#894593"></stop>
			<stop offset="0.5098" style="stop-color:#338ACA"></stop>
			<stop offset="0.999" style="stop-color:#6A9F5B"></stop>
			<stop offset="1" style="stop-color:#5F9F55"></stop>
		</linearGradient>
		<path style="fill-rule:evenodd;clip-rule:evenodd;fill:url(#SVGID_00000020389032673306052500000000419242466785540007_);" d="    M57.901,40.633c-0.92,0-1.952,0.314-3.029,0.94c-1.88,1.084-3.652,2.952-4.982,5.269c-1.047,1.806-1.73,3.742-1.975,5.537    l13.525-7.811c-0.158-1.661-0.817-2.903-1.872-3.509l0,0C59.079,40.776,58.515,40.633,57.901,40.633L57.901,40.633z     M47.382,53.656c-0.084,0-0.165-0.022-0.238-0.065c-0.142-0.089-0.222-0.245-0.21-0.411c0.123-2.163,0.894-4.57,2.173-6.791    c1.416-2.446,3.298-4.437,5.312-5.599c2.094-1.208,4.088-1.388,5.603-0.51c1.379,0.795,2.211,2.397,2.338,4.51    c0.012,0.17-0.075,0.333-0.222,0.418l-14.53,8.386C47.536,53.637,47.459,53.656,47.382,53.656z"></path>
		<path style="fill-rule:evenodd;clip-rule:evenodd;fill:#FFFFFF;" d="M54.646,40.587l0.004-0.003    c1.181-0.682,2.246-1.852,3.021-3.191h0.004c0.775-1.342,1.254-2.857,1.254-4.226c0-1.365-0.48-2.324-1.258-2.773    c-0.775-0.448-1.845-0.379-3.025,0.299c-1.185,0.686-2.255,1.856-3.03,3.198c-0.775,1.342-1.254,2.857-1.254,4.222    c0,1.365,0.48,2.323,1.254,2.772C52.391,41.336,53.46,41.27,54.646,40.587z"></path>
		
			<linearGradient id="SVGID_00000148622617082981519340000012333515151858456764_" gradientUnits="userSpaceOnUse" x1="49.9087" y1="35.6419" x2="59.3774" y2="35.6419">
			<stop offset="0" style="stop-color:#894593"></stop>
			<stop offset="0.5098" style="stop-color:#338ACA"></stop>
			<stop offset="0.999" style="stop-color:#6A9F5B"></stop>
			<stop offset="1" style="stop-color:#5F9F55"></stop>
		</linearGradient>
		<path style="fill-rule:evenodd;clip-rule:evenodd;fill:url(#SVGID_00000148622617082981519340000012333515151858456764_);" d="    M56.556,30.56c-0.507,0-1.082,0.176-1.683,0.525c-1.078,0.621-2.098,1.698-2.865,3.033c-0.771,1.335-1.197,2.754-1.197,3.997    c0,1.153,0.364,1.998,1.031,2.381c0.667,0.387,1.58,0.276,2.577-0.299c0.007-0.004,0.015-0.012,0.022-0.012l0.004-0.003    c1.051-0.606,2.067-1.684,2.838-3.018c0.77-1.331,1.193-2.75,1.193-3.996c0-1.15-0.364-1.998-1.027-2.381    C57.184,30.636,56.885,30.56,56.556,30.56L56.556,30.56z M52.732,41.627c-0.487,0-0.94-0.115-1.342-0.349    c-0.955-0.552-1.481-1.676-1.481-3.163c0-1.395,0.469-2.977,1.316-4.448c0.848-1.466,1.983-2.661,3.195-3.364    c1.288-0.744,2.527-0.847,3.482-0.295c0.955,0.549,1.476,1.672,1.476,3.16c0,1.4-0.468,2.98-1.316,4.448    c-0.847,1.468-1.978,2.661-3.186,3.36l-0.003,0.003C54.124,41.408,53.396,41.627,52.732,41.627z"></path>
	</g>
</g>
<g id="Layer_1">
</g>
</svg>
