<svg version="1.1" id="Layer_1" xmlns="http://www.w3.org/2000/svg" x="0" y="0" viewBox="0 0 659.9 266.4" style="enable-background:new 0 0 659.9 266.4" xml:space="preserve"><style>.st1{fill:#fff}.st2{fill:#e9ae37}.st3{fill:#8ecb83}.st4{fill:#4a966f}.st5{fill:#009149}</style><path d="M20.9 231.4H7.7v8.8H20v6.6H7.7v17.3H0v-39.3h20.9v6.6zM67.6 244.5c0 12-8.6 20.5-21 20.5s-21-8.5-21-20.5 8.6-20.6 21-20.6 21 8.7 21 20.6zm-7.9 0c0-8-5.4-13.6-13.1-13.6s-13.1 5.7-13.1 13.6c0 8 5.4 13.6 13.1 13.6s13.1-5.6 13.1-13.6zM86 224.8c5.4 0 8.2 1.4 10 2.9 3 2.5 3.9 5.9 3.9 8.8 0 3.8-1.5 7.2-4.6 9.3-1 .7-2.4 1.4-4.3 1.7l12.3 16.6h-9.6l-10.5-15.8h-.9v15.8h-7.7v-39.3H86zm-3.7 18.1h2.2c1.5 0 7.5-.2 7.5-6s-6-5.9-7.4-5.9h-2.3v11.9zM129.9 240h16.6v-15.2h7.7v39.3h-7.7v-17.5h-16.6v17.5h-7.7v-39.3h7.7V240zM170.8 224.8v24.7c0 3 1 4.8 1.9 5.8 1.1 1.4 3.2 2.7 6.2 2.7 3.1 0 5.1-1.4 6.2-2.7.9-1 1.9-2.8 1.9-5.8v-24.7h7.7v24.1c0 3.7-.6 7.5-2.9 10.5-2.8 3.7-7.8 5.7-12.9 5.7-5.1 0-10-1.9-12.9-5.7-2.4-3-2.9-6.8-2.9-10.5v-24.1h7.7zM278.2 255.9h-15.9l-3.5 8.3h-8.3l16.9-39.3h6l16.4 39.3h-8.3l-3.3-8.3zm-2.2-6.3-5.6-14.1-5.6 14.1H276zM294.6 264.1v-39.3h5.3l23.9 26.2v-26.2h7.7v39.3h-5.3l-23.9-26.3v26.3h-7.7zM365.5 224.8c5.4 0 8.2 1.4 10 2.9 3 2.5 3.9 5.9 3.9 8.8 0 3.8-1.5 7.2-4.6 9.3-1 .7-2.4 1.4-4.3 1.7l12.3 16.6h-9.6l-10.5-15.8h-.9v15.8h-7.7v-39.3h11.4zm-3.7 18.1h2.2c1.5 0 7.5-.2 7.5-6s-6-5.9-7.4-5.9h-2.3v11.9zM409.8 231.4h-14.1v8.8h13.6v6.6h-13.6v10.7h14.1v6.6H388v-39.3h21.8v6.6zM436.6 233.8c-2.3-3.1-5-3.4-6.4-3.4-4.1 0-5.4 2.6-5.4 4.6 0 .9.3 1.8 1.2 2.7.9.9 2.2 1.4 4.7 2.2 3.1 1.1 6 2.1 8 4 1.8 1.6 3.4 4.2 3.4 8.3 0 7.7-5.5 12.9-13.7 12.9-7.3 0-11.5-4.4-13.6-7.4l5-4.8c1.9 3.8 5.5 5.2 8.3 5.2 3.5 0 6.1-2.1 6.1-5.4 0-1.4-.5-2.5-1.5-3.5-1.5-1.4-3.8-2.1-6.1-2.9-2.1-.7-4.5-1.7-6.5-3.4-1.3-1.1-3.1-3.3-3.1-7.3 0-5.8 3.9-11.6 12.6-11.6 2.5 0 7.1.5 11.1 4.6l-4.1 5.2zM488.8 244.5c0 12-8.6 20.5-21 20.5s-21-8.5-21-20.5 8.6-20.6 21-20.6 21 8.7 21 20.6zm-7.9 0c0-8-5.4-13.6-13.1-13.6-7.7 0-13.1 5.7-13.1 13.6 0 8 5.4 13.6 13.1 13.6 7.7 0 13.1-5.6 13.1-13.6zM503.6 224.8v24.7c0 3 1 4.8 1.9 5.8 1.1 1.4 3.2 2.7 6.2 2.7 3.1 0 5.1-1.4 6.2-2.7.9-1 1.9-2.8 1.9-5.8v-24.7h7.7v24.1c0 3.7-.6 7.5-2.9 10.5-2.8 3.7-7.8 5.7-12.9 5.7-5.1 0-10-1.9-12.9-5.7-2.4-3-2.9-6.8-2.9-10.5v-24.1h7.7zM547.8 224.8c5.4 0 8.2 1.4 10 2.9 3 2.5 3.9 5.9 3.9 8.8 0 3.8-1.5 7.2-4.6 9.3-1 .7-2.4 1.4-4.3 1.7l12.3 16.6h-9.6L545 248.3h-.9v15.8h-7.7v-39.3h11.4zm-3.7 18.1h2.2c1.5 0 7.5-.2 7.5-6s-6-5.9-7.4-5.9h-2.3v11.9zM598.8 262.7c-2.4 1.2-5.5 2.3-9.7 2.3-6.9 0-11.1-2.4-14.4-5.5-4.5-4.4-6.3-9.3-6.3-15 0-7.1 2.9-12.3 6.3-15.4 3.9-3.7 8.8-5.2 14.4-5.2 2.8 0 6.1.5 9.7 2.4v9c-3.6-4.1-8.1-4.4-9.5-4.4-7.9 0-13 6.5-13 13.7 0 8.7 6.7 13.4 13.3 13.4 3.7 0 6.9-1.6 9.2-4.3v9zM627.7 231.4h-14.1v8.8h13.6v6.6h-13.6v10.7h14.1v6.6h-21.8v-39.3h21.8v6.6zM654.5 233.8c-2.3-3.1-5-3.4-6.4-3.4-4.1 0-5.4 2.6-5.4 4.6 0 .9.3 1.8 1.2 2.7.9.9 2.2 1.4 4.7 2.2 3.1 1.1 6 2.1 8 4 1.8 1.6 3.4 4.2 3.4 8.3 0 7.7-5.5 12.9-13.7 12.9-7.3 0-11.5-4.4-13.6-7.4l5-4.8c1.9 3.8 5.5 5.2 8.3 5.2 3.5 0 6.1-2.1 6.1-5.4 0-1.4-.5-2.5-1.5-3.5-1.5-1.4-3.8-2.1-6.1-2.9-2.1-.7-4.5-1.7-6.5-3.4-1.3-1.1-3.1-3.3-3.1-7.3 0-5.8 3.9-11.6 12.6-11.6 2.5 0 7.1.5 11.1 4.6l-4.1 5.2zM238.6 264.1v-29.8l-12.1 29.8h-3l-12-29.8v29.8h-6.9v-39.3h9.7l10.7 26.5 10.7-26.5h9.7v39.3h-6.8z"/><path style="fill:#88bf46" d="M114 2.5 77.4 143.2 40.1 2.5H0l54.9 184.3h44.3L154.1 2.5z"/><path d="M272.3 2.5v184.3h105.5v-32.3h-69v-45.1h66.9V77.1h-66.9V34.9h69V2.5zM398.2 2.5v184.3h106.2v-32.3h-68.9v-45.1h66.8V77.1h-66.8V34.9h68.9V2.5zM622.6 2.5v104.8L562.1 2.5h-37.3v184.3h36.6v-109l63.3 109h35.2V2.5zM233.6 50.3l17.6-28.1C237.1 8.8 217.4 1.8 194.9 1.8h-7l-10.6 39.4c3.5-4.2 9.8-6.3 16.9-6.3 14 0 28.1 4.9 39.4 15.4M173.1 53.2l-13.4 44.3c24.6 15.5 57.7 18.3 57.7 39.4 0 11.3-9.1 20.4-25.3 20.4-18.3 0-33.8-8.4-44.3-19l-10.6 35.2c14.1 10.6 31.7 16.9 54.9 16.9 40.1 0 62.6-23.9 62.6-56.3 0-60.5-76.7-54.9-81.6-80.9M-2787.8 2330.2h889v435.1h-889z"/><path class="st1" d="M-1863.2 2330.2H-969v435.1h-894.2zM-2652.8 2646.3h-13v8.6h12.2v6.5h-12.2v17.1h-7.5v-38.7h20.5v6.5zM-2606.8 2659.2c0 11.8-8.5 20.2-20.6 20.2s-20.6-8.4-20.6-20.2 8.5-20.2 20.6-20.2 20.6 8.4 20.6 20.2zm-7.8 0c0-7.8-5.3-13.4-12.9-13.4s-12.9 5.6-12.9 13.4 5.3 13.3 12.9 13.3 12.9-5.5 12.9-13.3zM-2588.7 2639.8c5.3 0 8.1 1.4 9.9 2.9 3 2.5 3.8 5.8 3.8 8.7 0 3.8-1.5 7.1-4.5 9.1-1 .7-2.4 1.3-4.2 1.7l12.1 16.3h-9.4l-10.3-15.5h-.9v15.5h-7.5v-38.7h11zm-3.6 17.8h2.1c1.5 0 7.4-.2 7.4-5.9s-5.9-5.8-7.3-5.8h-2.3v11.7zM-2545.5 2654.8h16.4v-15h7.5v38.7h-7.5v-17.2h-16.4v17.2h-7.5v-38.7h7.5v15zM-2505.3 2639.8v24.3c0 3 1 4.8 1.9 5.7 1.1 1.3 3.1 2.7 6.1 2.7 3 0 5-1.3 6.1-2.7.9-1 1.9-2.8 1.9-5.7v-24.3h7.5v23.7c0 3.7-.6 7.4-2.9 10.3-2.8 3.7-7.7 5.6-12.6 5.6-5 0-9.9-1.9-12.6-5.6-2.3-3-2.9-6.7-2.9-10.3v-23.7h7.5zM-2399.5 2670.4h-15.6l-3.4 8.1h-8.2l16.6-38.7h5.9l16.2 38.7h-8.1l-3.4-8.1zm-2.2-6.1-5.5-13.9-5.5 13.9h11zM-2383.5 2678.5v-38.7h5.2l23.5 25.8v-25.8h7.5v38.7h-5.2l-23.5-25.9v25.9h-7.5zM-2313.6 2639.8c5.3 0 8.1 1.4 9.9 2.9 3 2.5 3.8 5.8 3.8 8.7 0 3.8-1.5 7.1-4.5 9.1-1 .7-2.4 1.3-4.2 1.7l12.1 16.3h-9.4l-10.3-15.5h-.9v15.5h-7.5v-38.7h11zm-3.7 17.8h2.1c1.5 0 7.4-.2 7.4-5.9s-5.9-5.8-7.3-5.8h-2.3v11.7zM-2270.1 2646.3h-13.9v8.6h13.3v6.5h-13.3v10.6h13.9v6.5h-21.5v-38.7h21.5v6.5zM-2243.8 2648.7c-2.3-3-4.9-3.3-6.3-3.3-4.1 0-5.3 2.6-5.3 4.5 0 .9.3 1.8 1.2 2.6.9.9 2.2 1.3 4.6 2.2 3 1 5.9 2.1 7.8 3.9 1.7 1.6 3.3 4.2 3.3 8.1 0 7.5-5.5 12.7-13.5 12.7-7.1 0-11.3-4.3-13.3-7.3l4.9-4.7c1.9 3.8 5.4 5.2 8.1 5.2 3.4 0 6-2.1 6-5.3 0-1.4-.5-2.5-1.5-3.5-1.5-1.3-3.8-2.1-6-2.8-2-.7-4.5-1.6-6.4-3.4-1.3-1.1-3.1-3.2-3.1-7.2 0-5.7 3.8-11.4 12.4-11.4 2.4 0 7 .5 11 4.5l-3.9 5.2zM-2192.4 2659.2c0 11.8-8.5 20.2-20.6 20.2s-20.6-8.4-20.6-20.2 8.5-20.2 20.6-20.2 20.6 8.4 20.6 20.2zm-7.7 0c0-7.8-5.3-13.4-12.9-13.4s-12.9 5.6-12.9 13.4 5.3 13.3 12.9 13.3 12.9-5.5 12.9-13.3zM-2177.9 2639.8v24.3c0 3 1 4.8 1.9 5.7 1.1 1.3 3.1 2.7 6.1 2.7 3 0 5-1.3 6.1-2.7.9-1 1.9-2.8 1.9-5.7v-24.3h7.5v23.7c0 3.7-.6 7.4-2.9 10.3-2.8 3.7-7.7 5.6-12.6 5.6-5 0-9.9-1.9-12.6-5.6-2.3-3-2.9-6.7-2.9-10.3v-23.7h7.5zM-2134.3 2639.8c5.3 0 8.1 1.4 9.9 2.9 3 2.5 3.8 5.8 3.8 8.7 0 3.8-1.5 7.1-4.5 9.1-1 .7-2.4 1.3-4.2 1.7l12.1 16.3h-9.4l-10.3-15.5h-.9v15.5h-7.5v-38.7h11zm-3.7 17.8h2.1c1.5 0 7.4-.2 7.4-5.9s-5.9-5.8-7.3-5.8h-2.3v11.7zM-2084.1 2677.1c-2.3 1.2-5.4 2.3-9.6 2.3-6.8 0-10.9-2.3-14.2-5.4-4.5-4.3-6.2-9.1-6.2-14.8 0-7 2.9-12.1 6.2-15.1 3.9-3.7 8.7-5.1 14.2-5.1 2.7 0 6 .5 9.5 2.4v8.8c-3.5-4.1-7.9-4.3-9.3-4.3-7.8 0-12.8 6.4-12.8 13.5 0 8.6 6.6 13.2 13.1 13.2 3.6 0 6.8-1.6 9-4.2v8.7zM-2055.7 2646.3h-13.9v8.6h13.3v6.5h-13.3v10.6h13.9v6.5h-21.5v-38.7h21.5v6.5zM-2029.4 2648.7c-2.3-3-4.9-3.3-6.3-3.3-4.1 0-5.3 2.6-5.3 4.5 0 .9.3 1.8 1.2 2.6.9.9 2.2 1.3 4.6 2.2 3 1 5.9 2.1 7.8 3.9 1.7 1.6 3.3 4.2 3.3 8.1 0 7.5-5.5 12.7-13.5 12.7-7.1 0-11.3-4.3-13.3-7.3l4.9-4.7c1.9 3.8 5.4 5.2 8.1 5.2 3.4 0 6-2.1 6-5.3 0-1.4-.5-2.5-1.5-3.5-1.5-1.3-3.8-2.1-6-2.8-2-.7-4.5-1.6-6.4-3.4-1.3-1.1-3.1-3.2-3.1-7.2 0-5.7 3.8-11.4 12.4-11.4 2.4 0 7 .5 11 4.5l-3.9 5.2zM-2438.5 2678.5v-29.3l-11.9 29.3h-2.9l-11.8-29.3v29.3h-6.8v-38.7h9.6l10.5 26.1 10.6-26.1h9.6v38.7h-6.9z"/><path class="st2" d="m-2565.8 2416.9-36.5 140.7-37.3-140.7h-40.1l54.9 184.3h44.3l54.8-184.3z"/><path class="st1" d="M-2407.5 2416.9v184.3h105.6v-32.4h-69v-45h66.9v-32.4h-66.9v-42.2h69v-32.3zM-2281.5 2416.9v184.3h106.2v-32.4h-68.9v-45h66.8v-32.4h-66.8v-42.2h68.9v-32.3zM-2057.1 2416.9v104.8l-60.5-104.8h-37.3v184.3h36.6v-109.1l63.3 109.1h35.2v-184.3zM-2446.2 2464.7l17.6-28.1c-14.1-13.4-33.8-20.4-56.3-20.4h-7l-10.6 39.4c3.5-4.2 9.8-6.3 16.9-6.3 14.1-.1 28.2 4.8 39.4 15.4M-2506.7 2467.5l-13.4 44.3c24.6 15.5 57.7 18.3 57.7 39.4 0 11.3-9.1 20.4-25.3 20.4-18.3 0-33.8-8.4-44.3-19l-10.6 35.2c14.1 10.6 31.7 16.9 54.9 16.9 40.1 0 62.6-23.9 62.6-56.3.1-60.5-76.6-54.9-81.6-80.9"/><path d="M-1732.4 2646.3h-13v8.6h12.2v6.5h-12.2v17.1h-7.5v-38.7h20.5v6.5zM-1686.5 2659.2c0 11.8-8.5 20.2-20.6 20.2s-20.6-8.4-20.6-20.2 8.5-20.2 20.6-20.2 20.6 8.4 20.6 20.2zm-7.8 0c0-7.8-5.3-13.4-12.9-13.4s-12.9 5.6-12.9 13.4 5.3 13.3 12.9 13.3 12.9-5.5 12.9-13.3zM-1668.3 2639.8c5.3 0 8.1 1.4 9.9 2.9 3 2.5 3.8 5.8 3.8 8.7 0 3.8-1.5 7.1-4.5 9.1-1 .7-2.4 1.3-4.2 1.7l12.1 16.3h-9.4l-10.3-15.5h-.9v15.5h-7.5v-38.7h11zm-3.7 17.8h2.1c1.5 0 7.4-.2 7.4-5.9s-5.9-5.8-7.3-5.8h-2.3v11.7zM-1625.2 2654.8h16.4v-15h7.5v38.7h-7.5v-17.2h-16.4v17.2h-7.5v-38.7h7.5v15zM-1584.9 2639.8v24.3c0 3 1 4.8 1.9 5.7 1.1 1.3 3.1 2.7 6.1 2.7 3 0 5-1.3 6.1-2.7.9-1 1.9-2.8 1.9-5.7v-24.3h7.5v23.7c0 3.7-.6 7.4-2.9 10.3-2.8 3.7-7.7 5.6-12.6 5.6-5 0-9.9-1.9-12.6-5.6-2.3-3-2.9-6.7-2.9-10.3v-23.7h7.5zM-1479.2 2670.4h-15.6l-3.4 8.1h-8.2l16.6-38.7h5.9l16.2 38.7h-8.1l-3.4-8.1zm-2.2-6.1-5.5-13.9-5.5 13.9h11zM-1463.1 2678.5v-38.7h5.2l23.5 25.8v-25.8h7.5v38.7h-5.2l-23.5-25.9v25.9h-7.5zM-1393.3 2639.8c5.3 0 8.1 1.4 9.9 2.9 3 2.5 3.8 5.8 3.8 8.7 0 3.8-1.5 7.1-4.5 9.1-1 .7-2.4 1.3-4.2 1.7l12.1 16.3h-9.4l-10.3-15.5h-.9v15.5h-7.5v-38.7h11zm-3.7 17.8h2.1c1.5 0 7.4-.2 7.4-5.9s-5.9-5.8-7.3-5.8h-2.3v11.7zM-1349.7 2646.3h-13.9v8.6h13.3v6.5h-13.3v10.6h13.9v6.5h-21.5v-38.7h21.5v6.5zM-1323.4 2648.7c-2.3-3-4.9-3.3-6.3-3.3-4.1 0-5.3 2.6-5.3 4.5 0 .9.3 1.8 1.2 2.6.9.9 2.2 1.3 4.6 2.2 3 1 5.9 2.1 7.8 3.9 1.7 1.6 3.3 4.2 3.3 8.1 0 7.5-5.5 12.7-13.5 12.7-7.1 0-11.3-4.3-13.3-7.3l4.9-4.7c1.9 3.8 5.4 5.2 8.1 5.2 3.4 0 6-2.1 6-5.3 0-1.4-.5-2.5-1.5-3.5-1.5-1.3-3.8-2.1-6-2.8-2-.7-4.5-1.6-6.4-3.4-1.3-1.1-3.1-3.2-3.1-7.2 0-5.7 3.8-11.4 12.4-11.4 2.4 0 7 .5 11 4.5l-3.9 5.2zM-1272 2659.2c0 11.8-8.5 20.2-20.6 20.2s-20.6-8.4-20.6-20.2 8.5-20.2 20.6-20.2 20.6 8.4 20.6 20.2zm-7.8 0c0-7.8-5.3-13.4-12.9-13.4s-12.9 5.6-12.9 13.4 5.3 13.3 12.9 13.3 12.9-5.5 12.9-13.3zM-1257.5 2639.8v24.3c0 3 1 4.8 1.9 5.7 1.1 1.3 3.1 2.7 6.1 2.7 3 0 5-1.3 6.1-2.7.9-1 1.9-2.8 1.9-5.7v-24.3h7.5v23.7c0 3.7-.6 7.4-2.9 10.3-2.8 3.7-7.7 5.6-12.6 5.6-5 0-9.9-1.9-12.6-5.6-2.3-3-2.9-6.7-2.9-10.3v-23.7h7.5zM-1214 2639.8c5.3 0 8.1 1.4 9.9 2.9 3 2.5 3.8 5.8 3.8 8.7 0 3.8-1.5 7.1-4.5 9.1-1 .7-2.4 1.3-4.2 1.7l12.1 16.3h-9.4l-10.3-15.5h-.9v15.5h-7.5v-38.7h11zm-3.6 17.8h2.1c1.5 0 7.4-.2 7.4-5.9s-5.9-5.8-7.3-5.8h-2.3v11.7zM-1163.8 2677.1c-2.3 1.2-5.4 2.3-9.6 2.3-6.8 0-10.9-2.3-14.2-5.4-4.5-4.3-6.2-9.1-6.2-14.8 0-7 2.9-12.1 6.2-15.1 3.9-3.7 8.7-5.1 14.2-5.1 2.7 0 6 .5 9.5 2.4v8.8c-3.5-4.1-7.9-4.3-9.3-4.3-7.8 0-12.8 6.4-12.8 13.5 0 8.6 6.6 13.2 13.1 13.2 3.6 0 6.8-1.6 9-4.2v8.7zM-1135.4 2646.3h-13.9v8.6h13.3v6.5h-13.3v10.6h13.9v6.5h-21.5v-38.7h21.5v6.5zM-1109.1 2648.7c-2.3-3-4.9-3.3-6.3-3.3-4.1 0-5.3 2.6-5.3 4.5 0 .9.3 1.8 1.2 2.6.9.9 2.2 1.3 4.6 2.2 3 1 5.9 2.1 7.8 3.9 1.7 1.6 3.3 4.2 3.3 8.1 0 7.5-5.5 12.7-13.5 12.7-7.1 0-11.3-4.3-13.3-7.3l4.9-4.7c1.9 3.8 5.4 5.2 8.1 5.2 3.4 0 6-2.1 6-5.3 0-1.4-.5-2.5-1.5-3.5-1.5-1.3-3.8-2.1-6-2.8-2-.7-4.5-1.6-6.4-3.4-1.3-1.1-3.1-3.2-3.1-7.2 0-5.7 3.8-11.4 12.4-11.4 2.4 0 7 .5 11 4.5l-3.9 5.2zM-1518.2 2678.5v-29.3l-11.9 29.3h-2.9l-11.8-29.3v29.3h-6.8v-38.7h9.6l10.5 26.1 10.6-26.1h9.6v38.7h-6.9z"/><path class="st2" d="m-1645.4 2416.9-36.6 140.7-37.3-140.7h-40.1l54.9 184.3h44.3l54.9-184.3z"/><path d="M-1487.1 2416.9v184.3h105.5v-32.4h-68.9v-45h66.8v-32.4h-66.8v-42.2h68.9v-32.3zM-1361.2 2416.9v184.3h106.2v-32.4h-68.9v-45h66.8v-32.4h-66.8v-42.2h68.9v-32.3zM-1136.8 2416.9v104.8l-60.5-104.8h-37.3v184.3h36.6v-109.1l63.3 109.1h35.2v-184.3zM-1525.8 2464.7l17.6-28.1c-14.1-13.4-33.8-20.4-56.3-20.4h-7l-10.6 39.4c3.5-4.2 9.8-6.3 16.9-6.3 14.1-.1 28.1 4.8 39.4 15.4M-1586.3 2467.5l-13.4 44.3c24.6 15.5 57.7 18.3 57.7 39.4 0 11.3-9.1 20.4-25.3 20.4-18.3 0-33.8-8.4-44.3-19l-10.6 35.2c14.1 10.6 31.7 16.9 54.9 16.9 40.1 0 62.6-23.9 62.6-56.3 0-60.5-76.7-54.9-81.6-80.9M-2787.8 2813.9h889V3249h-889z"/><path class="st1" d="M-1863.2 2813.9H-969V3249h-894.2zM-2652.8 3130h-13v8.6h12.2v6.5h-12.2v17.1h-7.5v-38.7h20.5v6.5zM-2606.8 3142.9c0 11.8-8.5 20.2-20.6 20.2s-20.6-8.4-20.6-20.2 8.5-20.2 20.6-20.2 20.6 8.4 20.6 20.2zm-7.8 0c0-7.8-5.3-13.4-12.9-13.4s-12.9 5.6-12.9 13.4 5.3 13.3 12.9 13.3 12.9-5.5 12.9-13.3zM-2588.7 3123.5c5.3 0 8.1 1.4 9.9 2.9 3 2.5 3.8 5.8 3.8 8.7 0 3.8-1.5 7.1-4.5 9.1-1 .7-2.4 1.3-4.2 1.7l12.1 16.3h-9.4l-10.3-15.5h-.9v15.5h-7.5v-38.7h11zm-3.6 17.8h2.1c1.5 0 7.4-.2 7.4-5.9s-5.9-5.8-7.3-5.8h-2.3v11.7zM-2545.5 3138.5h16.4v-15h7.5v38.7h-7.5V3145h-16.4v17.2h-7.5v-38.7h7.5v15zM-2505.3 3123.5v24.3c0 3 1 4.8 1.9 5.7 1.1 1.3 3.1 2.7 6.1 2.7 3 0 5-1.3 6.1-2.7.9-1 1.9-2.8 1.9-5.7v-24.3h7.5v23.7c0 3.7-.6 7.4-2.9 10.3-2.8 3.7-7.7 5.6-12.6 5.6-5 0-9.9-1.9-12.6-5.6-2.3-3-2.9-6.7-2.9-10.3v-23.7h7.5zM-2399.5 3154.1h-15.6l-3.4 8.1h-8.2l16.6-38.7h5.9l16.2 38.7h-8.1l-3.4-8.1zm-2.2-6.2-5.5-13.9-5.5 13.9h11zM-2383.5 3162.2v-38.7h5.2l23.5 25.8v-25.8h7.5v38.7h-5.2l-23.5-25.9v25.9h-7.5zM-2313.6 3123.5c5.3 0 8.1 1.4 9.9 2.9 3 2.5 3.8 5.8 3.8 8.7 0 3.8-1.5 7.1-4.5 9.1-1 .7-2.4 1.3-4.2 1.7l12.1 16.3h-9.4l-10.3-15.5h-.9v15.5h-7.5v-38.7h11zm-3.7 17.8h2.1c1.5 0 7.4-.2 7.4-5.9s-5.9-5.8-7.3-5.8h-2.3v11.7zM-2270.1 3130h-13.9v8.6h13.3v6.5h-13.3v10.6h13.9v6.5h-21.5v-38.7h21.5v6.5zM-2243.8 3132.3c-2.3-3-4.9-3.3-6.3-3.3-4.1 0-5.3 2.6-5.3 4.5 0 .9.3 1.8 1.2 2.6.9.9 2.2 1.3 4.6 2.2 3 1 5.9 2.1 7.8 3.9 1.7 1.6 3.3 4.2 3.3 8.1 0 7.5-5.5 12.7-13.5 12.7-7.1 0-11.3-4.3-13.3-7.3l4.9-4.7c1.9 3.8 5.4 5.2 8.1 5.2 3.4 0 6-2.1 6-5.3 0-1.4-.5-2.5-1.5-3.5-1.5-1.3-3.8-2.1-6-2.8-2-.7-4.5-1.6-6.4-3.4-1.3-1.1-3.1-3.2-3.1-7.2 0-5.7 3.8-11.4 12.4-11.4 2.4 0 7 .5 11 4.5l-3.9 5.2zM-2192.4 3142.9c0 11.8-8.5 20.2-20.6 20.2s-20.6-8.4-20.6-20.2 8.5-20.2 20.6-20.2 20.6 8.4 20.6 20.2zm-7.7 0c0-7.8-5.3-13.4-12.9-13.4s-12.9 5.6-12.9 13.4 5.3 13.3 12.9 13.3 12.9-5.5 12.9-13.3zM-2177.9 3123.5v24.3c0 3 1 4.8 1.9 5.7 1.1 1.3 3.1 2.7 6.1 2.7 3 0 5-1.3 6.1-2.7.9-1 1.9-2.8 1.9-5.7v-24.3h7.5v23.7c0 3.7-.6 7.4-2.9 10.3-2.8 3.7-7.7 5.6-12.6 5.6-5 0-9.9-1.9-12.6-5.6-2.3-3-2.9-6.7-2.9-10.3v-23.7h7.5zM-2134.3 3123.5c5.3 0 8.1 1.4 9.9 2.9 3 2.5 3.8 5.8 3.8 8.7 0 3.8-1.5 7.1-4.5 9.1-1 .7-2.4 1.3-4.2 1.7l12.1 16.3h-9.4l-10.3-15.5h-.9v15.5h-7.5v-38.7h11zm-3.7 17.8h2.1c1.5 0 7.4-.2 7.4-5.9s-5.9-5.8-7.3-5.8h-2.3v11.7zM-2084.1 3160.8c-2.3 1.2-5.4 2.3-9.6 2.3-6.8 0-10.9-2.3-14.2-5.4-4.5-4.3-6.2-9.1-6.2-14.8 0-7 2.9-12.1 6.2-15.1 3.9-3.7 8.7-5.1 14.2-5.1 2.7 0 6 .5 9.5 2.4v8.8c-3.5-4.1-7.9-4.3-9.3-4.3-7.8 0-12.8 6.4-12.8 13.5 0 8.6 6.6 13.2 13.1 13.2 3.6 0 6.8-1.6 9-4.2v8.7zM-2055.7 3130h-13.9v8.6h13.3v6.5h-13.3v10.6h13.9v6.5h-21.5v-38.7h21.5v6.5zM-2029.4 3132.3c-2.3-3-4.9-3.3-6.3-3.3-4.1 0-5.3 2.6-5.3 4.5 0 .9.3 1.8 1.2 2.6.9.9 2.2 1.3 4.6 2.2 3 1 5.9 2.1 7.8 3.9 1.7 1.6 3.3 4.2 3.3 8.1 0 7.5-5.5 12.7-13.5 12.7-7.1 0-11.3-4.3-13.3-7.3l4.9-4.7c1.9 3.8 5.4 5.2 8.1 5.2 3.4 0 6-2.1 6-5.3 0-1.4-.5-2.5-1.5-3.5-1.5-1.3-3.8-2.1-6-2.8-2-.7-4.5-1.6-6.4-3.4-1.3-1.1-3.1-3.2-3.1-7.2 0-5.7 3.8-11.4 12.4-11.4 2.4 0 7 .5 11 4.5l-3.9 5.2zM-2438.5 3162.2v-29.3l-11.9 29.3h-2.9l-11.8-29.3v29.3h-6.8v-38.7h9.6l10.5 26.1 10.6-26.1h9.6v38.7h-6.9z"/><path class="st3" d="m-2565.8 2900.5-36.5 140.7-37.3-140.7h-40.1l54.9 184.3h44.3l54.8-184.3z"/><path class="st1" d="M-2407.5 2900.5v184.3h105.6v-32.3h-69v-45.1h66.9v-32.3h-66.9v-42.2h69v-32.4zM-2281.5 2900.5v184.3h106.2v-32.3h-68.9v-45.1h66.8v-32.3h-66.8v-42.2h68.9v-32.4zM-2057.1 2900.5v104.8l-60.5-104.8h-37.3v184.3h36.6v-109l63.3 109h35.2v-184.3zM-2446.2 2948.3l17.6-28.1c-14.1-13.4-33.8-20.4-56.3-20.4h-7l-10.6 39.4c3.5-4.2 9.8-6.3 16.9-6.3 14.1 0 28.2 4.9 39.4 15.4M-2506.7 2951.2l-13.4 44.3c24.6 15.5 57.7 18.3 57.7 39.4 0 11.3-9.1 20.4-25.3 20.4-18.3 0-33.8-8.4-44.3-19l-10.6 35.2c14.1 10.6 31.7 16.9 54.9 16.9 40.1 0 62.6-23.9 62.6-56.3.1-60.5-76.6-54.9-81.6-80.9"/><path d="M-1732.4 3130h-13v8.6h12.2v6.5h-12.2v17.1h-7.5v-38.7h20.5v6.5zM-1686.5 3142.9c0 11.8-8.5 20.2-20.6 20.2s-20.6-8.4-20.6-20.2 8.5-20.2 20.6-20.2 20.6 8.4 20.6 20.2zm-7.8 0c0-7.8-5.3-13.4-12.9-13.4s-12.9 5.6-12.9 13.4 5.3 13.3 12.9 13.3 12.9-5.5 12.9-13.3zM-1668.3 3123.5c5.3 0 8.1 1.4 9.9 2.9 3 2.5 3.8 5.8 3.8 8.7 0 3.8-1.5 7.1-4.5 9.1-1 .7-2.4 1.3-4.2 1.7l12.1 16.3h-9.4l-10.3-15.5h-.9v15.5h-7.5v-38.7h11zm-3.7 17.8h2.1c1.5 0 7.4-.2 7.4-5.9s-5.9-5.8-7.3-5.8h-2.3v11.7zM-1625.2 3138.5h16.4v-15h7.5v38.7h-7.5V3145h-16.4v17.2h-7.5v-38.7h7.5v15zM-1584.9 3123.5v24.3c0 3 1 4.8 1.9 5.7 1.1 1.3 3.1 2.7 6.1 2.7 3 0 5-1.3 6.1-2.7.9-1 1.9-2.8 1.9-5.7v-24.3h7.5v23.7c0 3.7-.6 7.4-2.9 10.3-2.8 3.7-7.7 5.6-12.6 5.6-5 0-9.9-1.9-12.6-5.6-2.3-3-2.9-6.7-2.9-10.3v-23.7h7.5zM-1479.2 3154.1h-15.6l-3.4 8.1h-8.2l16.6-38.7h5.9l16.2 38.7h-8.1l-3.4-8.1zm-2.2-6.2-5.5-13.9-5.5 13.9h11zM-1463.1 3162.2v-38.7h5.2l23.5 25.8v-25.8h7.5v38.7h-5.2l-23.5-25.9v25.9h-7.5zM-1393.3 3123.5c5.3 0 8.1 1.4 9.9 2.9 3 2.5 3.8 5.8 3.8 8.7 0 3.8-1.5 7.1-4.5 9.1-1 .7-2.4 1.3-4.2 1.7l12.1 16.3h-9.4l-10.3-15.5h-.9v15.5h-7.5v-38.7h11zm-3.7 17.8h2.1c1.5 0 7.4-.2 7.4-5.9s-5.9-5.8-7.3-5.8h-2.3v11.7zM-1349.7 3130h-13.9v8.6h13.3v6.5h-13.3v10.6h13.9v6.5h-21.5v-38.7h21.5v6.5zM-1323.4 3132.3c-2.3-3-4.9-3.3-6.3-3.3-4.1 0-5.3 2.6-5.3 4.5 0 .9.3 1.8 1.2 2.6.9.9 2.2 1.3 4.6 2.2 3 1 5.9 2.1 7.8 3.9 1.7 1.6 3.3 4.2 3.3 8.1 0 7.5-5.5 12.7-13.5 12.7-7.1 0-11.3-4.3-13.3-7.3l4.9-4.7c1.9 3.8 5.4 5.2 8.1 5.2 3.4 0 6-2.1 6-5.3 0-1.4-.5-2.5-1.5-3.5-1.5-1.3-3.8-2.1-6-2.8-2-.7-4.5-1.6-6.4-3.4-1.3-1.1-3.1-3.2-3.1-7.2 0-5.7 3.8-11.4 12.4-11.4 2.4 0 7 .5 11 4.5l-3.9 5.2zM-1272 3142.9c0 11.8-8.5 20.2-20.6 20.2s-20.6-8.4-20.6-20.2 8.5-20.2 20.6-20.2 20.6 8.4 20.6 20.2zm-7.8 0c0-7.8-5.3-13.4-12.9-13.4s-12.9 5.6-12.9 13.4 5.3 13.3 12.9 13.3 12.9-5.5 12.9-13.3zM-1257.5 3123.5v24.3c0 3 1 4.8 1.9 5.7 1.1 1.3 3.1 2.7 6.1 2.7 3 0 5-1.3 6.1-2.7.9-1 1.9-2.8 1.9-5.7v-24.3h7.5v23.7c0 3.7-.6 7.4-2.9 10.3-2.8 3.7-7.7 5.6-12.6 5.6-5 0-9.9-1.9-12.6-5.6-2.3-3-2.9-6.7-2.9-10.3v-23.7h7.5zM-1214 3123.5c5.3 0 8.1 1.4 9.9 2.9 3 2.5 3.8 5.8 3.8 8.7 0 3.8-1.5 7.1-4.5 9.1-1 .7-2.4 1.3-4.2 1.7l12.1 16.3h-9.4l-10.3-15.5h-.9v15.5h-7.5v-38.7h11zm-3.6 17.8h2.1c1.5 0 7.4-.2 7.4-5.9s-5.9-5.8-7.3-5.8h-2.3v11.7zM-1163.8 3160.8c-2.3 1.2-5.4 2.3-9.6 2.3-6.8 0-10.9-2.3-14.2-5.4-4.5-4.3-6.2-9.1-6.2-14.8 0-7 2.9-12.1 6.2-15.1 3.9-3.7 8.7-5.1 14.2-5.1 2.7 0 6 .5 9.5 2.4v8.8c-3.5-4.1-7.9-4.3-9.3-4.3-7.8 0-12.8 6.4-12.8 13.5 0 8.6 6.6 13.2 13.1 13.2 3.6 0 6.8-1.6 9-4.2v8.7zM-1135.4 3130h-13.9v8.6h13.3v6.5h-13.3v10.6h13.9v6.5h-21.5v-38.7h21.5v6.5zM-1109.1 3132.3c-2.3-3-4.9-3.3-6.3-3.3-4.1 0-5.3 2.6-5.3 4.5 0 .9.3 1.8 1.2 2.6.9.9 2.2 1.3 4.6 2.2 3 1 5.9 2.1 7.8 3.9 1.7 1.6 3.3 4.2 3.3 8.1 0 7.5-5.5 12.7-13.5 12.7-7.1 0-11.3-4.3-13.3-7.3l4.9-4.7c1.9 3.8 5.4 5.2 8.1 5.2 3.4 0 6-2.1 6-5.3 0-1.4-.5-2.5-1.5-3.5-1.5-1.3-3.8-2.1-6-2.8-2-.7-4.5-1.6-6.4-3.4-1.3-1.1-3.1-3.2-3.1-7.2 0-5.7 3.8-11.4 12.4-11.4 2.4 0 7 .5 11 4.5l-3.9 5.2zM-1518.2 3162.2v-29.3l-11.9 29.3h-2.9l-11.8-29.3v29.3h-6.8v-38.7h9.6l10.5 26.1 10.6-26.1h9.6v38.7h-6.9z"/><path class="st3" d="m-1645.4 2900.5-36.6 140.7-37.3-140.7h-40.1l54.9 184.3h44.3l54.9-184.3z"/><path d="M-1487.1 2900.5v184.3h105.5v-32.3h-68.9v-45.1h66.8v-32.3h-66.8v-42.2h68.9v-32.4zM-1361.2 2900.5v184.3h106.2v-32.3h-68.9v-45.1h66.8v-32.3h-66.8v-42.2h68.9v-32.4zM-1136.8 2900.5v104.8l-60.5-104.8h-37.3v184.3h36.6v-109l63.3 109h35.2v-184.3zM-1525.8 2948.3l17.6-28.1c-14.1-13.4-33.8-20.4-56.3-20.4h-7l-10.6 39.4c3.5-4.2 9.8-6.3 16.9-6.3 14.1 0 28.1 4.9 39.4 15.4M-1586.3 2951.2l-13.4 44.3c24.6 15.5 57.7 18.3 57.7 39.4 0 11.3-9.1 20.4-25.3 20.4-18.3 0-33.8-8.4-44.3-19l-10.6 35.2c14.1 10.6 31.7 16.9 54.9 16.9 40.1 0 62.6-23.9 62.6-56.3 0-60.5-76.7-54.9-81.6-80.9M-2787.8 3297.5h889v435.1h-889z"/><path class="st1" d="M-1863.2 3297.5H-969v435.1h-894.2zM-2652.8 3613.6h-13v8.6h12.2v6.5h-12.2v17.1h-7.5v-38.7h20.5v6.5zM-2606.8 3626.5c0 11.8-8.5 20.2-20.6 20.2s-20.6-8.4-20.6-20.2 8.5-20.2 20.6-20.2 20.6 8.4 20.6 20.2zm-7.8 0c0-7.8-5.3-13.4-12.9-13.4s-12.9 5.6-12.9 13.4 5.3 13.3 12.9 13.3 12.9-5.5 12.9-13.3zM-2588.7 3607.1c5.3 0 8.1 1.4 9.9 2.9 3 2.5 3.8 5.8 3.8 8.7 0 3.8-1.5 7.1-4.5 9.1-1 .7-2.4 1.3-4.2 1.7l12.1 16.3h-9.4l-10.3-15.5h-.9v15.5h-7.5v-38.7h11zm-3.6 17.8h2.1c1.5 0 7.4-.2 7.4-5.9s-5.9-5.8-7.3-5.8h-2.3v11.7zM-2545.5 3622.1h16.4v-15h7.5v38.7h-7.5v-17.2h-16.4v17.2h-7.5v-38.7h7.5v15zM-2505.3 3607.1v24.3c0 3 1 4.8 1.9 5.7 1.1 1.3 3.1 2.7 6.1 2.7 3 0 5-1.3 6.1-2.7.9-1 1.9-2.8 1.9-5.7v-24.3h7.5v23.7c0 3.7-.6 7.4-2.9 10.3-2.8 3.7-7.7 5.6-12.6 5.6-5 0-9.9-1.9-12.6-5.6-2.3-3-2.9-6.7-2.9-10.3v-23.7h7.5zM-2399.5 3637.7h-15.6l-3.4 8.1h-8.2l16.6-38.7h5.9l16.2 38.7h-8.1l-3.4-8.1zm-2.2-6.1-5.5-13.9-5.5 13.9h11zM-2383.5 3645.8v-38.7h5.2l23.5 25.8v-25.8h7.5v38.7h-5.2l-23.5-25.9v25.9h-7.5zM-2313.6 3607.1c5.3 0 8.1 1.4 9.9 2.9 3 2.5 3.8 5.8 3.8 8.7 0 3.8-1.5 7.1-4.5 9.1-1 .7-2.4 1.3-4.2 1.7l12.1 16.3h-9.4l-10.3-15.5h-.9v15.5h-7.5v-38.7h11zm-3.7 17.8h2.1c1.5 0 7.4-.2 7.4-5.9s-5.9-5.8-7.3-5.8h-2.3v11.7zM-2270.1 3613.6h-13.9v8.6h13.3v6.5h-13.3v10.6h13.9v6.5h-21.5v-38.7h21.5v6.5zM-2243.8 3616c-2.3-3-4.9-3.3-6.3-3.3-4.1 0-5.3 2.6-5.3 4.5 0 .9.3 1.8 1.2 2.6.9.9 2.2 1.3 4.6 2.2 3 1 5.9 2.1 7.8 3.9 1.7 1.6 3.3 4.2 3.3 8.1 0 7.5-5.5 12.7-13.5 12.7-7.1 0-11.3-4.3-13.3-7.3l4.9-4.7c1.9 3.8 5.4 5.2 8.1 5.2 3.4 0 6-2.1 6-5.3 0-1.4-.5-2.5-1.5-3.5-1.5-1.3-3.8-2.1-6-2.8-2-.7-4.5-1.6-6.4-3.4-1.3-1.1-3.1-3.2-3.1-7.2 0-5.7 3.8-11.4 12.4-11.4 2.4 0 7 .5 11 4.5l-3.9 5.2zM-2192.4 3626.5c0 11.8-8.5 20.2-20.6 20.2s-20.6-8.4-20.6-20.2 8.5-20.2 20.6-20.2 20.6 8.4 20.6 20.2zm-7.7 0c0-7.8-5.3-13.4-12.9-13.4s-12.9 5.6-12.9 13.4 5.3 13.3 12.9 13.3 12.9-5.5 12.9-13.3zM-2177.9 3607.1v24.3c0 3 1 4.8 1.9 5.7 1.1 1.3 3.1 2.7 6.1 2.7 3 0 5-1.3 6.1-2.7.9-1 1.9-2.8 1.9-5.7v-24.3h7.5v23.7c0 3.7-.6 7.4-2.9 10.3-2.8 3.7-7.7 5.6-12.6 5.6-5 0-9.9-1.9-12.6-5.6-2.3-3-2.9-6.7-2.9-10.3v-23.7h7.5zM-2134.3 3607.1c5.3 0 8.1 1.4 9.9 2.9 3 2.5 3.8 5.8 3.8 8.7 0 3.8-1.5 7.1-4.5 9.1-1 .7-2.4 1.3-4.2 1.7l12.1 16.3h-9.4l-10.3-15.5h-.9v15.5h-7.5v-38.7h11zm-3.7 17.8h2.1c1.5 0 7.4-.2 7.4-5.9s-5.9-5.8-7.3-5.8h-2.3v11.7zM-2084.1 3644.4c-2.3 1.2-5.4 2.3-9.6 2.3-6.8 0-10.9-2.3-14.2-5.4-4.5-4.3-6.2-9.1-6.2-14.8 0-7 2.9-12.1 6.2-15.1 3.9-3.7 8.7-5.1 14.2-5.1 2.7 0 6 .5 9.5 2.4v8.8c-3.5-4.1-7.9-4.3-9.3-4.3-7.8 0-12.8 6.4-12.8 13.5 0 8.6 6.6 13.2 13.1 13.2 3.6 0 6.8-1.6 9-4.2v8.7zM-2055.7 3613.6h-13.9v8.6h13.3v6.5h-13.3v10.6h13.9v6.5h-21.5v-38.7h21.5v6.5zM-2029.4 3616c-2.3-3-4.9-3.3-6.3-3.3-4.1 0-5.3 2.6-5.3 4.5 0 .9.3 1.8 1.2 2.6.9.9 2.2 1.3 4.6 2.2 3 1 5.9 2.1 7.8 3.9 1.7 1.6 3.3 4.2 3.3 8.1 0 7.5-5.5 12.7-13.5 12.7-7.1 0-11.3-4.3-13.3-7.3l4.9-4.7c1.9 3.8 5.4 5.2 8.1 5.2 3.4 0 6-2.1 6-5.3 0-1.4-.5-2.5-1.5-3.5-1.5-1.3-3.8-2.1-6-2.8-2-.7-4.5-1.6-6.4-3.4-1.3-1.1-3.1-3.2-3.1-7.2 0-5.7 3.8-11.4 12.4-11.4 2.4 0 7 .5 11 4.5l-3.9 5.2zM-2438.5 3645.8v-29.3l-11.9 29.3h-2.9l-11.8-29.3v29.3h-6.8v-38.7h9.6l10.5 26.1 10.6-26.1h9.6v38.7h-6.9z"/><path class="st4" d="m-2565.8 3384.2-36.5 140.7-37.3-140.7h-40.1l54.9 184.3h44.3l54.8-184.3z"/><path class="st1" d="M-2407.5 3384.2v184.3h105.6v-32.4h-69v-45h66.9v-32.4h-66.9v-42.2h69v-32.3zM-2281.5 3384.2v184.3h106.2v-32.4h-68.9v-45h66.8v-32.4h-66.8v-42.2h68.9v-32.3zM-2057.1 3384.2V3489l-60.5-104.8h-37.3v184.3h36.6v-109.1l63.3 109.1h35.2v-184.3zM-2446.2 3432l17.6-28.1c-14.1-13.4-33.8-20.4-56.3-20.4h-7l-10.6 39.4c3.5-4.2 9.8-6.3 16.9-6.3 14.1-.1 28.2 4.8 39.4 15.4M-2506.7 3434.8l-13.4 44.3c24.6 15.5 57.7 18.3 57.7 39.4 0 11.3-9.1 20.4-25.3 20.4-18.3 0-33.8-8.4-44.3-19l-10.6 35.2c14.1 10.6 31.7 16.9 54.9 16.9 40.1 0 62.6-23.9 62.6-56.3.1-60.5-76.6-54.9-81.6-80.9"/><path d="M-1732.4 3613.6h-13v8.6h12.2v6.5h-12.2v17.1h-7.5v-38.7h20.5v6.5zM-1686.5 3626.5c0 11.8-8.5 20.2-20.6 20.2s-20.6-8.4-20.6-20.2 8.5-20.2 20.6-20.2 20.6 8.4 20.6 20.2zm-7.8 0c0-7.8-5.3-13.4-12.9-13.4s-12.9 5.6-12.9 13.4 5.3 13.3 12.9 13.3 12.9-5.5 12.9-13.3zM-1668.3 3607.1c5.3 0 8.1 1.4 9.9 2.9 3 2.5 3.8 5.8 3.8 8.7 0 3.8-1.5 7.1-4.5 9.1-1 .7-2.4 1.3-4.2 1.7l12.1 16.3h-9.4l-10.3-15.5h-.9v15.5h-7.5v-38.7h11zm-3.7 17.8h2.1c1.5 0 7.4-.2 7.4-5.9s-5.9-5.8-7.3-5.8h-2.3v11.7zM-1625.2 3622.1h16.4v-15h7.5v38.7h-7.5v-17.2h-16.4v17.2h-7.5v-38.7h7.5v15zM-1584.9 3607.1v24.3c0 3 1 4.8 1.9 5.7 1.1 1.3 3.1 2.7 6.1 2.7 3 0 5-1.3 6.1-2.7.9-1 1.9-2.8 1.9-5.7v-24.3h7.5v23.7c0 3.7-.6 7.4-2.9 10.3-2.8 3.7-7.7 5.6-12.6 5.6-5 0-9.9-1.9-12.6-5.6-2.3-3-2.9-6.7-2.9-10.3v-23.7h7.5zM-1479.2 3637.7h-15.6l-3.4 8.1h-8.2l16.6-38.7h5.9l16.2 38.7h-8.1l-3.4-8.1zm-2.2-6.1-5.5-13.9-5.5 13.9h11zM-1463.1 3645.8v-38.7h5.2l23.5 25.8v-25.8h7.5v38.7h-5.2l-23.5-25.9v25.9h-7.5zM-1393.3 3607.1c5.3 0 8.1 1.4 9.9 2.9 3 2.5 3.8 5.8 3.8 8.7 0 3.8-1.5 7.1-4.5 9.1-1 .7-2.4 1.3-4.2 1.7l12.1 16.3h-9.4l-10.3-15.5h-.9v15.5h-7.5v-38.7h11zm-3.7 17.8h2.1c1.5 0 7.4-.2 7.4-5.9s-5.9-5.8-7.3-5.8h-2.3v11.7zM-1349.7 3613.6h-13.9v8.6h13.3v6.5h-13.3v10.6h13.9v6.5h-21.5v-38.7h21.5v6.5zM-1323.4 3616c-2.3-3-4.9-3.3-6.3-3.3-4.1 0-5.3 2.6-5.3 4.5 0 .9.3 1.8 1.2 2.6.9.9 2.2 1.3 4.6 2.2 3 1 5.9 2.1 7.8 3.9 1.7 1.6 3.3 4.2 3.3 8.1 0 7.5-5.5 12.7-13.5 12.7-7.1 0-11.3-4.3-13.3-7.3l4.9-4.7c1.9 3.8 5.4 5.2 8.1 5.2 3.4 0 6-2.1 6-5.3 0-1.4-.5-2.5-1.5-3.5-1.5-1.3-3.8-2.1-6-2.8-2-.7-4.5-1.6-6.4-3.4-1.3-1.1-3.1-3.2-3.1-7.2 0-5.7 3.8-11.4 12.4-11.4 2.4 0 7 .5 11 4.5l-3.9 5.2zM-1272 3626.5c0 11.8-8.5 20.2-20.6 20.2s-20.6-8.4-20.6-20.2 8.5-20.2 20.6-20.2 20.6 8.4 20.6 20.2zm-7.8 0c0-7.8-5.3-13.4-12.9-13.4s-12.9 5.6-12.9 13.4 5.3 13.3 12.9 13.3 12.9-5.5 12.9-13.3zM-1257.5 3607.1v24.3c0 3 1 4.8 1.9 5.7 1.1 1.3 3.1 2.7 6.1 2.7 3 0 5-1.3 6.1-2.7.9-1 1.9-2.8 1.9-5.7v-24.3h7.5v23.7c0 3.7-.6 7.4-2.9 10.3-2.8 3.7-7.7 5.6-12.6 5.6-5 0-9.9-1.9-12.6-5.6-2.3-3-2.9-6.7-2.9-10.3v-23.7h7.5zM-1214 3607.1c5.3 0 8.1 1.4 9.9 2.9 3 2.5 3.8 5.8 3.8 8.7 0 3.8-1.5 7.1-4.5 9.1-1 .7-2.4 1.3-4.2 1.7l12.1 16.3h-9.4l-10.3-15.5h-.9v15.5h-7.5v-38.7h11zm-3.6 17.8h2.1c1.5 0 7.4-.2 7.4-5.9s-5.9-5.8-7.3-5.8h-2.3v11.7zM-1163.8 3644.4c-2.3 1.2-5.4 2.3-9.6 2.3-6.8 0-10.9-2.3-14.2-5.4-4.5-4.3-6.2-9.1-6.2-14.8 0-7 2.9-12.1 6.2-15.1 3.9-3.7 8.7-5.1 14.2-5.1 2.7 0 6 .5 9.5 2.4v8.8c-3.5-4.1-7.9-4.3-9.3-4.3-7.8 0-12.8 6.4-12.8 13.5 0 8.6 6.6 13.2 13.1 13.2 3.6 0 6.8-1.6 9-4.2v8.7zM-1135.4 3613.6h-13.9v8.6h13.3v6.5h-13.3v10.6h13.9v6.5h-21.5v-38.7h21.5v6.5zM-1109.1 3616c-2.3-3-4.9-3.3-6.3-3.3-4.1 0-5.3 2.6-5.3 4.5 0 .9.3 1.8 1.2 2.6.9.9 2.2 1.3 4.6 2.2 3 1 5.9 2.1 7.8 3.9 1.7 1.6 3.3 4.2 3.3 8.1 0 7.5-5.5 12.7-13.5 12.7-7.1 0-11.3-4.3-13.3-7.3l4.9-4.7c1.9 3.8 5.4 5.2 8.1 5.2 3.4 0 6-2.1 6-5.3 0-1.4-.5-2.5-1.5-3.5-1.5-1.3-3.8-2.1-6-2.8-2-.7-4.5-1.6-6.4-3.4-1.3-1.1-3.1-3.2-3.1-7.2 0-5.7 3.8-11.4 12.4-11.4 2.4 0 7 .5 11 4.5l-3.9 5.2zM-1518.2 3645.8v-29.3l-11.9 29.3h-2.9l-11.8-29.3v29.3h-6.8v-38.7h9.6l10.5 26.1 10.6-26.1h9.6v38.7h-6.9z"/><path class="st4" d="m-1645.4 3384.2-36.6 140.7-37.3-140.7h-40.1l54.9 184.3h44.3l54.9-184.3z"/><path d="M-1487.1 3384.2v184.3h105.5v-32.4h-68.9v-45h66.8v-32.4h-66.8v-42.2h68.9v-32.3zM-1361.2 3384.2v184.3h106.2v-32.4h-68.9v-45h66.8v-32.4h-66.8v-42.2h68.9v-32.3zM-1136.8 3384.2V3489l-60.5-104.8h-37.3v184.3h36.6v-109.1l63.3 109.1h35.2v-184.3zM-1525.8 3432l17.6-28.1c-14.1-13.4-33.8-20.4-56.3-20.4h-7l-10.6 39.4c3.5-4.2 9.8-6.3 16.9-6.3 14.1-.1 28.1 4.8 39.4 15.4M-1586.3 3434.8l-13.4 44.3c24.6 15.5 57.7 18.3 57.7 39.4 0 11.3-9.1 20.4-25.3 20.4-18.3 0-33.8-8.4-44.3-19l-10.6 35.2c14.1 10.6 31.7 16.9 54.9 16.9 40.1 0 62.6-23.9 62.6-56.3 0-60.5-76.7-54.9-81.6-80.9M-2787.8 3763.9h889V4199h-889z"/><path class="st1" d="M-1863.2 3763.9H-969V4199h-894.2zM-2652.8 4080.1h-13v8.6h12.2v6.5h-12.2v17.1h-7.5v-38.7h20.5v6.5zM-2606.8 4092.9c0 11.8-8.5 20.2-20.6 20.2s-20.6-8.4-20.6-20.2 8.5-20.2 20.6-20.2 20.6 8.5 20.6 20.2zm-7.8 0c0-7.8-5.3-13.4-12.9-13.4s-12.9 5.6-12.9 13.4 5.3 13.3 12.9 13.3 12.9-5.4 12.9-13.3zM-2588.7 4073.6c5.3 0 8.1 1.4 9.9 2.9 3 2.5 3.8 5.8 3.8 8.7 0 3.8-1.5 7.1-4.5 9.1-1 .7-2.4 1.3-4.2 1.7l12.1 16.3h-9.4l-10.3-15.5h-.9v15.5h-7.5v-38.7h11zm-3.6 17.8h2.1c1.5 0 7.4-.2 7.4-5.9s-5.9-5.8-7.3-5.8h-2.3v11.7zM-2545.5 4088.5h16.4v-15h7.5v38.7h-7.5V4095h-16.4v17.2h-7.5v-38.7h7.5v15zM-2505.3 4073.6v24.3c0 3 1 4.8 1.9 5.7 1.1 1.3 3.1 2.7 6.1 2.7 3 0 5-1.3 6.1-2.7.9-1 1.9-2.8 1.9-5.7v-24.3h7.5v23.7c0 3.7-.6 7.4-2.9 10.3-2.8 3.7-7.7 5.6-12.6 5.6-5 0-9.9-1.9-12.6-5.6-2.3-3-2.9-6.7-2.9-10.3v-23.7h7.5zM-2399.5 4104.1h-15.6l-3.4 8.1h-8.2l16.6-38.7h5.9l16.2 38.7h-8.1l-3.4-8.1zm-2.2-6.1-5.5-13.9-5.5 13.9h11zM-2383.5 4112.3v-38.7h5.2l23.5 25.8v-25.8h7.5v38.7h-5.2l-23.5-25.9v25.9h-7.5zM-2313.6 4073.6c5.3 0 8.1 1.4 9.9 2.9 3 2.5 3.8 5.8 3.8 8.7 0 3.8-1.5 7.1-4.5 9.1-1 .7-2.4 1.3-4.2 1.7l12.1 16.3h-9.4l-10.3-15.5h-.9v15.5h-7.5v-38.7h11zm-3.7 17.8h2.1c1.5 0 7.4-.2 7.4-5.9s-5.9-5.8-7.3-5.8h-2.3v11.7zM-2270.1 4080.1h-13.9v8.6h13.3v6.5h-13.3v10.6h13.9v6.5h-21.5v-38.7h21.5v6.5zM-2243.8 4082.4c-2.3-3-4.9-3.3-6.3-3.3-4.1 0-5.3 2.6-5.3 4.5 0 .9.3 1.8 1.2 2.6.9.9 2.2 1.3 4.6 2.2 3 1 5.9 2.1 7.8 3.9 1.7 1.6 3.3 4.2 3.3 8.1 0 7.5-5.5 12.7-13.5 12.7-7.1 0-11.3-4.3-13.3-7.3l4.9-4.7c1.9 3.8 5.4 5.2 8.1 5.2 3.4 0 6-2.1 6-5.3 0-1.4-.5-2.5-1.5-3.5-1.5-1.3-3.8-2.1-6-2.8-2-.7-4.5-1.6-6.4-3.4-1.3-1.1-3.1-3.2-3.1-7.2 0-5.7 3.8-11.4 12.4-11.4 2.4 0 7 .5 11 4.5l-3.9 5.2zM-2192.4 4092.9c0 11.8-8.5 20.2-20.6 20.2s-20.6-8.4-20.6-20.2 8.5-20.2 20.6-20.2 20.6 8.5 20.6 20.2zm-7.7 0c0-7.8-5.3-13.4-12.9-13.4s-12.9 5.6-12.9 13.4 5.3 13.3 12.9 13.3 12.9-5.4 12.9-13.3zM-2177.9 4073.6v24.3c0 3 1 4.8 1.9 5.7 1.1 1.3 3.1 2.7 6.1 2.7 3 0 5-1.3 6.1-2.7.9-1 1.9-2.8 1.9-5.7v-24.3h7.5v23.7c0 3.7-.6 7.4-2.9 10.3-2.8 3.7-7.7 5.6-12.6 5.6-5 0-9.9-1.9-12.6-5.6-2.3-3-2.9-6.7-2.9-10.3v-23.7h7.5zM-2134.3 4073.6c5.3 0 8.1 1.4 9.9 2.9 3 2.5 3.8 5.8 3.8 8.7 0 3.8-1.5 7.1-4.5 9.1-1 .7-2.4 1.3-4.2 1.7l12.1 16.3h-9.4l-10.3-15.5h-.9v15.5h-7.5v-38.7h11zm-3.7 17.8h2.1c1.5 0 7.4-.2 7.4-5.9s-5.9-5.8-7.3-5.8h-2.3v11.7zM-2084.1 4110.9c-2.3 1.2-5.4 2.3-9.6 2.3-6.8 0-10.9-2.3-14.2-5.4-4.5-4.3-6.2-9.1-6.2-14.8 0-7 2.9-12.1 6.2-15.1 3.9-3.7 8.7-5.1 14.2-5.1 2.7 0 6 .5 9.5 2.4v8.8c-3.5-4.1-7.9-4.3-9.3-4.3-7.8 0-12.8 6.4-12.8 13.5 0 8.6 6.6 13.2 13.1 13.2 3.6 0 6.8-1.6 9-4.2v8.7zM-2055.7 4080.1h-13.9v8.6h13.3v6.5h-13.3v10.6h13.9v6.5h-21.5v-38.7h21.5v6.5zM-2029.4 4082.4c-2.3-3-4.9-3.3-6.3-3.3-4.1 0-5.3 2.6-5.3 4.5 0 .9.3 1.8 1.2 2.6.9.9 2.2 1.3 4.6 2.2 3 1 5.9 2.1 7.8 3.9 1.7 1.6 3.3 4.2 3.3 8.1 0 7.5-5.5 12.7-13.5 12.7-7.1 0-11.3-4.3-13.3-7.3l4.9-4.7c1.9 3.8 5.4 5.2 8.1 5.2 3.4 0 6-2.1 6-5.3 0-1.4-.5-2.5-1.5-3.5-1.5-1.3-3.8-2.1-6-2.8-2-.7-4.5-1.6-6.4-3.4-1.3-1.1-3.1-3.2-3.1-7.2 0-5.7 3.8-11.4 12.4-11.4 2.4 0 7 .5 11 4.5l-3.9 5.2zM-2438.5 4112.3V4083l-11.9 29.3h-2.9l-11.8-29.3v29.3h-6.8v-38.7h9.6l10.5 26.1 10.6-26.1h9.6v38.7h-6.9z"/><path class="st5" d="m-2565.8 3850.6-36.5 140.7-37.3-140.7h-40.1l54.9 184.3h44.3l54.8-184.3z"/><path class="st1" d="M-2407.5 3850.6v184.3h105.6v-32.3h-69v-45.1h66.9v-32.3h-66.9V3883h69v-32.4zM-2281.5 3850.6v184.3h106.2v-32.3h-68.9v-45.1h66.8v-32.3h-66.8V3883h68.9v-32.4zM-2057.1 3850.6v104.8l-60.5-104.8h-37.3v184.3h36.6v-109l63.3 109h35.2v-184.3z"/><g><path class="st1" d="m-2446.2 3898.4 17.6-28.1c-14.1-13.4-33.8-20.4-56.3-20.4h-7l-10.6 39.4c3.5-4.2 9.8-6.3 16.9-6.3 14.1 0 28.2 4.9 39.4 15.4M-2506.7 3901.3l-13.4 44.3c24.6 15.5 57.7 18.3 57.7 39.4 0 11.3-9.1 20.4-25.3 20.4-18.3 0-33.8-8.4-44.3-19l-10.6 35.2c14.1 10.6 31.7 16.9 54.9 16.9 40.1 0 62.6-23.9 62.6-56.3.1-60.5-76.6-54.9-81.6-80.9"/></g><path d="M-1732.4 4080.1h-13v8.6h12.2v6.5h-12.2v17.1h-7.5v-38.7h20.5v6.5zM-1686.5 4092.9c0 11.8-8.5 20.2-20.6 20.2s-20.6-8.4-20.6-20.2 8.5-20.2 20.6-20.2 20.6 8.5 20.6 20.2zm-7.8 0c0-7.8-5.3-13.4-12.9-13.4s-12.9 5.6-12.9 13.4 5.3 13.3 12.9 13.3 12.9-5.4 12.9-13.3zM-1668.3 4073.6c5.3 0 8.1 1.4 9.9 2.9 3 2.5 3.8 5.8 3.8 8.7 0 3.8-1.5 7.1-4.5 9.1-1 .7-2.4 1.3-4.2 1.7l12.1 16.3h-9.4l-10.3-15.5h-.9v15.5h-7.5v-38.7h11zm-3.7 17.8h2.1c1.5 0 7.4-.2 7.4-5.9s-5.9-5.8-7.3-5.8h-2.3v11.7zM-1625.2 4088.5h16.4v-15h7.5v38.7h-7.5V4095h-16.4v17.2h-7.5v-38.7h7.5v15zM-1584.9 4073.6v24.3c0 3 1 4.8 1.9 5.7 1.1 1.3 3.1 2.7 6.1 2.7 3 0 5-1.3 6.1-2.7.9-1 1.9-2.8 1.9-5.7v-24.3h7.5v23.7c0 3.7-.6 7.4-2.9 10.3-2.8 3.7-7.7 5.6-12.6 5.6-5 0-9.9-1.9-12.6-5.6-2.3-3-2.9-6.7-2.9-10.3v-23.7h7.5zM-1479.2 4104.1h-15.6l-3.4 8.1h-8.2l16.6-38.7h5.9l16.2 38.7h-8.1l-3.4-8.1zm-2.2-6.1-5.5-13.9-5.5 13.9h11zM-1463.1 4112.3v-38.7h5.2l23.5 25.8v-25.8h7.5v38.7h-5.2l-23.5-25.9v25.9h-7.5zM-1393.3 4073.6c5.3 0 8.1 1.4 9.9 2.9 3 2.5 3.8 5.8 3.8 8.7 0 3.8-1.5 7.1-4.5 9.1-1 .7-2.4 1.3-4.2 1.7l12.1 16.3h-9.4l-10.3-15.5h-.9v15.5h-7.5v-38.7h11zm-3.7 17.8h2.1c1.5 0 7.4-.2 7.4-5.9s-5.9-5.8-7.3-5.8h-2.3v11.7zM-1349.7 4080.1h-13.9v8.6h13.3v6.5h-13.3v10.6h13.9v6.5h-21.5v-38.7h21.5v6.5zM-1323.4 4082.4c-2.3-3-4.9-3.3-6.3-3.3-4.1 0-5.3 2.6-5.3 4.5 0 .9.3 1.8 1.2 2.6.9.9 2.2 1.3 4.6 2.2 3 1 5.9 2.1 7.8 3.9 1.7 1.6 3.3 4.2 3.3 8.1 0 7.5-5.5 12.7-13.5 12.7-7.1 0-11.3-4.3-13.3-7.3l4.9-4.7c1.9 3.8 5.4 5.2 8.1 5.2 3.4 0 6-2.1 6-5.3 0-1.4-.5-2.5-1.5-3.5-1.5-1.3-3.8-2.1-6-2.8-2-.7-4.5-1.6-6.4-3.4-1.3-1.1-3.1-3.2-3.1-7.2 0-5.7 3.8-11.4 12.4-11.4 2.4 0 7 .5 11 4.5l-3.9 5.2zM-1272 4092.9c0 11.8-8.5 20.2-20.6 20.2s-20.6-8.4-20.6-20.2 8.5-20.2 20.6-20.2 20.6 8.5 20.6 20.2zm-7.8 0c0-7.8-5.3-13.4-12.9-13.4s-12.9 5.6-12.9 13.4 5.3 13.3 12.9 13.3 12.9-5.4 12.9-13.3zM-1257.5 4073.6v24.3c0 3 1 4.8 1.9 5.7 1.1 1.3 3.1 2.7 6.1 2.7 3 0 5-1.3 6.1-2.7.9-1 1.9-2.8 1.9-5.7v-24.3h7.5v23.7c0 3.7-.6 7.4-2.9 10.3-2.8 3.7-7.7 5.6-12.6 5.6-5 0-9.9-1.9-12.6-5.6-2.3-3-2.9-6.7-2.9-10.3v-23.7h7.5zM-1214 4073.6c5.3 0 8.1 1.4 9.9 2.9 3 2.5 3.8 5.8 3.8 8.7 0 3.8-1.5 7.1-4.5 9.1-1 .7-2.4 1.3-4.2 1.7l12.1 16.3h-9.4l-10.3-15.5h-.9v15.5h-7.5v-38.7h11zm-3.6 17.8h2.1c1.5 0 7.4-.2 7.4-5.9s-5.9-5.8-7.3-5.8h-2.3v11.7zM-1163.8 4110.9c-2.3 1.2-5.4 2.3-9.6 2.3-6.8 0-10.9-2.3-14.2-5.4-4.5-4.3-6.2-9.1-6.2-14.8 0-7 2.9-12.1 6.2-15.1 3.9-3.7 8.7-5.1 14.2-5.1 2.7 0 6 .5 9.5 2.4v8.8c-3.5-4.1-7.9-4.3-9.3-4.3-7.8 0-12.8 6.4-12.8 13.5 0 8.6 6.6 13.2 13.1 13.2 3.6 0 6.8-1.6 9-4.2v8.7zM-1135.4 4080.1h-13.9v8.6h13.3v6.5h-13.3v10.6h13.9v6.5h-21.5v-38.7h21.5v6.5zM-1109.1 4082.4c-2.3-3-4.9-3.3-6.3-3.3-4.1 0-5.3 2.6-5.3 4.5 0 .9.3 1.8 1.2 2.6.9.9 2.2 1.3 4.6 2.2 3 1 5.9 2.1 7.8 3.9 1.7 1.6 3.3 4.2 3.3 8.1 0 7.5-5.5 12.7-13.5 12.7-7.1 0-11.3-4.3-13.3-7.3l4.9-4.7c1.9 3.8 5.4 5.2 8.1 5.2 3.4 0 6-2.1 6-5.3 0-1.4-.5-2.5-1.5-3.5-1.5-1.3-3.8-2.1-6-2.8-2-.7-4.5-1.6-6.4-3.4-1.3-1.1-3.1-3.2-3.1-7.2 0-5.7 3.8-11.4 12.4-11.4 2.4 0 7 .5 11 4.5l-3.9 5.2zM-1518.2 4112.3V4083l-11.9 29.3h-2.9l-11.8-29.3v29.3h-6.8v-38.7h9.6l10.5 26.1 10.6-26.1h9.6v38.7h-6.9z"/><path class="st5" d="m-1645.4 3850.6-36.6 140.7-37.3-140.7h-40.1l54.9 184.3h44.3l54.9-184.3z"/><path d="M-1487.1 3850.6v184.3h105.5v-32.3h-68.9v-45.1h66.8v-32.3h-66.8V3883h68.9v-32.4zM-1361.2 3850.6v184.3h106.2v-32.3h-68.9v-45.1h66.8v-32.3h-66.8V3883h68.9v-32.4zM-1136.8 3850.6v104.8l-60.5-104.8h-37.3v184.3h36.6v-109l63.3 109h35.2v-184.3z"/><g><path d="m-1525.8 3898.4 17.6-28.1c-14.1-13.4-33.8-20.4-56.3-20.4h-7l-10.6 39.4c3.5-4.2 9.8-6.3 16.9-6.3 14.1 0 28.1 4.9 39.4 15.4M-1586.3 3901.3l-13.4 44.3c24.6 15.5 57.7 18.3 57.7 39.4 0 11.3-9.1 20.4-25.3 20.4-18.3 0-33.8-8.4-44.3-19l-10.6 35.2c14.1 10.6 31.7 16.9 54.9 16.9 40.1 0 62.6-23.9 62.6-56.3 0-60.5-76.7-54.9-81.6-80.9"/></g></svg>