<?xml version="1.0" encoding="iso-8859-1"?>
<!-- Generator: Adobe Illustrator 26.0.3, SVG Export Plug-In . SVG Version: 6.00 Build 0)  -->
<svg version="1.1" xmlns="http://www.w3.org/2000/svg" xmlns:xlink="http://www.w3.org/1999/xlink" x="0px" y="0px"
	 viewBox="0 0 80 80" style="enable-background:new 0 0 80 80;" xml:space="preserve">
<g id="education__3">
	<g>
		<path style="fill-rule:evenodd;clip-rule:evenodd;fill:#FFFFFF;" d="M39.32,59.079l-1.134-0.648
			c0.404,0.197,0.703,0.181,1.118,0.06l1.135,0.651C40.01,59.259,39.724,59.279,39.32,59.079z"/>
		<linearGradient id="SVGID_1_" gradientUnits="userSpaceOnUse" x1="37.727" y1="58.8303" x2="40.8977" y2="58.8303">
			<stop  offset="0" style="stop-color:#894593"/>
			<stop  offset="0.5098" style="stop-color:#338ACA"/>
			<stop  offset="0.999" style="stop-color:#6A9F5B"/>
			<stop  offset="1" style="stop-color:#5F9F55"/>
		</linearGradient>
		<path style="fill-rule:evenodd;clip-rule:evenodd;fill:url(#SVGID_1_);" d="M39.904,59.691c-0.248,0-0.506-0.055-0.793-0.2
			c-0.015-0.004-0.015-0.009-0.027-0.013l-1.133-0.65c-0.208-0.126-0.287-0.397-0.169-0.617c0.118-0.224,0.392-0.302,0.612-0.195
			c0.258,0.129,0.416,0.137,0.797,0.031c0.113-0.035,0.243-0.015,0.349,0.042l1.134,0.651c0.156,0.094,0.246,0.271,0.219,0.459
			c-0.027,0.181-0.156,0.333-0.326,0.384C40.332,59.648,40.111,59.691,39.904,59.691z"/>
		<polygon style="fill-rule:evenodd;clip-rule:evenodd;fill:#FFFFFF;" points="40.438,70.951 39.41,70.201 33.447,63.187 
			34.475,63.936 		"/>
		
			<linearGradient id="SVGID_00000070110645154909418380000009553867885007578807_" gradientUnits="userSpaceOnUse" x1="32.9871" y1="67.067" x2="40.8989" y2="67.067">
			<stop  offset="0" style="stop-color:#894593"/>
			<stop  offset="0.5098" style="stop-color:#338ACA"/>
			<stop  offset="0.999" style="stop-color:#6A9F5B"/>
			<stop  offset="1" style="stop-color:#5F9F55"/>
		</linearGradient>
		<path style="fill-rule:evenodd;clip-rule:evenodd;fill:url(#SVGID_00000070110645154909418380000009553867885007578807_);" d="
			M40.438,71.409c-0.09,0-0.197-0.027-0.275-0.086l-1.027-0.753l-6.039-7.085c-0.156-0.18-0.141-0.443,0.012-0.611
			c0.157-0.174,0.416-0.196,0.612-0.059l1.028,0.745l6.037,7.089c0.158,0.18,0.145,0.444-0.011,0.612
			C40.686,71.362,40.567,71.409,40.438,71.409z"/>
		<polygon style="fill-rule:evenodd;clip-rule:evenodd;fill:#FFFFFF;" points="34.475,63.936 33.447,63.187 35.114,50.374 
			36.158,51.123 		"/>
		
			<linearGradient id="SVGID_00000115505046015871176790000009759323640092569994_" gradientUnits="userSpaceOnUse" x1="32.9871" y1="57.1555" x2="36.6168" y2="57.1555">
			<stop  offset="0" style="stop-color:#894593"/>
			<stop  offset="0.5098" style="stop-color:#338ACA"/>
			<stop  offset="0.999" style="stop-color:#6A9F5B"/>
			<stop  offset="1" style="stop-color:#5F9F55"/>
		</linearGradient>
		<path style="fill-rule:evenodd;clip-rule:evenodd;fill:url(#SVGID_00000115505046015871176790000009759323640092569994_);" d="
			M33.942,62.975l0.185,0.128l1.533-11.768l-0.18-0.129L33.942,62.975L33.942,62.975z M34.475,64.398
			c-0.091,0-0.181-0.032-0.27-0.09l-1.029-0.749c-0.129-0.098-0.207-0.267-0.184-0.435l1.667-12.809
			c0.028-0.161,0.129-0.297,0.288-0.365c0.141-0.063,0.314-0.048,0.442,0.051l1.029,0.749c0.141,0.098,0.219,0.266,0.195,0.435
			l-1.678,12.809c-0.016,0.161-0.118,0.297-0.276,0.365C34.608,64.383,34.541,64.398,34.475,64.398z"/>
		<polygon style="fill-rule:evenodd;clip-rule:evenodd;fill:#FFFFFF;" points="36.158,51.123 35.491,50.739 45.043,45.223 
			45.71,45.608 		"/>
		
			<linearGradient id="SVGID_00000040565693881636064190000014313412831873551492_" gradientUnits="userSpaceOnUse" x1="35.0243" y1="48.1739" x2="46.1656" y2="48.1739">
			<stop  offset="0" style="stop-color:#894593"/>
			<stop  offset="0.5098" style="stop-color:#338ACA"/>
			<stop  offset="0.999" style="stop-color:#6A9F5B"/>
			<stop  offset="1" style="stop-color:#5F9F55"/>
		</linearGradient>
		<path style="fill-rule:evenodd;clip-rule:evenodd;fill:url(#SVGID_00000040565693881636064190000014313412831873551492_);" d="
			M36.158,51.586c-0.078,0-0.173-0.019-0.234-0.063l-0.663-0.384c-0.145-0.083-0.236-0.232-0.236-0.401
			c0-0.161,0.09-0.314,0.236-0.396l9.552-5.519c0.142-0.083,0.326-0.083,0.467,0l0.662,0.384c0.147,0.083,0.225,0.236,0.225,0.401
			c0,0.164-0.078,0.317-0.225,0.395l-9.564,5.52C36.311,51.567,36.233,51.586,36.158,51.586z"/>
		<polygon style="fill-rule:evenodd;clip-rule:evenodd;fill:#FFFFFF;" points="41.427,70.382 40.296,69.731 40.296,57.922 
			41.427,58.573 		"/>
		
			<linearGradient id="SVGID_00000134930634920999549060000007785204088026624181_" gradientUnits="userSpaceOnUse" x1="39.8377" y1="64.1515" x2="41.8819" y2="64.1515">
			<stop  offset="0" style="stop-color:#894593"/>
			<stop  offset="0.5098" style="stop-color:#338ACA"/>
			<stop  offset="0.999" style="stop-color:#6A9F5B"/>
			<stop  offset="1" style="stop-color:#5F9F55"/>
		</linearGradient>
		<path style="fill-rule:evenodd;clip-rule:evenodd;fill:url(#SVGID_00000134930634920999549060000007785204088026624181_);" d="
			M40.752,69.464l0.207,0.117V58.84l-0.207-0.118V69.464L40.752,69.464z M41.427,70.84c-0.079,0-0.17-0.019-0.232-0.059
			l-1.133-0.651c-0.146-0.083-0.224-0.236-0.224-0.399V57.922c0-0.165,0.078-0.318,0.224-0.399c0.14-0.079,0.325-0.079,0.467,0
			l1.122,0.65c0.142,0.083,0.232,0.236,0.232,0.401v11.809c0,0.165-0.09,0.313-0.232,0.395C41.583,70.821,41.504,70.84,41.427,70.84
			z"/>
		<path style="fill-rule:evenodd;clip-rule:evenodd;fill:#FFFFFF;" d="M41.427,58.573l-1.131-0.651
			c0.935-0.824,1.507-1.84,1.742-3.048c0.106-0.809,0.066-1.557-0.623-2.04l1.129,0.651c0.624,0.432,0.69,1.046,0.651,1.758
			C43.042,56.55,42.427,57.695,41.427,58.573z"/>
		
			<linearGradient id="SVGID_00000054232443261173998680000003331309820034883251_" gradientUnits="userSpaceOnUse" x1="39.836" y1="55.7062" x2="43.6692" y2="55.7062">
			<stop  offset="0" style="stop-color:#894593"/>
			<stop  offset="0.5098" style="stop-color:#338ACA"/>
			<stop  offset="0.999" style="stop-color:#6A9F5B"/>
			<stop  offset="1" style="stop-color:#5F9F55"/>
		</linearGradient>
		<path style="fill-rule:evenodd;clip-rule:evenodd;fill:url(#SVGID_00000054232443261173998680000003331309820034883251_);" d="
			M41.049,57.828l0.311,0.176c0.769-0.769,1.252-1.739,1.38-2.82c0.028-0.514-0.026-0.836-0.195-1.07
			c0.016,0.329-0.024,0.619-0.051,0.815C42.274,56.066,41.792,57.032,41.049,57.828L41.049,57.828z M41.427,59.037
			c-0.079,0-0.17-0.024-0.232-0.063l-1.133-0.651c-0.129-0.075-0.208-0.208-0.224-0.353c-0.012-0.15,0.039-0.294,0.156-0.393
			c0.848-0.746,1.366-1.66,1.589-2.793c0.102-0.843-0.012-1.279-0.431-1.57c-0.208-0.141-0.259-0.416-0.13-0.623
			c0.13-0.213,0.416-0.275,0.628-0.153l1.118,0.647c0.843,0.581,0.923,1.39,0.898,2.178c-0.183,1.456-0.846,2.707-1.941,3.659
			C41.634,58.997,41.528,59.037,41.427,59.037z"/>
		<path style="fill-rule:evenodd;clip-rule:evenodd;fill:#FFFFFF;" d="M40.932,53.646c-0.636,0.365-1.208,0.989-1.612,1.707
			c-0.417,0.714-0.678,1.522-0.678,2.248c0,0.73,0.262,1.24,0.678,1.479c0.299,0.174,0.691,0.204,1.118,0.063v11.809l-5.963-7.015
			l1.683-12.813l9.552-5.515l1.664,10.879l-5.947,13.895V58.573c0.431-0.361,0.819-0.836,1.117-1.357
			c0.42-0.718,0.668-1.522,0.668-2.253c0-0.73-0.248-1.24-0.668-1.479C42.128,53.249,41.556,53.281,40.932,53.646z"/>
		
			<linearGradient id="SVGID_00000019639580293899889000000009062158988824613253_" gradientUnits="userSpaceOnUse" x1="34.0181" y1="58.2776" x2="47.8358" y2="58.2776">
			<stop  offset="0" style="stop-color:#894593"/>
			<stop  offset="0.5098" style="stop-color:#338ACA"/>
			<stop  offset="0.999" style="stop-color:#6A9F5B"/>
			<stop  offset="1" style="stop-color:#5F9F55"/>
		</linearGradient>
		<path style="fill-rule:evenodd;clip-rule:evenodd;fill:url(#SVGID_00000019639580293899889000000009062158988824613253_);" d="
			M34.958,63.79l5.024,5.904V59.691c-0.338,0.003-0.64-0.059-0.898-0.213c-0.585-0.337-0.899-1.004-0.899-1.878
			c0-0.785,0.264-1.664,0.73-2.481c0.468-0.815,1.107-1.482,1.781-1.875c0.757-0.435,1.498-0.49,2.071-0.161
			c0.585,0.338,0.911,1.001,0.911,1.879c0,0.785-0.259,1.663-0.73,2.484c-0.3,0.51-0.663,0.969-1.067,1.337v9.349l5.025-11.707
			l-1.549-10.082l-8.773,5.064L34.958,63.79L34.958,63.79z M40.438,71.409c-0.13,0-0.259-0.054-0.353-0.161l-5.959-7.014
			c-0.079-0.102-0.118-0.232-0.106-0.361l1.683-12.809c0.011-0.141,0.091-0.267,0.22-0.337l9.552-5.52
			c0.129-0.075,0.297-0.083,0.428-0.015c0.144,0.066,0.234,0.195,0.263,0.344l1.663,10.883c0.012,0.083,0.012,0.168-0.024,0.252
			l-5.963,13.89c-0.078,0.2-0.298,0.315-0.505,0.271c-0.22-0.043-0.378-0.236-0.378-0.45V58.573c0-0.137,0.063-0.267,0.168-0.353
			c0.377-0.322,0.731-0.746,1.017-1.237c0.389-0.67,0.612-1.405,0.612-2.02c0-0.521-0.158-0.918-0.444-1.078
			c-0.275-0.162-0.706-0.103-1.16,0.159c-0.519,0.307-1.052,0.867-1.445,1.534c-0.376,0.672-0.596,1.409-0.596,2.021
			c0,0.525,0.157,0.917,0.428,1.078c0.248,0.142,0.546,0.09,0.757,0.024c0.126-0.047,0.299-0.02,0.413,0.066
			c0.122,0.087,0.184,0.225,0.184,0.373v11.809c0,0.191-0.117,0.364-0.298,0.431C40.543,71.401,40.489,71.409,40.438,71.409z"/>
		<path style="fill-rule:evenodd;clip-rule:evenodd;fill:#FFFFFF;" d="M47.531,47.836V34.799c-0.157,2.428-3.178,3.662-5.206,4.037
			c-2.758,0.51-6.598,0.118-8.721-1.836c-0.647-0.596-1.09-1.315-1.145-2.202v12.935l0.013,0.102
			C33.031,53.344,46.946,53.359,47.531,47.836z"/>
		
			<linearGradient id="SVGID_00000076593662938790938830000002981891858153059210_" gradientUnits="userSpaceOnUse" x1="32.0031" y1="43.3838" x2="47.9969" y2="43.3838">
			<stop  offset="0" style="stop-color:#894593"/>
			<stop  offset="0.5098" style="stop-color:#338ACA"/>
			<stop  offset="0.999" style="stop-color:#6A9F5B"/>
			<stop  offset="1" style="stop-color:#5F9F55"/>
		</linearGradient>
		<path style="fill-rule:evenodd;clip-rule:evenodd;fill:url(#SVGID_00000076593662938790938830000002981891858153059210_);" d="
			M47.531,47.836h0.011H47.531L47.531,47.836z M32.929,36.965v10.769c0.258,2.605,3.837,3.77,7.053,3.778h0.012
			c3.218,0,6.795-1.162,7.069-3.715l0.012-0.094V36.965c-1.106,1.252-2.993,2.013-4.671,2.327c-2.802,0.521-6.858,0.132-9.113-1.955
			C33.16,37.217,33.031,37.09,32.929,36.965L32.929,36.965z M39.994,52.433h-0.012c-3.734-0.008-7.653-1.417-7.979-4.55
			c0-0.009,0-0.118,0-0.118V34.799c0-0.251,0.196-0.455,0.443-0.458c0.012,0,0.012,0,0.012,0c0.248,0,0.443,0.188,0.471,0.432
			c0.039,0.694,0.362,1.309,0.988,1.89c2.017,1.864,5.728,2.201,8.318,1.719c2.145-0.401,4.711-1.585,4.841-3.608
			c0.012-0.252,0.236-0.48,0.467-0.432c0.248,0.007,0.455,0.207,0.455,0.458v12.935c0,0.008-0.012,0.122-0.012,0.122
			c0,0.015,0,0.023,0,0.031C47.659,51.029,43.745,52.433,39.994,52.433z"/>
		<path style="fill-rule:evenodd;clip-rule:evenodd;fill:#FFFFFF;" d="M47.531,47.836V34.799c-0.157,2.391-3.072,3.617-5.104,4.018
			v12.941C45.082,51.276,47.311,49.967,47.531,47.836z"/>
		
			<linearGradient id="SVGID_00000163075157400992670540000012770900471054346112_" gradientUnits="userSpaceOnUse" x1="41.96" y1="43.2764" x2="47.9969" y2="43.2764">
			<stop  offset="0" style="stop-color:#894593"/>
			<stop  offset="0.5098" style="stop-color:#338ACA"/>
			<stop  offset="0.999" style="stop-color:#6A9F5B"/>
			<stop  offset="1" style="stop-color:#5F9F55"/>
		</linearGradient>
		<path style="fill-rule:evenodd;clip-rule:evenodd;fill:url(#SVGID_00000163075157400992670540000012770900471054346112_);" d="
			M47.531,47.836h0.011H47.531L47.531,47.836z M42.886,39.189v12.005c2.46-0.569,4.006-1.817,4.177-3.398l0.012-0.094V36.977
			C46.087,38.098,44.47,38.821,42.886,39.189L42.886,39.189z M42.427,52.218c-0.114,0-0.219-0.036-0.299-0.106
			c-0.102-0.09-0.168-0.216-0.168-0.354V38.817c0-0.219,0.156-0.411,0.377-0.45c2.11-0.416,4.609-1.609,4.739-3.593
			c0.012-0.252,0.236-0.48,0.467-0.432c0.248,0.007,0.455,0.207,0.455,0.458v12.935c0,0.008-0.012,0.122-0.012,0.122
			c0,0.015,0,0.023,0,0.031c-0.219,2.126-2.275,3.743-5.48,4.323C42.482,52.218,42.454,52.218,42.427,52.218z"/>
		<path style="fill-rule:evenodd;clip-rule:evenodd;fill:#FFFFFF;" d="M45.33,37.715c1.067-0.636,2.162-1.64,2.201-2.973v-20.82
			c-0.157,2.428-3.178,3.656-5.206,4.037c-2.758,0.513-6.611,0.113-8.721-1.84c-0.647-0.593-1.09-1.306-1.145-2.197v20.82
			c0.055,1.756,1.915,2.965,3.398,3.53C38.73,39.37,42.611,39.237,45.33,37.715z"/>
		
			<linearGradient id="SVGID_00000160876088272169108000000009644675841015545991_" gradientUnits="userSpaceOnUse" x1="32.0031" y1="26.458" x2="47.9969" y2="26.458">
			<stop  offset="0" style="stop-color:#894593"/>
			<stop  offset="0.5098" style="stop-color:#338ACA"/>
			<stop  offset="0.999" style="stop-color:#6A9F5B"/>
			<stop  offset="1" style="stop-color:#5F9F55"/>
		</linearGradient>
		<path style="fill-rule:evenodd;clip-rule:evenodd;fill:url(#SVGID_00000160876088272169108000000009644675841015545991_);" d="
			M45.33,37.715h0.016H45.33L45.33,37.715z M32.929,16.087v18.655c0.039,1.428,1.624,2.541,3.084,3.099
			c2.864,1.086,6.598,0.871,9.081-0.527c0.731-0.428,1.942-1.33,1.981-2.59v-18.64c-1.106,1.255-2.993,2.016-4.671,2.33
			c-2.802,0.522-6.847,0.137-9.113-1.954C33.16,16.338,33.031,16.213,32.929,16.087L32.929,16.087z M39.994,39.459
			c-1.483,0-2.966-0.251-4.308-0.756c-0.847-0.322-3.616-1.562-3.683-3.952V13.921c0-0.248,0.196-0.451,0.443-0.459
			c0.248-0.042,0.455,0.185,0.483,0.432c0.039,0.698,0.362,1.313,0.988,1.887c2.029,1.875,5.728,2.209,8.318,1.726
			c2.145-0.404,4.711-1.588,4.841-3.617c0.012-0.239,0.22-0.431,0.456-0.431c0.011,0,0.011,0,0.011,0
			c0.248,0.012,0.455,0.215,0.455,0.462v20.82c-0.05,1.627-1.353,2.73-2.432,3.369l-0.012,0.005
			C43.976,39.006,41.987,39.459,39.994,39.459z"/>
		<path style="fill-rule:evenodd;clip-rule:evenodd;fill:#FFFFFF;" d="M45.33,37.715c1.067-0.636,2.162-1.64,2.201-2.973v-20.82
			c-0.145,2.389-3.072,3.614-5.104,4.018v20.819C43.47,38.551,44.459,38.204,45.33,37.715z"/>
		
			<linearGradient id="SVGID_00000029025790634710588780000015282587129898784188_" gradientUnits="userSpaceOnUse" x1="41.96" y1="26.338" x2="47.9969" y2="26.338">
			<stop  offset="0" style="stop-color:#894593"/>
			<stop  offset="0.5098" style="stop-color:#338ACA"/>
			<stop  offset="0.999" style="stop-color:#6A9F5B"/>
			<stop  offset="1" style="stop-color:#5F9F55"/>
		</linearGradient>
		<path style="fill-rule:evenodd;clip-rule:evenodd;fill:url(#SVGID_00000029025790634710588780000015282587129898784188_);" d="
			M45.33,37.715h0.016H45.33L45.33,37.715z M42.886,18.311v19.87c0.805-0.208,1.546-0.498,2.208-0.867
			c0.731-0.428,1.942-1.33,1.981-2.59V16.099C46.087,17.217,44.47,17.942,42.886,18.311L42.886,18.311z M42.427,39.217
			c-0.114,0-0.219-0.036-0.299-0.102c-0.102-0.091-0.168-0.219-0.168-0.357V17.939c0-0.219,0.156-0.408,0.377-0.452
			c2.11-0.42,4.609-1.609,4.739-3.598c0.012-0.239,0.22-0.431,0.456-0.431c0.011,0,0.011,0,0.011,0
			c0.248,0.012,0.455,0.215,0.455,0.462v20.82c-0.05,1.627-1.353,2.73-2.432,3.369l-0.012,0.005
			c-0.887,0.501-1.915,0.866-3.048,1.093C42.482,39.213,42.454,39.217,42.427,39.217z"/>
		<path style="fill-rule:evenodd;clip-rule:evenodd;fill:#FFFFFF;" d="M39.994,18.169c1.927,0,3.869-0.427,5.336-1.274
			c1.471-0.851,2.201-1.965,2.201-3.074c0-1.114-0.731-2.229-2.201-3.081c-1.467-0.85-3.409-1.274-5.336-1.274
			c-1.926,0-3.852,0.424-5.322,1.274c-1.471,0.852-2.214,1.967-2.214,3.076c0,1.114,0.743,2.228,2.214,3.079
			C36.142,17.742,38.068,18.169,39.994,18.169z"/>
		
			<linearGradient id="SVGID_00000172426753730030409610000014249884805584021950_" gradientUnits="userSpaceOnUse" x1="32.0031" y1="13.8174" x2="47.9969" y2="13.8174">
			<stop  offset="0" style="stop-color:#894593"/>
			<stop  offset="0.5098" style="stop-color:#338ACA"/>
			<stop  offset="0.999" style="stop-color:#6A9F5B"/>
			<stop  offset="1" style="stop-color:#5F9F55"/>
		</linearGradient>
		<path style="fill-rule:evenodd;clip-rule:evenodd;fill:url(#SVGID_00000172426753730030409610000014249884805584021950_);" d="
			M39.994,9.928c-1.926,0-3.746,0.431-5.1,1.212c-1.275,0.737-1.981,1.687-1.981,2.676c0,0.992,0.707,1.942,1.981,2.679
			c1.366,0.781,3.174,1.213,5.1,1.213c1.942,0,3.751-0.432,5.1-1.213c1.279-0.737,1.981-1.687,1.981-2.675
			c0-0.993-0.702-1.943-1.981-2.68C43.745,10.359,41.936,9.928,39.994,9.928L39.994,9.928z M39.994,18.633
			c-2.094,0-4.06-0.475-5.555-1.337c-1.577-0.911-2.436-2.146-2.436-3.479c0-1.334,0.859-2.566,2.436-3.477
			c1.495-0.862,3.461-1.333,5.555-1.336c2.095,0,4.072,0.475,5.559,1.336c1.573,0.911,2.444,2.143,2.444,3.481
			c0,1.329-0.871,2.564-2.444,3.475C44.066,18.158,42.089,18.633,39.994,18.633z"/>
		<path style="fill-rule:evenodd;clip-rule:evenodd;fill:#FFFFFF;" d="M39.994,15.946c1.534,0,3.06-0.333,4.229-1.007
			c1.157-0.675,1.746-1.558,1.746-2.437c0-0.883-0.588-1.765-1.746-2.44c-1.169-0.671-2.695-1.007-4.229-1.007
			c-1.522,0-3.06,0.337-4.217,1.007c-1.168,0.675-1.757,1.558-1.757,2.44c0,0.879,0.588,1.762,1.757,2.437
			C36.934,15.613,38.472,15.946,39.994,15.946z"/>
		
			<linearGradient id="SVGID_00000015354755378985020760000013668626837207376043_" gradientUnits="userSpaceOnUse" x1="33.5653" y1="12.5001" x2="46.4239" y2="12.5001">
			<stop  offset="0" style="stop-color:#894593"/>
			<stop  offset="0.5098" style="stop-color:#338ACA"/>
			<stop  offset="0.999" style="stop-color:#6A9F5B"/>
			<stop  offset="1" style="stop-color:#5F9F55"/>
		</linearGradient>
		<path style="fill-rule:evenodd;clip-rule:evenodd;fill:url(#SVGID_00000015354755378985020760000013668626837207376043_);" d="
			M39.994,9.512c-1.51,0-2.926,0.338-3.993,0.949c-0.977,0.566-1.511,1.292-1.511,2.041c0,0.75,0.534,1.471,1.523,2.037
			c1.055,0.611,2.471,0.949,3.981,0.949c1.522,0,2.943-0.338,3.994-0.949c0.977-0.566,1.526-1.287,1.526-2.037
			c0-0.749-0.549-1.475-1.526-2.041C42.937,9.849,41.516,9.512,39.994,9.512L39.994,9.512z M39.994,16.409
			c-1.679,0-3.251-0.381-4.448-1.072c-1.279-0.738-1.981-1.746-1.981-2.837c0-1.094,0.702-2.098,1.981-2.84
			c1.196-0.69,2.768-1.07,4.448-1.07c1.68,0,3.252,0.38,4.453,1.074c1.274,0.738,1.977,1.742,1.977,2.837
			c0,1.091-0.702,2.098-1.977,2.837C43.246,16.028,41.674,16.409,39.994,16.409z"/>
	</g>
</g>
<g id="Layer_1">
</g>
</svg>
