<?xml version="1.0" encoding="iso-8859-1"?>
<!-- Generator: Adobe Illustrator 26.0.3, SVG Export Plug-In . SVG Version: 6.00 Build 0)  -->
<svg version="1.1" xmlns="http://www.w3.org/2000/svg" xmlns:xlink="http://www.w3.org/1999/xlink" x="0px" y="0px"
	 viewBox="0 0 80 80" style="enable-background:new 0 0 80 80;" xml:space="preserve">
<g id="environment_27">
	<g>
		<path style="fill-rule:evenodd;clip-rule:evenodd;fill:#FFFFFF;" d="M8.014,51.593l6.457,11.217
			c0.594,1.012,1.576,1.576,2.736,1.576c2.906,0.23,14.111,0.998,19.12-0.013c1.663-0.332,2.924-1.287,2.924-3.13v-6.509
			c0.013-1.636-0.868-2.479-2.13-2.91C35.023,51.113,8.839,51.593,8.014,51.593z"/>
		<linearGradient id="SVGID_1_" gradientUnits="userSpaceOnUse" x1="7.4998" y1="58.1618" x2="39.7695" y2="58.1618">
			<stop  offset="0" style="stop-color:#894593"/>
			<stop  offset="0.5098" style="stop-color:#338ACA"/>
			<stop  offset="0.999" style="stop-color:#6A9F5B"/>
			<stop  offset="1" style="stop-color:#5F9F55"/>
		</linearGradient>
		<path style="fill-rule:evenodd;clip-rule:evenodd;fill:url(#SVGID_1_);" d="M17.207,63.867c2.313,0.187,13.923,1.025,19.019,0.013
			c1.143-0.232,2.501-0.883,2.501-2.637l0.017-6.509c0-1.247-0.563-2.011-1.78-2.417c-0.681-0.235-5.17-0.554-27.777-0.235
			c-0.105,0-0.205,0-0.293,0l6.023,10.467C15.41,63.404,16.221,63.867,17.207,63.867L17.207,63.867L17.207,63.867z M28.827,65.403
			c-4.965,0-10.201-0.394-11.668-0.511c0,0,0,0-0.012,0c-1.287,0-2.449-0.663-3.111-1.824l-6.471-11.23
			c-0.087-0.158-0.087-0.345,0-0.507c0.087-0.161,0.261-0.262,0.449-0.262c0.087,0,0.506,0,1.156-0.013
			c17.62-0.244,26.81-0.157,28.114,0.289c1.649,0.551,2.486,1.698,2.486,3.39l-0.012,6.509c0,1.886-1.218,3.217-3.33,3.636
			C34.504,65.271,31.708,65.403,28.827,65.403z"/>
		<path style="fill-rule:evenodd;clip-rule:evenodd;fill:#FFFFFF;" d="M66.858,55.934l7.641-5.909
			c0.287-0.488,0.435-1.011,0.435-1.543c0-0.524-0.147-1.043-0.435-1.549L65.74,30.194c-0.855-0.738-1.431-1.488-2.461-1.763
			c-0.767-0.204-2.129,0.332-2.865,0.75l-5.429,2.886c-0.377,0.213-0.694,0.474-0.926,0.793c-0.231,0.305-0.405,0.668-0.519,1.087
			c-0.117,0.419-0.147,0.807-0.087,1.2c0.04,0.392,0.17,0.767,0.389,1.142L66.858,55.934z"/>
		
			<linearGradient id="SVGID_00000161599639752106611320000014845156514573533370_" gradientUnits="userSpaceOnUse" x1="52.9061" y1="42.1572" x2="75.4413" y2="42.1572">
			<stop  offset="0" style="stop-color:#894593"/>
			<stop  offset="0.5098" style="stop-color:#338ACA"/>
			<stop  offset="0.999" style="stop-color:#6A9F5B"/>
			<stop  offset="1" style="stop-color:#5F9F55"/>
		</linearGradient>
		<path style="fill-rule:evenodd;clip-rule:evenodd;fill:url(#SVGID_00000161599639752106611320000014845156514573533370_);" d="
			M62.892,28.895c-0.581,0-1.554,0.349-2.217,0.738l-5.458,2.879c-0.307,0.175-0.551,0.406-0.751,0.654
			c-0.188,0.258-0.337,0.564-0.437,0.908c-0.087,0.349-0.117,0.698-0.07,1.017c0.04,0.319,0.145,0.637,0.332,0.943l12.679,19.15
			l7.138-5.489c0.202-0.388,0.32-0.795,0.32-1.212c0-0.437-0.132-0.886-0.367-1.292l-8.726-16.677
			c-0.175-0.144-0.332-0.287-0.494-0.431c-0.563-0.551-1.012-0.97-1.693-1.158C63.074,28.908,62.992,28.895,62.892,28.895
			L62.892,28.895z M66.858,56.44c-0.031,0-0.062,0-0.088-0.013c-0.148-0.012-0.261-0.1-0.348-0.217L53.423,36.582
			c-0.275-0.467-0.436-0.916-0.493-1.362c-0.057-0.449-0.013-0.93,0.118-1.404c0.112-0.479,0.331-0.912,0.606-1.275
			c0.274-0.361,0.636-0.667,1.069-0.924l5.444-2.885c0.664-0.389,2.245-1.07,3.243-0.795c0.926,0.244,1.518,0.811,2.142,1.392
			c0.174,0.157,0.332,0.314,0.519,0.488c0.058,0.031,0.087,0.088,0.118,0.145l8.771,16.733c0.318,0.554,0.493,1.174,0.479,1.786
			c0,0.619-0.162,1.242-0.493,1.806c-0.031,0.057-0.075,0.117-0.132,0.144L67.16,56.34C67.071,56.396,66.97,56.44,66.858,56.44z"/>
		<path style="fill-rule:evenodd;clip-rule:evenodd;fill:#FFFFFF;" d="M68.795,60.838l6.484-11.201c0.581-1.012,0.581-2.142,0-3.154
			c-2.287-4.796-4.935-9.644-8.237-14.592c-0.808-1.204-1.601-2.823-3.125-3.247c-0.781-0.2-1.636-0.112-2.387,0.32l-5.632,3.244
			c-1.78,1.013-1.793,2.606-1.157,4.3C59.414,44.629,64.104,52.735,68.795,60.838z"/>
		
			<linearGradient id="SVGID_00000032628408025593440690000017709986968281178035_" gradientUnits="userSpaceOnUse" x1="53.8569" y1="44.6956" x2="76.2289" y2="44.6956">
			<stop  offset="0" style="stop-color:#894593"/>
			<stop  offset="0.5098" style="stop-color:#338ACA"/>
			<stop  offset="0.999" style="stop-color:#6A9F5B"/>
			<stop  offset="1" style="stop-color:#5F9F55"/>
		</linearGradient>
		<path style="fill-rule:evenodd;clip-rule:evenodd;fill:url(#SVGID_00000032628408025593440690000017709986968281178035_);" d="
			M63.092,29.052c-0.449,0-0.898,0.129-1.305,0.366l-5.646,3.237c-1.299,0.756-1.588,1.886-0.924,3.679l13.578,23.492l6.035-10.449
			c0.494-0.856,0.494-1.794,0-2.636c-2.544-5.355-5.24-10.101-8.208-14.56c-0.126-0.188-0.257-0.394-0.388-0.594
			c-0.668-1.055-1.361-2.143-2.447-2.431C63.555,29.082,63.324,29.052,63.092,29.052L63.092,29.052z M68.795,61.361L68.795,61.361
			c-0.187,0-0.361-0.1-0.45-0.262L54.291,36.77c-0.886-2.329-0.406-3.997,1.344-5.008l5.633-3.242
			c0.856-0.494,1.838-0.612,2.781-0.362c1.473,0.388,2.316,1.706,3.054,2.88c0.113,0.187,0.244,0.389,0.362,0.581
			c3.01,4.498,5.716,9.294,8.277,14.647c0.654,1.13,0.654,2.461-0.025,3.634l-6.484,11.2C69.145,61.261,68.97,61.361,68.795,61.361z
			"/>
		<path style="fill-rule:evenodd;clip-rule:evenodd;fill:#FFFFFF;" d="M35.315,26.695l0.013-0.043
			c2.317-4.01,8.294-14.36,10.611-18.37L32.985,8.268c-0.58,0-1.117,0.144-1.579,0.419c-0.462,0.262-0.856,0.65-1.157,1.157
			c-3.359,4.908-6.575,10.22-9.442,16.371l0,0c-1.549,2.661,0.768,4.084,2.697,5.197l4.079,2.361
			c0.375,0.217,0.768,0.348,1.157,0.406c0.392,0.057,0.812,0.012,1.23-0.087c0.423-0.118,0.798-0.307,1.118-0.536
			c0.318-0.246,0.58-0.564,0.793-0.943h0.018L35.315,26.695z"/>
		
			<linearGradient id="SVGID_00000143600729413752595200000006291282447245792171_" gradientUnits="userSpaceOnUse" x1="19.7803" y1="21.236" x2="46.4478" y2="21.236">
			<stop  offset="0" style="stop-color:#894593"/>
			<stop  offset="0.5098" style="stop-color:#338ACA"/>
			<stop  offset="0.999" style="stop-color:#6A9F5B"/>
			<stop  offset="1" style="stop-color:#5F9F55"/>
		</linearGradient>
		<path style="fill-rule:evenodd;clip-rule:evenodd;fill:url(#SVGID_00000143600729413752595200000006291282447245792171_);" d="
			M35.315,26.695h0.013H35.315L35.315,26.695z M32.985,8.787c-0.493,0-0.942,0.113-1.335,0.332c-0.388,0.23-0.706,0.567-0.955,0.986
			c-3.792,5.516-6.859,10.843-9.42,16.327c-0.611,1.043-0.593,1.868,0,2.649c0.576,0.781,1.693,1.417,2.487,1.88l4.084,2.361
			c0.319,0.188,0.638,0.307,0.97,0.349c0.317,0.045,0.663,0.013,1.029-0.087c0.362-0.087,0.664-0.248,0.925-0.436
			c0.262-0.202,0.494-0.462,0.681-0.781c0-0.03,0.013-0.043,0.03-0.057l13.562-23.51L32.985,8.787L32.985,8.787z M29.119,34.715
			c-0.149,0-0.292-0.017-0.436-0.03c-0.462-0.057-0.911-0.219-1.361-0.476l-4.068-2.36c-1.766-1.012-4.734-2.723-2.893-5.891
			c2.562-5.502,5.674-10.873,9.464-16.402c0.307-0.536,0.769-0.999,1.319-1.317c0.551-0.319,1.174-0.48,1.841-0.48l12.954,0.018
			c0.188,0,0.344,0.101,0.432,0.245c0.101,0.161,0.101,0.361,0,0.523L35.778,26.909l-0.462-0.214l0.431,0.258l-3.416,5.92
			c-0.013,0.018-0.013,0.031-0.03,0.043c-0.244,0.42-0.546,0.768-0.895,1.043c-0.376,0.275-0.811,0.494-1.305,0.624
			C29.77,34.666,29.438,34.715,29.119,34.715z"/>
		<path style="fill-rule:evenodd;clip-rule:evenodd;fill:#FFFFFF;" d="M59.301,52.792c-0.568,0.724-1.187,1.405-1.855,2.055
			c-2.055,2.025-4.429,3.534-6.946,4.547c-0.524,0.219-0.03-0.581,0.357-1.681C54.086,56.802,56.966,55.096,59.301,52.792z"/>
		
			<linearGradient id="SVGID_00000114069186001893124320000016807447571246995094_" gradientUnits="userSpaceOnUse" x1="49.7574" y1="56.1129" x2="59.8074" y2="56.1129">
			<stop  offset="0" style="stop-color:#894593"/>
			<stop  offset="0.5098" style="stop-color:#338ACA"/>
			<stop  offset="0.999" style="stop-color:#6A9F5B"/>
			<stop  offset="1" style="stop-color:#5F9F55"/>
		</linearGradient>
		<path style="fill-rule:evenodd;clip-rule:evenodd;fill:url(#SVGID_00000114069186001893124320000016807447571246995094_);" d="
			M51.25,58.134c-0.057,0.174-0.13,0.317-0.187,0.461c0.811-0.357,1.606-0.781,2.361-1.244
			C52.712,57.657,51.988,57.919,51.25,58.134L51.25,58.134z M50.351,59.944c-0.202,0-0.345-0.1-0.42-0.174
			c-0.318-0.332-0.156-0.738,0.132-1.419c0.087-0.245,0.205-0.506,0.305-0.813c0.057-0.143,0.188-0.274,0.345-0.319
			c3.085-0.867,5.921-2.529,8.225-4.79c0.187-0.188,0.506-0.202,0.693-0.012c0.205,0.174,0.232,0.493,0.074,0.693
			c-0.593,0.737-1.229,1.449-1.897,2.099c-2.068,2.03-4.459,3.591-7.108,4.659C50.57,59.927,50.457,59.944,50.351,59.944z"/>
		<path style="fill-rule:evenodd;clip-rule:evenodd;fill:#FFFFFF;" d="M42.55,16.314c-12.868,0-23.305,10.437-23.305,23.317
			c0,12.872,10.437,23.324,23.305,23.324c12.884,0,23.321-10.451,23.321-23.324C65.872,26.751,55.435,16.314,42.55,16.314z"/>
		
			<linearGradient id="SVGID_00000021104499404339095280000011155835388411274403_" gradientUnits="userSpaceOnUse" x1="18.7253" y1="39.6336" x2="66.3909" y2="39.6336">
			<stop  offset="0" style="stop-color:#894593"/>
			<stop  offset="0.5098" style="stop-color:#338ACA"/>
			<stop  offset="0.999" style="stop-color:#6A9F5B"/>
			<stop  offset="1" style="stop-color:#5F9F55"/>
		</linearGradient>
		<path style="fill-rule:evenodd;clip-rule:evenodd;fill:url(#SVGID_00000021104499404339095280000011155835388411274403_);" d="
			M42.55,16.834c-12.562,0-22.799,10.223-22.799,22.797c0,12.568,10.237,22.805,22.799,22.805c12.579,0,22.816-10.236,22.816-22.805
			C65.366,27.057,55.129,16.834,42.55,16.834L42.55,16.834z M42.55,63.46c-13.13,0-23.825-10.681-23.825-23.829
			c0-13.142,10.695-23.824,23.825-23.824c13.146,0,23.841,10.682,23.841,23.824C66.391,52.779,55.697,63.46,42.55,63.46z"/>
		<path style="fill-rule:evenodd;clip-rule:evenodd;fill:#FFFFFF;" d="M57.446,24.753c-1.943-1.956-4.272-3.516-6.833-4.574
			c-2.487-1.03-5.197-1.591-8.046-1.591c-2.867,0-5.577,0.561-8.063,1.591c-2.562,1.058-4.891,2.618-6.833,4.574
			c-1.938,1.942-3.504,4.26-4.574,6.833c-1.029,2.474-1.591,5.197-1.591,8.045c0,2.854,0.563,5.577,1.591,8.051
			c1.07,2.574,2.636,4.891,4.574,6.833c1.942,1.938,4.271,3.504,6.833,4.574c2.486,1.03,5.197,1.593,8.063,1.593
			c2.85,0,5.559-0.563,8.046-1.593c2.561-1.07,4.89-2.636,6.833-4.574c1.942-1.941,3.504-4.258,4.573-6.833
			c1.03-2.474,1.597-5.197,1.597-8.051c0-2.848-0.567-5.571-1.597-8.045C60.95,29.013,59.388,26.695,57.446,24.753z"/>
		
			<linearGradient id="SVGID_00000181088668312802388170000006873516486454331778_" gradientUnits="userSpaceOnUse" x1="21.0001" y1="39.6389" x2="64.1221" y2="39.6389">
			<stop  offset="0" style="stop-color:#894593"/>
			<stop  offset="0.5098" style="stop-color:#338ACA"/>
			<stop  offset="0.999" style="stop-color:#6A9F5B"/>
			<stop  offset="1" style="stop-color:#5F9F55"/>
		</linearGradient>
		<path style="fill-rule:evenodd;clip-rule:evenodd;fill:url(#SVGID_00000181088668312802388170000006873516486454331778_);" d="
			M42.567,19.094c-2.723,0-5.372,0.52-7.863,1.549c-2.504,1.043-4.748,2.548-6.672,4.472c-1.924,1.925-3.416,4.167-4.459,6.659
			c-1.03,2.491-1.549,5.14-1.549,7.857c0,2.724,0.519,5.373,1.549,7.864c1.03,2.491,2.536,4.733,4.459,6.658
			c1.925,1.925,4.168,3.43,6.672,4.46c4.983,2.068,10.729,2.068,15.707,0c2.505-1.03,4.748-2.536,6.672-4.46
			c1.925-1.925,3.416-4.167,4.459-6.658c1.025-2.491,1.549-5.14,1.549-7.864c0-2.717-0.524-5.366-1.549-7.857
			c-1.043-2.492-2.534-4.734-4.459-6.659c-1.925-1.925-4.167-3.429-6.672-4.472C47.921,19.615,45.273,19.094,42.567,19.094
			L42.567,19.094z M42.567,61.204c-2.867,0-5.647-0.549-8.252-1.636c-2.621-1.087-4.978-2.666-7.007-4.691
			c-2.025-2.01-3.592-4.372-4.678-6.994C21.548,45.265,21,42.486,21,39.631c0-2.862,0.548-5.628,1.631-8.245
			c1.086-2.623,2.653-4.983,4.678-6.995c2.028-2.025,4.385-3.603,7.007-4.691c5.237-2.169,11.244-2.169,16.485,0
			c2.623,1.088,4.982,2.666,7.008,4.691l0,0c2.011,2.011,3.591,4.372,4.677,6.995c1.082,2.618,1.636,5.384,1.636,8.245
			c0,2.854-0.554,5.634-1.636,8.252c-1.087,2.623-2.666,4.984-4.677,6.994c-2.026,2.025-4.385,3.604-7.008,4.691
			C48.196,60.655,45.417,61.204,42.567,61.204z"/>
		<path style="fill-rule:evenodd;clip-rule:evenodd;fill:#FFFFFF;" d="M58.563,25.94c0.768,0.898,2.705,3.766,3.543,5.834
			c1.043,2.578,1.536,5.34,1.51,8.089c-0.03,2.741-0.598,5.49-1.684,8.051c-1.057,2.461-2.601,4.778-4.643,6.776
			c-2.043,1.998-4.39,3.486-6.878,4.485c-1.03,0.418,1.913-3.068,0.088-4.991c-1.823-1.911-9.557,0.318-9.338-3.635
			c0.214-3.935,1.938-3.922,2.85-5.995c0.913-2.055,2-0.389,5.864-1.705c3.866-1.319,9.001-1.13,10.682-2.881
			c1.679-1.754-6.41,0.349-7.903-0.03c-1.492-0.376-1.798-2.155-2.867-2.1c-1.056,0.058-0.45,1.986-1.649,2.344
			c-1.187,0.379-4.404,0.93-4.591-0.431c-0.751-5.228,3.273-3.574,3.517-3.853c1.073-1.232-1.257-2.213,0.174-3.95
			c1.449-1.737,2.868-2.055,3.634-3.272c0.751-1.218-1.78-2.142-0.606-3.098C51.425,24.64,57.765,25.015,58.563,25.94z"/>
		
			<linearGradient id="SVGID_00000162324072334261688530000016604455076789512582_" gradientUnits="userSpaceOnUse" x1="40.6511" y1="42.1249" x2="64.1363" y2="42.1249">
			<stop  offset="0" style="stop-color:#894593"/>
			<stop  offset="0.5098" style="stop-color:#338ACA"/>
			<stop  offset="0.999" style="stop-color:#6A9F5B"/>
			<stop  offset="1" style="stop-color:#5F9F55"/>
		</linearGradient>
		<path style="fill-rule:evenodd;clip-rule:evenodd;fill:url(#SVGID_00000162324072334261688530000016604455076789512582_);" d="
			M45.909,43.934c-0.855,0-1.086,0.057-1.431,0.838c-0.35,0.781-0.786,1.287-1.217,1.768c-0.756,0.837-1.449,1.636-1.58,4.04
			c-0.1,1.706,1.786,1.954,4.664,2.125c1.881,0.1,3.661,0.205,4.529,1.13c1.332,1.386,0.594,3.384,0.118,4.546
			c2.199-0.985,4.198-2.36,5.934-4.07c1.95-1.893,3.474-4.123,4.529-6.599c1.072-2.491,1.618-5.139,1.649-7.863
			c0.03-2.722-0.462-5.384-1.476-7.888c-0.811-2.011-2.705-4.804-3.459-5.686c-0.58-0.668-6.584-1.104-7.584-0.292
			c-0.175,0.13-0.204,0.175,0.258,0.781c0.405,0.51,1.011,1.287,0.466,2.187c-0.437,0.681-1.03,1.117-1.666,1.561
			c-0.624,0.437-1.319,0.93-1.998,1.754c-0.581,0.711-0.376,1.157-0.101,1.78c0.258,0.581,0.624,1.375-0.087,2.187
			c-0.219,0.261-0.519,0.23-0.956,0.187c-0.593-0.055-1.505-0.144-2.041,0.407c-0.462,0.491-0.607,1.473-0.402,2.848
			c0.013,0.075,0.027,0.149,0.157,0.219c0.65,0.423,2.648,0.144,3.779-0.188c0.287-0.1,0.388-0.376,0.518-0.942
			c0.144-0.563,0.349-1.387,1.249-1.445c0.763-0.042,1.269,0.551,1.689,1.057c0.366,0.45,0.741,0.912,1.334,1.057
			c0.462,0.13,2.143-0.114,3.504-0.305c3.286-0.476,4.574-0.576,4.936,0.13c0.112,0.219,0.161,0.593-0.307,1.073
			c-1.099,1.155-3.342,1.518-5.933,1.938c-1.681,0.261-3.416,0.536-4.953,1.072c-1.793,0.606-3.005,0.594-3.905,0.594
			C46.053,43.934,45.983,43.934,45.909,43.934L45.909,43.934z M50.281,59.725c-0.219,0-0.362-0.1-0.436-0.17
			c-0.319-0.336-0.158-0.741,0.13-1.405c0.407-0.985,1.087-2.635,0.161-3.603c-0.61-0.642-2.259-0.729-3.853-0.829
			c-2.573-0.145-5.79-0.331-5.627-3.199c0.142-2.748,1.037-3.762,1.835-4.661c0.394-0.449,0.769-0.867,1.043-1.504
			c0.651-1.449,1.474-1.449,2.592-1.449c0.811,0.013,1.937,0.013,3.573-0.549c1.624-0.549,3.404-0.825,5.123-1.1
			c2.173-0.362,4.227-0.681,5.197-1.492c-0.795,0-2.499,0.219-3.587,0.38c-2.01,0.287-3.285,0.444-3.908,0.287
			c-0.913-0.231-1.449-0.882-1.868-1.405c-0.345-0.432-0.55-0.724-0.838-0.68c-0.104,0.018-0.162,0.1-0.306,0.654
			c-0.144,0.593-0.344,1.418-1.217,1.675c-0.895,0.275-3.473,0.825-4.63,0.088c-0.361-0.232-0.566-0.551-0.623-0.938
			c-0.262-1.755-0.031-2.955,0.681-3.709c0.867-0.912,2.185-0.794,2.88-0.724c0.075,0.018,0.13,0.018,0.187,0.018
			c0.118-0.219,0.043-0.436-0.17-0.943c-0.305-0.663-0.755-1.661,0.232-2.848c0.767-0.93,1.531-1.462,2.199-1.943
			c0.594-0.418,1.07-0.751,1.374-1.257c0.162-0.249,0.045-0.479-0.392-1.029c-0.376-0.494-1.082-1.392-0.101-2.199
			c1.332-1.088,7.995-0.768,9.019,0.418l0,0c0.813,0.938,2.767,3.823,3.636,5.978c1.055,2.636,1.574,5.415,1.549,8.277
			c-0.031,2.867-0.607,5.634-1.723,8.253c-1.113,2.591-2.723,4.938-4.766,6.936c-2.038,1.995-4.412,3.544-7.033,4.604
			C50.487,59.712,50.368,59.725,50.281,59.725z"/>
		<path style="fill-rule:evenodd;clip-rule:evenodd;fill:#FFFFFF;" d="M41.148,18.618c-4.908,0.332-9.729,2.374-13.477,6.122
			c-2.025,2.025-3.548,4.342-4.574,6.821c-2.129,5.148-2.129,10.986,0,16.152c0.851,2.056,2.056,4.01,3.605,5.774
			c0.112,0.13,0.261,0.205,0.431,0.217c0.175,0,0.336-0.057,0.449-0.187c1.405-1.606,5.459-2.736,5.734-4.848
			c0.2-1.592-2.417-2.217-3.098-3.648c-0.781-1.636-0.16-3.809-1.174-5.302c-1.055-1.544-5.053-1.693-6.135-3.21
			c-0.593-0.843-0.162-2.1,0.158-3.085c0.129-0.419,0.648-0.664,1.086-0.782c0.606-0.157,1.257,0.013,1.898,0.031
			c0.039,0,6.004-0.911,7.828-1.693c1.841-0.798,0.825-1.855,1.636-2.187c0.811-0.319,2.068,2.113,3.317,1.025
			c1.23-1.069,2.212-6.265,2.649-7.469c0.449-1.2,2.085-0.026,2.518,0.236c0.436,0.244-0.751,2.574-0.202,2.993
			c0.549,0.436,2.881-1.038,3.168-1.331c1.75-1.736,1.317-3.33,0.332-4.11c-0.97-0.783-3.967,0.261-5.704-1.362
			C41.482,18.658,41.319,18.6,41.148,18.618z"/>
		
			<linearGradient id="SVGID_00000119800184139312503630000015519508266701444523_" gradientUnits="userSpaceOnUse" x1="20.9917" y1="36.1589" x2="48.6788" y2="36.1589">
			<stop  offset="0" style="stop-color:#894593"/>
			<stop  offset="0.5098" style="stop-color:#338ACA"/>
			<stop  offset="0.999" style="stop-color:#6A9F5B"/>
			<stop  offset="1" style="stop-color:#5F9F55"/>
		</linearGradient>
		<path style="fill-rule:evenodd;clip-rule:evenodd;fill:url(#SVGID_00000119800184139312503630000015519508266701444523_);" d="
			M43.736,23.017L43.736,23.017L43.736,23.017L43.736,23.017z M41.148,18.618l0.027,0.519c-4.948,0.319-9.626,2.448-13.143,5.965
			c-1.924,1.925-3.429,4.167-4.459,6.659c-0.1,0.23-0.187,0.448-0.274,0.681c0.274-0.163,0.549-0.25,0.724-0.293
			c0.493-0.13,0.968-0.082,1.431-0.044c0.205,0.03,0.406,0.044,0.598,0.044c0.357-0.044,5.947-0.925,7.627-1.649
			c0.838-0.362,0.88-0.693,0.938-1.1c0.043-0.331,0.105-0.842,0.711-1.069c0.606-0.261,1.156,0.188,1.693,0.621
			c0.781,0.623,1.112,0.78,1.474,0.491c0.786-0.68,1.549-3.704,2.016-5.514c0.2-0.781,0.357-1.405,0.493-1.751
			c0.184-0.505,0.519-0.71,0.763-0.798c0.813-0.274,1.824,0.332,2.36,0.668l0.132,0.088c0.536,0.317,0.362,0.998,0.13,1.867
			c-0.086,0.319-0.231,0.883-0.231,1.143c0.563-0.062,2.169-0.985,2.444-1.261c0.723-0.711,1.086-1.432,1.043-2.099
			c-0.028-0.494-0.263-0.925-0.668-1.244c-0.258-0.219-0.982-0.232-1.676-0.249c-1.292-0.026-2.898-0.057-4.053-1.145L41.148,18.618
			L41.148,18.618z M22.274,36.407c-0.594,3.718-0.162,7.597,1.299,11.1c0.856,2.056,2.025,3.954,3.517,5.647
			c0.711-0.668,1.679-1.23,2.692-1.824c1.418-0.825,2.897-1.693,3.028-2.736c0.07-0.561-0.449-0.999-1.332-1.636
			c-0.686-0.493-1.379-0.985-1.723-1.723c-0.406-0.837-0.462-1.763-0.537-2.661c-0.074-0.956-0.129-1.868-0.593-2.561
			c-0.431-0.638-1.649-1.043-2.823-1.42c-1.317-0.448-2.679-0.898-3.316-1.797C22.404,36.669,22.331,36.539,22.274,36.407
			L22.274,36.407z M27.165,54.211c-0.013,0-0.031,0-0.045,0c-0.319-0.013-0.593-0.145-0.811-0.376
			c-1.549-1.781-2.792-3.779-3.691-5.935c-2.169-5.253-2.169-11.279,0-16.533c1.085-2.618,2.666-4.965,4.691-6.99
			c3.69-3.691,8.601-5.921,13.809-6.265l0,0c0.305-0.031,0.594,0.07,0.838,0.287c0.869,0.825,2.187,0.856,3.359,0.868
			c0.956,0.026,1.768,0.045,2.318,0.462c0.623,0.507,0.999,1.218,1.043,1.998c0.025,0.668-0.176,1.724-1.35,2.881
			c-0.013,0.012-2.823,2.172-3.847,1.374c-0.567-0.432-0.333-1.304-0.088-2.242c0.075-0.262,0.175-0.624,0.187-0.813l0,0
			c-0.274-0.174-1.117-0.706-1.478-0.58c-0.013,0.017-0.083,0.03-0.145,0.192c-0.1,0.301-0.262,0.925-0.446,1.648
			c-0.723,2.806-1.404,5.21-2.347,6.021c-1.055,0.926-2.142,0.057-2.793-0.462c-0.204-0.174-0.566-0.466-0.698-0.466
			c-0.013,0.03-0.027,0.174-0.039,0.261c-0.062,0.494-0.175,1.305-1.549,1.899c-1.855,0.811-7.819,1.736-8.033,1.736h-0.017
			c-0.219,0-0.45-0.03-0.682-0.043c-0.388-0.045-0.75-0.074-1.086,0c-0.359,0.1-0.663,0.289-0.72,0.449
			c-0.305,0.956-0.654,2.025-0.219,2.618c0.432,0.626,1.636,1.03,2.793,1.405c1.331,0.449,2.723,0.898,3.342,1.824
			c0.624,0.925,0.71,2.011,0.785,3.067c0.057,0.842,0.115,1.636,0.432,2.304c0.232,0.494,0.825,0.912,1.392,1.331
			c0.895,0.651,1.911,1.392,1.75,2.592c-0.205,1.549-1.881,2.531-3.517,3.491c-0.942,0.551-1.841,1.069-2.329,1.649
			C27.771,54.079,27.483,54.211,27.165,54.211z"/>
		<path style="fill-rule:evenodd;clip-rule:evenodd;fill:#FFFFFF;" d="M41.25,7.126h-7.557c5.252,4.279,6.05,8.757,8.455,13.272l0,0
			c0.244,0.432,0.1,0.982-0.319,1.227l-7.008,2.391l18.689,6.008l9.133-16.981l-5.935,2.374c-0.432,0.248-0.968,0.105-1.23-0.332
			l-2.635-3.486c-3.025-3.997-4.748-4.347-7.515-4.46L41.25,7.126z"/>
		
			<linearGradient id="SVGID_00000130645246369349029010000011778860321060174765_" gradientUnits="userSpaceOnUse" x1="33.1716" y1="18.5785" x2="63.151" y2="18.5785">
			<stop  offset="0" style="stop-color:#894593"/>
			<stop  offset="0.5098" style="stop-color:#338ACA"/>
			<stop  offset="0.999" style="stop-color:#6A9F5B"/>
			<stop  offset="1" style="stop-color:#5F9F55"/>
		</linearGradient>
		<path style="fill-rule:evenodd;clip-rule:evenodd;fill:url(#SVGID_00000130645246369349029010000011778860321060174765_);" d="
			M36.446,24.002L53.261,29.4l8.252-15.357l-4.617,1.854c-0.261,0.145-0.636,0.2-0.998,0.1c-0.362-0.1-0.668-0.332-0.855-0.65
			l-2.606-3.447c-2.949-3.892-4.559-4.141-7.121-4.255H35.067c3.217,2.968,4.573,6.048,5.89,9.046c0.512,1.13,1.03,2.317,1.65,3.477
			c0,0,0.017,0.012,0.017,0.025c0.349,0.669,0.118,1.494-0.549,1.869L36.446,24.002L36.446,24.002z M53.51,30.543
			c-0.043,0-0.105-0.012-0.161-0.03l-18.689-6.003c-0.219-0.074-0.345-0.262-0.359-0.48c0-0.232,0.14-0.418,0.345-0.493l7.008-2.4
			c0.1-0.057,0.157-0.292,0.057-0.479c-0.651-1.2-1.173-2.4-1.681-3.561c-1.474-3.329-2.867-6.484-6.671-9.569
			c-0.162-0.144-0.232-0.376-0.162-0.576c0.074-0.205,0.275-0.337,0.494-0.337h7.557h4.079c2.823,0.132,4.766,0.512,7.92,4.679
			l2.649,3.485c0.087,0.132,0.16,0.205,0.262,0.233c0.1,0.03,0.201,0,0.287-0.04l5.995-2.404c0.215-0.087,0.432-0.031,0.577,0.126
			c0.144,0.162,0.174,0.394,0.074,0.581l-9.12,16.994C53.873,30.444,53.697,30.543,53.51,30.543z"/>
		<polygon style="fill-rule:evenodd;clip-rule:evenodd;fill:#FFFFFF;" points="34.821,24.015 33.748,25.883 52.437,31.875 
			53.51,30.024 		"/>
		
			<linearGradient id="SVGID_00000098180525643864360770000017277781296366989712_" gradientUnits="userSpaceOnUse" x1="33.2377" y1="27.9549" x2="54.0232" y2="27.9549">
			<stop  offset="0" style="stop-color:#894593"/>
			<stop  offset="0.5098" style="stop-color:#338ACA"/>
			<stop  offset="0.999" style="stop-color:#6A9F5B"/>
			<stop  offset="1" style="stop-color:#5F9F55"/>
		</linearGradient>
		<path style="fill-rule:evenodd;clip-rule:evenodd;fill:url(#SVGID_00000098180525643864360770000017277781296366989712_);" d="
			M34.517,25.578l17.689,5.689l0.548-0.955L35.053,24.64L34.517,25.578L34.517,25.578z M52.437,32.397
			c-0.042,0-0.1-0.012-0.144-0.03l-18.702-6.003c-0.149-0.048-0.261-0.162-0.319-0.305c-0.057-0.15-0.042-0.307,0.031-0.437
			l1.069-1.855c0.132-0.214,0.376-0.301,0.607-0.23l18.689,5.995c0.144,0.057,0.261,0.157,0.317,0.307
			c0.062,0.144,0.043,0.299-0.026,0.443l-1.073,1.855C52.799,32.297,52.625,32.397,52.437,32.397z"/>
		<path style="fill-rule:evenodd;clip-rule:evenodd;fill:#FFFFFF;" d="M34.167,8.814C29.87,7.038,22.835,22.829,20.55,26.678
			c1.549-2.911,8.626-20.338,13.579-19.527c3.849,0,7.09,10.132,8.046,13.304c0.217,0.42,0.06,0.925-0.345,1.17l-1.404,0.479
			C39.888,19.355,37.397,10.161,34.167,8.814z"/>
		
			<linearGradient id="SVGID_00000039822154899157337960000007844874147054388118_" gradientUnits="userSpaceOnUse" x1="20.0269" y1="16.9049" x2="42.7974" y2="16.9049">
			<stop  offset="0" style="stop-color:#894593"/>
			<stop  offset="0.5098" style="stop-color:#338ACA"/>
			<stop  offset="0.999" style="stop-color:#6A9F5B"/>
			<stop  offset="1" style="stop-color:#5F9F55"/>
		</linearGradient>
		<path style="fill-rule:evenodd;clip-rule:evenodd;fill:url(#SVGID_00000039822154899157337960000007844874147054388118_);" d="
			M34.36,8.355c3.559,1.476,5.89,10.664,6.439,13.069l0.856-0.288c0.087-0.057,0.157-0.274,0.07-0.449
			c-2.488-8.194-5.312-13.028-7.597-13.028c-0.868-0.145-1.811,0.392-2.81,1.329C32.387,8.221,33.404,7.951,34.36,8.355L34.36,8.355
			L34.36,8.355z M20.55,27.201c-0.087,0-0.175-0.03-0.262-0.074c-0.244-0.132-0.331-0.432-0.2-0.681
			c0.245-0.462,0.633-1.3,1.126-2.374c4.384-9.439,9.005-18.095,13.002-17.427l0,0c3.561,0,6.572,7.427,8.452,13.666
			c0.305,0.577,0.057,1.387-0.58,1.751l-1.506,0.523c-0.13,0.057-0.289,0.039-0.419-0.043c-0.131-0.075-0.219-0.192-0.244-0.336
			c-0.581-3.037-3.085-11.724-5.953-12.911l0,0c-3.023-1.257-8.556,9.294-11.205,14.359c-0.723,1.375-1.331,2.549-1.781,3.3
			C20.881,27.114,20.72,27.201,20.55,27.201z"/>
		<path style="fill-rule:evenodd;clip-rule:evenodd;fill:#FFFFFF;" d="M72.037,57.309l3.791-6.547
			c-6.352,2.422-9.207,1.684-15.734,0.699c-0.305-0.175-0.898-0.087-0.898-0.898l1.436-7.265L46.084,56.485l10.144,16.402
			l0.913-6.328c0-0.494,0.392-0.895,0.886-0.895c4.903-0.61,9.032-0.219,11.968-4.825L72.037,57.309z"/>
		
			<linearGradient id="SVGID_00000056428279041493045060000015378808000347270073_" gradientUnits="userSpaceOnUse" x1="45.5695" y1="58.0877" x2="76.337" y2="58.0877">
			<stop  offset="0" style="stop-color:#894593"/>
			<stop  offset="0.5098" style="stop-color:#338ACA"/>
			<stop  offset="0.999" style="stop-color:#6A9F5B"/>
			<stop  offset="1" style="stop-color:#5F9F55"/>
		</linearGradient>
		<path style="fill-rule:evenodd;clip-rule:evenodd;fill:url(#SVGID_00000056428279041493045060000015378808000347270073_);" d="
			M72.037,57.309h0.018H72.037L72.037,57.309z M46.747,56.571l9.18,14.834l0.708-4.918c-0.013-0.305,0.13-0.668,0.406-0.928
			c0.262-0.262,0.606-0.406,0.986-0.419c0.706-0.087,1.448-0.162,2.186-0.232c3.91-0.362,7.003-0.668,9.35-4.341l5.11-8.846
			c-5.11,1.724-8.077,1.257-13.16,0.477l-1.492-0.232c-0.07-0.013-0.127-0.03-0.184-0.074c-0.017,0-0.104-0.026-0.147-0.045
			c-0.302-0.087-1.001-0.287-1.001-1.286l1.148-5.848L46.747,56.571L46.747,56.571z M56.228,73.391c-0.17,0-0.344-0.087-0.431-0.247
			L45.648,56.758c-0.128-0.219-0.101-0.494,0.087-0.651l14.547-13.19c0.161-0.157,0.406-0.169,0.593-0.069
			c0.205,0.117,0.292,0.331,0.262,0.548l-1.432,7.266c0.013,0.13,0.013,0.13,0.275,0.205c0.088,0.029,0.175,0.057,0.275,0.099
			l1.419,0.219c5.501,0.856,8.25,1.274,13.966-0.898c0.205-0.07,0.437-0.013,0.581,0.144c0.132,0.162,0.157,0.406,0.042,0.593
			l-3.778,6.545l0,0l-2.042,3.529c-2.618,4.111-6.107,4.447-10.145,4.836c-0.71,0.074-1.448,0.149-2.204,0.234
			c-0.17,0-0.257,0.04-0.331,0.115c-0.07,0.075-0.118,0.174-0.118,0.274l-0.911,6.397c-0.027,0.205-0.188,0.379-0.402,0.423
			C56.303,73.391,56.26,73.391,56.228,73.391z"/>
		<path style="fill-rule:evenodd;clip-rule:evenodd;fill:#FFFFFF;" d="M60.631,43.298l-0.476-1.781L45.608,54.716l0.477,1.769
			L60.631,43.298L60.631,43.298z M74.109,50.33c3.692-2.823-6.631-17.081-8.656-20.729c2.042,2.796,13.317,17.649,10.131,21.542
			c-1.925,3.316-12.318,1.056-15.546,0.305c-0.464-0.031-0.843-0.424-0.843-0.885l0.292-1.462
			C62.137,50.025,71.343,52.46,74.109,50.33L74.109,50.33z"/>
		
			<linearGradient id="SVGID_00000000198555453277848510000005160992648337465534_" gradientUnits="userSpaceOnUse" x1="45.0923" y1="43.0394" x2="76.6489" y2="43.0394">
			<stop  offset="0" style="stop-color:#894593"/>
			<stop  offset="0.5098" style="stop-color:#338ACA"/>
			<stop  offset="0.999" style="stop-color:#6A9F5B"/>
			<stop  offset="1" style="stop-color:#5F9F55"/>
		</linearGradient>
		<path style="fill-rule:evenodd;clip-rule:evenodd;fill:url(#SVGID_00000000198555453277848510000005160992648337465534_);" d="
			M59.877,49.769l-0.171,0.895c0.013,0.099,0.158,0.262,0.363,0.274c8.451,1.973,13.91,1.942,15.066-0.057
			c0.506-0.624,0.724-1.719,0.188-3.66c0.261,1.574,0.042,2.804-0.895,3.516C71.374,53.08,62.237,50.493,59.877,49.769
			L59.877,49.769z M70.244,53.428c-3.115,0-6.951-0.693-10.324-1.474c-0.651-0.043-1.232-0.65-1.232-1.391l0.293-1.549
			c0.026-0.145,0.113-0.275,0.244-0.345c0.13-0.075,0.289-0.088,0.437-0.043c2.905,1.012,11.679,3.185,14.141,1.301l0,0
			c2.618-2.012-3.823-12.143-6.908-17.021c-0.837-1.319-1.505-2.362-1.893-3.055c-0.13-0.231-0.057-0.537,0.174-0.681
			c0.232-0.144,0.532-0.087,0.694,0.13l0.406,0.551c8.726,11.854,11.899,18.932,9.696,21.612
			C75.148,52.892,72.98,53.428,70.244,53.428L70.244,53.428z M46.185,54.877l13.692-12.404l0.174,0.65L46.359,55.541L46.185,54.877
			L46.185,54.877z M46.084,56.989c-0.045,0-0.101,0-0.145-0.013c-0.175-0.043-0.304-0.187-0.349-0.362l-0.474-1.766
			c-0.061-0.187,0-0.389,0.144-0.519l14.547-13.186c0.13-0.117,0.319-0.161,0.493-0.105c0.175,0.045,0.301,0.175,0.345,0.349
			l0.479,1.781c0.043,0.188-0.017,0.376-0.144,0.506L46.429,56.859C46.328,56.946,46.215,56.989,46.084,56.989z"/>
		<path style="fill-rule:evenodd;clip-rule:evenodd;fill:#FFFFFF;" d="M9.445,56.239l3.779,6.541
			c1.069-6.702,4.559-9.626,7.264-13.968l0,0c0.249-0.418,0.799-0.563,1.217-0.318l5.59,4.864l-4.154-19.197L3.873,34.753
			l5.022,3.954c0.419,0.244,0.568,0.798,0.32,1.217l-1.694,4.04c-1.937,4.616-1.387,6.279-0.112,8.727L9.445,56.239z"/>
		
			<linearGradient id="SVGID_00000032609637121194190790000011991117452843279016_" gradientUnits="userSpaceOnUse" x1="3.3511" y1="48.469" x2="27.8037" y2="48.469">
			<stop  offset="0" style="stop-color:#894593"/>
			<stop  offset="0.5098" style="stop-color:#338ACA"/>
			<stop  offset="0.999" style="stop-color:#6A9F5B"/>
			<stop  offset="1" style="stop-color:#5F9F55"/>
		</linearGradient>
		<path style="fill-rule:evenodd;clip-rule:evenodd;fill:url(#SVGID_00000032609637121194190790000011991117452843279016_);" d="
			M9.882,55.977l3.098,5.354c0.968-4.267,2.949-6.99,4.878-9.622c0.737-1.017,1.505-2.059,2.199-3.159
			c0-0.013,0.012-0.03,0.012-0.043c0.407-0.638,1.248-0.837,1.899-0.462l4.501,3.91l-3.735-17.27L5.291,35.22l3.923,3.08
			c0.262,0.145,0.493,0.45,0.593,0.813c0.087,0.362,0.043,0.736-0.144,1.069l-1.667,3.983c-1.907,4.504-1.317,6.009-0.127,8.295
			L9.882,55.977L9.882,55.977z M13.224,63.286c-0.188,0-0.35-0.087-0.449-0.244l-3.779-6.557l0,0l-2.037-3.532
			c-1.305-2.504-1.943-4.372,0.087-9.193l1.706-4.04c0.074-0.144,0.087-0.244,0.056-0.344c-0.025-0.088-0.087-0.175-0.17-0.219
			L3.555,35.16c-0.175-0.127-0.25-0.359-0.175-0.563c0.074-0.202,0.262-0.349,0.481-0.349l19.263-0.594
			c0.231-0.025,0.463,0.162,0.523,0.406l4.142,19.181c0.057,0.219-0.048,0.45-0.236,0.549c-0.202,0.114-0.432,0.1-0.606-0.042
			l-5.572-4.879c-0.1-0.043-0.332,0.013-0.436,0.205c-0.027,0.04-0.058,0.07-0.083,0.1c-0.641,1.055-1.422,2.112-2.159,3.124
			c-2.157,2.955-4.186,5.721-4.966,10.57c-0.044,0.217-0.202,0.373-0.419,0.418C13.28,63.286,13.254,63.286,13.224,63.286z"/>
		<path style="fill-rule:evenodd;clip-rule:evenodd;fill:#FFFFFF;" d="M27.296,53.358h2.142l-4.154-19.197h-2.142L27.296,53.358
			L27.296,53.358z M14.453,61.522c0.595,4.6,13.797,3.33,21.874,2.851c-3.404,0.549-21.525,2.721-23.305-1.981
			c-1.925-3.329,5.24-11.205,7.497-13.622c0.262-0.392,0.781-0.519,1.186-0.274l1.117,0.968
			C20.707,51.305,14.004,58.064,14.453,61.522L14.453,61.522z"/>
		
			<linearGradient id="SVGID_00000141455484032182015380000017696536577547840414_" gradientUnits="userSpaceOnUse" x1="12.1699" y1="49.7464" x2="36.8374" y2="49.7464">
			<stop  offset="0" style="stop-color:#894593"/>
			<stop  offset="0.5098" style="stop-color:#338ACA"/>
			<stop  offset="0.999" style="stop-color:#6A9F5B"/>
			<stop  offset="1" style="stop-color:#5F9F55"/>
		</linearGradient>
		<path style="fill-rule:evenodd;clip-rule:evenodd;fill:url(#SVGID_00000141455484032182015380000017696536577547840414_);" d="
			M23.775,34.666l3.927,18.169h1.1l-3.923-18.169H23.775L23.775,34.666z M27.296,53.865c-0.249,0-0.467-0.162-0.506-0.406
			l-4.158-19.181c-0.026-0.158,0.017-0.319,0.104-0.437c0.1-0.112,0.244-0.187,0.407-0.187l2.142-0.013l0,0
			c0.244,0,0.449,0.175,0.506,0.406l4.14,19.194c0.04,0.157,0,0.319-0.105,0.437c-0.087,0.112-0.244,0.187-0.388,0.187H27.296
			L27.296,53.865L27.296,53.865z M21.301,48.856c-0.115,0-0.258,0.07-0.362,0.201c-5.834,6.24-8.609,11.106-7.47,13.073
			c0.249,0.651,0.885,1.157,1.81,1.549c-0.75-0.537-1.212-1.217-1.329-2.098c-0.464-3.548,5.715-9.931,8.107-12.117l-0.681-0.594
			C21.361,48.869,21.331,48.856,21.301,48.856L21.301,48.856z M23.88,65.852c-5.241,0-10.363-0.698-11.337-3.29
			c-1.78-3.067,3.142-9.394,7.601-14.141c0.362-0.551,1.187-0.738,1.825-0.376l1.2,1.03c0.099,0.1,0.174,0.245,0.174,0.389
			s-0.075,0.287-0.174,0.391c-2.332,2.013-8.614,8.527-8.209,11.594l0,0c0.48,3.736,11.725,3.025,19.151,2.549l2.187-0.13
			c0.274-0.013,0.507,0.187,0.537,0.462c0.03,0.262-0.162,0.506-0.42,0.549C36.284,64.909,30,65.852,23.88,65.852z"/>
	</g>
</g>
<g id="Layer_1">
</g>
</svg>
