<?xml version="1.0" encoding="iso-8859-1"?>
<!-- Generator: Adobe Illustrator 26.0.3, SVG Export Plug-In . SVG Version: 6.00 Build 0)  -->
<svg version="1.1" xmlns="http://www.w3.org/2000/svg" xmlns:xlink="http://www.w3.org/1999/xlink" x="0px" y="0px"
	 viewBox="0 0 80 80" style="enable-background:new 0 0 80 80;" xml:space="preserve">
<g id="social_16">
	<g>
		<path style="fill-rule:evenodd;clip-rule:evenodd;fill:#FFFFFF;" d="M16.899,20.634c2.021-1.206,5.476-1.776,7.521-1.904
			c2.123-0.135,3.608,1.469,3.608,4.333c0,3.882-2.726,8.603-6.078,10.543c-3.612,2.083-5.166-0.162-5.624-1.105
			c-1.139-2.325-2.547-4.937-2.201-7.531C14.349,23.323,15.443,21.497,16.899,20.634z"/>
		<linearGradient id="SVGID_1_" gradientUnits="userSpaceOnUse" x1="13.6737" y1="26.5927" x2="28.4327" y2="26.5927">
			<stop  offset="0" style="stop-color:#894593"/>
			<stop  offset="0.5098" style="stop-color:#338ACA"/>
			<stop  offset="0.999" style="stop-color:#6A9F5B"/>
			<stop  offset="1" style="stop-color:#5F9F55"/>
		</linearGradient>
		<path style="fill-rule:evenodd;clip-rule:evenodd;fill:url(#SVGID_1_);" d="M17.098,20.971c-1.274,0.762-2.359,2.467-2.581,4.054
			c-0.313,2.298,0.883,4.7,1.934,6.823l0.233,0.482c0.236,0.478,0.772,1.324,1.766,1.628c0.92,0.276,2.025,0.044,3.299-0.694
			c3.242-1.873,5.89-6.449,5.89-10.2c0-1.435-0.391-2.56-1.115-3.244c-0.539-0.505-1.264-0.741-2.079-0.695
			c-1.769,0.115-5.3,0.627-7.346,1.85V20.971L17.098,20.971z M19.234,34.861c-0.347,0-0.694-0.047-1.007-0.145
			c-1.284-0.391-1.968-1.445-2.258-2.038l-0.236-0.479c-1.095-2.224-2.345-4.741-2.002-7.282c0.259-1.836,1.466-3.737,2.965-4.626
			l0,0c2.18-1.297,5.87-1.84,7.699-1.958c1.051-0.064,1.968,0.249,2.662,0.906c0.893,0.839,1.375,2.163,1.375,3.824
			c0,4.003-2.827,8.886-6.294,10.887C21.088,34.557,20.117,34.861,19.234,34.861z"/>
		<path style="fill-rule:evenodd;clip-rule:evenodd;fill:#FFFFFF;" d="M16.899,20.634c2.021-1.206,5.476-1.776,7.521-1.904
			c0.694-0.047,1.321,0.098,1.846,0.408c-1.365,1.308-2.797,2.844-3.848,4.428l-5.711-2.81
			C16.764,20.712,16.832,20.672,16.899,20.634z"/>
		
			<linearGradient id="SVGID_00000096019079907723076420000010137945786951493307_" gradientUnits="userSpaceOnUse" x1="16.3043" y1="21.1444" x2="26.6686" y2="21.1444">
			<stop  offset="0" style="stop-color:#894593"/>
			<stop  offset="0.5098" style="stop-color:#338ACA"/>
			<stop  offset="0.999" style="stop-color:#6A9F5B"/>
			<stop  offset="1" style="stop-color:#5F9F55"/>
		</linearGradient>
		<path style="fill-rule:evenodd;clip-rule:evenodd;fill:url(#SVGID_00000096019079907723076420000010137945786951493307_);" d="
			M17.546,20.729l4.737,2.328c0.829-1.193,1.938-2.467,3.289-3.801c-0.347-0.114-0.714-0.158-1.129-0.131
			C22.799,19.23,19.635,19.681,17.546,20.729L17.546,20.729z M22.418,23.964c-0.054,0-0.111-0.014-0.165-0.044l-5.725-2.81
			c-0.135-0.061-0.212-0.189-0.222-0.33c-0.014-0.142,0.054-0.277,0.179-0.354c0.064-0.047,0.131-0.091,0.212-0.134l0,0
			c2.18-1.297,5.87-1.84,7.699-1.958c0.772-0.047,1.466,0.108,2.069,0.462c0.111,0.064,0.179,0.175,0.202,0.3
			c0.01,0.121-0.034,0.246-0.124,0.33c-1.631,1.55-2.904,3.015-3.787,4.357C22.674,23.896,22.553,23.964,22.418,23.964z"/>
		<path style="fill-rule:evenodd;clip-rule:evenodd;fill:#FFFFFF;" d="M22.519,19.943c3.366-1.937,6.082-0.367,6.082,3.515
			c0,3.882-2.715,8.602-6.082,10.54c-3.366,1.941-6.092,0.371-6.092-3.514C16.427,26.602,19.153,21.885,22.519,19.943z"/>
		
			<linearGradient id="SVGID_00000109724564733216879990000003957437523862728859_" gradientUnits="userSpaceOnUse" x1="16.0366" y1="26.9709" x2="29.0024" y2="26.9709">
			<stop  offset="0" style="stop-color:#894593"/>
			<stop  offset="0.5098" style="stop-color:#338ACA"/>
			<stop  offset="0.999" style="stop-color:#6A9F5B"/>
			<stop  offset="1" style="stop-color:#5F9F55"/>
		</linearGradient>
		<path style="fill-rule:evenodd;clip-rule:evenodd;fill:url(#SVGID_00000109724564733216879990000003957437523862728859_);" d="
			M22.519,19.943h0.01H22.519L22.519,19.943z M25.235,19.509c-0.758,0-1.621,0.263-2.514,0.779l0,0
			c-3.255,1.877-5.89,6.45-5.89,10.196c0,1.731,0.556,3.008,1.587,3.598c1.018,0.59,2.403,0.438,3.902-0.425
			c3.251-1.877,5.89-6.449,5.89-10.199c0-1.729-0.56-3.006-1.59-3.595C26.219,19.624,25.751,19.509,25.235,19.509L25.235,19.509z
			 M19.803,35.228c-0.65,0-1.25-0.151-1.788-0.458c-1.274-0.738-1.978-2.257-1.978-4.285c0-4,2.817-8.879,6.284-10.884
			c1.752-1.011,3.42-1.163,4.704-0.425c1.273,0.738,1.978,2.258,1.978,4.283c0,4-2.817,8.886-6.281,10.884
			C21.694,34.932,20.696,35.228,19.803,35.228z"/>
		<path style="fill-rule:evenodd;clip-rule:evenodd;fill:#FFFFFF;" d="M23.773,36.363l-4.485-2.591
			c-1.048-0.664-1.395-1.638-1.53-2.824c-0.057-0.812,0-1.442,0.135-2.241c0.425-1.934,1.196-3.518,2.392-5.088
			c0.826-1.031,1.607-1.786,2.75-2.476c1.206-0.661,2.47-1.045,3.754-0.371l4.495,2.591c-1.887-0.987-3.945,0.3-5.331,1.56
			c-1.51,1.456-2.517,3.073-3.211,5.048c-0.421,1.318-0.623,2.469-0.458,3.855C22.465,34.915,22.809,35.757,23.773,36.363z"/>
		
			<linearGradient id="SVGID_00000022545382736581132310000008709639630556849319_" gradientUnits="userSpaceOnUse" x1="17.3414" y1="28.3907" x2="31.6774" y2="28.3907">
			<stop  offset="0" style="stop-color:#894593"/>
			<stop  offset="0.5098" style="stop-color:#338ACA"/>
			<stop  offset="0.999" style="stop-color:#6A9F5B"/>
			<stop  offset="1" style="stop-color:#5F9F55"/>
		</linearGradient>
		<path style="fill-rule:evenodd;clip-rule:evenodd;fill:url(#SVGID_00000022545382736581132310000008709639630556849319_);" d="
			M25.383,20.81c-0.627,0-1.321,0.222-2.159,0.681c-0.994,0.603-1.756,1.294-2.625,2.376c-1.209,1.59-1.924,3.11-2.315,4.926
			c-0.144,0.802-0.179,1.405-0.135,2.126c0.159,1.277,0.549,2.012,1.341,2.52l2.683,1.543c-0.145-0.364-0.222-0.735-0.28-1.089
			c-0.155-1.331-0.02-2.497,0.472-4.043c0.738-2.089,1.786-3.74,3.309-5.212c1.26-1.142,2.47-1.803,3.599-1.975l-2.682-1.546
			C26.209,20.914,25.805,20.81,25.383,20.81L25.383,20.81z M23.773,36.761c-0.067,0-0.135-0.017-0.202-0.054l-4.482-2.591
			c-1.297-0.819-1.601-2.038-1.722-3.12c-0.057-0.815-0.023-1.469,0.145-2.358c0.404-1.921,1.186-3.586,2.46-5.257
			c0.94-1.169,1.766-1.914,2.861-2.578c1.119-0.61,2.581-1.2,4.138-0.381l4.501,2.598c0.192,0.108,0.26,0.347,0.159,0.536
			c-0.111,0.188-0.347,0.259-0.538,0.158c-1.685-0.883-3.586,0.331-4.883,1.503c-1.418,1.375-2.402,2.928-3.096,4.885
			c-0.449,1.419-0.583,2.487-0.439,3.68c0.159,0.944,0.449,1.698,1.311,2.248c0.179,0.115,0.236,0.357,0.121,0.539
			C24.039,36.694,23.908,36.761,23.773,36.761z"/>
		<path style="fill-rule:evenodd;clip-rule:evenodd;fill:#FFFFFF;" d="M28.019,35.302l1.553,12.164
			c0.101,1.304,0.081,2.16-1.361,2.942c-2.373,1.294-2.706,1.256-4.037,0.596c-0.971-0.489-1.207-0.566-1.53-3.026l-1.499-11.837
			v0.021l0.01,0.01v0.01l0.014,0.014l0.01,0.007v0.01l0.01,0.01l0.013,0.01l0.01,0.01l0.01,0.01l0.014,0.007l0.02,0.007l2.315,1.344
			l0.01,0.007l0.023,0.006l0.01,0.01l0.024,0.003l0.01,0.007l0.024,0.006l0.01,0.004l0.024,0.006l0.01,0.003l0.024,0.003h0.02
			l0.014,0.003l0.02,0.004h0.023l0.01,0.003h0.044l0.024-0.003h0.014l0.02-0.004l0.024-0.003h0.01l0.024-0.003l0.01-0.003
			l0.024-0.006l0.02-0.004l0.014-0.006l0.02-0.007l0.014-0.003l0.01-0.01l0.023-0.006l0.01-0.007l3.777-2.18l0.014-0.01l0.01-0.007
			l0.02-0.01v-0.01l0.013-0.01l0.01-0.01l0.014-0.01l0.01-0.01v-0.01l0.01-0.011v-0.01l0.01-0.014V35.302z"/>
		
			<linearGradient id="SVGID_00000078004381737071985120000016384335853765453713_" gradientUnits="userSpaceOnUse" x1="20.7489" y1="43.385" x2="30.0029" y2="43.385">
			<stop  offset="0" style="stop-color:#894593"/>
			<stop  offset="0.5098" style="stop-color:#338ACA"/>
			<stop  offset="0.999" style="stop-color:#6A9F5B"/>
			<stop  offset="1" style="stop-color:#5F9F55"/>
		</linearGradient>
		<path style="fill-rule:evenodd;clip-rule:evenodd;fill:url(#SVGID_00000078004381737071985120000016384335853765453713_);" d="
			M21.647,36.953l1.399,10.974c0.28,2.204,0.424,2.282,1.253,2.693c1.227,0.613,1.408,0.707,3.72-0.559
			c1.253-0.681,1.253-1.348,1.152-2.565l-1.465-11.494l-3.376,1.948c-0.021,0.013-0.088,0.047-0.108,0.054
			c-0.013,0.003-0.091,0.03-0.091,0.03c-0.024,0.007-0.091,0.021-0.111,0.024c-0.014,0.003-0.091,0.01-0.101,0.013
			c-0.024,0-0.091,0-0.111,0c0,0-0.091-0.007-0.101-0.01c-0.014,0-0.081-0.014-0.102-0.017c-0.01-0.003-0.091-0.027-0.101-0.034
			l-0.087-0.04L21.647,36.953L21.647,36.953z M25.593,51.85c-0.492,0-0.951-0.172-1.597-0.492c-1.186-0.597-1.429-0.917-1.742-3.329
			l-1.499-11.841c-0.034-0.208,0.111-0.404,0.324-0.438c0.179-0.03,0.347,0.064,0.424,0.215l2.369,1.314l3.815-2.18
			c0.088-0.121,0.246-0.199,0.381-0.175c0.179,0.024,0.323,0.148,0.344,0.327l1.557,12.164c0.111,1.402,0.068,2.449-1.567,3.339
			C27.014,51.513,26.276,51.85,25.593,51.85z"/>
		<path style="fill-rule:evenodd;clip-rule:evenodd;fill:#FFFFFF;" d="M28.019,35.302l1.553,12.164
			c0.101,1.304,0.081,2.16-1.361,2.942c-1.722,1.058-2.581,0.758-2.797-1.004l-1.429-11.74l0.01-0.003l0.024-0.006l0.02-0.004
			l0.014-0.006l0.02-0.007l0.014-0.003l0.01-0.01l0.023-0.006l0.01-0.007l3.777-2.18l0.014-0.01l0.01-0.007l0.02-0.01v-0.01
			l0.013-0.01l0.01-0.01l0.014-0.01l0.01-0.01v-0.01l0.01-0.011v-0.01l0.01-0.014V35.302z"/>
		
			<linearGradient id="SVGID_00000038397665411946434650000008467315111929793926_" gradientUnits="userSpaceOnUse" x1="23.5894" y1="43.1694" x2="30.0029" y2="43.1694">
			<stop  offset="0" style="stop-color:#894593"/>
			<stop  offset="0.5098" style="stop-color:#338ACA"/>
			<stop  offset="0.999" style="stop-color:#6A9F5B"/>
			<stop  offset="1" style="stop-color:#5F9F55"/>
		</linearGradient>
		<path style="fill-rule:evenodd;clip-rule:evenodd;fill:url(#SVGID_00000038397665411946434650000008467315111929793926_);" d="
			M24.41,37.906l1.395,11.45c0.057,0.468,0.202,1.054,0.529,1.213c0.222,0.108,0.691,0.108,1.675-0.498
			c1.263-0.691,1.263-1.358,1.162-2.574l-1.465-11.494L24.41,37.906L24.41,37.906z M26.6,51.419c-0.222,0-0.424-0.044-0.604-0.135
			c-0.535-0.256-0.849-0.856-0.973-1.83l-1.428-11.742c-0.034-0.206,0.111-0.394,0.313-0.435l3.777-2.177
			c0.088-0.121,0.246-0.199,0.381-0.175c0.179,0.024,0.323,0.148,0.344,0.327l1.557,12.164c0.111,1.402,0.068,2.449-1.567,3.339
			C27.685,51.199,27.092,51.419,26.6,51.419z"/>
		<path style="fill-rule:evenodd;clip-rule:evenodd;fill:#FFFFFF;" d="M27.853,43.759c-0.192,0.186-0.394,0.247-0.559,0.196
			l-0.505-0.152l-0.034-0.01l-0.031-0.014l-0.023-0.017l-0.034-0.02l-0.023-0.021l-0.034-0.024l-0.02-0.024l-0.024-0.03l-0.023-0.03
			l-0.02-0.034l-0.024-0.037l-0.021-0.037l-0.013-0.044l-0.011-0.04l-0.023-0.047l-0.01-0.048l-0.01-0.05l-0.014-0.051v-0.05
			l-0.01-0.054v-0.215l0.01-0.054v-0.058l0.014-0.057l0.01-0.054l0.01-0.057l0.014-0.054l0.01-0.054l0.024-0.057l0.011-0.054
			l0.02-0.054l0.023-0.054l0.023-0.054l0.021-0.051l0.024-0.05l0.021-0.047l0.036-0.051L26.677,42l0.034-0.047l0.024-0.044
			l0.033-0.044l0.068-0.081l0.043-0.037l0.034-0.037l0.034-0.03l0.034-0.03l0.044-0.027l0.033-0.027l0.034-0.02l0.044-0.021
			l0.034-0.014l0.034-0.014l0.034-0.01l0.034-0.01l0.044-0.004l0.034-0.003h0.034l0.034,0.003l0.034,0.007l0.034,0.006l0.492,0.152
			c0.169,0.05,0.313,0.212,0.367,0.475C28.466,42.668,28.254,43.392,27.853,43.759z"/>
		
			<linearGradient id="SVGID_00000057111222342441182830000003673134245678633910_" gradientUnits="userSpaceOnUse" x1="25.9963" y1="42.7352" x2="28.7765" y2="42.7352">
			<stop  offset="0" style="stop-color:#894593"/>
			<stop  offset="0.5098" style="stop-color:#338ACA"/>
			<stop  offset="0.999" style="stop-color:#6A9F5B"/>
			<stop  offset="1" style="stop-color:#5F9F55"/>
		</linearGradient>
		<path style="fill-rule:evenodd;clip-rule:evenodd;fill:url(#SVGID_00000057111222342441182830000003673134245678633910_);" d="
			M26.836,43.308l-0.313,0.273l0.357-0.179l0.526,0.172c0.01,0.003,0.077-0.003,0.179-0.101c0.29-0.273,0.468-0.849,0.38-1.236
			c-0.033-0.138-0.09-0.182-0.101-0.186l-0.502-0.152l-0.304-0.303l0.179,0.357l-0.358-0.206l0.247,0.307l-0.057,0.067l-0.358-0.168
			l0.304,0.259L26.6,42.146l0.357,0.175l-0.401-0.074l0.334,0.212l-0.411,0.003l0.378,0.108l-0.411,0.003l0.368,0.144l-0.415,0.077
			l0.405,0.037l-0.414,0.074l0.391,0.077l-0.391,0.138l0.401-0.034l-0.391,0.138l0.405-0.016l-0.337,0.252L26.836,43.308
			L26.836,43.308z M27.853,43.759h0.01H27.853L27.853,43.759z M27.405,44.366c-0.081,0-0.159-0.01-0.236-0.033l-0.492-0.152
			c-0.021,0-0.088-0.03-0.111-0.036c-0.01-0.01-0.067-0.037-0.088-0.05c-0.013-0.004-0.067-0.051-0.081-0.058
			c-0.01-0.014-0.077-0.074-0.101-0.088c0-0.01-0.088-0.117-0.088-0.124c-0.01-0.014-0.057-0.094-0.067-0.108
			c0-0.004-0.034-0.091-0.044-0.098c0-0.003-0.048-0.138-0.048-0.145c0-0.01-0.03-0.118-0.03-0.128c0-0.011-0.013-0.125-0.024-0.135
			c0-0.01,0-0.125,0-0.131c0-0.01,0-0.131,0-0.142c0-0.003,0-0.121,0.011-0.124c0-0.01,0.013-0.131,0.013-0.142
			c0-0.007,0.021-0.128,0.021-0.135c0-0.007,0.034-0.121,0.034-0.124c0-0.01,0.044-0.128,0.044-0.135
			c0-0.01,0.047-0.124,0.047-0.135c0-0.007,0.054-0.118,0.054-0.121c0-0.007,0.057-0.111,0.057-0.118
			c0.01-0.006,0.068-0.108,0.068-0.115c0.01-0.01,0.077-0.108,0.077-0.114l0.111-0.142c0.01-0.014,0.101-0.104,0.111-0.114
			c0.013-0.004,0.091-0.071,0.091-0.074c0.01-0.007,0.088-0.068,0.101-0.078c0.01,0,0.135-0.067,0.135-0.07
			c0.02-0.007,0.111-0.044,0.121-0.048c0.024-0.006,0.111-0.027,0.135-0.03c0.01-0.003,0.097-0.013,0.121-0.013
			c0,0.007,0.111,0.007,0.135,0.01c0.01,0.003,0.091,0.02,0.102,0.023l0.502,0.152c0.324,0.094,0.55,0.374,0.65,0.768
			c0.145,0.654-0.111,1.53-0.603,1.991l0,0C27.907,44.258,27.651,44.366,27.405,44.366z"/>
		<polygon style="fill-rule:evenodd;clip-rule:evenodd;fill:#FFFFFF;" points="27.294,43.955 26.789,43.803 26.755,43.793 
			26.725,43.78 26.701,43.763 26.667,43.743 26.644,43.722 26.61,43.699 26.59,43.675 26.566,43.645 26.543,43.615 26.523,43.581 
			26.499,43.544 26.478,43.507 26.465,43.463 26.455,43.423 26.431,43.375 26.421,43.328 26.411,43.278 26.398,43.227 
			26.398,43.176 26.388,43.122 26.388,42.907 26.398,42.853 26.398,42.796 26.411,42.739 26.421,42.685 26.431,42.627 
			26.445,42.574 26.455,42.52 26.478,42.462 26.489,42.408 26.509,42.354 26.532,42.3 26.556,42.247 26.576,42.196 26.6,42.146 
			26.621,42.099 26.657,42.048 26.677,42 26.711,41.953 26.735,41.91 26.768,41.866 26.802,41.825 26.836,41.785 26.879,41.748 
			26.913,41.711 26.947,41.68 26.98,41.65 27.025,41.623 27.058,41.596 27.092,41.576 27.136,41.556 27.169,41.542 27.203,41.529 
			27.237,41.519 27.27,41.509 27.314,41.505 27.348,41.502 27.382,41.502 27.415,41.505 27.449,41.513 27.483,41.519 27.974,41.671 
			27.951,41.664 27.921,41.657 27.883,41.653 27.853,41.653 27.806,41.657 27.773,41.664 27.742,41.671 27.705,41.68 27.675,41.694 
			27.628,41.711 27.594,41.728 27.56,41.748 27.527,41.775 27.483,41.802 27.449,41.832 27.415,41.866 27.372,41.899 27.338,41.94 
			27.304,41.977 27.27,42.018 27.237,42.061 27.216,42.105 27.183,42.153 27.159,42.2 27.126,42.247 27.102,42.297 27.082,42.348 
			27.058,42.398 27.038,42.452 27.014,42.506 26.991,42.56 26.98,42.614 26.957,42.668 26.947,42.725 26.933,42.779 26.923,42.837 
			26.913,42.89 26.903,42.948 26.903,43.002 26.89,43.058 26.89,43.274 26.903,43.328 26.903,43.379 26.913,43.43 26.923,43.48 
			26.933,43.527 26.947,43.571 26.971,43.618 26.98,43.655 27.001,43.696 27.025,43.732 27.048,43.767 27.069,43.797 27.092,43.824 
			27.116,43.851 27.149,43.874 27.169,43.898 27.203,43.914 27.227,43.932 27.261,43.945 		"/>
		
			<linearGradient id="SVGID_00000106847032465425628870000007149177375339102906_" gradientUnits="userSpaceOnUse" x1="25.9963" y1="42.7282" x2="28.3795" y2="42.7282">
			<stop  offset="0" style="stop-color:#894593"/>
			<stop  offset="0.5098" style="stop-color:#338ACA"/>
			<stop  offset="0.999" style="stop-color:#6A9F5B"/>
			<stop  offset="1" style="stop-color:#5F9F55"/>
		</linearGradient>
		<path style="fill-rule:evenodd;clip-rule:evenodd;fill:url(#SVGID_00000106847032465425628870000007149177375339102906_);" d="
			M27.058,41.596l0.024,0.044c0-0.004,0-0.007,0.01-0.01L27.058,41.596L27.058,41.596z M26.879,41.748l0.054,0.068
			c0-0.01,0.014-0.021,0.014-0.024L26.879,41.748L26.879,41.748z M26.735,41.91l0.101,0.061c0-0.007,0-0.014,0.01-0.024
			L26.735,41.91L26.735,41.91z M26.677,42l0.09,0.075c0.011-0.013,0.011-0.027,0.021-0.037L26.677,42L26.677,42z M26.576,42.196
			l0.111,0.051c0-0.007,0.014-0.021,0.014-0.034L26.576,42.196L26.576,42.196z M26.532,42.3l0.111,0.061
			c0-0.01,0.013-0.027,0.013-0.044L26.532,42.3L26.532,42.3z M26.59,42.509l-0.135,0.01l0.122,0.031
			C26.59,42.529,26.59,42.513,26.59,42.509L26.59,42.509z M26.566,42.624l-0.135,0.003l0.124,0.044c0-0.02,0-0.034,0-0.037
			C26.556,42.634,26.566,42.631,26.566,42.624L26.566,42.624z M26.523,42.823l-0.125,0.031l0.125,0.007
			C26.523,42.85,26.523,42.837,26.523,42.823L26.523,42.823z M26.509,42.937l-0.121,0.024l0.111,0.02
			C26.499,42.964,26.509,42.951,26.509,42.937L26.509,42.937z M26.499,43.136l-0.101,0.04l0.101-0.013
			C26.499,43.156,26.499,43.15,26.499,43.136L26.499,43.136z M26.499,43.244l-0.088,0.034l0.088-0.006
			C26.499,43.261,26.499,43.254,26.499,43.244L26.499,43.244z M26.523,43.477l-0.044,0.03l0.044-0.017c0-0.007,0-0.01,0-0.01V43.477
			z M27.27,44.349c-0.034,0-0.068-0.007-0.101-0.013l-0.492-0.156c-0.021,0-0.088-0.03-0.111-0.036
			c-0.01-0.01-0.067-0.037-0.088-0.05c-0.013-0.004-0.067-0.051-0.081-0.058c-0.01-0.01-0.077-0.074-0.088-0.084
			c-0.013-0.007-0.101-0.121-0.101-0.128c-0.01-0.014-0.057-0.094-0.067-0.108c0-0.004-0.034-0.091-0.044-0.098
			c0-0.003-0.048-0.138-0.048-0.145c0-0.01-0.03-0.118-0.03-0.128c0-0.011-0.013-0.125-0.024-0.135c0-0.01,0-0.125,0-0.131
			c0-0.01,0-0.131,0-0.142c0-0.003,0-0.121,0.011-0.124c0-0.01,0.013-0.131,0.013-0.142c0-0.007,0.021-0.128,0.021-0.135
			c0-0.007,0.034-0.121,0.034-0.124c0-0.01,0.044-0.128,0.044-0.135c0-0.01,0.047-0.124,0.047-0.135
			c0-0.007,0.054-0.118,0.054-0.121c0-0.007,0.057-0.111,0.057-0.118c0.01-0.006,0.068-0.108,0.068-0.115
			c0.01-0.01,0.077-0.108,0.077-0.114c0.01-0.01,0.078-0.104,0.088-0.111c0-0.007,0.081-0.091,0.091-0.097
			c0-0.007,0.087-0.084,0.087-0.091c0.014-0.004,0.091-0.064,0.091-0.068c0.01-0.01,0.101-0.064,0.111-0.07
			c0.013-0.004,0.135-0.061,0.135-0.064c0.013-0.003,0.091-0.03,0.101-0.034c0.023-0.007,0.111-0.023,0.135-0.027l0,0
			c0.01,0,0.155-0.004,0.155-0.004c0.024,0.004,0.111,0.014,0.135,0.021l0.545,0.162c0.202,0.064,0.327,0.28,0.27,0.489
			c-0.054,0.205-0.27,0.33-0.482,0.277l-0.01-0.017l-0.01,0.014l-0.111-0.037l0.021,0.068l-0.246-0.131l0.148,0.208l-0.371-0.182
			l0.28,0.29l-0.401-0.114l0.333,0.202l-0.39-0.108l0.323,0.235l-0.411-0.03l0.367,0.145l-0.415-0.037l0.357,0.175l-0.414,0.043
			l0.391,0.077l-0.411,0.034l0.381,0.111l-0.405,0.111h0.405l-0.405,0.111l0.405,0.034l-0.337,0.152l0.034,0.014l0.324-0.027
			l-0.122,0.097l0.122,0.048l0.047-0.017c0.199,0.07,0.344,0.32,0.276,0.522C27.584,44.221,27.439,44.349,27.27,44.349z"/>
		<path style="fill-rule:evenodd;clip-rule:evenodd;fill:#FFFFFF;" d="M31.998,24.496c3.801-2.194,6.887-0.414,6.887,3.976
			c0,4.39-3.086,9.727-6.887,11.921c-3.801,2.197-6.884,0.418-6.884-3.973C25.114,32.03,28.197,26.693,31.998,24.496z"/>
		
			<linearGradient id="SVGID_00000054983818396061023160000006497886659957254285_" gradientUnits="userSpaceOnUse" x1="24.723" y1="32.4448" x2="39.2763" y2="32.4448">
			<stop  offset="0" style="stop-color:#894593"/>
			<stop  offset="0.5098" style="stop-color:#338ACA"/>
			<stop  offset="0.999" style="stop-color:#6A9F5B"/>
			<stop  offset="1" style="stop-color:#5F9F55"/>
		</linearGradient>
		<path style="fill-rule:evenodd;clip-rule:evenodd;fill:url(#SVGID_00000054983818396061023160000006497886659957254285_);" d="
			M35.074,23.95c-0.872,0-1.856,0.3-2.874,0.89c-3.69,2.13-6.685,7.322-6.685,11.581c0,1.974,0.637,3.437,1.809,4.114
			c1.176,0.677,2.763,0.505,4.475-0.482c3.686-2.13,6.682-7.326,6.682-11.581c0-1.978-0.637-3.437-1.809-4.114
			C36.203,24.085,35.654,23.95,35.074,23.95L35.074,23.95z M28.925,41.734c-0.728,0-1.398-0.172-1.992-0.511
			c-1.428-0.826-2.21-2.531-2.21-4.802c0-4.508,3.174-10.011,7.076-12.265c1.964-1.139,3.835-1.311,5.263-0.486
			c1.432,0.826,2.214,2.531,2.214,4.802c0,4.508-3.174,10.011-7.076,12.265C31.051,41.401,29.933,41.734,28.925,41.734z"/>
		<path style="fill-rule:evenodd;clip-rule:evenodd;fill:#FFFFFF;" d="M30.613,20.392l5.769,3.322
			c1.563,0.593,2.571,2.281,2.571,4.822c0,4.519-3.174,10.007-7.076,12.265c-2.204,1.27-4.171,1.247-5.465,0.179l-5.759-3.325
			c-1.499-1.335-1.698-3.225-1.587-5.125c0.168-1.624,0.546-2.908,1.172-4.411c0.559-1.227,1.132-2.217,1.914-3.312
			c0.792-1.044,1.53-1.843,2.538-2.692c0.835-0.654,1.53-1.095,2.503-1.516C28.399,20.149,29.373,19.981,30.613,20.392z"/>
		
			<linearGradient id="SVGID_00000014615897276164014100000015108429263105141890_" gradientUnits="userSpaceOnUse" x1="18.6435" y1="30.9644" x2="39.3537" y2="30.9644">
			<stop  offset="0" style="stop-color:#894593"/>
			<stop  offset="0.5098" style="stop-color:#338ACA"/>
			<stop  offset="0.999" style="stop-color:#6A9F5B"/>
			<stop  offset="1" style="stop-color:#5F9F55"/>
		</linearGradient>
		<path style="fill-rule:evenodd;clip-rule:evenodd;fill:url(#SVGID_00000014615897276164014100000015108429263105141890_);" d="
			M29.238,20.557c-0.637,0-1.24,0.162-1.914,0.408c-0.859,0.377-1.519,0.772-2.389,1.463c-0.93,0.781-1.644,1.543-2.46,2.618
			c-0.772,1.068-1.331,2.039-1.877,3.238c-0.65,1.557-0.987,2.8-1.132,4.29c-0.097,1.53-0.02,3.474,1.446,4.788l5.698,3.275
			c1.264,1.041,3.097,0.957,5.064-0.179c3.791-2.19,6.888-7.537,6.888-11.921c0-2.275-0.849-3.895-2.325-4.448l-5.782-3.332
			C30.02,20.617,29.629,20.557,29.238,20.557L29.238,20.557z M28.703,42.166c-0.96,0-1.833-0.29-2.551-0.879l-5.701-3.289
			c-1.79-1.587-1.887-3.763-1.776-5.492c0.168-1.587,0.515-2.898,1.206-4.539c0.57-1.26,1.152-2.271,1.958-3.389
			c0.859-1.136,1.607-1.934,2.591-2.766c0.94-0.731,1.668-1.173,2.608-1.58c1.24-0.458,2.335-0.667,3.71-0.216
			c0.02,0.011,0.044,0.021,0.068,0.034l5.755,3.325c1.745,0.647,2.783,2.541,2.783,5.162c0,4.637-3.275,10.291-7.288,12.609
			C30.892,41.825,29.74,42.166,28.703,42.166z"/>
		<path style="fill-rule:evenodd;clip-rule:evenodd;fill:#FFFFFF;" d="M30.613,20.392l5.769,3.322
			c0.458,0.176,0.859,0.438,1.206,0.789l-7.211,5.014l-8.205-4.738l0,0c0.786-1.035,1.52-1.827,2.517-2.665
			c0.835-0.654,1.53-1.095,2.503-1.516C28.399,20.149,29.373,19.981,30.613,20.392z"/>
		
			<linearGradient id="SVGID_00000012473488633513885790000009150704772288666013_" gradientUnits="userSpaceOnUse" x1="21.7858" y1="24.8367" x2="37.9938" y2="24.8367">
			<stop  offset="0" style="stop-color:#894593"/>
			<stop  offset="0.5098" style="stop-color:#338ACA"/>
			<stop  offset="0.999" style="stop-color:#6A9F5B"/>
			<stop  offset="1" style="stop-color:#5F9F55"/>
		</linearGradient>
		<path style="fill-rule:evenodd;clip-rule:evenodd;fill:url(#SVGID_00000012473488633513885790000009150704772288666013_);" d="
			M22.765,24.661l7.592,4.383l6.595-4.572c-0.222-0.162-0.459-0.29-0.715-0.385l-5.782-3.332c-1.139-0.368-2.045-0.189-3.131,0.209
			c-0.859,0.377-1.519,0.775-2.389,1.463C24.106,23.118,23.46,23.788,22.765,24.661L22.765,24.661z M30.377,29.91
			c-0.067,0-0.135-0.016-0.189-0.054l-8.205-4.738c-0.101-0.057-0.168-0.152-0.189-0.262c-0.024-0.111,0-0.226,0.068-0.317
			c0.826-1.089,1.597-1.907,2.567-2.729c0.93-0.731,1.658-1.169,2.608-1.58c1.24-0.458,2.335-0.667,3.71-0.216
			c0.02,0.011,0.044,0.021,0.068,0.034l5.755,3.325c0.458,0.162,0.917,0.459,1.311,0.853c0.077,0.081,0.122,0.196,0.111,0.313
			c-0.014,0.118-0.081,0.222-0.169,0.29l-7.221,5.011C30.536,29.887,30.455,29.91,30.377,29.91z"/>
		<path style="fill-rule:evenodd;clip-rule:evenodd;fill:#FFFFFF;" d="M31.877,24.449c3.902-2.257,7.076-0.428,7.076,4.087
			c0,4.519-3.174,10.007-7.076,12.265c-3.912,2.257-7.086,0.428-7.086-4.091C24.791,32.199,27.964,26.707,31.877,24.449z"/>
		
			<linearGradient id="SVGID_00000138564431114507046910000005099273239029307536_" gradientUnits="userSpaceOnUse" x1="24.3962" y1="32.6255" x2="39.3537" y2="32.6255">
			<stop  offset="0" style="stop-color:#894593"/>
			<stop  offset="0.5098" style="stop-color:#338ACA"/>
			<stop  offset="0.999" style="stop-color:#6A9F5B"/>
			<stop  offset="1" style="stop-color:#5F9F55"/>
		</linearGradient>
		<path style="fill-rule:evenodd;clip-rule:evenodd;fill:url(#SVGID_00000138564431114507046910000005099273239029307536_);" d="
			M35.027,23.876c-0.893,0-1.901,0.31-2.962,0.917c-3.787,2.19-6.874,7.537-6.874,11.917c0,2.039,0.661,3.545,1.866,4.243
			c1.22,0.701,2.851,0.525,4.616-0.496c3.791-2.19,6.888-7.537,6.888-11.921c0-2.035-0.67-3.541-1.881-4.239
			C36.19,24.014,35.644,23.876,35.027,23.876L35.027,23.876z M28.712,42.169c-0.748,0-1.428-0.175-2.045-0.529
			c-1.466-0.846-2.271-2.595-2.271-4.93c0-4.633,3.265-10.287,7.278-12.605c2.022-1.166,3.936-1.341,5.398-0.496
			c1.466,0.846,2.281,2.598,2.281,4.926c0,4.637-3.275,10.291-7.288,12.609C30.892,41.825,29.75,42.169,28.712,42.169z"/>
		<path style="fill-rule:evenodd;clip-rule:evenodd;fill:#FFFFFF;" d="M52.912,21.315c-3.565,0.172-13.246,3.194-16.274,2.891
			c-1.028-0.101-2.214,0.189-3.488,0.919c-3.801,2.197-6.884,7.538-6.884,11.928c0,1.533,0.378,2.746,1.028,3.588
			c2.132,2.75,4.883,11.702,7.487,15.359c-1.173-1.678-1.598-3.033-1.931-5.038c-0.381-3.16-0.057-5.688,0.715-8.761
			c0.646-2.294,1.394-4.185,2.435-6.327c1.611-3.06,3.242-5.456,5.58-8.013c1.597-1.651,2.995-2.867,4.916-4.141
			c1.263-0.769,2.291-1.29,3.679-1.806C51.16,21.608,51.898,21.44,52.912,21.315L52.912,21.315z"/>
		
			<linearGradient id="SVGID_00000118393148108019594280000014474238060211002260_" gradientUnits="userSpaceOnUse" x1="25.8723" y1="38.6579" x2="53.3086" y2="38.6579">
			<stop  offset="0" style="stop-color:#894593"/>
			<stop  offset="0.5098" style="stop-color:#338ACA"/>
			<stop  offset="0.999" style="stop-color:#6A9F5B"/>
			<stop  offset="1" style="stop-color:#5F9F55"/>
		</linearGradient>
		<path style="fill-rule:evenodd;clip-rule:evenodd;fill:url(#SVGID_00000118393148108019594280000014474238060211002260_);" d="
			M36.237,24.58c-0.883,0-1.867,0.303-2.884,0.89c-3.69,2.129-6.685,7.326-6.685,11.584c0,1.392,0.324,2.547,0.94,3.346
			c1.071,1.385,2.268,4.223,3.541,7.228c0.414,0.987,0.828,1.988,1.253,2.952c-0.313-3.197,0.078-5.714,0.772-8.471
			c0.647-2.271,1.385-4.181,2.47-6.405c1.665-3.167,3.343-5.587,5.634-8.107c1.711-1.762,3.15-2.979,4.997-4.205
			c0.448-0.269,0.859-0.505,1.25-0.718c-0.579,0.131-1.182,0.27-1.799,0.408c-3.632,0.832-7.389,1.691-9.131,1.519
			C36.473,24.587,36.358,24.58,36.237,24.58L36.237,24.58z M34.782,56.395c-0.122,0-0.247-0.057-0.313-0.165
			c-1.362-1.904-2.726-5.152-4.057-8.296c-1.24-2.955-2.413-5.749-3.43-7.053c-0.728-0.933-1.108-2.258-1.108-3.828
			c0-4.512,3.174-10.015,7.089-12.272c1.297-0.748,2.581-1.085,3.71-0.971c1.61,0.165,5.31-0.684,8.875-1.503
			c2.941-0.674,5.725-1.311,7.345-1.388c0.222-0.006,0.401,0.149,0.415,0.361c0.02,0.212-0.135,0.401-0.347,0.428
			c-0.95,0.114-1.644,0.266-2.662,0.582c-1.287,0.476-2.257,0.957-3.599,1.766c-1.779,1.186-3.188,2.369-4.842,4.081
			c-2.234,2.456-3.889,4.829-5.499,7.922c-1.062,2.17-1.789,4.04-2.413,6.25c-0.704,2.794-1.095,5.33-0.704,8.605
			c0.313,1.86,0.704,3.195,1.863,4.859c0.135,0.176,0.091,0.421-0.088,0.55C34.95,56.375,34.862,56.395,34.782,56.395z"/>
		<path style="fill-rule:evenodd;clip-rule:evenodd;fill:#FFFFFF;" d="M57.037,21.982c-3.194-1.348-6.045-0.593-9.04,0.873
			c-2.584,1.418-4.384,2.897-6.415,5.007c-2.092,2.298-3.602,4.428-5.122,7.14c-1.587,3.029-2.604,5.678-3.319,9.027
			c-0.583,3.208-0.718,5.93,0.188,9.091c0.704,1.981,1.442,3.225,3.13,4.502l2.001,1.155l2.113,1.216l20.524-35.652L57.037,21.982z"
			/>
		
			<linearGradient id="SVGID_00000005225807428166885690000013632366846170842254_" gradientUnits="userSpaceOnUse" x1="32.2794" y1="40.6376" x2="61.4968" y2="40.6376">
			<stop  offset="0" style="stop-color:#894593"/>
			<stop  offset="0.5098" style="stop-color:#338ACA"/>
			<stop  offset="0.999" style="stop-color:#6A9F5B"/>
			<stop  offset="1" style="stop-color:#5F9F55"/>
		</linearGradient>
		<path style="fill-rule:evenodd;clip-rule:evenodd;fill:url(#SVGID_00000005225807428166885690000013632366846170842254_);" d="
			M53.64,21.673c-1.968,0-3.777,0.707-5.479,1.539c-2.345,1.291-4.124,2.676-6.304,4.927c-2.012,2.207-3.521,4.319-5.051,7.056
			c-1.644,3.144-2.595,5.732-3.289,8.92c-0.536,3.039-0.714,5.721,0.192,8.898c0.637,1.793,1.308,3.016,2.996,4.29l3.723,2.149
			l20.133-34.969l-3.704-2.146C55.743,21.868,54.668,21.673,53.64,21.673L53.64,21.673z M40.573,60.388
			c-0.068,0-0.135-0.017-0.202-0.054l-4.1-2.372c-1.89-1.415-2.639-2.794-3.309-4.711c-0.963-3.346-0.785-6.133-0.213-9.293
			c0.705-3.276,1.675-5.921,3.363-9.142c1.567-2.8,3.11-4.956,5.166-7.221c2.247-2.321,4.08-3.743,6.526-5.088
			c2.638-1.294,5.816-2.406,9.391-0.89c0.01,0.007,0.024,0.014,0.044,0.021l4.06,2.359c0.189,0.108,0.256,0.35,0.142,0.538
			L40.92,60.189c-0.057,0.091-0.148,0.159-0.246,0.186C40.641,60.385,40.607,60.388,40.573,60.388z"/>
		<path style="fill-rule:evenodd;clip-rule:evenodd;fill:#FFFFFF;" d="M57.037,21.982c-3.194-1.348-6.045-0.593-9.04,0.873
			c-2.282,1.25-3.935,2.544-5.701,4.276c-2.001,2.291-3.612,4.272-4.326,5.364v0.01l9.624,5.56l9.66-7.032l3.845-6.691
			L57.037,21.982z"/>
		
			<linearGradient id="SVGID_00000108266796423048105440000008861019672509428620_" gradientUnits="userSpaceOnUse" x1="37.5687" y1="29.6747" x2="61.4968" y2="29.6747">
			<stop  offset="0" style="stop-color:#894593"/>
			<stop  offset="0.5098" style="stop-color:#338ACA"/>
			<stop  offset="0.999" style="stop-color:#6A9F5B"/>
			<stop  offset="1" style="stop-color:#5F9F55"/>
		</linearGradient>
		<path style="fill-rule:evenodd;clip-rule:evenodd;fill:url(#SVGID_00000108266796423048105440000008861019672509428620_);" d="
			M38.528,32.377l9.044,5.22l9.378-6.837l3.612-6.277l-3.704-2.146c-3.262-1.371-6.102-0.391-8.697,0.876
			c-2.109,1.16-3.733,2.38-5.587,4.199C40.708,29.55,39.286,31.296,38.528,32.377L38.528,32.377z M47.592,38.463
			c-0.068,0-0.135-0.017-0.199-0.054l-9.626-5.56c-0.088-0.054-0.169-0.145-0.189-0.246c-0.024-0.108,0-0.219,0.054-0.31
			c0.704-1.082,2.248-3,4.37-5.422c1.901-1.873,3.622-3.171,5.802-4.363c2.638-1.294,5.816-2.406,9.391-0.89
			c0.01,0.007,0.024,0.014,0.044,0.021l4.06,2.359c0.189,0.108,0.256,0.35,0.142,0.538l-3.855,6.696
			c-0.021,0.048-0.054,0.088-0.101,0.118l-9.657,7.035C47.76,38.439,47.669,38.463,47.592,38.463z"/>
		<path style="fill-rule:evenodd;clip-rule:evenodd;fill:#FFFFFF;" d="M51.369,59.286c8.039-4.643,14.556-15.931,14.556-25.224
			c0-9.287-6.517-13.057-14.556-8.414c-8.047,4.643-14.563,15.945-14.563,25.231C36.806,60.173,43.323,63.929,51.369,59.286z"/>
		
			<linearGradient id="SVGID_00000029746219750673464740000011514768432698701468_" gradientUnits="userSpaceOnUse" x1="36.4054" y1="42.4671" x2="66.3263" y2="42.4671">
			<stop  offset="0" style="stop-color:#894593"/>
			<stop  offset="0.5098" style="stop-color:#338ACA"/>
			<stop  offset="0.999" style="stop-color:#6A9F5B"/>
			<stop  offset="1" style="stop-color:#5F9F55"/>
		</linearGradient>
		<path style="fill-rule:evenodd;clip-rule:evenodd;fill:url(#SVGID_00000029746219750673464740000011514768432698701468_);" d="
			M57.865,24.051c-1.924,0-4.07,0.65-6.304,1.941c-7.915,4.573-14.364,15.739-14.364,24.888c0,4.346,1.442,7.571,4.071,9.084
			c2.625,1.513,6.136,1.152,9.903-1.021l0,0c7.925-4.573,14.364-15.732,14.364-24.881c0-4.347-1.442-7.575-4.07-9.091
			C60.403,24.358,59.187,24.051,57.865,24.051L57.865,24.051z M44.853,61.675c-1.452,0-2.793-0.34-3.989-1.024
			c-2.871-1.662-4.458-5.132-4.458-9.772c0-9.402,6.628-20.875,14.765-25.575c4.013-2.318,7.814-2.679,10.688-1.018
			c2.881,1.661,4.468,5.132,4.468,9.775c0,9.397-6.617,20.868-14.765,25.565C49.202,60.991,46.921,61.675,44.853,61.675z"/>
		<path style="fill-rule:evenodd;clip-rule:evenodd;fill:#FFFFFF;" d="M51.369,55.63c6.439-3.717,11.662-12.747,11.662-20.187
			c0-7.433-5.223-10.449-11.662-6.732c-6.436,3.717-11.655,12.76-11.655,20.193C39.714,56.341,44.933,59.347,51.369,55.63z"/>
		
			<linearGradient id="SVGID_00000058591463018138969790000004575699559773177526_" gradientUnits="userSpaceOnUse" x1="39.3197" y1="42.1726" x2="63.4218" y2="42.1726">
			<stop  offset="0" style="stop-color:#894593"/>
			<stop  offset="0.5098" style="stop-color:#338ACA"/>
			<stop  offset="0.999" style="stop-color:#6A9F5B"/>
			<stop  offset="1" style="stop-color:#5F9F55"/>
		</linearGradient>
		<path style="fill-rule:evenodd;clip-rule:evenodd;fill:url(#SVGID_00000058591463018138969790000004575699559773177526_);" d="
			M56.569,27.511c-1.52,0-3.218,0.519-4.997,1.543c-6.314,3.649-11.457,12.552-11.457,19.85c0,3.447,1.139,6.005,3.208,7.201
			c2.079,1.196,4.862,0.906,7.848-0.819l0,0c6.315-3.646,11.456-12.545,11.456-19.843c0-3.447-1.139-6.004-3.218-7.204
			C58.57,27.754,57.62,27.511,56.569,27.511L56.569,27.511z M46.163,57.625c-1.176,0-2.271-0.276-3.231-0.832
			c-2.325-1.345-3.612-4.148-3.612-7.888c0-7.547,5.324-16.76,11.851-20.537c3.242-1.87,6.305-2.157,8.64-0.815
			c2.325,1.347,3.612,4.148,3.612,7.891c0,7.548-5.32,16.757-11.85,20.531C49.674,57.072,47.828,57.625,46.163,57.625z"/>
		<path style="fill-rule:evenodd;clip-rule:evenodd;fill:#FFFFFF;" d="M57.171,27.144c-1.708-0.144-3.686,0.351-5.802,1.567
			c-6.436,3.717-11.655,12.76-11.655,20.193c0,2.379,0.536,4.303,1.476,5.701c1.708,0.148,3.686-0.347,5.799-1.57
			c6.439-3.713,11.659-12.747,11.659-20.184C58.647,30.474,58.112,28.546,57.171,27.144z"/>
		
			<linearGradient id="SVGID_00000043451597941753860570000004250240625946900885_" gradientUnits="userSpaceOnUse" x1="39.3197" y1="40.8759" x2="59.0417" y2="40.8759">
			<stop  offset="0" style="stop-color:#894593"/>
			<stop  offset="0.5098" style="stop-color:#338ACA"/>
			<stop  offset="0.999" style="stop-color:#6A9F5B"/>
			<stop  offset="1" style="stop-color:#5F9F55"/>
		</linearGradient>
		<path style="fill-rule:evenodd;clip-rule:evenodd;fill:url(#SVGID_00000043451597941753860570000004250240625946900885_);" d="
			M41.412,54.225c1.631,0.088,3.487-0.438,5.374-1.53c6.318-3.649,11.459-12.548,11.459-19.843c0-2.133-0.448-3.969-1.297-5.324
			c-1.621-0.088-3.488,0.435-5.378,1.526c-6.314,3.649-11.457,12.552-11.457,19.85C40.115,51.034,40.563,52.867,41.412,54.225
			L41.412,54.225z M41.779,55.027c-0.212,0-0.425-0.01-0.627-0.027c-0.121-0.009-0.222-0.074-0.29-0.175
			c-1.018-1.499-1.544-3.545-1.544-5.92c0-7.547,5.324-16.76,11.851-20.537c2.113-1.216,4.202-1.772,6.035-1.617
			c0.124,0.011,0.226,0.077,0.293,0.175c1.004,1.503,1.543,3.552,1.543,5.927c0,7.548-5.324,16.753-11.851,20.527
			C45.311,54.464,43.458,55.027,41.779,55.027z"/>
		<path style="fill-rule:evenodd;clip-rule:evenodd;fill:#FFFFFF;" d="M47.211,44.555l-6.078-2.887
			c1.038-2.821,2.605-5.564,4.505-7.905l5.721,3.619l-0.111-0.054l-0.101-0.043l-0.111-0.037l-0.111-0.031L50.8,37.199l-0.121-0.011
			h-0.122l-0.135,0.004l-0.135,0.017l-0.135,0.027l-0.135,0.034l-0.144,0.044l-0.145,0.054l-0.145,0.063l-0.144,0.071l-0.159,0.084
			l-0.145,0.091l-0.155,0.098l-0.145,0.108l-0.148,0.111l-0.135,0.121l-0.142,0.125l-0.135,0.132l-0.135,0.138l-0.124,0.141
			L47.885,38.8l-0.125,0.151l-0.111,0.155l-0.125,0.162l-0.097,0.165l-0.111,0.169l-0.104,0.172l-0.097,0.173l-0.091,0.175
			l-0.088,0.179l-0.081,0.179l-0.078,0.182l-0.067,0.186l-0.067,0.182l-0.054,0.182l-0.057,0.185l-0.045,0.185l-0.043,0.182
			l-0.023,0.182l-0.034,0.182l-0.01,0.178l-0.014,0.179l-0.01,0.179l0.01,0.172l0.014,0.162l0.01,0.162l0.034,0.152l0.023,0.142
			l0.043,0.138l0.045,0.131l0.057,0.124l0.054,0.115l0.067,0.108l0.067,0.101l0.078,0.095l0.081,0.084l0.088,0.081l0.091,0.067
			L47.211,44.555z"/>
		
			<linearGradient id="SVGID_00000145776010246469858920000005555364577626608262_" gradientUnits="userSpaceOnUse" x1="40.7294" y1="39.1602" x2="51.7524" y2="39.1602">
			<stop  offset="0" style="stop-color:#894593"/>
			<stop  offset="0.5098" style="stop-color:#338ACA"/>
			<stop  offset="0.999" style="stop-color:#6A9F5B"/>
			<stop  offset="1" style="stop-color:#5F9F55"/>
		</linearGradient>
		<path style="fill-rule:evenodd;clip-rule:evenodd;fill:url(#SVGID_00000145776010246469858920000005555364577626608262_);" d="
			M41.625,41.465l4.448,2.109l-0.111-0.714v-0.192l0.188-1.372l0.718-1.715l1.129-1.486l1.25-0.94l0.617-0.249l-4.138-2.618
			C44.027,36.441,42.619,38.911,41.625,41.465L41.625,41.465z M47.211,44.952c-0.054,0-0.111-0.014-0.165-0.04l-6.092-2.888
			c-0.181-0.09-0.269-0.303-0.202-0.495c1.061-2.868,2.649-5.637,4.583-8.016c0.124-0.155,0.347-0.189,0.515-0.084l5.712,3.619
			c0.189,0.111,0.246,0.347,0.134,0.532c-0.101,0.185-0.337,0.249-0.525,0.151l-0.626-0.148l-0.806,0.212l-1.062,0.738l-1.028,1.277
			l-0.738,1.692l-0.158,1.166l0.249,1.112l0.425,0.441c0.175,0.115,0.232,0.344,0.132,0.525
			C47.481,44.878,47.346,44.952,47.211,44.952z"/>
		<path style="fill-rule:evenodd;clip-rule:evenodd;fill:#FFFFFF;" d="M49.28,44.349c-1.611,0.937-2.928,0.179-2.928-1.688
			c0-1.87,1.317-4.141,2.928-5.075c1.621-0.933,2.928-0.175,2.928,1.692C52.208,41.148,50.901,43.416,49.28,44.349z"/>
		
			<linearGradient id="SVGID_00000161630930459780284730000015162564707065108406_" gradientUnits="userSpaceOnUse" x1="45.9613" y1="40.9681" x2="52.6127" y2="40.9681">
			<stop  offset="0" style="stop-color:#894593"/>
			<stop  offset="0.5098" style="stop-color:#338ACA"/>
			<stop  offset="0.999" style="stop-color:#6A9F5B"/>
			<stop  offset="1" style="stop-color:#5F9F55"/>
		</linearGradient>
		<path style="fill-rule:evenodd;clip-rule:evenodd;fill:url(#SVGID_00000161630930459780284730000015162564707065108406_);" d="
			M50.587,37.58c-0.333,0-0.704,0.117-1.105,0.347c-1.51,0.873-2.73,2.992-2.73,4.734c0,0.755,0.236,1.308,0.66,1.55
			c0.425,0.246,1.018,0.175,1.678-0.202c0,0,0,0,0-0.003c1.497-0.869,2.726-2.993,2.726-4.728c0-0.755-0.233-1.307-0.657-1.553
			C50.992,37.627,50.8,37.58,50.587,37.58L50.587,37.58z M47.973,45.148c-0.347,0-0.67-0.084-0.96-0.249
			c-0.684-0.395-1.051-1.19-1.051-2.238c0-2.025,1.374-4.407,3.13-5.418c0.907-0.525,1.776-0.596,2.46-0.205
			c0.681,0.394,1.062,1.189,1.062,2.241c0,2.025-1.375,4.4-3.13,5.415l0,0C48.957,44.997,48.441,45.148,47.973,45.148z"/>
	</g>
</g>
<g id="Layer_1">
</g>
</svg>
