<?xml version="1.0" encoding="iso-8859-1"?>
<!-- Generator: Adobe Illustrator 26.0.3, SVG Export Plug-In . SVG Version: 6.00 Build 0)  -->
<svg version="1.1" xmlns="http://www.w3.org/2000/svg" xmlns:xlink="http://www.w3.org/1999/xlink" x="0px" y="0px"
	 viewBox="0 0 80 80" style="enable-background:new 0 0 80 80;" xml:space="preserve">
<g id="banking_x5F_finance22">
	<g>
		<path style="fill-rule:evenodd;clip-rule:evenodd;fill:#FFFFFF;" d="M24.645,70.716c-3.87-0.143-9.452-2.202-9.452-6.792
			l0.103-24.79c0.028-4.097,0.574-5.806,4.217-7.913c10.218-5.894,18.684-10.787,28.902-16.682l1.047-0.613l1.062-0.608
			c0.844-0.435,1.478-0.616,2.338-0.123l2.887,3.643c1.043-0.583,1.94-0.498,2.861,0.034l1.737,1.001
			c-0.816-0.378-1.421-0.181-2.183,0.215c-10.912,6.302-19.747,11.438-30.669,17.737l-1.048,0.612
			c-1.8,1.087-3.102,3.335-3.157,5.429l-0.112,26.666C23.227,69.854,23.443,70.208,24.645,70.716z"/>
		<linearGradient id="SVGID_1_" gradientUnits="userSpaceOnUse" x1="14.7452" y1="41.8096" x2="60.7945" y2="41.8096">
			<stop  offset="0" style="stop-color:#894593"/>
			<stop  offset="0.5098" style="stop-color:#338ACA"/>
			<stop  offset="0.999" style="stop-color:#6A9F5B"/>
			<stop  offset="1" style="stop-color:#5F9F55"/>
		</linearGradient>
		<path style="fill-rule:evenodd;clip-rule:evenodd;fill:url(#SVGID_1_);" d="M51.848,13.35c-0.327,0-0.673,0.138-1.12,0.37
			L19.74,31.615c-3.447,1.986-3.97,3.469-3.986,7.523l-0.1,24.792c0,3.745,4.046,5.627,7.409,6.171
			c-0.22-0.374-0.309-0.855-0.331-1.548l0.099-26.689c0.066-2.255,1.445-4.642,3.373-5.813l1.074-0.612
			c5.528-3.199,10.538-6.099,15.543-9.001c4.867-2.816,9.744-5.637,15.112-8.74c0.215-0.111,0.446-0.22,0.663-0.304l-0.216-0.132
			c-0.843-0.485-1.57-0.492-2.414-0.026c-0.192,0.108-0.435,0.056-0.574-0.116l-2.836-3.573C52.311,13.411,52.08,13.35,51.848,13.35
			L51.848,13.35z M24.645,71.17c0,0,0,0-0.012,0c-3.819-0.142-9.888-2.233-9.888-7.246l0.104-24.795
			c0.012-4.316,0.662-6.116,4.444-8.299l31-17.903c0.816-0.42,1.687-0.763,2.784-0.123c0.051,0.031,0.104,0.065,0.143,0.112
			l2.656,3.357c0.994-0.439,1.94-0.373,2.95,0.208l1.736,1.001c0.219,0.122,0.296,0.388,0.178,0.604
			c-0.113,0.216-0.371,0.299-0.598,0.2c-0.611-0.289-1.063-0.165-1.775,0.204c-5.355,3.093-10.221,5.914-15.085,8.732
			c-5.008,2.904-10.013,5.802-15.557,8.998l-1.059,0.608c-1.636,1.001-2.876,3.122-2.927,5.052l-0.104,26.657
			c0.039,1.143,0.166,1.327,1.191,1.763c0.204,0.084,0.32,0.3,0.264,0.516C25.041,71.024,24.863,71.17,24.645,71.17z"/>
		<path style="fill-rule:evenodd;clip-rule:evenodd;fill:#FFFFFF;" d="M58.163,18.09c1.698-0.982,3.23-0.234,3.23,1.725
			c0,14.21-0.153,12.508-0.153,26.707c0,1.959-1.379,4.354-3.077,5.337c-8.421,4.859-23.478,13.594-31.91,18.454
			c-1.682,0.981-3.089,0.184-3.077-1.779l0.112-26.666c0-1.998,1.421-4.431,3.157-5.429C37.711,29.932,46.893,24.592,58.163,18.09z"
			/>
		
			<linearGradient id="SVGID_00000163051720621055099910000011250212515883248266_" gradientUnits="userSpaceOnUse" x1="22.7309" y1="44.1958" x2="61.8514" y2="44.1958">
			<stop  offset="0" style="stop-color:#894593"/>
			<stop  offset="0.5098" style="stop-color:#338ACA"/>
			<stop  offset="0.999" style="stop-color:#6A9F5B"/>
			<stop  offset="1" style="stop-color:#5F9F55"/>
		</linearGradient>
		<path style="fill-rule:evenodd;clip-rule:evenodd;fill:url(#SVGID_00000163051720621055099910000011250212515883248266_);" d="
			M58.163,18.09h0.012H58.163L58.163,18.09z M59.591,18.112c-0.357,0-0.777,0.124-1.201,0.366l0,0
			c-5.633,3.25-10.741,6.21-15.836,9.164c-5.123,2.968-10.245,5.933-15.888,9.186c-1.576,0.916-2.915,3.219-2.927,5.039
			l-0.104,26.67c-0.011,0.773,0.232,1.339,0.667,1.594c0.446,0.258,1.059,0.181,1.737-0.212c4.15-2.399,9.937-5.748,15.745-9.109
			c5.942-3.438,11.894-6.889,16.148-9.345c1.555-0.893,2.861-3.157,2.861-4.943c0-7.103,0.038-10.28,0.077-13.356
			c0.038-3.072,0.077-6.248,0.077-13.351c0-0.736-0.242-1.283-0.688-1.541C60.065,18.166,59.834,18.112,59.591,18.112L59.591,18.112
			z M24.887,71.185c-0.38,0-0.728-0.088-1.031-0.27c-0.728-0.424-1.14-1.271-1.124-2.387l0.099-26.666
			c0.012-2.136,1.532-4.746,3.385-5.816c5.636-3.258,10.757-6.222,15.878-9.188c5.109-2.956,10.218-5.913,15.839-9.162l0,0
			c0.993-0.574,2.002-0.647,2.772-0.204c0.739,0.423,1.147,1.251,1.147,2.322c0,7.107-0.039,10.287-0.077,13.362
			c-0.039,3.074-0.078,6.25-0.078,13.345c0,2.102-1.479,4.674-3.307,5.728c-4.251,2.457-10.218,5.907-16.159,9.345
			c-5.795,3.357-11.585,6.708-15.746,9.109C25.934,71.024,25.387,71.185,24.887,71.185z"/>
		<path style="fill-rule:evenodd;clip-rule:evenodd;fill:#FFFFFF;" d="M48.927,46.695l-1.174-0.675
			c-2.404-2.179-1.33-10.615,1.466-12.524l12.158-7.026v-0.87c0.192-0.072,0.27-0.043,0.446,0.038
			c0.654,0.374,1.293,0.747,1.944,1.116c-0.258-0.108-0.28-0.1-0.538-0.003l-12.848,7.418C47.687,36.022,46.409,44.42,48.927,46.695
			z"/>
		
			<linearGradient id="SVGID_00000162340630205594298840000006663136433210807452_" gradientUnits="userSpaceOnUse" x1="45.9667" y1="36.1286" x2="64.2182" y2="36.1286">
			<stop  offset="0" style="stop-color:#894593"/>
			<stop  offset="0.5098" style="stop-color:#338ACA"/>
			<stop  offset="0.999" style="stop-color:#6A9F5B"/>
			<stop  offset="1" style="stop-color:#5F9F55"/>
		</linearGradient>
		<path style="fill-rule:evenodd;clip-rule:evenodd;fill:url(#SVGID_00000162340630205594298840000006663136433210807452_);" d="
			M61.84,26.166v0.305c0,0.162-0.089,0.312-0.231,0.393l-12.17,7.022c-1.267,0.878-2.325,3.615-2.529,6.637
			c-0.116,1.625,0.061,3.058,0.446,4.054c-0.216-0.959-0.293-2.098-0.205-3.365c0.178-2.714,1.187-6.191,2.977-7.415l12.466-7.195
			L61.84,26.166L61.84,26.166z M48.927,47.15c-0.078,0-0.155-0.02-0.231-0.063l-1.163-0.677c-1.186-1.052-1.71-3.204-1.532-5.946
			c0.193-2.774,1.175-6.121,2.964-7.342l11.966-6.914v-0.608c0-0.184,0.116-0.351,0.281-0.42c0.346-0.134,0.551-0.065,0.793,0.043
			l1.979,1.14c0.22,0.122,0.297,0.385,0.181,0.601c-0.115,0.211-0.373,0.304-0.588,0.203c-0.038-0.019-0.078-0.035-0.1-0.043
			c0.012,0.007-0.028,0.028-0.077,0.05l-12.787,7.389c-1.267,0.869-2.364,3.7-2.556,6.711c-0.165,2.375,0.268,4.273,1.174,5.086
			c0.169,0.153,0.193,0.416,0.065,0.6C49.207,47.084,49.066,47.15,48.927,47.15z"/>
		<path style="fill-rule:evenodd;clip-rule:evenodd;fill:#FFFFFF;" d="M63.23,39.257L50.371,46.68
			c-3.654,2.113-3.654-10.387,0.012-12.51l12.848-7.418C65.313,25.555,65.366,38.025,63.23,39.257z"/>
		
			<linearGradient id="SVGID_00000088834744017639008170000013624569698302930311_" gradientUnits="userSpaceOnUse" x1="47.1757" y1="36.7999" x2="65.2548" y2="36.7999">
			<stop  offset="0" style="stop-color:#894593"/>
			<stop  offset="0.5098" style="stop-color:#338ACA"/>
			<stop  offset="0.999" style="stop-color:#6A9F5B"/>
			<stop  offset="1" style="stop-color:#5F9F55"/>
		</linearGradient>
		<path style="fill-rule:evenodd;clip-rule:evenodd;fill:url(#SVGID_00000088834744017639008170000013624569698302930311_);" d="
			M63.23,39.257h0.015H63.23L63.23,39.257z M63.499,27.125l-12.886,7.439c-2.618,1.509-3.168,8.94-1.813,11.288
			c0.459,0.805,0.943,0.674,1.352,0.439l12.852-7.423c0.969-0.558,1.609-5.132,1.262-8.906
			C64.061,27.795,63.626,27.171,63.499,27.125L63.499,27.125z M49.577,47.377c-0.613,0-1.162-0.362-1.571-1.071
			c-1.57-2.725-0.943-10.741,2.146-12.529l12.852-7.414c0.419-0.243,1.02-0.231,1.455,0.516c1.239,2.159,1.124,11.542-0.998,12.771
			l0,0l-12.862,7.422C50.239,47.277,49.908,47.377,49.577,47.377z"/>
		<path style="fill-rule:evenodd;clip-rule:evenodd;fill:#FFFFFF;" d="M53.116,35.11c1.905-1.097,3.437-0.208,3.437,1.987
			c0,2.199-1.532,4.866-3.437,5.967c-1.903,1.097-3.45,0.204-3.45-1.991C49.667,38.875,51.213,36.208,53.116,35.11z"/>
		
			<linearGradient id="SVGID_00000088850063157469358270000004955929110971681950_" gradientUnits="userSpaceOnUse" x1="49.2191" y1="39.0869" x2="57.0114" y2="39.0869">
			<stop  offset="0" style="stop-color:#894593"/>
			<stop  offset="0.5098" style="stop-color:#338ACA"/>
			<stop  offset="0.999" style="stop-color:#6A9F5B"/>
			<stop  offset="1" style="stop-color:#5F9F55"/>
		</linearGradient>
		<path style="fill-rule:evenodd;clip-rule:evenodd;fill:url(#SVGID_00000088850063157469358270000004955929110971681950_);" d="
			M53.116,35.11L53.116,35.11L53.116,35.11z M54.648,35.091c-0.396,0-0.844,0.138-1.314,0.409v0.003
			c-1.778,1.024-3.223,3.523-3.223,5.57c0,0.894,0.282,1.548,0.794,1.838c0.496,0.292,1.201,0.203,1.979-0.239
			c1.777-1.025,3.217-3.527,3.217-5.575c0-0.894-0.28-1.548-0.788-1.837C55.121,35.145,54.891,35.091,54.648,35.091L54.648,35.091z
			 M51.571,43.988c-0.408,0-0.781-0.096-1.124-0.292c-0.793-0.462-1.228-1.39-1.228-2.623c0-2.375,1.61-5.166,3.666-6.355
			c1.062-0.613,2.094-0.701,2.887-0.243c0.793,0.461,1.239,1.39,1.239,2.622c0,2.379-1.622,5.17-3.677,6.356
			C52.718,43.811,52.118,43.988,51.571,43.988z"/>
		<path style="fill-rule:evenodd;clip-rule:evenodd;fill:#FFFFFF;" d="M21.877,34.171l-0.848-0.485
			c-0.485-0.28-0.635-0.897-0.331-1.367l0.166-0.27c3.603-5.636,7.207-11.273,10.796-16.914c0.843-1.273,2.718-3.217,4.432-2.417
			l1.709,0.994c-1.698-0.797-3.562,1.124-4.416,2.421C29.55,22.147,25.707,28.158,21.877,34.171z"/>
		
			<linearGradient id="SVGID_00000046334121412267538250000007048663186634148742_" gradientUnits="userSpaceOnUse" x1="20.0853" y1="23.3502" x2="38.2615" y2="23.3502">
			<stop  offset="0" style="stop-color:#894593"/>
			<stop  offset="0.5098" style="stop-color:#338ACA"/>
			<stop  offset="0.999" style="stop-color:#6A9F5B"/>
			<stop  offset="1" style="stop-color:#5F9F55"/>
		</linearGradient>
		<path style="fill-rule:evenodd;clip-rule:evenodd;fill:url(#SVGID_00000046334121412267538250000007048663186634148742_);" d="
			M35.248,12.976c-1.251,0-2.607,1.49-3.207,2.411L21.083,32.565c-0.078,0.119-0.104,0.262-0.078,0.401
			c0.039,0.138,0.128,0.253,0.255,0.326l0.461,0.27l11.277-17.672c0.755-1.135,1.864-2.264,3.065-2.663l-0.205-0.119
			C35.656,13.015,35.452,12.976,35.248,12.976L35.248,12.976z M21.877,34.626c-0.078,0-0.155-0.019-0.232-0.062l-0.843-0.485
			c-0.331-0.2-0.578-0.517-0.678-0.897c-0.088-0.381-0.028-0.775,0.193-1.106l10.968-17.179c1.14-1.741,3.13-3.457,4.998-2.591
			l1.747,1.012c0.216,0.119,0.293,0.385,0.178,0.601c-0.112,0.216-0.381,0.3-0.586,0.2c-1.444-0.669-3.153,1.189-3.858,2.26
			L22.257,34.414C22.169,34.552,22.027,34.626,21.877,34.626z"/>
		<path style="fill-rule:evenodd;clip-rule:evenodd;fill:#FFFFFF;" d="M28.071,29.928l-2.415,4.277l-0.45,0.263
			c-0.573,0.33-1.737,0.623-2.31,0.292l-1.02-0.589c3.83-6.013,7.673-12.024,11.507-18.037c1.378-2.164,3.472-3.184,4.662-2.271
			l3.688,2.841L28.071,29.928z"/>
		
			<linearGradient id="SVGID_00000080168824662964977850000002193311151489338242_" gradientUnits="userSpaceOnUse" x1="21.4173" y1="24.2175" x2="42.1812" y2="24.2175">
			<stop  offset="0" style="stop-color:#894593"/>
			<stop  offset="0.5098" style="stop-color:#338ACA"/>
			<stop  offset="0.999" style="stop-color:#6A9F5B"/>
			<stop  offset="1" style="stop-color:#5F9F55"/>
		</linearGradient>
		<path style="fill-rule:evenodd;clip-rule:evenodd;fill:url(#SVGID_00000080168824662964977850000002193311151489338242_);" d="
			M25.656,34.205h0.013H25.656L25.656,34.205z M22.511,34.017l0.601,0.354c0.37,0.204,1.34,0.009,1.868-0.296l0.342-0.196
			l2.349-4.173c0.027-0.039,0.054-0.074,0.092-0.104l13.272-12.859l-3.272-2.522c-0.281-0.215-0.639-0.284-1.059-0.212
			c-0.982,0.174-2.106,1.082-2.938,2.368L22.511,34.017L22.511,34.017z M23.574,35.361c-0.335,0-0.655-0.059-0.909-0.208
			l-1.021-0.589c-0.103-0.062-0.181-0.162-0.215-0.286c-0.031-0.119,0-0.246,0.062-0.349l11.507-18.041
			c0.971-1.517,2.298-2.553,3.55-2.772c0.678-0.116,1.29,0.015,1.763,0.385l3.693,2.845c0.1,0.082,0.165,0.2,0.177,0.332
			c0,0.131-0.038,0.261-0.138,0.35L28.425,30.205l-2.376,4.224c-0.038,0.069-0.088,0.131-0.165,0.168l-0.446,0.262
			C24.991,35.114,24.247,35.361,23.574,35.361z"/>
		<path style="fill-rule:evenodd;clip-rule:evenodd;fill:#FFFFFF;" d="M28.386,32.634l-3.18,1.834
			c-0.573,0.33-1.737,0.628-2.31,0.292l-0.027-0.012l24.844-24.255c0.921-0.79,2.055-1.545,3.307-1.093l1.929,1.112
			c-1.252-0.451-2.388,0.304-3.308,1.093L28.386,32.634z"/>
		
			<linearGradient id="SVGID_00000021831084519491464970000015265356688212734858_" gradientUnits="userSpaceOnUse" x1="22.4287" y1="22.0876" x2="53.3992" y2="22.0876">
			<stop  offset="0" style="stop-color:#894593"/>
			<stop  offset="0.5098" style="stop-color:#338ACA"/>
			<stop  offset="0.999" style="stop-color:#6A9F5B"/>
			<stop  offset="1" style="stop-color:#5F9F55"/>
		</linearGradient>
		<path style="fill-rule:evenodd;clip-rule:evenodd;fill:url(#SVGID_00000021831084519491464970000015265356688212734858_);" d="
			M28.386,32.634L28.386,32.634L28.386,32.634z M50.266,9.704c-0.789,0-1.582,0.554-2.261,1.136L23.839,34.433
			c0.397-0.047,0.843-0.184,1.14-0.358l3.127-1.801l21.217-20.99c0.561-0.482,1.224-0.971,1.967-1.209l-0.5-0.281
			C50.624,9.73,50.447,9.704,50.266,9.704L50.266,9.704z M23.574,35.361c-0.335,0-0.655-0.059-0.909-0.208
			c-0.127-0.069-0.216-0.2-0.231-0.343c-0.022-0.139,0.027-0.285,0.116-0.385l24.844-24.255c0.998-0.848,2.31-1.726,3.781-1.194
			l2.006,1.143c0.188,0.116,0.276,0.37,0.177,0.58c-0.1,0.212-0.346,0.317-0.563,0.236c-1.047-0.369-2.033,0.305-2.872,1.013
			l-21.229,21.01c-0.027,0.027-0.05,0.05-0.088,0.069l-3.168,1.832C24.991,35.114,24.247,35.361,23.574,35.361z"/>
		<path style="fill-rule:evenodd;clip-rule:evenodd;fill:#FFFFFF;" d="M55.568,16.36l0.181,0.478l-2.467,1.42l-14.611,8.439
			l-10.284,5.936l21.256-21.029c1.737-1.582,3.6-1.705,4.189-0.062l1.352,3.735L55.568,16.36z"/>
		
			<linearGradient id="SVGID_00000133509303856197291620000008554591726832709012_" gradientUnits="userSpaceOnUse" x1="27.9311" y1="21.4998" x2="56.1958" y2="21.4998">
			<stop  offset="0" style="stop-color:#894593"/>
			<stop  offset="0.5098" style="stop-color:#338ACA"/>
			<stop  offset="0.999" style="stop-color:#6A9F5B"/>
			<stop  offset="1" style="stop-color:#5F9F55"/>
		</linearGradient>
		<path style="fill-rule:evenodd;clip-rule:evenodd;fill:url(#SVGID_00000133509303856197291620000008554591726832709012_);" d="
			M52.222,10.816c-0.651,0-1.483,0.401-2.287,1.124L31.197,30.491l23.986-13.858l-1.772-4.935c-0.169-0.462-0.451-0.744-0.847-0.843
			C52.465,10.828,52.349,10.816,52.222,10.816L52.222,10.816z M28.386,33.089c-0.139,0-0.28-0.062-0.37-0.181
			c-0.127-0.181-0.116-0.435,0.054-0.597l21.252-21.029c1.201-1.087,2.451-1.56,3.46-1.305c0.689,0.172,1.202,0.662,1.468,1.413
			l1.735,4.816l0,0l0.181,0.477c0.077,0.209-0.015,0.439-0.205,0.547L28.606,33.027C28.54,33.066,28.463,33.089,28.386,33.089z"/>
		
			<linearGradient id="SVGID_00000026132360451987535880000005771483617213883028_" gradientUnits="userSpaceOnUse" x1="46.3002" y1="17.3763" x2="52.3179" y2="17.3763">
			<stop  offset="0" style="stop-color:#894593"/>
			<stop  offset="0.5098" style="stop-color:#338ACA"/>
			<stop  offset="0.999" style="stop-color:#6A9F5B"/>
			<stop  offset="1" style="stop-color:#5F9F55"/>
		</linearGradient>
		<path style="fill-rule:evenodd;clip-rule:evenodd;fill:url(#SVGID_00000026132360451987535880000005771483617213883028_);" d="
			M46.755,20.323c-0.115,0-0.23-0.047-0.32-0.138c-0.18-0.181-0.18-0.467,0-0.639l5.121-4.986c0.181-0.177,0.461-0.169,0.638,0.007
			c0.166,0.178,0.166,0.467-0.012,0.639l-5.109,4.986C46.986,20.28,46.871,20.323,46.755,20.323z"/>
		<path style="fill-rule:evenodd;clip-rule:evenodd;fill:#FFFFFF;" d="M23.932,39.33l-8.012-4.625
			c-0.496,1.152-0.612,2.533-0.624,4.429l-0.103,24.79c0,4.59,5.583,6.649,9.452,6.792c-1.202-0.508-1.418-0.862-1.468-2.183
			l0.112-26.666c0.028-0.928,0.247-1.69,0.629-2.526L23.932,39.33z"/>
		
			<linearGradient id="SVGID_00000011725056691833505810000004819761645696898738_" gradientUnits="userSpaceOnUse" x1="14.7452" y1="52.7118" x2="25.1039" y2="52.7118">
			<stop  offset="0" style="stop-color:#894593"/>
			<stop  offset="0.5098" style="stop-color:#338ACA"/>
			<stop  offset="0.999" style="stop-color:#6A9F5B"/>
			<stop  offset="1" style="stop-color:#5F9F55"/>
		</linearGradient>
		<path style="fill-rule:evenodd;clip-rule:evenodd;fill:url(#SVGID_00000011725056691833505810000004819761645696898738_);" d="
			M16.15,35.368c-0.318,1.024-0.396,2.264-0.396,3.769l-0.1,24.792c0,3.745,4.046,5.624,7.409,6.171
			c-0.22-0.374-0.309-0.855-0.331-1.551l0.099-26.686c0.027-0.803,0.181-1.52,0.524-2.341L16.15,35.368L16.15,35.368z M24.645,71.17
			c0,0,0,0-0.012,0c-3.819-0.142-9.888-2.233-9.888-7.246l0.104-24.795c0.012-1.855,0.115-3.349,0.651-4.596
			c0.05-0.122,0.153-0.215,0.27-0.255c0.127-0.042,0.27-0.03,0.37,0.035l8.019,4.624c0.203,0.119,0.281,0.381,0.181,0.597
			l-0.015,0.009c-0.381,0.847-0.559,1.551-0.586,2.338l-0.104,26.657c0.039,1.143,0.166,1.324,1.191,1.763
			c0.204,0.084,0.32,0.3,0.264,0.516C25.041,71.024,24.863,71.17,24.645,71.17z"/>
		
			<linearGradient id="SVGID_00000091700917919119188720000009487471769873993351_" gradientUnits="userSpaceOnUse" x1="33.4346" y1="21.0117" x2="38.2408" y2="21.0117">
			<stop  offset="0" style="stop-color:#894593"/>
			<stop  offset="0.5098" style="stop-color:#338ACA"/>
			<stop  offset="0.999" style="stop-color:#6A9F5B"/>
			<stop  offset="1" style="stop-color:#5F9F55"/>
		</linearGradient>
		<path style="fill-rule:evenodd;clip-rule:evenodd;fill:url(#SVGID_00000091700917919119188720000009487471769873993351_);" d="
			M33.881,24.453c-0.077,0-0.166-0.023-0.243-0.068c-0.204-0.139-0.27-0.421-0.127-0.629l3.896-5.979
			c0.139-0.212,0.42-0.27,0.623-0.134c0.216,0.139,0.27,0.419,0.143,0.626l-3.912,5.983C34.173,24.385,34.034,24.453,33.881,24.453z
			"/>
	</g>
</g>
<g id="Layer_1">
</g>
</svg>
