<?xml version="1.0" encoding="utf-8"?>
<!-- Generator: Adobe Illustrator 26.3.1, SVG Export Plug-In . SVG Version: 6.00 Build 0)  -->
<svg version="1.1" id="Layer_1" xmlns="http://www.w3.org/2000/svg" xmlns:xlink="http://www.w3.org/1999/xlink" x="0px" y="0px"
	 viewBox="0 0 1002 196.5" style="enable-background:new 0 0 1002 196.5;" xml:space="preserve">
<style type="text/css">
	.st0{fill:#F8981D;}
</style>
<g>
	<path class="st0" d="M989.156,33.041c6.362-0.177,11.662,4.837,11.839,11.199c0.177,6.362-4.837,11.662-11.199,11.839
		c-6.362,0.177-11.662-4.837-11.839-11.199c-0.003-0.108-0.004-0.217-0.004-0.325c-0.089-6.27,4.922-11.425,11.192-11.514
		C989.148,33.041,989.152,33.041,989.156,33.041z M989.156,53.929c5.175-0.169,9.233-4.501,9.064-9.676
		c-0.161-4.937-4.126-8.902-9.064-9.064c-4.997,0-8.895,4.098-8.895,9.375S984.139,53.929,989.156,53.929z M985.289,38.558h4.577
		c1.914-0.157,3.594,1.268,3.75,3.183c0.012,0.148,0.015,0.297,0.008,0.445c0.073,1.425-0.821,2.721-2.179,3.158v0.06
		c0.162,0.203,0.3,0.424,0.41,0.66l2.269,4.388h-2.459l-2.209-4.607h-1.929v4.607h-2.239V38.558L985.289,38.558z M989.426,44.205
		c1.008,0.06,1.874-0.709,1.934-1.718c0.006-0.094,0.004-0.188-0.005-0.281c0.087-0.979-0.637-1.842-1.615-1.929
		c-0.104-0.009-0.209-0.009-0.314,0h-1.889v3.948h1.889V44.205z"/>
	<path class="st0" d="M884.904,177.801c8.225,0,15.422-2.998,18.99-12.993l5.337-14.892L864.665,44.555h20.988l33.242,78.497
		l28.134-78.497h20.649l-48.034,129.719c-5.397,14.602-18.68,21.228-33.641,21.228h-3.578v-17.75L884.904,177.801z"/>
	<path class="st0" d="M812.893,61.095h-10.084V44.555h10.084V10.203h20.479v34.351h20.479l6.996,16.541h-27.475v47.974
		c0,21.298,14.992,23.987,22.767,23.987c1.626,0.02,3.249-0.12,4.847-0.42v18.21c-2.377,0.293-4.771,0.433-7.166,0.42
		c-13.702,0-40.897-4.218-40.897-39.848V61.095H812.893z"/>
	<path class="st0" d="M766.199,44.555h20.449v106.711h-20.449V44.555z"/>
	<path class="st0" d="M776.403,6.336L776.403,6.336c7.109-0.066,12.926,5.643,12.992,12.752c0,0.017,0,0.034,0,0.051v0.26
		c-0.033,7.109-5.823,12.846-12.932,12.813c-0.02,0-0.04,0-0.061,0l0,0c-7.106,0.033-12.894-5.697-12.933-12.803v-0.26
		C763.504,12.039,769.294,6.303,776.403,6.336C776.403,6.336,776.403,6.336,776.403,6.336z"/>
	<polygon class="st0" points="731.558,44.555 701.065,123.051 670.572,44.555 649.523,44.555 691.32,151.266 710.57,151.266 
		752.607,44.555 	"/>
	<path class="st0" d="M615.492,44.555h20.449v106.711h-20.449V44.555z"/>
	<path class="st0" d="M625.706,6.336L625.706,6.336c7.106-0.033,12.894,5.697,12.933,12.803v0.26
		c-0.039,7.106-5.827,12.836-12.933,12.803l0,0c-7.106,0.033-12.894-5.697-12.933-12.803v-0.26
		C612.812,12.033,618.601,6.302,625.706,6.336z"/>
	<path class="st0" d="M550.148,61.095h-10.084V44.555h10.084V10.203h20.449v34.351h27.615v16.541h-27.615v47.974
		c0,21.298,14.992,23.987,22.768,23.987c1.626,0.02,3.249-0.12,4.847-0.42v18.21c-2.377,0.293-4.771,0.433-7.166,0.42
		c-13.703,0-40.898-4.218-40.898-39.848L550.148,61.095L550.148,61.095z"/>
	<path class="st0" d="M529.709,86.681c0-7.256,0.21-15.082-1.799-22.118s-4.997-11.334-10.994-15.771
		c-6.109-4.364-13.271-7.02-20.749-7.696c-12.063-1.412-24.286,0.31-35.491,4.997c-4.281,1.86-8.431,4.007-12.423,6.426
		l8.295,14.792c11.484-5.807,23.537-9.785,36.41-8.505c9.995,0.999,17.261,8.715,17.261,17.99v5.537h-18.66
		c-13.752,0-30.173,0-42.976,13.852c-3.241,3.616-5.466,8.027-6.446,12.783c-0.754,3.251-1.133,6.577-1.129,9.915l0,0
		c0,15.991,11.124,27.705,27.155,31.912c12.993,3.398,23.437,0.88,35.141-4.997c2.609-1.256,5.151-2.647,7.616-4.168v9.585h18.82
		C529.739,151.216,529.789,107.13,529.709,86.681z M510.2,121.662c-2.248,2.458-4.77,4.651-7.516,6.536
		c-6.347,4.223-13.804,6.47-21.428,6.456c-19.249,0-21.178-13.553-21.358-17.101c-0.026-1.471,0.156-2.938,0.54-4.358
		c1.999-7.496,9.285-14.212,26.625-14.212h23.147v22.678H510.2z"/>
	<path class="st0" d="M397.502,1.018h20.449v116.796c0,12.863,5.057,15.182,11.384,15.182c1.199-0.004,2.397-0.074,3.588-0.21v18.13
		c-2.239,0.272-4.491,0.412-6.746,0.42c-11.594,0-28.674-3.158-28.674-29.984L397.502,1.018L397.502,1.018z"/>
	<path class="st0" d="M337.945,40.657c30.143,0,46.974,22.348,46.974,49.973c0,1.829-0.28,5.157-0.47,7.166
		c-0.09,0.999-0.16,1.689-0.16,1.689h-77.747c1.049,23.397,17.71,35.211,36.68,35.211c18.34,0,31.623-12.443,31.623-12.443
		l8.435,14.992c-11.522,9.825-26.175,15.21-41.317,15.182c-33.522,0-56.499-24.247-56.499-55.869
		C285.454,62.575,307.581,40.657,337.945,40.657z M364.1,84.083c-0.63-18.34-12.873-27.195-26.575-27.195
		c-15.601,0-27.395,9.695-30.353,27.195h56.969H364.1z"/>
	<path class="st0" d="M256.34,87.681c14.692-5.997,24.227-23.247,24.227-42.487c0-19.609-9.905-34.851-25.086-40.548
		c-5.697-2.109-12.223-3.648-27.825-3.648h-49.673v150.307h20.169V90.809h31.812c21.988,8.175,33.522,60.497,33.522,60.497h20.939
		C284.424,151.306,274.849,106.081,256.34,87.681z M198.152,19.338h28.874c11.594,0,16.441,1.289,20.449,3.398
		c7.586,4.218,11.804,11.993,11.804,22.987c0,12.143-5.387,20.859-14.602,24.716c-3.638,1.349-8.575,2.059-17.66,2.059h-28.864
		V19.308V19.338z"/>
	<path class="st0" d="M151.297,1.018H50.173v49.173H1v101.114h101.124v-49.173h49.173V1.018z M89.162,138.343H13.963V63.144h36.21
		v38.979h38.979v36.21L89.162,138.343z M89.162,89.17H63.176V63.184h25.986V89.17z M138.334,89.17h-36.21V50.191H63.146v-36.22
		h75.199V89.18L138.334,89.17z"/>
</g>
</svg>
