<?xml version="1.0" encoding="iso-8859-1"?>
<!-- Generator: Adobe Illustrator 26.0.3, SVG Export Plug-In . SVG Version: 6.00 Build 0)  -->
<svg version="1.1" xmlns="http://www.w3.org/2000/svg" xmlns:xlink="http://www.w3.org/1999/xlink" x="0px" y="0px"
	 viewBox="0 0 80 80" style="enable-background:new 0 0 80 80;" xml:space="preserve">
<g id="logisitics_36">
	<g>
		<path style="fill-rule:evenodd;clip-rule:evenodd;fill:#FFFFFF;" d="M15.868,29.73c3.123,0,5.621-2.516,5.621-5.618
			c0-3.107-2.498-5.623-5.621-5.623c-3.083,0-5.581,2.516-5.581,5.623C10.287,27.215,12.785,29.73,15.868,29.73z"/>
		<linearGradient id="SVGID_1_" gradientUnits="userSpaceOnUse" x1="9.7865" y1="24.1097" x2="21.9893" y2="24.1097">
			<stop  offset="0" style="stop-color:#894593"/>
			<stop  offset="0.5098" style="stop-color:#338ACA"/>
			<stop  offset="0.999" style="stop-color:#6A9F5B"/>
			<stop  offset="1" style="stop-color:#5F9F55"/>
		</linearGradient>
		<path style="fill-rule:evenodd;clip-rule:evenodd;fill:url(#SVGID_1_);" d="M15.868,18.981c-2.832,0-5.122,2.299-5.122,5.132
			c0,2.827,2.29,5.126,5.122,5.126c2.83,0,5.163-2.299,5.163-5.126C21.03,21.28,18.698,18.981,15.868,18.981L15.868,18.981z
			 M15.868,30.217c-3.373,0-6.081-2.739-6.081-6.104c0-3.37,2.708-6.11,6.081-6.11c3.372,0,6.122,2.74,6.122,6.11
			C21.989,27.478,19.24,30.217,15.868,30.217z"/>
		<ellipse style="fill-rule:evenodd;clip-rule:evenodd;fill:#FFFFFF;" cx="39.979" cy="41.398" rx="27.86" ry="27.848"/>
		
			<linearGradient id="SVGID_00000096756609268474539420000007069022189732704686_" gradientUnits="userSpaceOnUse" x1="11.6615" y1="41.3984" x2="68.3385" y2="41.3984">
			<stop  offset="0" style="stop-color:#894593"/>
			<stop  offset="0.5098" style="stop-color:#338ACA"/>
			<stop  offset="0.999" style="stop-color:#6A9F5B"/>
			<stop  offset="1" style="stop-color:#5F9F55"/>
		</linearGradient>
		<path style="fill-rule:evenodd;clip-rule:evenodd;fill:url(#SVGID_00000096756609268474539420000007069022189732704686_);" d="
			M39.979,14.038c-15.076,0-27.361,12.273-27.361,27.36c0,15.088,12.286,27.356,27.361,27.356c15.117,0,27.36-12.268,27.36-27.356
			C67.339,26.311,55.096,14.038,39.979,14.038L39.979,14.038z M39.979,69.737c-15.617,0-28.318-12.713-28.318-28.338
			c0-15.625,12.7-28.338,28.318-28.338s28.359,12.713,28.359,28.338C68.338,57.024,55.596,69.737,39.979,69.737z"/>
		<path style="fill-rule:evenodd;clip-rule:evenodd;fill:#FFFFFF;" d="M57.762,23.621c-2.331-2.319-5.081-4.189-8.164-5.463
			c-2.956-1.224-6.203-1.904-9.619-1.904c-3.373,0-6.663,0.68-9.62,1.904c-3.04,1.274-5.83,3.145-8.162,5.463
			c-2.29,2.32-4.164,5.089-5.455,8.162c-1.207,2.961-1.915,6.206-1.915,9.616c0,3.411,0.709,6.655,1.915,9.617
			c1.292,3.073,3.166,5.841,5.455,8.158c2.332,2.323,5.122,4.189,8.162,5.463c2.957,1.228,6.247,1.904,9.62,1.904
			c3.416,0,6.663-0.675,9.619-1.904c3.083-1.275,5.832-3.14,8.164-5.463c2.332-2.316,4.206-5.084,5.455-8.158
			c1.249-2.962,1.915-6.206,1.915-9.617c0-3.41-0.666-6.655-1.915-9.616C61.968,28.71,60.094,25.94,57.762,23.621z"/>
		
			<linearGradient id="SVGID_00000026131447977599413800000017935570354924614548_" gradientUnits="userSpaceOnUse" x1="14.3684" y1="41.4013" x2="65.6314" y2="41.4013">
			<stop  offset="0" style="stop-color:#894593"/>
			<stop  offset="0.5098" style="stop-color:#338ACA"/>
			<stop  offset="0.999" style="stop-color:#6A9F5B"/>
			<stop  offset="1" style="stop-color:#5F9F55"/>
		</linearGradient>
		<path style="fill-rule:evenodd;clip-rule:evenodd;fill:url(#SVGID_00000026131447977599413800000017935570354924614548_);" d="
			M39.979,16.745c-3.249,0-6.413,0.629-9.412,1.866c-2.998,1.241-5.706,3.044-7.996,5.355c-2.331,2.312-4.122,5.001-5.371,8
			c-1.249,2.99-1.874,6.163-1.874,9.432c0,3.265,0.625,6.438,1.874,9.429c1.249,3.002,3.04,5.689,5.371,8
			c2.291,2.315,4.998,4.114,7.996,5.359c5.954,2.474,12.868,2.474,18.865,0c2.998-1.245,5.705-3.047,7.995-5.359
			c2.291-2.307,4.082-4.998,5.373-8c1.209-2.986,1.833-6.159,1.833-9.429c0-3.269-0.625-6.442-1.833-9.428
			c-1.291-3.003-3.081-5.697-5.373-8.004l0,0c-2.29-2.312-4.997-4.114-7.995-5.355C46.434,17.375,43.269,16.745,39.979,16.745
			L39.979,16.745z M39.979,67.028c-3.373,0-6.663-0.65-9.786-1.937c-3.123-1.291-5.914-3.164-8.329-5.573
			c-2.415-2.398-4.289-5.196-5.581-8.316c-1.29-3.11-1.914-6.409-1.914-9.803c0-3.399,0.625-6.695,1.914-9.803
			c1.292-3.12,3.166-5.918,5.581-8.32s5.206-4.275,8.329-5.567c6.204-2.578,13.368-2.574,19.614-0.005
			c3.123,1.296,5.914,3.169,8.329,5.572l0,0c2.374,2.399,4.248,5.197,5.54,8.32c1.289,3.108,1.956,6.402,1.956,9.803
			c0,3.398-0.666,6.696-1.956,9.807c-1.292,3.116-3.166,5.914-5.54,8.312c-2.415,2.404-5.207,4.282-8.329,5.573
			C46.684,66.378,43.395,67.028,39.979,67.028z"/>
		<path style="fill-rule:evenodd;clip-rule:evenodd;fill:#FFFFFF;" d="M59.094,25.05c0.916,1.066,3.247,4.485,4.248,6.963
			c1.249,3.086,1.832,6.372,1.791,9.658c-0.041,3.281-0.708,6.558-1.999,9.614c-1.249,2.944-3.123,5.701-5.538,8.089
			c-2.457,2.39-5.247,4.176-8.204,5.371c-1.249,0.5,2.29-3.673,0.084-5.962c-2.166-2.296-11.411,0.37-11.161-4.345
			c0.25-4.714,2.332-4.689,3.414-7.154c1.082-2.462,2.374-0.471,6.996-2.045c4.623-1.574,10.744-1.345,12.743-3.439
			c2.041-2.095-7.621,0.407-9.412-0.039c-1.791-0.445-2.166-2.581-3.416-2.505c-1.29,0.07-0.54,2.373-1.998,2.811
			c-1.416,0.432-5.247,1.103-5.455-0.525c-0.916-6.238,3.915-4.264,4.205-4.605c1.25-1.467-1.54-2.637,0.21-4.716
			c1.707-2.081,3.414-2.448,4.331-3.901c0.875-1.454-2.124-2.565-0.75-3.698C50.599,23.488,58.136,23.933,59.094,25.05z"/>
		
			<linearGradient id="SVGID_00000033360297303554258080000006020141277054397372_" gradientUnits="userSpaceOnUse" x1="37.8467" y1="44.3828" x2="65.6334" y2="44.3828">
			<stop  offset="0" style="stop-color:#894593"/>
			<stop  offset="0.5098" style="stop-color:#338ACA"/>
			<stop  offset="0.999" style="stop-color:#6A9F5B"/>
			<stop  offset="1" style="stop-color:#5F9F55"/>
		</linearGradient>
		<path style="fill-rule:evenodd;clip-rule:evenodd;fill:url(#SVGID_00000033360297303554258080000006020141277054397372_);" d="
			M44.019,46.417c-1.042,0-1.417,0.07-1.833,1.063c-0.416,0.924-0.958,1.515-1.458,2.094c-0.915,1.016-1.748,1.983-1.915,4.888
			c-0.126,2.162,2.165,2.462,5.706,2.667c2.208,0.129,4.289,0.249,5.331,1.316c1.582,1.686,0.582,4.155,0,5.484
			c0,0.034,0,0.067-0.043,0.096c2.791-1.204,5.289-2.882,7.455-4.998c2.332-2.295,4.164-4.96,5.413-7.932
			c1.292-2.987,1.959-6.161,1.959-9.429c0.041-3.274-0.542-6.461-1.75-9.47c-0.957-2.424-3.248-5.78-4.164-6.826l0,0
			c-0.75-0.883-7.954-1.395-9.244-0.371c-0.25,0.221-0.293,0.312,0.332,1.099c0.459,0.626,1.125,1.48,0.542,2.479
			c-0.499,0.799-1.206,1.299-1.957,1.832c-0.75,0.521-1.582,1.116-2.415,2.124c-0.75,0.887-0.459,1.487-0.126,2.248
			c0.292,0.696,0.709,1.563-0.083,2.474c-0.25,0.258-0.542,0.229-1.041,0.179c-0.75-0.07-1.874-0.179-2.541,0.524
			c-0.582,0.621-0.79,1.805-0.542,3.511c0.043,0.095,0.084,0.225,0.251,0.341c0.832,0.529,3.206,0.216,4.622-0.212
			c0.416-0.134,0.542-0.55,0.708-1.217c0.166-0.658,0.374-1.562,1.375-1.619c0.916-0.025,1.415,0.596,1.915,1.216
			c0.457,0.55,0.916,1.12,1.665,1.307c0.583,0.151,2.499-0.129,4.206-0.373c3.873-0.55,5.373-0.687,5.789,0.088
			c0.166,0.346,0.043,0.724-0.333,1.14c-1.291,1.359-3.956,1.783-7.038,2.275c-1.998,0.324-4.081,0.658-5.913,1.286
			c-2.165,0.729-3.583,0.717-4.623,0.717C44.143,46.417,44.06,46.417,44.019,46.417L44.019,46.417z M49.225,65.277
			c-0.209,0-0.333-0.083-0.417-0.175c-0.333-0.328-0.167-0.761,0.166-1.548c0.501-1.199,1.292-3.212,0.168-4.435
			c-0.75-0.787-2.75-0.9-4.706-1.013c-3.165-0.187-6.789-0.395-6.58-3.698c0.167-3.248,1.165-4.385,2.166-5.488
			c0.456-0.542,0.915-1.05,1.249-1.832c0.749-1.657,1.665-1.654,2.997-1.65c0.958,0.014,2.332,0.014,4.289-0.665
			c1.916-0.655,4.04-0.992,6.123-1.325c2.747-0.445,5.371-0.861,6.455-1.986v-0.005c-0.79-0.112-3.04,0.209-4.581,0.429
			c-2.415,0.338-3.915,0.529-4.623,0.349c-1.041-0.266-1.665-1.027-2.165-1.636c-0.457-0.562-0.666-0.891-1.082-0.857
			c-0.25,0.013-0.334,0.166-0.5,0.875c-0.167,0.682-0.416,1.612-1.374,1.915c-1.042,0.322-4.082,0.967-5.457,0.108
			c-0.374-0.245-0.625-0.599-0.666-1.028c-0.292-2.049-0.04-3.465,0.792-4.327c0.999-1.049,2.499-0.904,3.332-0.825
			c0.083,0.009,0.209,0.022,0.292,0.025c0.25-0.366,0.124-0.688-0.167-1.303c-0.333-0.808-0.832-1.915,0.292-3.273
			c0.916-1.109,1.791-1.741,2.582-2.299c0.749-0.513,1.291-0.92,1.666-1.55c0.249-0.379,0.041-0.704-0.459-1.358
			c-0.459-0.591-1.208-1.573-0.124-2.46c1.499-1.233,9.411-0.87,10.577,0.491l0,0c0.959,1.082,3.332,4.576,4.332,7.096
			c1.249,3.136,1.874,6.443,1.831,9.845c-0.04,3.402-0.706,6.697-2.04,9.803c-1.333,3.09-3.207,5.867-5.663,8.249
			c-2.417,2.375-5.248,4.219-8.371,5.473C49.432,65.253,49.308,65.277,49.225,65.277z"/>
		<path style="fill-rule:evenodd;clip-rule:evenodd;fill:#FFFFFF;" d="M38.314,16.299c-5.873,0.392-11.62,2.828-16.117,7.308
			c-2.416,2.415-4.247,5.189-5.455,8.146c-2.54,6.155-2.54,13.131,0,19.285c1.042,2.465,2.458,4.806,4.289,6.913
			c0.167,0.153,0.334,0.237,0.542,0.245c0.209,0.003,0.417-0.054,0.542-0.212c1.666-1.931,6.497-3.266,6.83-5.801
			c0.249-1.891-2.874-2.636-3.707-4.356c-0.915-1.945-0.166-4.535-1.374-6.322c-1.292-1.853-6.039-2.019-7.329-3.847
			c-0.709-1-0.209-2.504,0.167-3.67c0.166-0.508,0.79-0.808,1.29-0.94c0.75-0.183,1.542,0.021,2.291,0.029
			c0.041,0,7.163-1.079,9.328-2.028c2.207-0.945,0.999-2.199,1.998-2.595c0.916-0.391,2.458,2.512,3.916,1.229
			c1.498-1.279,2.664-7.488,3.163-8.921c0.542-1.432,2.499-0.033,3.041,0.266c0.499,0.304-0.916,3.083-0.25,3.586
			c0.667,0.507,3.415-1.249,3.79-1.6c2.082-2.07,1.541-3.973,0.416-4.905c-1.208-0.934-4.789,0.303-6.83-1.62
			C38.687,16.349,38.521,16.283,38.314,16.299z"/>
		
			<linearGradient id="SVGID_00000123408581109283677550000001207281890250971026_" gradientUnits="userSpaceOnUse" x1="14.3465" y1="37.247" x2="47.1881" y2="37.247">
			<stop  offset="0" style="stop-color:#894593"/>
			<stop  offset="0.5098" style="stop-color:#338ACA"/>
			<stop  offset="0.999" style="stop-color:#6A9F5B"/>
			<stop  offset="1" style="stop-color:#5F9F55"/>
		</linearGradient>
		<path style="fill-rule:evenodd;clip-rule:evenodd;fill:url(#SVGID_00000123408581109283677550000001207281890250971026_);" d="
			M41.437,21.447c0.041,0.003,0.041,0.003,0.041,0.003L41.437,21.447L41.437,21.447z M38.314,16.787
			c-5.956,0.4-11.537,2.944-15.743,7.171c-2.331,2.312-4.122,4.998-5.371,7.987c-0.167,0.396-0.333,0.8-0.459,1.204
			c0.417-0.35,0.876-0.505,1.125-0.575c0.583-0.146,1.166-0.088,1.707-0.033c0.251,0.021,0.459,0.046,0.709,0.05
			c0.416-0.058,7.121-1.103,9.163-1.987c1.041-0.458,1.124-0.92,1.165-1.403c0.084-0.396,0.125-0.934,0.792-1.196
			c0.666-0.266,1.291,0.234,1.915,0.725c0.916,0.734,1.375,1.029,1.874,0.584c0.999-0.833,1.916-4.466,2.457-6.638
			c0.25-0.93,0.459-1.668,0.583-2.079c0.209-0.558,0.583-0.787,0.875-0.879c0.917-0.317,2.082,0.4,2.707,0.787l0.166,0.105
			c0.543,0.328,0.334,1.107,0.084,2.094c-0.124,0.471-0.375,1.349-0.25,1.562c0.458,0.11,2.707-1.207,3.123-1.595
			c0.876-0.87,1.291-1.769,1.25-2.599c0-0.615-0.334-1.173-0.833-1.578c-0.333-0.279-1.209-0.296-2.082-0.317
			c-1.499-0.029-3.416-0.062-4.748-1.328C38.438,16.8,38.396,16.783,38.314,16.787L38.314,16.787L38.314,16.787z M15.742,36.984
			c-0.875,4.636-0.376,9.488,1.458,13.869c0.999,2.468,2.457,4.747,4.206,6.775c0.041,0.053,0.124,0.08,0.166,0.08
			c0.126,0.008,0.166-0.034,0.166-0.042c0.709-0.817,1.833-1.488,3.083-2.195c1.708-1.004,3.499-2.04,3.665-3.352
			c0.083-0.741-0.583-1.278-1.665-2.065c-0.792-0.578-1.625-1.171-1.999-2.011c-0.499-0.98-0.542-2.075-0.625-3.137
			c-0.083-1.166-0.167-2.27-0.75-3.124c-0.54-0.795-1.998-1.283-3.415-1.752c-1.582-0.513-3.164-1.05-3.915-2.087
			C15.909,37.646,15.784,37.321,15.742,36.984L15.742,36.984z M21.615,58.686c-0.043,0-0.043,0-0.043,0
			c-0.375-0.013-0.666-0.155-0.916-0.413c-1.832-2.108-3.29-4.48-4.373-7.046c-2.581-6.247-2.581-13.414,0-19.66
			c1.292-3.104,3.166-5.897,5.581-8.3c4.372-4.399,10.203-7.043,16.409-7.455l0,0c0.332-0.03,0.666,0.086,0.916,0.324
			c1.082,1.004,2.664,1.037,4.122,1.066c1.083,0.022,2.041,0.043,2.665,0.525c0.707,0.578,1.124,1.394,1.208,2.291
			c0.041,0.778-0.209,1.994-1.582,3.348c-0.167,0.174-3.333,2.478-4.456,1.64c-0.583-0.47-0.333-1.482-0.043-2.552
			c0.084-0.349,0.209-0.849,0.25-1.079l-0.082-0.037c-0.376-0.237-1.375-0.867-1.875-0.695c-0.041,0.024-0.167,0.083-0.25,0.292
			c-0.126,0.367-0.292,1.116-0.542,1.981c-0.791,3.22-1.624,6.184-2.747,7.139c-1.166,1.023-2.375,0.07-3.166-0.563
			c-0.25-0.203-0.792-0.612-0.916-0.582c-0.084,0.041-0.124,0.049-0.167,0.419c-0.083,0.597-0.207,1.491-1.791,2.175
			c-2.165,0.945-9.286,2.066-9.536,2.066l0,0c-0.292-0.006-0.541-0.03-0.833-0.059c-0.457-0.046-0.916-0.087-1.332,0.013
			c-0.499,0.129-0.875,0.37-0.958,0.612c-0.374,1.166-0.792,2.474-0.25,3.239c0.541,0.779,1.998,1.262,3.415,1.724
			c1.582,0.525,3.207,1.062,3.915,2.133c0.749,1.074,0.833,2.361,0.916,3.601c0.083,1.016,0.166,1.974,0.542,2.786
			c0.292,0.617,0.999,1.137,1.707,1.638c1.042,0.757,2.208,1.611,2.042,2.989c-0.251,1.786-2.208,2.948-4.124,4.068
			c-1.165,0.667-2.247,1.3-2.832,1.991C22.28,58.553,21.947,58.686,21.615,58.686z"/>
		<path style="fill-rule:evenodd;clip-rule:evenodd;fill:#FFFFFF;" d="M39.605,16.567c4.538-2.613,8.787-3.852,12.452-3.852
			c2.374,0,4.498,0.512,6.33,1.503c1.832,0.992,3.332,2.465,4.456,4.386c1.332,2.323,2.082,5.29,2.082,8.832
			c0,0.487,0,0.975-0.043,1.47c-0.457-0.895-0.958-1.761-1.498-2.599c-0.126-2.778-0.75-5.109-1.833-6.958
			c-0.958-1.665-2.29-2.949-3.873-3.814c-1.624-0.866-3.497-1.317-5.621-1.317c-3.416,0-7.412,1.175-11.701,3.644l0,0
			c-6.539,3.794-12.494,9.904-16.825,16.709c-4.331,6.792-6.955,14.26-6.955,20.793c0,3.277,0.666,5.989,1.874,8.084l0,0
			c0.958,1.67,2.248,2.951,3.873,3.814c1.582,0.87,3.498,1.316,5.58,1.316c1.291,0,2.665-0.163,4.082-0.496
			c0.957,0.282,1.915,0.516,2.916,0.7c-2.499,0.875-4.831,1.299-6.997,1.299c-2.331,0-4.497-0.512-6.33-1.499
			c-1.831-0.991-3.33-2.468-4.414-4.385v-0.004c-1.375-2.324-2.125-5.285-2.125-8.83c0-6.821,2.75-14.575,7.206-21.592
			C26.694,26.77,32.817,20.481,39.605,16.567L39.605,16.567z"/>
		
			<linearGradient id="SVGID_00000145036695491864876910000008968655116771963278_" gradientUnits="userSpaceOnUse" x1="14.5759" y1="41.413" x2="65.424" y2="41.413">
			<stop  offset="0" style="stop-color:#894593"/>
			<stop  offset="0.5098" style="stop-color:#338ACA"/>
			<stop  offset="0.999" style="stop-color:#6A9F5B"/>
			<stop  offset="1" style="stop-color:#5F9F55"/>
		</linearGradient>
		<path style="fill-rule:evenodd;clip-rule:evenodd;fill:url(#SVGID_00000145036695491864876910000008968655116771963278_);" d="
			M39.605,16.567h0.041H39.605L39.605,16.567z M17.574,63.982c1.041,1.808,2.498,3.212,4.249,4.169
			c2.997,1.628,6.912,1.878,11.16,0.712c-0.333-0.088-0.666-0.18-0.999-0.279c-3.79,0.867-7.246,0.558-9.912-0.891
			c-1.708-0.921-3.04-2.267-4.082-4.003c-1.249-2.232-1.915-5.034-1.915-8.328c0-6.413,2.498-13.892,7.038-21.051
			c4.539-7.176,10.578-13.165,17.033-16.876c6.705-3.897,13.284-4.755,17.783-2.331c1.665,0.916,3.039,2.261,4.039,3.998
			c1.124,1.934,1.748,4.302,1.915,7.05c0.166,0.296,0.374,0.596,0.542,0.9c-0.043-3.215-0.709-5.972-1.999-8.204
			c-1.082-1.829-2.498-3.244-4.289-4.202c-4.582-2.507-11.327-1.657-18.283,2.339c0,0.009,0,0.013,0,0.017
			c-6.496,3.752-12.618,9.8-17.198,17.029c-4.582,7.246-7.121,14.821-7.121,21.33c0,3.378,0.707,6.268,2.04,8.583
			C17.574,63.958,17.574,63.969,17.574,63.982L17.574,63.982z M27.902,70.571c-2.415,0-4.664-0.529-6.537-1.563
			c-1.958-1.045-3.499-2.585-4.664-4.568c0-0.013,0-0.025,0-0.037c-1.416-2.462-2.125-5.506-2.125-9.042
			c0-6.692,2.582-14.456,7.288-21.855c4.665-7.371,10.869-13.538,17.491-17.366c0.041-0.008,0.041-0.013,0.041-0.016
			c7.246-4.165,14.327-5.006,19.24-2.342c1.915,1.05,3.498,2.587,4.622,4.573c1.415,2.471,2.165,5.527,2.165,9.078
			c0,0.492-0.041,0.992-0.041,1.496c0,0.221-0.167,0.408-0.417,0.454c-0.207,0.05-0.415-0.063-0.54-0.259
			c-0.416-0.873-0.916-1.731-1.416-2.557c-0.083-0.07-0.083-0.153-0.083-0.241c-0.126-2.644-0.75-4.909-1.791-6.733
			c-0.916-1.578-2.165-2.798-3.707-3.631c-4.164-2.253-10.368-1.399-16.824,2.32c-6.289,3.635-12.202,9.511-16.658,16.553
			c-4.455,7.004-6.913,14.296-6.913,20.526c0,3.115,0.625,5.756,1.833,7.837c0.915,1.578,2.124,2.803,3.663,3.632
			c2.5,1.349,5.747,1.619,9.37,0.77c0.084-0.016,0.125-0.016,0.208,0.008c0.958,0.279,1.915,0.513,2.874,0.691
			c0.207,0.038,0.375,0.22,0.416,0.441c0,0.22-0.126,0.425-0.333,0.5C32.567,70.125,30.15,70.571,27.902,70.571z"/>
		<path style="fill-rule:evenodd;clip-rule:evenodd;fill:#FFFFFF;" d="M59.135,21.398c3.165,0,5.747-2.57,5.747-5.739
			c0-3.174-2.581-5.744-5.747-5.744c-3.165,0-5.747,2.57-5.747,5.744C53.388,18.828,55.971,21.398,59.135,21.398z"/>
		
			<linearGradient id="SVGID_00000003097319313586646480000013151320983530585270_" gradientUnits="userSpaceOnUse" x1="52.8895" y1="15.6586" x2="65.3825" y2="15.6586">
			<stop  offset="0" style="stop-color:#894593"/>
			<stop  offset="0.5098" style="stop-color:#338ACA"/>
			<stop  offset="0.999" style="stop-color:#6A9F5B"/>
			<stop  offset="1" style="stop-color:#5F9F55"/>
		</linearGradient>
		<path style="fill-rule:evenodd;clip-rule:evenodd;fill:url(#SVGID_00000003097319313586646480000013151320983530585270_);" d="
			M59.135,10.406c-2.873,0-5.247,2.355-5.247,5.253c0,2.894,2.374,5.251,5.247,5.251c2.914,0,5.247-2.358,5.247-5.251
			C64.382,12.76,62.05,10.406,59.135,10.406L59.135,10.406z M59.135,21.888c-3.415,0-6.246-2.795-6.246-6.23
			c0-3.437,2.831-6.23,6.246-6.23c3.457,0,6.247,2.793,6.247,6.23C65.382,19.094,62.593,21.888,59.135,21.888z"/>
		<path style="fill-rule:evenodd;clip-rule:evenodd;fill:#FFFFFF;" d="M40.355,16.567c-4.498-2.613-8.747-3.852-12.453-3.852
			c-2.331,0-4.497,0.512-6.33,1.503c-1.791,0.992-3.33,2.465-4.414,4.386l-0.041,0.024c0.5,0.113,0.999,0.296,1.415,0.533
			c0.959-1.579,2.249-2.795,3.79-3.627c1.582-0.866,3.498-1.317,5.58-1.317c3.456,0,7.413,1.175,11.703,3.644l0,0
			c6.58,3.794,12.535,9.904,16.866,16.709c4.289,6.792,6.953,14.26,6.953,20.793c0,3.277-0.666,5.989-1.874,8.084l0,0
			c-0.958,1.67-2.29,2.951-3.873,3.814c-1.624,0.87-3.497,1.316-5.621,1.316c-1.291,0-2.624-0.163-4.081-0.496
			c-0.916,0.282-1.916,0.516-2.874,0.7c2.457,0.875,4.788,1.299,6.955,1.299c2.374,0,4.498-0.512,6.33-1.499
			c1.832-0.991,3.332-2.468,4.456-4.385v-0.004c1.332-2.324,2.082-5.285,2.082-8.83c0-6.821-2.75-14.575-7.205-21.592
			C53.305,26.77,47.142,20.481,40.355,16.567L40.355,16.567z"/>
		
			<linearGradient id="SVGID_00000026881614183180734270000010270077913978054562_" gradientUnits="userSpaceOnUse" x1="16.6302" y1="41.4124" x2="65.424" y2="41.4124">
			<stop  offset="0" style="stop-color:#894593"/>
			<stop  offset="0.5098" style="stop-color:#338ACA"/>
			<stop  offset="0.999" style="stop-color:#6A9F5B"/>
			<stop  offset="1" style="stop-color:#5F9F55"/>
		</linearGradient>
		<path style="fill-rule:evenodd;clip-rule:evenodd;fill:url(#SVGID_00000026881614183180734270000010270077913978054562_);" d="
			M46.975,68.863c4.289,1.166,8.162,0.916,11.161-0.712c1.791-0.958,3.207-2.361,4.248-4.169c0.041-0.013,0.041-0.024,0.041-0.037
			c1.332-2.315,1.999-5.205,1.999-8.583c0-6.509-2.541-14.083-7.122-21.33c-4.581-7.229-10.661-13.277-17.157-17.029
			c0-0.005,0-0.008-0.043-0.017c-6.912-3.996-13.659-4.847-18.28-2.339c-1.583,0.87-2.917,2.107-3.957,3.689
			c0.167,0.054,0.333,0.117,0.5,0.192c0.958-1.462,2.208-2.611,3.706-3.424c4.456-2.42,11.035-1.566,17.781,2.331
			c6.456,3.707,12.452,9.7,17.033,16.876c4.538,7.159,7.038,14.638,7.038,21.051c0,3.29-0.666,6.093-1.957,8.328
			c-1,1.737-2.374,3.083-4.039,4.003c-2.707,1.449-6.123,1.757-9.913,0.891C47.684,68.684,47.308,68.776,46.975,68.863
			L46.975,68.863z M52.056,70.571c-2.249,0-4.622-0.446-7.122-1.329c-0.207-0.075-0.374-0.28-0.333-0.5
			c0-0.221,0.167-0.403,0.374-0.441c1-0.183,1.958-0.413,2.874-0.691c0.083-0.021,0.166-0.024,0.25-0.008
			c3.623,0.849,6.872,0.58,9.327-0.77c1.542-0.83,2.791-2.055,3.707-3.632c1.207-2.081,1.791-4.718,1.791-7.837
			c0-6.23-2.415-13.522-6.872-20.526c-4.456-7.046-10.411-12.922-16.699-16.553c-6.414-3.719-12.66-4.573-16.825-2.32
			c-1.457,0.799-2.664,1.96-3.582,3.451c-0.124,0.221-0.416,0.301-0.625,0.18c-0.416-0.225-0.875-0.387-1.291-0.488
			c-0.166-0.033-0.292-0.137-0.374-0.283c-0.043-0.145-0.043-0.308,0.043-0.441c1.165-2.006,2.706-3.548,4.664-4.598
			c4.914-2.664,11.993-1.828,19.198,2.342c0,0.003,0.041,0.008,0.041,0.016c6.622,3.827,12.868,9.995,17.533,17.366
			c4.706,7.399,7.288,15.163,7.288,21.855c0,3.536-0.708,6.58-2.124,9.042c0,0.012-0.041,0.024-0.041,0.037
			c-1.125,1.983-2.707,3.523-4.622,4.568C56.72,70.042,54.513,70.571,52.056,70.571z"/>
		<path style="fill-rule:evenodd;clip-rule:evenodd;fill:#FFFFFF;" d="M66.423,32.629c1.166,1.045,2.082,2.145,2.791,3.277l0,0
			c1.123,1.778,1.665,3.631,1.665,5.492c0,1.858-0.542,3.711-1.665,5.49v0.003c-1.5,2.406-3.999,4.665-7.538,6.567l0,0
			c-6.039,3.22-13.868,4.831-21.697,4.831c-7.829,0-15.658-1.611-21.656-4.831l0,0c-3.539-1.902-6.08-4.161-7.537-6.567
			c-1.125-1.778-1.666-3.636-1.666-5.493s0.542-3.714,1.666-5.492l0,0c0.707-1.133,1.624-2.232,2.79-3.277
			c-0.375,1.054-0.666,2.132-0.875,3.239c-0.207,0.258-0.374,0.524-0.542,0.787l0,0c-0.958,1.537-1.415,3.14-1.415,4.743
			c0,1.6,0.458,3.202,1.415,4.74c1.375,2.194,3.665,4.264,6.955,6.026l0,0c5.747,3.081,13.326,4.627,20.864,4.627
			c7.579,0,15.117-1.545,20.864-4.627l0,0c3.289-1.762,5.621-3.832,6.996-6.026v0.003c0.958-1.541,1.416-3.144,1.416-4.743
			c0-1.603-0.459-3.203-1.416-4.743v-0.005c-0.166-0.262-0.374-0.528-0.542-0.787C67.049,34.761,66.799,33.683,66.423,32.629z"/>
		
			<linearGradient id="SVGID_00000041287486034460418210000015641943931527767741_" gradientUnits="userSpaceOnUse" x1="8.6216" y1="45.4574" x2="71.3784" y2="45.4574">
			<stop  offset="0" style="stop-color:#894593"/>
			<stop  offset="0.5098" style="stop-color:#338ACA"/>
			<stop  offset="0.999" style="stop-color:#6A9F5B"/>
			<stop  offset="1" style="stop-color:#5F9F55"/>
		</linearGradient>
		<path style="fill-rule:evenodd;clip-rule:evenodd;fill:url(#SVGID_00000041287486034460418210000015641943931527767741_);" d="
			M69.214,46.892h0.041H69.214L69.214,46.892z M11.203,36.136c0,0.013,0,0.021,0,0.033c-1.083,1.686-1.624,3.448-1.624,5.23
			c0,1.787,0.541,3.545,1.624,5.235c1.499,2.423,3.956,4.572,7.329,6.392c5.747,3.077,13.368,4.773,21.447,4.773
			c8.121,0,15.7-1.696,21.446-4.773c3.374-1.812,5.831-3.956,7.372-6.363c0-0.013,0-0.026,0-0.034
			c1.082-1.69,1.583-3.448,1.583-5.231c0-1.786-0.501-3.544-1.583-5.235c-0.375-0.62-0.833-1.224-1.374-1.815
			c0.124,0.438,0.25,0.875,0.333,1.313c0.166,0.242,0.333,0.488,0.499,0.732c0,0.013,0,0.022,0,0.034c1,1.6,1.5,3.274,1.5,4.973
			c0,1.708-0.5,3.39-1.5,5.002c-1.457,2.344-3.873,4.431-7.163,6.196c-0.04,0.003-0.04,0.013-0.04,0.016
			c-5.621,3.007-13.119,4.665-21.073,4.665c-7.954,0-15.409-1.658-21.031-4.665c-0.041-0.003-0.041-0.013-0.041-0.013
			c-3.289-1.769-5.704-3.856-7.162-6.204c-0.999-1.608-1.499-3.29-1.499-4.998c0-1.708,0.5-3.393,1.499-5.001
			c0.166-0.246,0.292-0.491,0.499-0.733c0.084-0.441,0.167-0.878,0.292-1.316C12.036,34.927,11.577,35.527,11.203,36.136
			L11.203,36.136z M39.979,58.777c-8.245,0-16.033-1.736-21.906-4.889c-3.539-1.899-6.12-4.168-7.745-6.738
			c-1.125-1.845-1.706-3.781-1.706-5.751c0-1.957,0.582-3.881,1.706-5.722c0-0.009,0-0.021,0-0.029
			c0.749-1.184,1.708-2.32,2.916-3.382c0.166-0.15,0.416-0.171,0.583-0.046c0.166,0.122,0.25,0.35,0.209,0.564
			c-0.376,1.04-0.626,2.116-0.876,3.181c0,0.071-0.04,0.138-0.083,0.192c-0.166,0.249-0.333,0.504-0.499,0.757
			c-0.916,1.449-1.375,2.96-1.375,4.485c0,1.521,0.459,3.032,1.375,4.482c1.374,2.191,3.622,4.155,6.746,5.833l0.041,0.017
			c5.497,2.945,12.785,4.568,20.614,4.568c7.829,0,15.158-1.624,20.655-4.568c0,0,0-0.013,0.043-0.017
			c3.123-1.678,5.371-3.639,6.746-5.833c0.875-1.45,1.332-2.96,1.332-4.482c0-1.525-0.458-3.031-1.332-4.485
			c-0.043-0.008-0.043-0.021-0.043-0.034c-0.166-0.241-0.332-0.483-0.499-0.724c-0.041-0.059-0.083-0.126-0.083-0.196
			c-0.209-1.061-0.5-2.129-0.833-3.177c-0.083-0.209,0-0.441,0.209-0.564c0.166-0.12,0.416-0.099,0.582,0.051
			c1.166,1.058,2.124,2.194,2.874,3.378c1.166,1.845,1.748,3.781,1.748,5.751c0,1.953-0.582,3.878-1.707,5.718
			c0,0.013-0.041,0.021-0.041,0.033c-1.582,2.573-4.206,4.839-7.746,6.738C56.012,57.041,48.225,58.777,39.979,58.777z"/>
		<path style="fill-rule:evenodd;clip-rule:evenodd;fill:#FFFFFF;" d="M45.768,63.571c3.499,0,6.372-2.849,6.372-6.364
			c0-3.515-2.873-6.364-6.372-6.364c-3.499,0-6.372,2.849-6.372,6.364C39.396,60.722,42.269,63.571,45.768,63.571z"/>
		
			<linearGradient id="SVGID_00000114062506630067714930000016154226987025952435_" gradientUnits="userSpaceOnUse" x1="38.8959" y1="57.207" x2="52.5978" y2="57.207">
			<stop  offset="0" style="stop-color:#894593"/>
			<stop  offset="0.5098" style="stop-color:#338ACA"/>
			<stop  offset="0.999" style="stop-color:#6A9F5B"/>
			<stop  offset="1" style="stop-color:#5F9F55"/>
		</linearGradient>
		<path style="fill-rule:evenodd;clip-rule:evenodd;fill:url(#SVGID_00000114062506630067714930000016154226987025952435_);" d="
			M45.768,51.334c-3.248,0-5.871,2.638-5.871,5.873c0,3.241,2.624,5.871,5.871,5.871c3.248,0,5.873-2.631,5.873-5.871
			C51.64,53.972,49.016,51.334,45.768,51.334L45.768,51.334z M45.768,64.058c-3.79,0-6.872-3.073-6.872-6.851
			c0-3.776,3.081-6.851,6.872-6.851c3.79,0,6.83,3.075,6.83,6.851C52.598,60.984,49.558,64.058,45.768,64.058z"/>
	</g>
</g>
<g id="Layer_1">
</g>
</svg>
