<?xml version="1.0" encoding="iso-8859-1"?>
<!-- Generator: Adobe Illustrator 26.0.3, SVG Export Plug-In . SVG Version: 6.00 Build 0)  -->
<svg version="1.1" xmlns="http://www.w3.org/2000/svg" xmlns:xlink="http://www.w3.org/1999/xlink" x="0px" y="0px"
	 viewBox="0 0 80 80" style="enable-background:new 0 0 80 80;" xml:space="preserve">
<g id="support_29">
	<g>
		<path style="fill-rule:evenodd;clip-rule:evenodd;fill:#FFFFFF;" d="M59.961,67.302l-0.783-1.152
			c4.572-5.818,3.897-12.403,1.961-18.11l1.248-1.009C64.56,53.444,65.025,60.949,59.961,67.302z"/>
		<linearGradient id="SVGID_1_" gradientUnits="userSpaceOnUse" x1="58.746" y1="57.1672" x2="64.3557" y2="57.1672">
			<stop  offset="0" style="stop-color:#894593"/>
			<stop  offset="0.5098" style="stop-color:#338ACA"/>
			<stop  offset="0.999" style="stop-color:#6A9F5B"/>
			<stop  offset="1" style="stop-color:#5F9F55"/>
		</linearGradient>
		<path style="fill-rule:evenodd;clip-rule:evenodd;fill:url(#SVGID_1_);" d="M59.718,66.168l0.269,0.396
			c3.801-5.094,4.536-11.413,2.183-18.797l-0.517,0.421C64.032,55.42,63.393,61.307,59.718,66.168L59.718,66.168z M59.961,67.738
			H59.95c-0.133-0.008-0.27-0.078-0.343-0.192l-0.783-1.152c-0.111-0.155-0.1-0.366,0.011-0.51
			c3.713-4.724,4.326-10.515,1.899-17.703c-0.059-0.17,0-0.362,0.136-0.476l1.238-1.008c0.11-0.093,0.258-0.122,0.391-0.081
			c0.148,0.037,0.247,0.144,0.296,0.277c2.733,8.052,1.861,15.203-2.49,20.68C60.221,67.679,60.098,67.738,59.961,67.738z"/>
		<path style="fill-rule:evenodd;clip-rule:evenodd;fill:#FFFFFF;" d="M58.247,71.982c2.427-0.359,4.119-2.63,3.75-5.065
			c-0.355-2.438-2.622-4.122-5.061-3.76c-2.437,0.358-4.118,2.626-3.76,5.065C53.542,70.66,55.81,72.34,58.247,71.982z"/>
		
			<linearGradient id="SVGID_00000055703519981455623580000017857711703766903195_" gradientUnits="userSpaceOnUse" x1="52.6916" y1="67.5698" x2="62.4894" y2="67.5698">
			<stop  offset="0" style="stop-color:#894593"/>
			<stop  offset="0.5098" style="stop-color:#338ACA"/>
			<stop  offset="0.999" style="stop-color:#6A9F5B"/>
			<stop  offset="1" style="stop-color:#5F9F55"/>
		</linearGradient>
		<path style="fill-rule:evenodd;clip-rule:evenodd;fill:url(#SVGID_00000055703519981455623580000017857711703766903195_);" d="
			M57.598,63.542c-0.196,0-0.391,0.015-0.598,0.044c-2.194,0.325-3.712,2.375-3.394,4.573c0.328,2.194,2.364,3.716,4.569,3.394l0,0
			c1.068-0.158,2.009-0.72,2.648-1.584c0.651-0.861,0.905-1.924,0.746-2.988c-0.148-1.063-0.709-2.002-1.581-2.645
			C59.289,63.816,58.458,63.542,57.598,63.542L57.598,63.542z M58.247,71.982h0.011H58.247L58.247,71.982z M57.587,72.466
			c-2.39,0-4.484-1.755-4.843-4.181c-0.391-2.671,1.459-5.164,4.13-5.556c1.289-0.195,2.585,0.129,3.642,0.909
			c1.042,0.783,1.728,1.924,1.925,3.218c0.181,1.292-0.137,2.581-0.92,3.635c-0.787,1.049-1.924,1.731-3.21,1.92l0,0
			C58.063,72.447,57.83,72.466,57.587,72.466z"/>
		<path style="fill-rule:evenodd;clip-rule:evenodd;fill:#FFFFFF;" d="M18.73,45.85l4.277-2.468l0.307-0.099
			c0.661-0.189,1.396-0.207,2.083-0.104c1.925,0.3,3.834,1.562,5.23,2.877c2.977,2.789,5.356,7.24,5.7,11.332
			c0.122,1.404,0,2.992-0.603,4.288c-0.233,0.503-0.576,1.016-0.979,1.403l-0.244,0.219l-4.277,2.467
			c0.17-0.155,0.317-0.281,0.476-0.454c0.466-0.528,0.809-1.208,1.03-1.876c0.602-1.903,0.38-4.218-0.136-6.12
			c-1.016-3.798-3.59-7.834-6.837-10.088c-1.249-0.868-2.818-1.61-4.373-1.643c-0.429-0.008-0.931,0.044-1.348,0.166L18.73,45.85z"
			/>
		
			<linearGradient id="SVGID_00000172413872577505484670000003850859560270673054_" gradientUnits="userSpaceOnUse" x1="18.2967" y1="54.4402" x2="36.8015" y2="54.4402">
			<stop  offset="0" style="stop-color:#894593"/>
			<stop  offset="0.5098" style="stop-color:#338ACA"/>
			<stop  offset="0.999" style="stop-color:#6A9F5B"/>
			<stop  offset="1" style="stop-color:#5F9F55"/>
		</linearGradient>
		<path style="fill-rule:evenodd;clip-rule:evenodd;fill:url(#SVGID_00000172413872577505484670000003850859560270673054_);" d="
			M20.775,45.17c1.666,0.144,3.21,0.99,4.229,1.699c3.173,2.198,5.917,6.254,7.007,10.331c0.369,1.374,0.883,4.027,0.122,6.368
			c-0.074,0.263-0.181,0.518-0.292,0.765l2.438-1.411l0.17-0.166c0.333-0.314,0.665-0.783,0.883-1.263
			c0.628-1.356,0.65-2.963,0.565-4.071c-0.317-3.789-2.563-8.233-5.563-11.051c-0.957-0.887-2.87-2.431-5.012-2.759
			c-0.661-0.103-1.337-0.074-1.887,0.088l-0.296,0.096L20.775,45.17L20.775,45.17z M30.224,66.198c-0.133,0-0.259-0.063-0.343-0.181
			c-0.133-0.177-0.111-0.428,0.062-0.576c0.17-0.155,0.292-0.266,0.429-0.421c0.392-0.443,0.735-1.052,0.942-1.718
			c0.687-2.131,0.207-4.598-0.133-5.877c-1.042-3.893-3.664-7.753-6.667-9.843c-1.422-0.982-2.893-1.54-4.141-1.566
			c-0.407-0.011-0.861,0.048-1.215,0.151l-0.295,0.096c-0.207,0.07-0.44-0.029-0.524-0.233c-0.1-0.203-0.011-0.444,0.185-0.554
			l4.262-2.467l0.391-0.141c0.687-0.196,1.496-0.24,2.279-0.118c2.368,0.365,4.451,2.028,5.466,2.988
			c3.21,2.999,5.5,7.561,5.833,11.613c0.11,1.211,0.074,2.98-0.635,4.506c-0.273,0.587-0.65,1.13-1.068,1.536l-0.259,0.229
			l-4.348,2.515C30.383,66.179,30.298,66.198,30.224,66.198z"/>
		<path style="fill-rule:evenodd;clip-rule:evenodd;fill:#FFFFFF;" d="M23.927,65.555c-4.51-2.604-8.163-8.931-8.163-14.143
			c0-5.204,3.653-7.317,8.163-4.716c4.506,2.604,8.174,8.942,8.174,14.15C32.1,66.054,28.433,68.159,23.927,65.555z"/>
		
			<linearGradient id="SVGID_00000049216739263615991780000017168556140872574088_" gradientUnits="userSpaceOnUse" x1="15.3239" y1="56.1273" x2="32.5291" y2="56.1273">
			<stop  offset="0" style="stop-color:#894593"/>
			<stop  offset="0.5098" style="stop-color:#338ACA"/>
			<stop  offset="0.999" style="stop-color:#6A9F5B"/>
			<stop  offset="1" style="stop-color:#5F9F55"/>
		</linearGradient>
		<path style="fill-rule:evenodd;clip-rule:evenodd;fill:url(#SVGID_00000049216739263615991780000017168556140872574088_);" d="
			M24.148,65.182c2.042,1.178,3.929,1.382,5.34,0.569c1.396-0.809,2.168-2.552,2.168-4.905c0-5.064-3.568-11.244-7.952-13.774
			c-2.035-1.178-3.934-1.382-5.33-0.573c-1.411,0.813-2.183,2.556-2.183,4.913C16.192,56.476,19.76,62.648,24.148,65.182
			L24.148,65.182L24.148,65.182z M27.575,67.11c-1.201,0-2.511-0.396-3.871-1.178l0,0c-4.621-2.667-8.381-9.183-8.381-14.52
			c0-2.678,0.931-4.69,2.607-5.662c1.692-0.972,3.9-0.769,6.217,0.572c4.616,2.667,8.381,9.182,8.381,14.524
			c0,2.678-0.92,4.687-2.612,5.658C29.219,66.911,28.433,67.11,27.575,67.11z"/>
		<path style="fill-rule:evenodd;clip-rule:evenodd;fill:#FFFFFF;" d="M47.894,27.987l4.606-2.656l0.332-0.111
			c0.709-0.203,1.507-0.221,2.242-0.111c2.072,0.321,4.13,1.684,5.636,3.1c3.21,3.003,5.77,7.8,6.139,12.207
			c0.122,1.514,0,3.225-0.65,4.617c-0.255,0.547-0.624,1.097-1.052,1.515l-0.259,0.233l-4.606,2.66
			c0.181-0.167,0.343-0.303,0.502-0.492c0.502-0.565,0.883-1.3,1.1-2.017c0.662-2.053,0.418-4.543-0.132-6.593
			c-1.094-4.089-3.86-8.441-7.365-10.871c-1.348-0.935-3.04-1.736-4.706-1.77c-0.465-0.011-1.004,0.052-1.459,0.181L47.894,27.987z"
			/>
		
			<linearGradient id="SVGID_00000137816034256798158510000015216175706587001997_" gradientUnits="userSpaceOnUse" x1="47.4607" y1="37.2422" x2="67.3249" y2="37.2422">
			<stop  offset="0" style="stop-color:#894593"/>
			<stop  offset="0.5098" style="stop-color:#338ACA"/>
			<stop  offset="0.999" style="stop-color:#6A9F5B"/>
			<stop  offset="1" style="stop-color:#5F9F55"/>
		</linearGradient>
		<path style="fill-rule:evenodd;clip-rule:evenodd;fill:url(#SVGID_00000137816034256798158510000015216175706587001997_);" d="
			M49.989,27.278c1.829,0.126,3.527,1.056,4.643,1.836c3.409,2.364,6.371,6.722,7.539,11.11c0.403,1.474,0.942,4.321,0.133,6.837
			c-0.1,0.317-0.221,0.627-0.365,0.919l2.73-1.577l0.185-0.181c0.354-0.344,0.708-0.85,0.957-1.37
			c0.687-1.467,0.709-3.203,0.598-4.399c-0.329-4.097-2.744-8.887-5.991-11.927c-1.027-0.964-3.099-2.63-5.415-2.988
			c-0.713-0.107-1.448-0.074-2.046,0.099l-0.322,0.104L49.989,27.278L49.989,27.278z M60.283,49.876
			c-0.137,0-0.27-0.066-0.354-0.181c-0.137-0.181-0.1-0.433,0.059-0.58c0.184-0.166,0.328-0.288,0.476-0.45
			c0.418-0.484,0.787-1.149,1.02-1.865c0.735-2.308,0.218-4.968-0.148-6.349c-1.126-4.2-3.944-8.37-7.191-10.623
			c-1.533-1.063-3.125-1.666-4.473-1.692c-0.455-0.011-0.931,0.049-1.327,0.159l-0.317,0.107c-0.207,0.07-0.44-0.033-0.524-0.237
			c-0.1-0.203-0.015-0.443,0.17-0.554l4.606-2.655l0.418-0.148c0.735-0.211,1.606-0.255,2.438-0.126
			c2.549,0.392,4.769,2.179,5.869,3.21c3.446,3.228,5.91,8.129,6.275,12.488c0.111,1.3,0.075,3.198-0.687,4.839
			c-0.281,0.624-0.698,1.208-1.149,1.644l-0.269,0.244l-4.673,2.711C60.431,49.853,60.356,49.876,60.283,49.876z"/>
		<path style="fill-rule:evenodd;clip-rule:evenodd;fill:#FFFFFF;" d="M53.494,49.218c-4.865-2.808-8.798-9.626-8.798-15.237
			c0-5.611,3.934-7.886,8.798-5.083c4.853,2.804,8.798,9.63,8.798,15.24C62.292,49.754,58.347,52.022,53.494,49.218z"/>
		
			<linearGradient id="SVGID_00000016062262765838432060000017067669012191444921_" gradientUnits="userSpaceOnUse" x1="44.267" y1="39.0588" x2="62.7206" y2="39.0588">
			<stop  offset="0" style="stop-color:#894593"/>
			<stop  offset="0.5098" style="stop-color:#338ACA"/>
			<stop  offset="0.999" style="stop-color:#6A9F5B"/>
			<stop  offset="1" style="stop-color:#5F9F55"/>
		</linearGradient>
		<path style="fill-rule:evenodd;clip-rule:evenodd;fill:url(#SVGID_00000016062262765838432060000017067669012191444921_);" d="
			M49.56,28.131c-0.761,0-1.459,0.174-2.072,0.528c-1.518,0.879-2.364,2.77-2.364,5.323c0,5.463,3.849,12.13,8.577,14.859l0,0
			c2.22,1.275,4.277,1.496,5.799,0.617c1.518-0.879,2.349-2.766,2.349-5.319c0-5.466-3.845-12.133-8.576-14.863
			C51.95,28.515,50.687,28.131,49.56,28.131L49.56,28.131z M57.428,50.858c-1.289,0-2.696-0.428-4.155-1.267
			c-4.975-2.867-9.005-9.869-9.005-15.609c0-2.878,0.994-5.034,2.792-6.076c1.788-1.038,4.155-0.82,6.641,0.616
			c4.976,2.871,9.02,9.877,9.02,15.617c0,2.874-0.993,5.031-2.792,6.069C59.178,50.64,58.333,50.858,57.428,50.858z"/>
		<path style="fill-rule:evenodd;clip-rule:evenodd;fill:#FFFFFF;" d="M16.303,46.223l4.61-2.656l0.328-0.111
			c0.713-0.203,1.508-0.221,2.242-0.111c2.083,0.321,4.13,1.684,5.637,3.099c3.213,3.007,5.773,7.801,6.142,12.207
			c0.122,1.515,0,3.225-0.65,4.621c-0.247,0.543-0.628,1.093-1.056,1.514l-0.255,0.233l-4.61,2.656
			c0.184-0.162,0.343-0.299,0.502-0.488c0.502-0.569,0.883-1.3,1.115-2.021c0.651-2.049,0.407-4.543-0.132-6.593
			c-1.104-4.088-3.875-8.44-7.38-10.867c-1.348-0.938-3.036-1.736-4.706-1.773c-0.462-0.007-1.001,0.052-1.444,0.181L16.303,46.223z
			"/>
		
			<linearGradient id="SVGID_00000067212250924472453130000007642732564168718514_" gradientUnits="userSpaceOnUse" x1="15.8764" y1="55.4777" x2="35.737" y2="55.4777">
			<stop  offset="0" style="stop-color:#894593"/>
			<stop  offset="0.5098" style="stop-color:#338ACA"/>
			<stop  offset="0.999" style="stop-color:#6A9F5B"/>
			<stop  offset="1" style="stop-color:#5F9F55"/>
		</linearGradient>
		<path style="fill-rule:evenodd;clip-rule:evenodd;fill:url(#SVGID_00000067212250924472453130000007642732564168718514_);" d="
			M18.401,45.517c1.836,0.126,3.527,1.057,4.654,1.832c3.395,2.364,6.361,6.726,7.535,11.111c0.395,1.473,0.931,4.325,0.137,6.84
			c-0.111,0.318-0.233,0.625-0.381,0.916l2.733-1.573l0.181-0.185c0.369-0.343,0.712-0.846,0.957-1.37
			c0.687-1.467,0.713-3.203,0.613-4.399c-0.339-4.093-2.755-8.887-6.002-11.927c-1.031-0.961-3.103-2.63-5.404-2.985
			c-0.724-0.111-1.459-0.078-2.061,0.096l-0.318,0.107L18.401,45.517L18.401,45.517z M28.691,68.111
			c-0.133,0-0.27-0.063-0.354-0.181c-0.122-0.181-0.1-0.429,0.062-0.576c0.196-0.166,0.329-0.288,0.476-0.454
			c0.429-0.48,0.784-1.145,1.016-1.865c0.735-2.305,0.233-4.968-0.144-6.35c-1.13-4.199-3.948-8.37-7.195-10.623
			c-1.533-1.064-3.125-1.666-4.473-1.692c-0.451-0.007-0.931,0.048-1.323,0.163l-0.307,0.103c-0.222,0.071-0.443-0.03-0.539-0.233
			c-0.085-0.203-0.011-0.443,0.185-0.554l4.595-2.66l0.414-0.144c0.738-0.214,1.607-0.259,2.441-0.129
			c2.549,0.392,4.78,2.179,5.87,3.209c3.457,3.228,5.917,8.13,6.275,12.488c0.107,1.305,0.085,3.199-0.687,4.839
			c-0.284,0.625-0.687,1.212-1.141,1.644l-0.281,0.244l-4.669,2.711C28.839,68.093,28.765,68.111,28.691,68.111z"/>
		<path style="fill-rule:evenodd;clip-rule:evenodd;fill:#FFFFFF;" d="M21.903,67.453c-4.854-2.807-8.798-9.622-8.798-15.236
			c0-5.611,3.944-7.89,8.798-5.083c4.852,2.808,8.798,9.63,8.798,15.24C30.7,67.99,26.755,70.257,21.903,67.453z"/>
		
			<linearGradient id="SVGID_00000014609449104757189700000005802338795563711364_" gradientUnits="userSpaceOnUse" x1="12.6751" y1="57.2945" x2="31.1436" y2="57.2945">
			<stop  offset="0" style="stop-color:#894593"/>
			<stop  offset="0.5098" style="stop-color:#338ACA"/>
			<stop  offset="0.999" style="stop-color:#6A9F5B"/>
			<stop  offset="1" style="stop-color:#5F9F55"/>
		</linearGradient>
		<path style="fill-rule:evenodd;clip-rule:evenodd;fill:url(#SVGID_00000014609449104757189700000005802338795563711364_);" d="
			M17.983,46.366c-0.771,0-1.469,0.174-2.083,0.528c-1.522,0.879-2.353,2.77-2.353,5.323c0,5.463,3.845,12.13,8.577,14.859
			c2.205,1.274,4.266,1.496,5.784,0.617c1.518-0.879,2.364-2.767,2.364-5.319c0-5.463-3.86-12.129-8.588-14.863
			C20.373,46.751,19.11,46.366,17.983,46.366L17.983,46.366z M25.836,69.093c-1.286,0-2.697-0.425-4.152-1.267
			c-4.964-2.866-9.009-9.869-9.009-15.609c0-2.874,0.994-5.031,2.796-6.076c1.799-1.038,4.163-0.82,6.652,0.62
			c4.964,2.87,9.02,9.873,9.02,15.613c0,2.878-0.993,5.031-2.796,6.069C27.59,68.879,26.744,69.093,25.836,69.093z"/>
		<path style="fill-rule:evenodd;clip-rule:evenodd;fill:#FFFFFF;" d="M49.878,18.11c-0.403-1.4-0.99-2.822-2.009-3.89l0,0
			c3.246,0.728,5.466,3.639,5.821,8.241c0.026,0.425,0.048,4.259,0.048,4.713c0,0.613-0.021,1.153-0.084,1.781v0.041l-0.159-0.097
			c-1.227-0.705-2.39-1.089-3.458-1.177l0,0C50.528,25.527,50.391,20.401,49.878,18.11z"/>
		
			<linearGradient id="SVGID_00000155865131507383229610000013183564647746468787_" gradientUnits="userSpaceOnUse" x1="47.4277" y1="21.6024" x2="54.166" y2="21.6024">
			<stop  offset="0" style="stop-color:#894593"/>
			<stop  offset="0.5098" style="stop-color:#338ACA"/>
			<stop  offset="0.999" style="stop-color:#6A9F5B"/>
			<stop  offset="1" style="stop-color:#5F9F55"/>
		</linearGradient>
		<path style="fill-rule:evenodd;clip-rule:evenodd;fill:url(#SVGID_00000155865131507383229610000013183564647746468787_);" d="
			M50.553,27.344c0.88,0.137,1.788,0.451,2.719,0.938c0.026-0.361,0.026-0.717,0.026-1.108c0-0.543-0.011-4.288-0.052-4.68
			c-0.27-3.657-1.773-6.279-4.163-7.406c0.477,0.786,0.88,1.736,1.212,2.903c0,0.007,0,0.015,0,0.022
			C50.776,20.112,50.957,24.859,50.553,27.344L50.553,27.344z M53.616,29.42c-0.063,0-0.122-0.018-0.184-0.051l-0.159-0.097
			c-1.141-0.657-2.242-1.034-3.269-1.123c-0.126-0.007-0.237-0.074-0.311-0.173c-0.074-0.1-0.096-0.229-0.074-0.351
			c0.492-2.209,0.321-7.247-0.17-9.407c-0.466-1.662-1.079-2.837-1.899-3.697c-0.122-0.126-0.159-0.314-0.085-0.473
			c0.074-0.159,0.218-0.262,0.403-0.262c3.652,0.808,5.894,3.956,6.25,8.643c0.037,0.469,0.048,4.477,0.048,4.746
			c0,0.642-0.022,1.204-0.085,1.821c-0.011,0.144-0.096,0.295-0.232,0.365C53.775,29.398,53.701,29.42,53.616,29.42z"/>
		<path style="fill-rule:evenodd;clip-rule:evenodd;fill:#FFFFFF;" d="M39.218,9.016c3.273-1.215,6.139-1.592,9.327,0.078
			l3.432,1.98c-2.379-1.244-4.278-1.323-6.889-0.835c-7.132,1.772-12.499,7.579-16.296,13.581
			c-2.966,4.964-4.827,9.732-5.429,15.517c-0.037,2.246-0.17,4.61-0.037,6.87c-1.212-0.705-2.375-1.085-3.431-1.178
			c-0.037-2.235-0.037-4.403-0.022-6.652c0.344-5.393,1.847-9.799,4.336-14.56C27.723,17.545,32.492,11.912,39.218,9.016z"/>
		
			<linearGradient id="SVGID_00000050648861375453205600000018007714662892974980_" gradientUnits="userSpaceOnUse" x1="19.4233" y1="27.0869" x2="52.4044" y2="27.0869">
			<stop  offset="0" style="stop-color:#894593"/>
			<stop  offset="0.5098" style="stop-color:#338ACA"/>
			<stop  offset="0.999" style="stop-color:#6A9F5B"/>
			<stop  offset="1" style="stop-color:#5F9F55"/>
		</linearGradient>
		<path style="fill-rule:evenodd;clip-rule:evenodd;fill:url(#SVGID_00000050648861375453205600000018007714662892974980_);" d="
			M20.322,44.641c0.824,0.119,1.67,0.395,2.537,0.824c-0.048-1.411-0.011-2.852,0.026-4.248c0.022-0.635,0.033-1.267,0.048-1.887
			c0.565-5.477,2.257-10.316,5.478-15.731c4.828-7.613,10.391-12.245,16.566-13.781c1.237-0.233,2.378-0.355,3.505-0.259
			l-0.159-0.088c-3.298-1.728-6.25-1.049-8.946-0.052c-5.784,2.493-10.76,7.409-14.789,14.608
			c-2.685,5.149-3.971,9.452-4.289,14.376C20.288,40.501,20.299,42.547,20.322,44.641L20.322,44.641z M23.324,46.64
			c-0.074,0-0.148-0.018-0.222-0.059c-1.127-0.653-2.227-1.03-3.247-1.119c-0.222-0.019-0.392-0.203-0.403-0.429
			c-0.026-2.234-0.037-4.406-0.026-6.656c0.332-5.078,1.644-9.489,4.399-14.763c4.129-7.384,9.252-12.425,15.221-14.996
			c0-0.004,0.011-0.004,0.022-0.007c2.881-1.071,6.053-1.799,9.681,0.1l3.442,1.987c0.196,0.118,0.27,0.38,0.159,0.587
			c-0.108,0.207-0.377,0.284-0.576,0.177c-2.387-1.252-4.237-1.241-6.616-0.798c-5.917,1.477-11.31,5.984-16.004,13.389
			c-3.162,5.289-4.813,10.021-5.367,15.325c0,0.591-0.026,1.223-0.037,1.862c-0.048,1.636-0.096,3.328,0,4.942
			c0.011,0.159-0.063,0.31-0.196,0.395C23.483,46.617,23.398,46.64,23.324,46.64z"/>
		<path style="fill-rule:evenodd;clip-rule:evenodd;fill:#FFFFFF;" d="M52.342,48.923c-4.399-2.542-7.967-8.717-7.967-13.803
			c0-5.083,3.568-7.147,7.967-4.602c4.399,2.541,7.974,8.724,7.974,13.807C60.316,49.41,56.741,51.464,52.342,48.923z"/>
		
			<linearGradient id="SVGID_00000132063440839888428110000005377184736972750267_" gradientUnits="userSpaceOnUse" x1="43.9347" y1="39.7203" x2="60.7484" y2="39.7203">
			<stop  offset="0" style="stop-color:#894593"/>
			<stop  offset="0.5098" style="stop-color:#338ACA"/>
			<stop  offset="0.999" style="stop-color:#6A9F5B"/>
			<stop  offset="1" style="stop-color:#5F9F55"/>
		</linearGradient>
		<path style="fill-rule:evenodd;clip-rule:evenodd;fill:url(#SVGID_00000132063440839888428110000005377184736972750267_);" d="
			M48.788,29.86c-0.687,0-1.311,0.155-1.861,0.473c-1.363,0.79-2.12,2.489-2.12,4.787c0,4.934,3.479,10.959,7.756,13.43
			c1.983,1.145,3.834,1.345,5.209,0.558c1.359-0.787,2.105-2.486,2.105-4.783c0-4.939-3.479-10.963-7.756-13.434
			C50.931,30.206,49.804,29.86,48.788,29.86L48.788,29.86z M55.906,50.452c-1.174,0-2.448-0.387-3.785-1.152
			c-4.511-2.604-8.186-8.968-8.186-14.18c0-2.619,0.909-4.588,2.563-5.537c1.64-0.953,3.797-0.753,6.065,0.558
			c4.511,2.608,8.186,8.972,8.186,14.184c0,2.619-0.909,4.584-2.549,5.533C57.513,50.252,56.741,50.452,55.906,50.452z"/>
		<path style="fill-rule:evenodd;clip-rule:evenodd;fill:#FFFFFF;" d="M52.342,46.51c-3.247-1.876-5.88-6.434-5.88-10.183
			c0-3.749,2.633-5.271,5.88-3.394c3.247,1.873,5.88,6.434,5.88,10.183C58.222,46.869,55.588,48.383,52.342,46.51z"/>
		
			<linearGradient id="SVGID_00000132788642295124892550000006456826347198962072_" gradientUnits="userSpaceOnUse" x1="46.0326" y1="39.7202" x2="58.6501" y2="39.7202">
			<stop  offset="0" style="stop-color:#894593"/>
			<stop  offset="0.5098" style="stop-color:#338ACA"/>
			<stop  offset="0.999" style="stop-color:#6A9F5B"/>
			<stop  offset="1" style="stop-color:#5F9F55"/>
		</linearGradient>
		<path style="fill-rule:evenodd;clip-rule:evenodd;fill:url(#SVGID_00000132788642295124892550000006456826347198962072_);" d="
			M52.563,46.134c1.433,0.824,2.756,0.972,3.724,0.41c0.967-0.558,1.507-1.777,1.507-3.428c0-3.605-2.549-8.004-5.673-9.81
			c-1.419-0.824-2.745-0.972-3.712-0.41c-0.979,0.561-1.507,1.78-1.507,3.431C46.901,39.932,49.439,44.328,52.563,46.134
			L52.563,46.134L52.563,46.134z M54.975,47.748c-0.883,0-1.851-0.288-2.855-0.864l0,0c-3.358-1.939-6.088-6.674-6.088-10.556
			c0-1.976,0.684-3.461,1.935-4.181c1.249-0.724,2.877-0.576,4.595,0.41c3.358,1.939,6.087,6.678,6.087,10.56
			c0,1.973-0.683,3.458-1.935,4.181C56.202,47.6,55.603,47.748,54.975,47.748z"/>
		<path style="fill-rule:evenodd;clip-rule:evenodd;fill:#FFFFFF;" d="M40.09,12.252c9.286-5.359,16.81-1.012,16.81,9.703
			l-0.011,4.107c0,0.388-0.026,0.698-0.063,1.097l-3.173,1.836c0.063-0.643,0.084-1.197,0.084-1.821
			c0-0.454-0.021-4.288-0.048-4.713c-0.602-7.731-6.457-10.682-13.6-6.56c-7.258,4.192-13.186,14.151-13.629,22.653
			c-0.011,0.332-0.022,4.052-0.022,4.377c0,0.536,0.022,1.049,0.074,1.544l-0.236,0.17l-2.951,1.562
			c-0.037-0.469-0.048-0.953-0.048-1.447c0-0.528,0.026-4.455,0.059-4.994C24.022,29.383,31.265,17.346,40.09,12.252z"/>
		
			<linearGradient id="SVGID_00000075880845784114376080000002675445535105429897_" gradientUnits="userSpaceOnUse" x1="22.8477" y1="28.0768" x2="57.3274" y2="28.0768">
			<stop  offset="0" style="stop-color:#894593"/>
			<stop  offset="0.5098" style="stop-color:#338ACA"/>
			<stop  offset="0.999" style="stop-color:#6A9F5B"/>
			<stop  offset="1" style="stop-color:#5F9F55"/>
		</linearGradient>
		<path style="fill-rule:evenodd;clip-rule:evenodd;fill:url(#SVGID_00000075880845784114376080000002675445535105429897_);" d="
			M40.308,12.625C31.72,17.586,24.451,29.52,23.764,39.796c-0.033,0.51-0.059,4.336-0.059,4.964c0,0.251,0.011,0.498,0.026,0.742
			l2.327-1.23c-0.037-0.432-0.048-0.879-0.048-1.341c0-0.255,0-4.048,0.022-4.399c0.444-8.677,6.519-18.778,13.836-23.008
			c3.675-2.116,7.166-2.501,9.863-1.083c2.537,1.341,4.092,4.177,4.388,7.986c0.037,0.469,0.048,4.477,0.048,4.746
			c0,0.366,0,0.702-0.022,1.035l2.279-1.311c0.011-0.296,0.037-0.543,0.037-0.839l0.011-4.104c0-5.02-1.68-8.75-4.717-10.505
			c-3.028-1.75-7.095-1.333-11.446,1.178V12.625L40.308,12.625z M23.324,46.64c-0.074,0-0.148-0.014-0.207-0.055
			c-0.136-0.07-0.222-0.203-0.222-0.351c-0.037-0.477-0.048-0.968-0.048-1.474c0-0.466,0.011-4.462,0.048-5.024
			c0.699-10.534,8.163-22.775,16.972-27.861l0,0c4.632-2.674,9.005-3.091,12.326-1.178c3.31,1.917,5.134,5.913,5.134,11.258v4.107
			c-0.011,0.391-0.037,0.705-0.059,1.097c-0.015,0.144-0.1,0.303-0.221,0.373l-3.188,1.836c-0.133,0.081-0.307,0.081-0.44-0.011
			c-0.148-0.085-0.221-0.244-0.196-0.406c0.048-0.61,0.074-1.141,0.074-1.777c0-0.543-0.011-4.288-0.052-4.68
			c-0.255-3.502-1.651-6.087-3.93-7.284c-2.405-1.274-5.614-0.897-9.009,1.068c-7.095,4.093-12.976,13.888-13.404,22.299
			c-0.026,0.31-0.026,3.941-0.026,4.355c0,0.524,0.011,1.023,0.063,1.507c0.011,0.152-0.052,0.3-0.185,0.392l-0.232,0.166
			l-2.988,1.595C23.461,46.625,23.398,46.64,23.324,46.64z"/>
		<path style="fill-rule:evenodd;clip-rule:evenodd;fill:#FFFFFF;" d="M21.473,64.643c-3.405-1.961-6.164-6.733-6.164-10.664
			c0-3.927,2.759-5.522,6.164-3.557c3.394,1.961,6.154,6.741,6.154,10.667C27.627,65.019,24.868,66.608,21.473,64.643z"/>
		
			<linearGradient id="SVGID_00000021831923293186021600000000205031468698468520_" gradientUnits="userSpaceOnUse" x1="14.8809" y1="57.5333" x2="28.0665" y2="57.5333">
			<stop  offset="0" style="stop-color:#894593"/>
			<stop  offset="0.5098" style="stop-color:#338ACA"/>
			<stop  offset="0.999" style="stop-color:#6A9F5B"/>
			<stop  offset="1" style="stop-color:#5F9F55"/>
		</linearGradient>
		<path style="fill-rule:evenodd;clip-rule:evenodd;fill:url(#SVGID_00000021831923293186021600000000205031468698468520_);" d="
			M21.684,64.27c1.507,0.868,2.904,1.019,3.934,0.429c1.015-0.588,1.577-1.873,1.577-3.609c0-3.782-2.67-8.399-5.943-10.294
			c-1.503-0.868-2.888-1.02-3.919-0.428c-1.016,0.591-1.581,1.873-1.581,3.612C15.752,57.762,18.412,62.378,21.684,64.27
			L21.684,64.27L21.684,64.27z M24.218,65.924c-0.916,0-1.925-0.303-2.966-0.905l0,0c-3.516-2.028-6.371-6.981-6.371-11.04
			c0-2.065,0.712-3.612,2.024-4.366c1.301-0.753,2.999-0.598,4.779,0.432c3.517,2.031,6.383,6.985,6.383,11.044
			c0,2.061-0.724,3.609-2.02,4.362C25.492,65.765,24.879,65.924,24.218,65.924z"/>
	</g>
</g>
<g id="Layer_1">
</g>
</svg>
