<?xml version="1.0" encoding="iso-8859-1"?>
<!-- Generator: Adobe Illustrator 26.0.3, SVG Export Plug-In . SVG Version: 6.00 Build 0)  -->
<svg version="1.1" xmlns="http://www.w3.org/2000/svg" xmlns:xlink="http://www.w3.org/1999/xlink" x="0px" y="0px"
	 viewBox="0 0 80 80" style="enable-background:new 0 0 80 80;" xml:space="preserve">
<g id="business_x5F_process37">
	<g>
		<polygon style="fill-rule:evenodd;clip-rule:evenodd;fill:#C5E6F4;" points="26.075,72.103 23.654,70.705 23.521,70.61 
			23.404,70.498 23.298,70.36 23.212,70.2 23.141,70.023 23.09,69.825 23.059,69.604 23.051,69.369 23.051,27.406 23.059,27.156 
			23.09,26.901 23.141,26.647 23.212,26.384 23.298,26.125 23.404,25.867 23.521,25.616 23.654,25.37 23.803,25.131 23.96,24.899 
			24.132,24.685 24.313,24.477 24.501,24.288 24.7,24.112 24.904,23.96 25.116,23.826 29.542,21.268 32.177,19.749 45.397,12.115 
			47.701,10.786 52.464,8.037 52.672,7.927 52.879,7.845 53.079,7.79 53.268,7.758 53.447,7.758 53.619,7.779 53.776,7.826 
			53.925,7.896 56.346,9.291 56.196,9.224 56.036,9.176 55.868,9.158 55.687,9.158 55.496,9.188 55.3,9.243 55.096,9.326 
			54.884,9.435 50.122,12.185 47.819,13.513 34.598,21.147 31.962,22.667 27.536,25.225 27.324,25.359 27.12,25.511 26.924,25.687 
			26.733,25.875 26.552,26.079 26.38,26.298 26.224,26.529 26.075,26.768 25.942,27.015 25.824,27.266 25.723,27.525 25.632,27.783 
			25.562,28.04 25.511,28.3 25.479,28.554 25.467,28.805 25.467,70.767 25.479,71.003 25.511,71.222 25.562,71.418 25.632,71.598 
			25.723,71.759 25.824,71.891 25.942,72.01 		"/>
		<path style="fill-rule:evenodd;clip-rule:evenodd;fill:#0083C7;" d="M53.388,8.213l-0.544,0.141l-0.169,0.09L24.806,24.633
			l-0.626,0.761l-0.533,1.14l-0.137,0.892l0.035,42.335l0.298,0.517l1.175,0.681l-0.009-0.172V28.805l0.103-0.854l0.415-1.132
			l0.662-1.022l0.627-0.631l0.474-0.33L54.825,8.945L53.388,8.213L53.388,8.213z M26.075,72.562c-0.079,0-0.156-0.019-0.232-0.063
			l-2.761-1.674l-0.274-0.403l-0.164-0.482l-0.056-0.552V27.406l0.102-0.854l0.415-1.132l0.662-1.023l0.626-0.63l0.475-0.33
			l27.837-16.02l0.49-0.114l0.244-0.008l0.462,0.087l0.219,0.093l2.453,1.415c0.216,0.126,0.293,0.391,0.179,0.616
			c-0.113,0.219-0.38,0.305-0.603,0.204l-0.341-0.1l-0.54,0.142l-0.172,0.09l-27.87,16.19L26.6,26.791l-0.533,1.14l-0.137,0.893
			l0.035,42.331l0.372,0.568c0.205,0.141,0.259,0.415,0.127,0.623C26.377,72.488,26.228,72.562,26.075,72.562z"/>
		<path style="fill-rule:evenodd;clip-rule:evenodd;fill:#C5E6F4;" d="M54.884,56.169l-27.348,15.79
			c-1.139,0.658-2.068,0.121-2.068-1.191V28.805c0-1.316,0.929-2.921,2.068-3.58l4.427-2.558l2.636-1.52l13.221-7.634l2.303-1.328
			l4.762-2.75c1.137-0.658,2.065-0.121,2.065,1.191v41.963C56.949,53.902,56.021,55.511,54.884,56.169z"/>
		<path style="fill-rule:evenodd;clip-rule:evenodd;fill:#0083C7;" d="M54.884,56.169h0.012H54.884L54.884,56.169z M55.805,9.611
			c-0.204,0-0.438,0.079-0.693,0.22L27.763,25.624c-0.991,0.571-1.833,2.029-1.833,3.18v41.963c0,0.454,0.137,0.796,0.375,0.937
			c0.244,0.137,0.605,0.086,0.999-0.145l27.348-15.789c0.996-0.571,1.837-2.029,1.837-3.18V10.626c0-0.455-0.137-0.8-0.375-0.937
			C56.024,9.639,55.923,9.611,55.805,9.611L55.805,9.611z M26.615,72.703c-0.279,0-0.535-0.067-0.772-0.204
			c-0.54-0.31-0.835-0.93-0.835-1.732V28.805c0-1.488,1.008-3.236,2.296-3.979L54.653,9.036c0.698-0.404,1.383-0.454,1.921-0.145
			c0.539,0.313,0.838,0.929,0.838,1.735v41.963c0,1.488-1.011,3.236-2.299,3.98l0,0L27.763,72.359
			C27.367,72.585,26.979,72.703,26.615,72.703z"/>
		<path style="fill-rule:evenodd;clip-rule:evenodd;fill:#FFFFFF;" d="M29.251,28.181v39.954L54.14,53.767V13.818
			C45.844,18.604,37.548,23.395,29.251,28.181z"/>
		<path style="fill-rule:evenodd;clip-rule:evenodd;fill:#0083C7;" d="M29.714,28.452V67.34l23.964-13.835V14.613L29.714,28.452
			L29.714,28.452z M29.251,68.598c-0.078,0-0.16-0.02-0.228-0.063c-0.144-0.081-0.23-0.234-0.23-0.399V28.181
			c0-0.159,0.086-0.313,0.23-0.395l24.886-14.368c0.144-0.082,0.318-0.082,0.462,0c0.141,0.081,0.228,0.234,0.228,0.399v39.949
			c0,0.165-0.087,0.318-0.228,0.4L29.483,68.535C29.413,68.578,29.334,68.598,29.251,68.598z"/>
		<path style="fill-rule:evenodd;clip-rule:evenodd;fill:#FFFFFF;" d="M37.955,24.962c0-1.473,0-2.617,0-4.093
			c3.048-1.759,6.095-3.522,9.143-5.281c0,1.477,0,2.621,0,4.097C44.05,21.445,41.003,23.204,37.955,24.962L37.955,24.962z
			 M48.45,20.239v-6.762l-11.846,6.84v6.756L48.45,20.239L48.45,20.239z"/>
		<path style="fill-rule:evenodd;clip-rule:evenodd;fill:#0083C7;" d="M38.417,21.135v3.032l8.222-4.748v-3.031L38.417,21.135
			L38.417,21.135z M37.955,25.425c-0.078,0-0.157-0.021-0.231-0.063c-0.142-0.084-0.232-0.237-0.232-0.4v-4.093
			c0-0.165,0.09-0.318,0.232-0.4l9.142-5.28c0.145-0.082,0.322-0.079,0.463,0c0.144,0.082,0.231,0.234,0.231,0.399v4.097
			c0,0.161-0.087,0.314-0.231,0.396l-9.142,5.281C38.116,25.404,38.034,25.425,37.955,25.425L37.955,25.425z M48.45,20.239h0.011
			H48.45L48.45,20.239z M37.066,20.582l10.924-6.305v5.695l-10.924,6.306V20.582L37.066,20.582z M36.604,27.535
			c-0.078,0-0.156-0.023-0.227-0.063c-0.145-0.081-0.232-0.235-0.232-0.4v-6.756c0-0.165,0.087-0.317,0.232-0.4l11.845-6.839
			c0.141-0.078,0.318-0.078,0.459,0c0.144,0.082,0.231,0.235,0.231,0.399v6.762c0,0.159-0.087,0.313-0.231,0.396l-11.845,6.838
			C36.765,27.513,36.686,27.535,36.604,27.535z"/>
		<polygon style="fill-rule:evenodd;clip-rule:evenodd;fill:#FFFFFF;" points="36.604,20.317 48.45,13.477 46.827,12.542 
			45.856,11.981 34.011,18.82 		"/>
		<path style="fill-rule:evenodd;clip-rule:evenodd;fill:#0083C7;" d="M34.931,18.82l1.673,0.965l10.925-6.307l-1.673-0.964
			L34.931,18.82L34.931,18.82z M36.604,20.778c-0.078,0-0.156-0.023-0.227-0.062l-2.594-1.5c-0.144-0.082-0.234-0.232-0.234-0.397
			c0-0.164,0.09-0.317,0.234-0.399l11.845-6.84c0.141-0.082,0.314-0.082,0.458,0l2.594,1.497c0.144,0.082,0.231,0.235,0.231,0.399
			c0,0.165-0.087,0.318-0.231,0.4l-11.845,6.839C36.765,20.756,36.686,20.778,36.604,20.778z"/>
		<polygon style="fill-rule:evenodd;clip-rule:evenodd;fill:#5DC5EA;" points="26.075,72.103 23.654,70.705 23.521,70.61 
			23.404,70.498 23.298,70.36 23.212,70.2 23.141,70.023 23.09,69.825 23.059,69.604 23.051,69.369 23.051,27.406 23.059,27.156 
			23.09,26.901 23.141,26.643 23.212,26.384 23.298,26.125 23.404,25.867 23.521,25.616 23.654,25.37 23.662,25.359 26.083,26.756 
			26.075,26.768 25.942,27.015 25.824,27.266 25.723,27.525 25.629,27.783 25.562,28.04 25.511,28.3 25.479,28.554 25.467,28.805 
			25.467,70.767 25.479,71.003 25.511,71.222 25.562,71.418 25.629,71.598 25.723,71.759 25.824,71.891 25.942,72.01 		"/>
		<path style="fill-rule:evenodd;clip-rule:evenodd;fill:#0083C7;" d="M23.85,26.001l-0.267,0.763l-0.074,0.662l0.035,42.335
			l0.298,0.517l1.175,0.681l-0.009-0.172V28.805l0.103-0.854l0.36-1.018L23.85,26.001L23.85,26.001z M26.075,72.562
			c-0.079,0-0.156-0.019-0.228-0.063l-2.765-1.674l-0.274-0.403l-0.164-0.485l-0.056-0.549V27.406l0.102-0.854l0.415-1.132
			l0.145-0.271c0.059-0.11,0.16-0.196,0.282-0.227c0.118-0.036,0.256-0.024,0.36,0.036l2.422,1.398
			c0.106,0.062,0.184,0.165,0.216,0.281c0.031,0.118,0.012,0.244-0.051,0.349l-0.412,0.944l-0.137,0.893l0.035,42.331l0.372,0.568
			c0.205,0.137,0.263,0.415,0.13,0.623C26.38,72.483,26.228,72.562,26.075,72.562z"/>
		<polygon style="fill-rule:evenodd;clip-rule:evenodd;fill:#C5E6F4;" points="34.011,20.152 35.166,20.818 35.166,26.243 
			36.604,27.073 36.604,20.317 34.011,18.82 		"/>
		<path style="fill-rule:evenodd;clip-rule:evenodd;fill:#0083C7;" d="M35.629,25.981l0.516,0.297v-5.696l-1.671-0.967v0.27
			l0.92,0.533c0.144,0.082,0.235,0.235,0.235,0.4V25.981L35.629,25.981z M36.604,27.535c-0.078,0-0.156-0.023-0.227-0.063
			l-1.438-0.829c-0.144-0.083-0.234-0.235-0.234-0.4v-5.159l-0.921-0.537c-0.144-0.078-0.234-0.234-0.234-0.396V18.82
			c0-0.164,0.09-0.317,0.234-0.399c0.142-0.082,0.318-0.082,0.458,0l2.594,1.496c0.144,0.083,0.231,0.235,0.231,0.4v6.756
			c0,0.165-0.087,0.319-0.231,0.4C36.765,27.513,36.686,27.535,36.604,27.535z"/>
		<polygon style="fill-rule:evenodd;clip-rule:evenodd;fill:#FFFFFF;" points="45.66,16.42 45.66,18.716 47.098,19.686 
			47.098,15.588 		"/>
		<path style="fill-rule:evenodd;clip-rule:evenodd;fill:#0083C7;" d="M46.123,18.469l0.516,0.348v-2.428l-0.516,0.297V18.469
			L46.123,18.469z M47.098,20.144c-0.091,0-0.181-0.027-0.255-0.078l-1.443-0.971c-0.125-0.087-0.203-0.232-0.203-0.379V16.42
			c0-0.161,0.087-0.319,0.234-0.4l1.438-0.83c0.141-0.082,0.318-0.079,0.459,0c0.144,0.082,0.231,0.234,0.231,0.399v4.097
			c0,0.168-0.094,0.326-0.247,0.403C47.247,20.129,47.172,20.144,47.098,20.144z"/>
		<polygon style="fill-rule:evenodd;clip-rule:evenodd;fill:#FFFFFF;" points="37.955,23.16 45.66,18.716 47.098,19.686 
			37.955,24.962 		"/>
		<path style="fill-rule:evenodd;clip-rule:evenodd;fill:#0083C7;" d="M38.417,23.426v0.74l7.815-4.512l-0.592-0.4L38.417,23.426
			L38.417,23.426z M37.955,25.425c-0.078,0-0.157-0.021-0.231-0.063c-0.142-0.084-0.232-0.237-0.232-0.4V23.16
			c0-0.164,0.09-0.316,0.232-0.398l7.708-4.446c0.15-0.09,0.341-0.084,0.487,0.015l1.437,0.972c0.133,0.089,0.207,0.238,0.204,0.399
			c-0.008,0.157-0.094,0.301-0.231,0.379l-9.142,5.281C38.116,25.404,38.034,25.425,37.955,25.425z"/>
		<path style="fill-rule:evenodd;clip-rule:evenodd;fill:#0083C7;" d="M47.861,24.899c-0.905,0.526-1.671,1.853-1.671,2.903
			c0,0.411,0.117,0.713,0.328,0.835c0.204,0.121,0.529,0.074,0.886-0.133c0.908-0.526,1.671-1.853,1.671-2.903
			c0-0.412-0.116-0.717-0.325-0.835C48.543,24.645,48.218,24.692,47.861,24.899L47.861,24.899L47.861,24.899z M46.78,29.624
			c-0.259,0-0.505-0.063-0.724-0.187c-0.509-0.295-0.791-0.875-0.791-1.635c0-1.386,0.939-3.008,2.139-3.701l0,0
			c0.657-0.379,1.3-0.427,1.806-0.133c0.508,0.294,0.79,0.874,0.79,1.634c0,1.386-0.94,3.008-2.139,3.701
			C47.489,29.518,47.121,29.624,46.78,29.624z"/>
		<path style="fill-rule:evenodd;clip-rule:evenodd;fill:#0083C7;" d="M35.778,56.396c-0.908,0.53-1.677,1.858-1.677,2.903
			c0,0.412,0.121,0.717,0.328,0.838c0.209,0.118,0.534,0.071,0.89-0.132c0.909-0.526,1.677-1.857,1.677-2.903
			c0-0.415-0.123-0.716-0.33-0.835C36.455,56.141,36.13,56.192,35.778,56.396L35.778,56.396L35.778,56.396z M34.697,61.124
			c-0.259,0-0.509-0.066-0.729-0.192c-0.505-0.294-0.786-0.873-0.786-1.633c0-1.382,0.939-3.008,2.137-3.697l0,0
			c0.654-0.38,1.296-0.431,1.81-0.134c0.505,0.295,0.787,0.875,0.787,1.634c0,1.383-0.94,3.008-2.139,3.698
			C35.406,61.019,35.037,61.124,34.697,61.124z"/>
		<path style="fill-rule:evenodd;clip-rule:evenodd;fill:#0083C7;" d="M35.985,55.053c-0.255,0-0.458-0.204-0.462-0.455
			c-0.051-6.732,3.15-10.152,6.243-13.455c2.759-2.946,5.362-5.726,5.539-10.728c0.008-0.209,0.154-0.385,0.357-0.431
			c0.192-0.047,0.408,0.043,0.509,0.228l1.289,2.37c0.121,0.223,0.043,0.502-0.184,0.622c-0.223,0.121-0.501,0.04-0.627-0.184
			l-0.556-1.03c-0.628,4.415-3.177,7.141-5.653,9.781c-2.973,3.173-6.044,6.456-5.993,12.821c0,0.25-0.207,0.462-0.459,0.462H35.985
			z"/>
		<path style="fill-rule:evenodd;clip-rule:evenodd;fill:#0083C7;" d="M46.051,33.612c-0.081,0-0.167-0.025-0.242-0.075
			c-0.216-0.134-0.283-0.419-0.145-0.631l1.712-2.723c0.133-0.216,0.419-0.278,0.634-0.141c0.216,0.133,0.283,0.42,0.146,0.635
			l-1.713,2.718C46.357,33.533,46.204,33.612,46.051,33.612z"/>
		<path style="fill-rule:evenodd;clip-rule:evenodd;fill:#0083C7;" d="M35.84,37.547c-0.082,0-0.156-0.019-0.231-0.058
			c-0.22-0.13-0.294-0.408-0.169-0.631l3.223-5.582c0.13-0.223,0.412-0.293,0.627-0.168c0.224,0.126,0.298,0.408,0.172,0.63
			l-3.223,5.583C36.154,37.468,35.998,37.547,35.84,37.547z"/>
		<path style="fill-rule:evenodd;clip-rule:evenodd;fill:#0083C7;" d="M39.13,35.726c-0.078,0-0.157-0.02-0.231-0.057l-3.224-1.861
			c-0.219-0.133-0.294-0.411-0.168-0.631c0.129-0.223,0.407-0.294,0.631-0.172l3.223,1.861c0.219,0.133,0.293,0.412,0.168,0.631
			C39.444,35.644,39.291,35.726,39.13,35.726z"/>
		<path style="fill-rule:evenodd;clip-rule:evenodd;fill:#0083C7;" d="M41.472,55.46c-0.078,0-0.153-0.021-0.227-0.063
			c-0.22-0.126-0.298-0.408-0.169-0.627l3.177-5.504c0.126-0.219,0.406-0.294,0.627-0.168c0.222,0.129,0.294,0.412,0.168,0.631
			l-3.177,5.503C41.786,55.377,41.633,55.46,41.472,55.46z"/>
		<path style="fill-rule:evenodd;clip-rule:evenodd;fill:#0083C7;" d="M44.716,53.667c-0.078,0-0.156-0.024-0.227-0.063
			l-3.177-1.834c-0.223-0.125-0.298-0.411-0.168-0.63c0.125-0.22,0.407-0.295,0.627-0.169l3.177,1.834
			c0.219,0.128,0.294,0.411,0.168,0.63C45.029,53.583,44.876,53.667,44.716,53.667z"/>
		<path style="fill-rule:evenodd;clip-rule:evenodd;fill:#0083C7;" d="M48.018,44.144c-0.083,0-0.16-0.021-0.231-0.064
			c-0.224-0.125-0.298-0.407-0.169-0.626l2.17-3.765c0.13-0.219,0.412-0.293,0.631-0.168c0.22,0.13,0.294,0.412,0.168,0.631
			l-2.173,3.76C48.328,44.061,48.174,44.144,48.018,44.144z"/>
		<path style="fill-rule:evenodd;clip-rule:evenodd;fill:#0083C7;" d="M50.232,42.917c-0.079,0-0.154-0.024-0.228-0.062
			l-2.173-1.257c-0.22-0.127-0.294-0.404-0.169-0.627c0.129-0.222,0.411-0.294,0.631-0.168l2.17,1.253
			c0.222,0.13,0.297,0.412,0.168,0.631C50.545,42.831,50.392,42.917,50.232,42.917z"/>
		<path style="fill-rule:evenodd;clip-rule:evenodd;fill:#0083C7;" d="M34.101,46.49c-0.078,0-0.156-0.023-0.231-0.063
			c-0.219-0.129-0.294-0.411-0.169-0.631l2.174-3.76c0.126-0.219,0.408-0.297,0.627-0.168c0.223,0.125,0.298,0.406,0.169,0.627
			l-2.17,3.763C34.414,46.404,34.262,46.49,34.101,46.49z"/>
		<path style="fill-rule:evenodd;clip-rule:evenodd;fill:#0083C7;" d="M36.317,45.261c-0.077,0-0.156-0.021-0.23-0.063l-2.171-1.254
			c-0.222-0.129-0.297-0.408-0.168-0.63c0.125-0.219,0.406-0.29,0.626-0.169l2.174,1.257c0.219,0.126,0.293,0.407,0.168,0.628
			C36.632,45.177,36.479,45.261,36.317,45.261z"/>
	</g>
</g>
<g id="Layer_1">
</g>
</svg>
