<?xml version="1.0" encoding="iso-8859-1"?>
<!-- Generator: Adobe Illustrator 26.0.3, SVG Export Plug-In . SVG Version: 6.00 Build 0)  -->
<svg version="1.1" xmlns="http://www.w3.org/2000/svg" xmlns:xlink="http://www.w3.org/1999/xlink" x="0px" y="0px"
	 viewBox="0 0 80 80" style="enable-background:new 0 0 80 80;" xml:space="preserve">
<g id="business_x5F_process33">
	<g>
		<path style="fill-rule:evenodd;clip-rule:evenodd;fill:#5DC5EA;" d="M22.176,48.407l-4.1-2.369c0.97,0,1.915-0.439,2.615-1.101
			c0.753-0.763,1.298-1.745,1.5-2.804c0.189-1.241-0.09-3.808-0.18-5.151c-0.129-2.005-0.298-3.999-0.494-5.996
			c-0.125-1.218,0.138-1.943,0.789-2.973c0.52-0.776,1.096-1.391,1.836-1.959c1.32-0.992,2.656-1.954,4.012-2.898
			c1.088-0.757,2.19-1.497,3.302-2.225c0.619-0.408,1.266-0.79,2.006-0.423l4.104,2.369c-0.513-0.255-0.937-0.148-1.437,0.075
			c-0.862,0.462-1.869,1.202-2.695,1.762c-1.19,0.814-2.366,1.641-3.537,2.491c-0.818,0.595-1.719,1.203-2.445,1.908
			c-0.736,0.743-1.304,1.533-1.668,2.518c-0.418,1.281-0.004,3.331,0.11,4.71c0.136,1.676,0.25,3.353,0.34,5.033l0.019,0.341
			c0.051,0.983,0.199,2.134-0.023,3.098c-0.279,1.034-0.858,1.998-1.669,2.706C23.895,48.054,23.042,48.407,22.176,48.407z"/>
		<path style="fill-rule:evenodd;clip-rule:evenodd;fill:#0083C7;" d="M19.391,46.264l2.906,1.681
			c0.677-0.032,1.391-0.313,1.975-0.784c0.708-0.623,1.253-1.503,1.515-2.472c0.157-0.688,0.102-1.53,0.047-2.341L25.775,41.4
			c-0.09-1.677-0.204-3.353-0.34-5.026c-0.028-0.31-0.071-0.654-0.11-1.015c-0.157-1.304-0.334-2.786,0.019-3.87
			c0.361-0.984,0.925-1.833,1.779-2.703c0.623-0.607,1.347-1.128,2.049-1.629l0.454-0.325c1.175-0.853,2.355-1.684,3.549-2.498
			l0.6-0.413c0.677-0.473,1.452-1.009,2.137-1.374c0.031-0.015,0.06-0.026,0.094-0.043l-2.777-1.598
			c-0.435-0.215-0.839-0.038-1.527,0.409c-1.106,0.728-2.201,1.463-3.286,2.22c-1.328,0.921-2.672,1.893-4,2.886
			c-0.694,0.532-1.226,1.106-1.728,1.849c-0.571,0.901-0.826,1.536-0.712,2.667c0.196,2.002,0.364,4.024,0.493,6.014
			c0.019,0.285,0.046,0.619,0.075,0.986c0.113,1.442,0.259,3.235,0.102,4.266c-0.216,1.132-0.792,2.208-1.63,3.059
			C20.535,45.716,19.979,46.061,19.391,46.264L19.391,46.264z M22.176,48.869c-0.078,0-0.157-0.023-0.228-0.063l-4.105-2.369
			c-0.18-0.102-0.27-0.318-0.215-0.518c0.054-0.199,0.238-0.34,0.447-0.34c0.806,0,1.644-0.356,2.298-0.974
			c0.698-0.71,1.187-1.623,1.365-2.558c0.136-0.908-0.005-2.715-0.109-4.035c-0.028-0.372-0.06-0.712-0.075-1.003
			c-0.134-1.978-0.298-3.991-0.494-5.978c-0.141-1.385,0.192-2.216,0.857-3.266c0.56-0.83,1.175-1.488,1.943-2.08
			c1.343-0.998,2.695-1.978,4.03-2.907c1.094-0.76,2.194-1.503,3.31-2.232c0.58-0.38,1.458-0.951,2.464-0.451l4.132,2.383
			c0.216,0.125,0.29,0.395,0.172,0.614c-0.113,0.219-0.384,0.305-0.607,0.195c-0.312-0.153-0.562-0.132-1.042,0.084
			c-0.615,0.328-1.363,0.85-2.02,1.307l-0.608,0.415c-1.186,0.812-2.358,1.638-3.525,2.484l-0.459,0.328
			c-0.673,0.481-1.37,0.983-1.935,1.536c-0.752,0.763-1.25,1.512-1.56,2.35c-0.285,0.877-0.121,2.248,0.024,3.459
			c0.043,0.376,0.087,0.728,0.114,1.05c0.138,1.679,0.251,3.36,0.346,5.048l0.054,0.937c0.059,0.838,0.121,1.791-0.075,2.628
			c-0.31,1.156-0.952,2.201-1.813,2.954C24.072,48.509,23.097,48.869,22.176,48.869z"/>
		<path style="fill-rule:evenodd;clip-rule:evenodd;fill:#5DC5EA;" d="M38.368,32.963l-4.1-2.371
			c3.85,2.017,10.122-6.35,7.556-10.998c-0.725-1.316-0.596-2.452,0.05-3.757l4.105,2.37c-2.001,4.067,2.766,4.184-0.681,10.561
			C44.09,31,41.005,34.342,38.368,32.963z"/>
		<path style="fill-rule:evenodd;clip-rule:evenodd;fill:#0083C7;" d="M38.592,32.559c2.201,1.136,5.061-1.716,6.302-4.01
			c1.834-3.393,1.238-4.842,0.666-6.24c-0.442-1.073-0.893-2.178-0.172-3.913l-3.302-1.904c-0.431,1.07-0.38,1.935,0.144,2.879
			c1.662,3.016-0.07,7.324-2.537,9.846c-1.094,1.117-2.249,1.814-3.334,2.05L38.592,32.559L38.592,32.559z M39.657,33.738
			c-0.505,0-1.01-0.114-1.499-0.369l-0.017-0.012l-4.104-2.369c-0.22-0.125-0.294-0.399-0.172-0.618
			c0.117-0.22,0.391-0.302,0.613-0.184c1.23,0.646,2.934,0.042,4.556-1.61c2.269-2.32,3.784-6.229,2.387-8.759
			c-0.74-1.34-0.725-2.628,0.043-4.184c0.054-0.117,0.156-0.199,0.277-0.238c0.12-0.036,0.254-0.02,0.364,0.042l4.105,2.371
			c0.207,0.121,0.289,0.384,0.184,0.604c-0.788,1.589-0.43,2.456,0.015,3.548c0.627,1.524,1.335,3.252-0.704,7.027
			C44.502,31.211,42.043,33.738,39.657,33.738z"/>
		<path style="fill-rule:evenodd;clip-rule:evenodd;fill:#C5E6F4;" d="M45.979,18.207l-4.105-2.37
			c0.823-1.543,1.45-1.829,2.954-2.581c1.207-0.599,2.416-1.179,3.643-1.743c1.116-0.514,2.245-1.011,3.376-1.497
			c0.756-0.321,1.415-0.549,2.221-0.25l4.102,2.371c-0.443-0.166-0.689-0.162-1.152-0.103c-0.591,0.126-1.038,0.341-1.587,0.576
			c-1.307,0.565-2.604,1.152-3.897,1.759c-1.226,0.576-2.437,1.167-3.64,1.782c-0.149,0.078-0.277,0.157-0.42,0.251
			C46.794,16.903,46.374,17.463,45.979,18.207z"/>
		<path style="fill-rule:evenodd;clip-rule:evenodd;fill:#0083C7;" d="M42.501,15.665l3.309,1.912
			c0.396-0.658,0.819-1.124,1.395-1.547c0.168-0.115,0.306-0.201,0.466-0.287c1.226-0.619,2.437-1.214,3.666-1.794
			c1.296-0.606,2.598-1.194,3.909-1.763l0.208-0.09c0.337-0.148,0.667-0.286,1.03-0.4l-2.647-1.532
			c-0.58-0.207-1.121-0.018-1.81,0.275c-1.128,0.481-2.252,0.979-3.369,1.491c-1.218,0.56-2.42,1.14-3.623,1.736
			C43.688,14.341,43.132,14.619,42.501,15.665L42.501,15.665z M45.979,18.665c-0.077,0-0.16-0.019-0.23-0.058l-4.102-2.37
			c-0.22-0.126-0.294-0.4-0.177-0.616c0.869-1.637,1.598-2.001,3.051-2.726c1.313-0.654,2.527-1.234,3.752-1.802
			c1.124-0.518,2.252-1.014,3.393-1.5c0.798-0.337,1.59-0.616,2.557-0.259l4.175,2.405c0.208,0.118,0.29,0.376,0.189,0.592
			c-0.102,0.216-0.352,0.318-0.576,0.234c-0.345-0.125-0.513-0.128-0.941-0.074c-0.429,0.094-0.81,0.258-1.252,0.451l-0.208,0.09
			c-1.301,0.564-2.594,1.148-3.882,1.751c-1.218,0.572-2.429,1.167-3.628,1.774c-0.125,0.071-0.243,0.141-0.372,0.223
			c-0.549,0.408-0.94,0.886-1.344,1.641c-0.059,0.111-0.16,0.192-0.281,0.228C46.065,18.662,46.022,18.665,45.979,18.665z"/>
		<path style="fill-rule:evenodd;clip-rule:evenodd;fill:#C5E6F4;" d="M58.431,26.366l-4.109-2.37
			c1.011,0.538,2.054-0.281,2.708-1.003c1.155-1.391,1.779-2.302,3.478-3.133c0.928-0.4,1.766-0.577,2.726-0.169l4.105,2.37
			c-1.049-0.442-1.99-0.195-2.973,0.286c-0.802,0.443-1.374,0.896-2.017,1.547c-0.646,0.686-1.109,1.467-1.828,2.065
			C59.9,26.417,59.171,26.762,58.431,26.366z"/>
		<path style="fill-rule:evenodd;clip-rule:evenodd;fill:#0083C7;" d="M58.651,25.966c0.442,0.228,0.932,0.111,1.59-0.379
			c0.388-0.322,0.71-0.725,1.05-1.151c0.23-0.286,0.463-0.581,0.724-0.855c0.717-0.728,1.332-1.198,2.131-1.637
			c0.388-0.189,0.803-0.369,1.25-0.474l-2.394-1.38c-0.783-0.328-1.491-0.164-2.314,0.193c-1.401,0.685-2.013,1.429-2.937,2.557
			l-0.369,0.447c-0.474,0.53-0.955,0.902-1.43,1.121L58.651,25.966L58.651,25.966z M59.105,27c-0.285,0-0.584-0.062-0.893-0.227
			c-0.003-0.004-0.007-0.004-0.011-0.009l-4.106-2.37c-0.219-0.125-0.294-0.403-0.171-0.622c0.12-0.22,0.398-0.298,0.619-0.184
			c0.775,0.42,1.676-0.388,2.146-0.905l0.348-0.427c0.968-1.176,1.665-2.025,3.267-2.813c0.874-0.376,1.912-0.685,3.11-0.18
			l4.156,2.397c0.209,0.122,0.29,0.388,0.181,0.603c-0.11,0.22-0.369,0.318-0.592,0.22c-0.767-0.325-1.523-0.247-2.588,0.277
			c-0.706,0.384-1.242,0.799-1.893,1.458c-0.235,0.25-0.451,0.52-0.666,0.791c-0.357,0.442-0.72,0.905-1.198,1.3
			C60.542,26.515,59.888,27,59.105,27z"/>
		<path style="fill-rule:evenodd;clip-rule:evenodd;fill:#5DC5EA;" d="M47.453,59.285l-4.102-2.369
			c-0.556-0.369-0.689-0.905-0.701-1.54c0.055-1.23,0.662-2.353,0.729-3.841c0.035-1.336-0.189-2.676-1.399-3.444l4.105,2.37
			c0.513,0.325,0.756,0.631,1.027,1.167c0.498,1.167,0.438,2.464,0.207,3.685c-0.231,1.101-0.794,2.08-0.447,3.228
			C47.009,58.881,47.146,59.081,47.453,59.285z"/>
		<path style="fill-rule:evenodd;clip-rule:evenodd;fill:#0083C7;" d="M43.621,49.57c0.211,0.682,0.235,1.387,0.219,1.975
			c-0.038,0.835-0.234,1.563-0.407,2.209c-0.153,0.568-0.301,1.105-0.322,1.642c0.012,0.591,0.146,0.904,0.49,1.135l2.717,1.567
			c-0.074-0.736,0.123-1.392,0.319-2.026c0.086-0.278,0.171-0.559,0.231-0.853c0.266-1.41,0.208-2.499-0.181-3.412
			c-0.234-0.466-0.438-0.697-0.849-0.959L43.621,49.57L43.621,49.57z M47.453,59.747c-0.079,0-0.157-0.023-0.229-0.063l-4.104-2.369
			c-0.808-0.533-0.917-1.312-0.933-1.931c0.032-0.665,0.189-1.25,0.357-1.869c0.169-0.627,0.346-1.277,0.376-2.005
			c0.039-1.548-0.324-2.484-1.182-3.029c-0.216-0.133-0.279-0.415-0.149-0.631c0.129-0.21,0.403-0.282,0.623-0.16l4.104,2.374
			c0.647,0.408,0.928,0.803,1.211,1.355c0.474,1.116,0.548,2.375,0.247,3.98c-0.07,0.328-0.165,0.638-0.255,0.94
			c-0.223,0.736-0.416,1.371-0.204,2.068c0.098,0.243,0.184,0.358,0.391,0.493c0.208,0.138,0.271,0.416,0.137,0.628
			C47.758,59.669,47.604,59.747,47.453,59.747z"/>
		<path style="fill-rule:evenodd;clip-rule:evenodd;fill:#5DC5EA;" d="M26.128,70.131l-4.1-2.373
			c-0.937-0.761-0.42-2.802-0.321-3.937c0.144-1.684,0.266-3.373,0.363-5.065c0.072-1.202,0.616-4.246-0.501-4.962l4.105,2.368
			c0.418,0.271,0.552,0.596,0.643,1.073l0.015,0.177c0.039,0.745-0.043,1.626-0.081,2.378c-0.1,1.912-0.228,3.815-0.385,5.722
			C25.772,66.687,25.16,69.339,26.128,70.131z"/>
		<path style="fill-rule:evenodd;clip-rule:evenodd;fill:#0083C7;" d="M22.649,54.948c0.157,0.96,0.043,2.135-0.055,3.106
			c-0.027,0.282-0.054,0.529-0.062,0.73c-0.102,1.694-0.223,3.384-0.369,5.075c-0.019,0.221-0.051,0.472-0.09,0.737
			c-0.133,0.995-0.318,2.35,0.243,2.804l2.852,1.645c-0.109-0.878,0.031-1.924,0.144-2.785c0.04-0.297,0.079-0.571,0.094-0.787
			c0.157-1.928,0.286-3.851,0.384-5.711l0.031-0.584c0.04-0.595,0.078-1.214,0.055-1.742l-0.02-0.147
			c-0.079-0.403-0.177-0.575-0.436-0.743L22.649,54.948L22.649,54.948z M26.128,70.589c-0.078,0-0.156-0.019-0.228-0.063
			l-4.105-2.37c-1.022-0.823-0.806-2.408-0.634-3.682c0.036-0.255,0.067-0.489,0.087-0.694c0.144-1.679,0.266-3.364,0.363-5.052
			c0.012-0.208,0.04-0.471,0.067-0.764c0.106-1.085,0.33-3.341-0.357-3.784c-0.211-0.137-0.274-0.415-0.145-0.627
			c0.133-0.216,0.408-0.282,0.623-0.16l4.105,2.37c0.572,0.372,0.755,0.822,0.862,1.391l0.024,0.204
			c0.031,0.614-0.008,1.257-0.047,1.876l-0.036,0.58c-0.097,1.868-0.223,3.799-0.384,5.734c-0.016,0.232-0.055,0.517-0.099,0.833
			c-0.144,1.09-0.391,2.915,0.196,3.389c0.184,0.153,0.223,0.423,0.087,0.619C26.421,70.518,26.276,70.589,26.128,70.589z"/>
		<path style="fill-rule:evenodd;clip-rule:evenodd;fill:#C5E6F4;" d="M16.433,60.35l-4.1-2.37c-0.76-0.572-1.035-1.269-1.191-2.186
			c-0.156-1.355,0.075-2.507,0.525-3.78c0.682-1.759,1.61-3.189,3.012-4.458c0.768-0.65,1.516-1.14,2.483-1.406
			c0.917-0.216,1.344-0.023,2.335-0.423c0.764-0.329,1.226-0.749,1.723-1.407l4.106,2.371c-0.409,0.536-0.791,0.917-1.379,1.245
			l-0.13,0.066c-1.245,0.568-2.029,0.247-3.251,0.76c-1.454,0.659-2.54,1.767-3.451,3.048c-1.085,1.614-1.794,3.302-1.915,5.253
			C15.168,58.324,15.372,59.55,16.433,60.35z"/>
		<path style="fill-rule:evenodd;clip-rule:evenodd;fill:#0083C7;" d="M21.334,44.917c-0.424,0.501-0.901,0.908-1.653,1.234
			c-0.666,0.27-1.112,0.302-1.543,0.328c-0.262,0.02-0.528,0.04-0.869,0.118c-0.776,0.211-1.445,0.595-2.291,1.311
			c-1.284,1.163-2.206,2.522-2.883,4.275c-0.486,1.37-0.63,2.404-0.494,3.556c0.133,0.778,0.349,1.375,1.008,1.875l2.341,1.348
			c-0.195-0.646-0.222-1.316-0.21-1.907c0.121-1.915,0.754-3.659,1.997-5.5c1.125-1.578,2.28-2.597,3.639-3.212
			c0.667-0.279,1.196-0.337,1.708-0.392c0.498-0.055,0.968-0.105,1.543-0.369l0.109-0.058c0.337-0.187,0.613-0.403,0.89-0.709
			L21.334,44.917L21.334,44.917z M16.433,60.812c-0.078,0-0.152-0.019-0.227-0.063l-4.106-2.37c-0.998-0.752-1.265-1.649-1.413-2.51
			c-0.153-1.305,0.011-2.499,0.544-4.007c0.736-1.9,1.731-3.373,3.138-4.646c0.682-0.576,1.52-1.195,2.672-1.512
			c0.422-0.098,0.743-0.121,1.029-0.141c0.392-0.028,0.729-0.051,1.254-0.262c0.631-0.274,1.035-0.604,1.527-1.257
			c0.141-0.184,0.4-0.235,0.596-0.121l4.105,2.369c0.114,0.066,0.196,0.177,0.223,0.306c0.024,0.129-0.003,0.262-0.087,0.369
			c-0.477,0.643-0.92,1.042-1.52,1.374l-0.144,0.071c-0.728,0.336-1.296,0.395-1.84,0.453c-0.472,0.051-0.914,0.103-1.443,0.322
			c-1.194,0.544-2.232,1.464-3.251,2.894c-1.14,1.688-1.723,3.286-1.833,5.014c-0.032,1.438,0.286,2.307,1.052,2.887
			c0.196,0.148,0.244,0.419,0.111,0.623C16.731,60.737,16.586,60.812,16.433,60.812z"/>
		<path style="fill-rule:evenodd;clip-rule:evenodd;fill:#FFFFFF;" d="M28.247,28.422c2.516-1.884,5.03-3.643,7.544-5.277
			c0.913-0.595,1.728-0.552,2.174,0.109c0.447,0.662,0.4,1.759-0.129,2.927c-0.544,1.214-0.866,2.499-0.866,3.679
			c0,3.054,2.139,4.291,4.782,2.765c2.648-1.524,4.791-5.242,4.791-8.292c0-0.914-0.192-1.666-0.538-2.23
			c-0.215-0.361-0.395-0.796-0.508-1.28c-0.172-0.749-0.008-1.665,0.481-2.618c0.487-0.952,1.161-1.673,1.915-2.056
			c2.77-1.413,5.547-2.698,8.317-3.878c1.448-0.61,2.894-0.266,2.659,1.536c-0.481,3.694-0.845,7.322-1.069,10.866
			c-0.071,1.093,0.36,1.789,1.151,1.861c0.792,0.069,1.716-0.506,2.471-1.536c0.768-1.046,1.696-1.94,2.696-2.515
			c2.644-1.528,4.791-0.29,4.791,2.761c0,3.056-2.147,6.765-4.791,8.293c-0.791,0.457-1.54,0.665-2.198,0.653
			c-0.572-0.012-1.183,0.15-1.802,0.47c-0.685,0.352-1.289,0.971-1.766,1.81c-0.482,0.841-0.714,1.672-0.671,2.435
			c0.201,3.6,0.584,7.09,1.187,10.463c0.267,1.503-1.218,3.486-2.659,4.602c-2.296,1.778-4.607,3.451-6.934,5.017
			c-0.865,0.584-1.644,0.601-2.123,0.04c-0.48-0.556-0.529-1.527-0.129-2.648c0.337-0.935,0.466-1.923,0.466-2.825
			c0-3.051-2.145-4.288-4.79-2.761c-2.645,1.523-4.787,5.241-4.787,8.292c0,0.914,0.195,1.668,0.537,2.23
			c0.024,0.043,0.048,0.085,0.07,0.125c0.365,0.677,0.301,1.68-0.18,2.769c-0.478,1.085-1.233,1.947-2.084,2.365
			c-2.651,1.313-5.323,2.492-8.01,3.541c-1.446,0.565-2.837,0.243-2.659-1.535c0.364-3.659,0.611-7.255,0.751-10.791
			c0.043-1.066-0.399-1.732-1.19-1.778c-0.791-0.052-1.704,0.525-2.449,1.55c-0.772,1.066-1.712,1.966-2.722,2.551
			c-2.644,1.527-4.787,0.289-4.787-2.762c0-3.056,2.143-6.765,4.787-8.292c0.791-0.459,1.538-0.667,2.197-0.655
			c0.505,0.012,1.069-0.136,1.641-0.403c0.689-0.325,1.313-0.937,1.815-1.778c0.501-0.847,0.748-1.689,0.715-2.472
			c-0.144-3.639-0.402-7.215-0.759-10.727C25.428,31.439,26.801,29.504,28.247,28.422z"/>
		<path style="fill-rule:evenodd;clip-rule:evenodd;fill:#0083C7;" d="M28.247,28.422h0.008H28.247L28.247,28.422z M25.05,55.547
			c0.043,0,0.087,0.004,0.126,0.004c1.055,0.066,1.68,0.932,1.625,2.26c-0.141,3.561-0.395,7.199-0.754,10.819
			c-0.052,0.529,0.054,0.896,0.309,1.094c0.345,0.258,1.003,0.246,1.723-0.036c2.672-1.042,5.355-2.23,7.974-3.526
			c0.752-0.369,1.431-1.147,1.869-2.134c0.412-0.94,0.487-1.825,0.196-2.362c0-0.004-0.063-0.106-0.063-0.106
			c-0.399-0.661-0.599-1.488-0.599-2.471c0-3.195,2.249-7.094,5.019-8.692c1.425-0.821,2.788-0.944,3.841-0.333
			c1.054,0.607,1.633,1.849,1.633,3.494c0,1.055-0.168,2.08-0.49,2.978c-0.34,0.952-0.325,1.774,0.04,2.198
			c0.426,0.492,1.139,0.135,1.519-0.121c2.32-1.56,4.642-3.244,6.914-5.002c1.371-1.066,2.711-2.884,2.484-4.161
			c-0.589-3.313-0.992-6.85-1.192-10.513c-0.047-0.862,0.196-1.766,0.725-2.69c0.533-0.925,1.187-1.594,1.955-1.99
			c0.693-0.364,1.37-0.52,2.028-0.525c0.568,0.015,1.265-0.192,1.959-0.592c2.51-1.449,4.556-4.99,4.556-7.893
			c0-1.304-0.418-2.263-1.172-2.699c-0.755-0.435-1.798-0.317-2.926,0.334c-0.914,0.529-1.798,1.355-2.558,2.393
			c-0.85,1.16-1.923,1.806-2.879,1.719c-1.058-0.094-1.661-0.994-1.575-2.35c0.223-3.45,0.584-7.118,1.073-10.893
			c0.048-0.369,0.036-0.862-0.289-1.109c-0.352-0.27-1.015-0.247-1.731,0.055c-2.805,1.191-5.594,2.491-8.289,3.862
			c-0.662,0.341-1.273,0.998-1.712,1.857c-0.435,0.846-0.592,1.665-0.447,2.307c0.097,0.412,0.255,0.812,0.459,1.145
			c0.399,0.658,0.603,1.493,0.603,2.468c0,3.195-2.252,7.093-5.022,8.692c-1.425,0.822-2.788,0.943-3.842,0.331
			c-1.054-0.607-1.632-1.848-1.632-3.496c0-1.211,0.313-2.551,0.908-3.867c0.454-1.006,0.517-1.958,0.168-2.482
			c-0.4-0.592-1.139-0.244-1.543,0.02c-2.522,1.64-5.052,3.411-7.52,5.26l0,0c-1.308,0.979-2.621,2.777-2.474,4.186
			c0.363,3.565,0.619,7.181,0.76,10.758c0.035,0.869-0.235,1.809-0.78,2.725c-0.549,0.917-1.241,1.594-2.013,1.959
			c-0.647,0.306-1.304,0.435-1.846,0.451c-0.591-0.016-1.264,0.192-1.958,0.591c-2.511,1.449-4.556,4.99-4.556,7.893
			c0,1.305,0.415,2.264,1.172,2.699c0.755,0.439,1.791,0.318,2.926-0.337c0.92-0.528,1.814-1.366,2.573-2.42
			C23.139,56.178,24.126,55.547,25.05,55.547L25.05,55.547z M27.037,70.832c-0.482,0-0.909-0.126-1.238-0.373
			c-0.364-0.278-0.776-0.834-0.67-1.918c0.356-3.6,0.607-7.222,0.752-10.763c0.015-0.47-0.055-1.262-0.764-1.305
			c-0.631-0.051-1.407,0.481-2.045,1.363c-0.841,1.155-1.829,2.084-2.863,2.68c-1.425,0.822-2.793,0.943-3.847,0.337
			c-1.049-0.608-1.629-1.849-1.629-3.499c0-3.197,2.248-7.093,5.018-8.691c0.847-0.49,1.61-0.713,2.437-0.713
			c0.388,0.015,0.913-0.118,1.429-0.365c0.608-0.285,1.164-0.837,1.618-1.593c0.454-0.764,0.678-1.532,0.65-2.221
			c-0.141-3.556-0.395-7.153-0.755-10.698c-0.177-1.766,1.292-3.861,2.84-5.021l0,0c2.483-1.857,5.029-3.64,7.571-5.292
			c1.132-0.737,2.209-0.647,2.805,0.243c0.541,0.794,0.504,2.056-0.087,3.369c-0.544,1.202-0.83,2.408-0.83,3.49
			c0,1.307,0.415,2.268,1.171,2.702c0.757,0.435,1.798,0.317,2.927-0.337c2.51-1.449,4.559-4.99,4.559-7.892
			c0-0.796-0.164-1.485-0.469-1.991c-0.259-0.422-0.447-0.9-0.565-1.413c-0.204-0.865-0.024-1.881,0.517-2.934
			c0.538-1.046,1.269-1.824,2.116-2.256c2.718-1.383,5.522-2.691,8.346-3.89c1.042-0.439,2.029-0.415,2.652,0.06
			c0.372,0.282,0.788,0.853,0.642,1.962c-0.489,3.752-0.845,7.4-1.066,10.831c-0.031,0.489,0.024,1.313,0.734,1.375
			c0.61,0.05,1.409-0.463,2.059-1.348c0.835-1.139,1.815-2.052,2.84-2.644c1.425-0.826,2.793-0.944,3.844-0.336
			c1.054,0.607,1.632,1.848,1.632,3.497c0,3.196-2.252,7.094-5.017,8.693c-0.847,0.489-1.692,0.708-2.437,0.715
			c-0.517-0.018-1.03,0.129-1.581,0.416c-0.599,0.309-1.149,0.877-1.579,1.634c-0.442,0.767-0.646,1.5-0.611,2.182
			c0.2,3.623,0.599,7.125,1.179,10.402c0.309,1.725-1.25,3.824-2.828,5.05c-2.288,1.77-4.626,3.466-6.957,5.033
			c-1.069,0.722-2.092,0.706-2.735-0.039c-0.591-0.685-0.67-1.822-0.207-3.107c0.286-0.798,0.435-1.719,0.435-2.667
			c0-1.304-0.415-2.26-1.171-2.698c-0.76-0.435-1.795-0.318-2.927,0.337c-2.51,1.449-4.555,4.99-4.555,7.892
			c0,0.799,0.159,1.489,0.466,1.99l0.074,0.133c0.442,0.81,0.385,1.97-0.152,3.184c-0.522,1.183-1.359,2.131-2.3,2.593
			c-2.648,1.307-5.355,2.503-8.054,3.561C27.926,70.738,27.46,70.832,27.037,70.832z"/>
		<path style="fill-rule:evenodd;clip-rule:evenodd;fill:#5DC5EA;" d="M55.396,54.603c-2.029,1.544-4.066,3.006-6.119,4.387
			c-0.865,0.584-1.644,0.601-2.123,0.04c-0.48-0.556-0.529-1.527-0.129-2.648c0.337-0.935,0.466-1.923,0.466-2.825
			c0-3.051-2.145-4.288-4.79-2.761c-2.645,1.523-4.787,5.241-4.787,8.292c0,0.914,0.195,1.668,0.537,2.23
			c0.024,0.043,0.048,0.085,0.07,0.125c0.365,0.677,0.301,1.68-0.18,2.769c-0.478,1.085-1.233,1.947-2.084,2.365
			c-2.651,1.313-5.323,2.492-8.01,3.541c-1.446,0.565-2.837,0.243-2.659-1.535c0.364-3.659,0.611-7.255,0.751-10.791
			c0.043-1.066-0.399-1.732-1.19-1.778c-0.791-0.052-1.704,0.525-2.449,1.55c-0.772,1.066-1.712,1.966-2.722,2.551
			c-2.644,1.527-4.787,0.289-4.787-2.762c0-3.056,2.143-6.765,4.787-8.292c0.791-0.459,1.538-0.67,2.197-0.655
			c0.505,0.012,1.069-0.136,1.637-0.403c0.694-0.325,1.317-0.937,1.819-1.778c0.501-0.847,0.748-1.689,0.715-2.472
			c-0.018-0.462-0.039-0.916-0.059-1.371C40.735,34.948,52.591,40.263,55.396,54.603z"/>
		<path style="fill-rule:evenodd;clip-rule:evenodd;fill:#0083C7;" d="M25.05,55.547c0.043,0,0.087,0.004,0.126,0.004
			c1.055,0.066,1.68,0.932,1.625,2.26c-0.141,3.561-0.395,7.199-0.754,10.819c-0.052,0.529,0.054,0.896,0.309,1.094
			c0.345,0.258,1.003,0.246,1.723-0.036c2.672-1.042,5.355-2.23,7.974-3.526c0.752-0.369,1.431-1.147,1.869-2.134
			c0.412-0.94,0.487-1.825,0.196-2.362c0-0.004-0.063-0.109-0.063-0.109c-0.399-0.658-0.599-1.488-0.599-2.468
			c0-3.195,2.249-7.094,5.019-8.692c1.425-0.821,2.788-0.944,3.841-0.333c1.054,0.607,1.633,1.849,1.633,3.494
			c0,1.055-0.168,2.08-0.49,2.978c-0.34,0.952-0.325,1.774,0.04,2.198c0.426,0.492,1.139,0.135,1.519-0.121
			c1.966-1.325,3.937-2.735,5.868-4.199c-1.328-6.468-4.521-11.094-9.236-13.381c-5.163-2.499-11.86-1.924-18.892,1.625l0.048,1.079
			c0.035,0.869-0.235,1.809-0.78,2.725c-0.549,0.917-1.241,1.594-2.013,1.959c-0.647,0.306-1.332,0.439-1.846,0.451
			c-0.614-0.023-1.264,0.192-1.958,0.591c-2.511,1.449-4.556,4.99-4.556,7.893c0,1.305,0.415,2.264,1.172,2.699
			c0.755,0.439,1.791,0.318,2.926-0.337c0.92-0.532,1.814-1.371,2.573-2.42C23.139,56.178,24.126,55.547,25.05,55.547L25.05,55.547z
			 M27.037,70.832c-0.482,0-0.909-0.126-1.238-0.373c-0.364-0.278-0.776-0.834-0.67-1.918c0.356-3.604,0.607-7.222,0.752-10.763
			c0.015-0.47-0.055-1.262-0.764-1.305c-0.631-0.051-1.407,0.481-2.045,1.363c-0.838,1.155-1.829,2.084-2.863,2.68
			c-1.43,0.826-2.793,0.943-3.847,0.337c-1.049-0.608-1.629-1.849-1.629-3.499c0-3.197,2.248-7.093,5.018-8.691
			c0.85-0.49,1.649-0.717,2.437-0.713c0.015,0,0.023,0,0.039,0c0.408,0,0.889-0.126,1.39-0.365c0.608-0.285,1.169-0.837,1.618-1.593
			c0.454-0.764,0.678-1.532,0.65-2.221l-0.058-1.368c-0.008-0.18,0.09-0.348,0.251-0.43c7.387-3.799,14.48-4.43,19.971-1.767
			c5.056,2.452,8.446,7.399,9.797,14.309c0.031,0.173-0.035,0.349-0.172,0.455c-2.016,1.535-4.081,3.019-6.137,4.402
			c-1.069,0.722-2.092,0.706-2.735-0.039c-0.591-0.685-0.67-1.822-0.207-3.107c0.286-0.798,0.435-1.719,0.435-2.667
			c0-1.304-0.415-2.26-1.171-2.698c-0.76-0.435-1.795-0.318-2.927,0.337c-2.51,1.449-4.555,4.99-4.555,7.892
			c0,0.799,0.159,1.489,0.466,1.99l0.074,0.133c0.442,0.815,0.385,1.97-0.152,3.188c-0.522,1.179-1.359,2.128-2.3,2.589
			c-2.648,1.307-5.355,2.503-8.054,3.561C27.926,70.738,27.46,70.832,27.037,70.832z"/>
		<path style="fill-rule:evenodd;clip-rule:evenodd;fill:#C5E6F4;" d="M43.288,31.451c1.893-1.83,3.255-4.686,3.255-7.117
			c0-0.914-0.192-1.666-0.538-2.23c-0.215-0.361-0.395-0.796-0.508-1.28c-0.172-0.749-0.008-1.665,0.481-2.618
			c0.487-0.952,1.161-1.673,1.915-2.056c2.77-1.413,5.547-2.698,8.317-3.878c1.448-0.61,2.894-0.266,2.659,1.536
			c-0.481,3.694-0.845,7.322-1.069,10.866c-0.071,1.093,0.36,1.789,1.151,1.861c0.792,0.069,1.716-0.506,2.471-1.536
			c0.768-1.046,1.696-1.94,2.696-2.515c2.142-1.238,3.956-0.663,4.567,1.226c-2.107,1.763-4.297,3.318-6.549,4.619
			C54.984,32.458,48.424,33.335,43.288,31.451z"/>
		<path style="fill-rule:evenodd;clip-rule:evenodd;fill:#0083C7;" d="M44.122,31.246c5.062,1.567,11.34,0.403,17.784-3.317
			c2.095-1.211,4.192-2.676,6.233-4.364c-0.244-0.56-0.628-0.952-1.121-1.144c-0.725-0.279-1.672-0.114-2.667,0.459
			c-0.914,0.529-1.798,1.355-2.558,2.393c-0.85,1.16-1.923,1.806-2.879,1.719c-1.058-0.094-1.661-0.994-1.575-2.35
			c0.223-3.45,0.584-7.118,1.073-10.893c0.048-0.369,0.036-0.862-0.289-1.109c-0.352-0.27-1.015-0.247-1.731,0.055
			c-2.813,1.194-5.597,2.495-8.289,3.862c-0.662,0.341-1.273,0.998-1.712,1.861c-0.435,0.842-0.592,1.66-0.447,2.302
			c0.097,0.412,0.255,0.807,0.459,1.145c0.399,0.658,0.603,1.493,0.603,2.468C47.005,26.609,45.866,29.299,44.122,31.246
			L44.122,31.246z M48.796,32.845c-2.005,0-3.91-0.318-5.664-0.964c-0.15-0.055-0.259-0.18-0.295-0.336
			c-0.031-0.154,0.016-0.319,0.133-0.424c1.86-1.805,3.114-4.532,3.114-6.787c0-0.796-0.164-1.485-0.469-1.991
			c-0.259-0.427-0.447-0.9-0.565-1.413c-0.204-0.865-0.024-1.881,0.517-2.934c0.538-1.046,1.269-1.824,2.116-2.256
			c2.71-1.379,5.515-2.687,8.346-3.89c1.042-0.439,2.029-0.415,2.652,0.06c0.372,0.282,0.788,0.853,0.642,1.962
			c-0.489,3.752-0.845,7.4-1.066,10.831c-0.031,0.489,0.024,1.313,0.734,1.375c0.61,0.05,1.409-0.463,2.059-1.348
			c0.835-1.139,1.815-2.052,2.84-2.644c1.238-0.716,2.464-0.901,3.456-0.52c0.841,0.324,1.457,1.018,1.778,2.001
			c0.059,0.18,0,0.376-0.141,0.497c-2.161,1.806-4.387,3.376-6.62,4.665C57.648,31.451,52.995,32.845,48.796,32.845z"/>
		<path style="fill-rule:evenodd;clip-rule:evenodd;fill:#C5E6F4;" d="M21.732,29.115c0.709-1.887,2.264-2.969,3.824-4.108
			c1.707-1.245,3.431-2.445,5.19-3.612c0.772-0.509,1.75-1.367,2.715-0.889l4.104,2.369c-0.454-0.228-0.806-0.168-1.272,0
			c-0.58,0.262-1.144,0.69-1.68,1.045c-1.113,0.741-2.21,1.497-3.303,2.265c-1.097,0.784-2.287,1.601-3.333,2.448
			c-0.577,0.49-1.027,0.98-1.464,1.599c-0.279,0.412-0.483,0.775-0.671,1.241l-0.007,0.012L21.732,29.115z"/>
		<path style="fill-rule:evenodd;clip-rule:evenodd;fill:#0083C7;" d="M22.317,28.92l3.309,1.915
			c0.146-0.289,0.302-0.565,0.502-0.862c0.47-0.657,0.944-1.175,1.551-1.692c0.884-0.713,1.852-1.398,2.793-2.064l0.571-0.403
			c1.101-0.776,2.197-1.536,3.315-2.276l0.357-0.243c0.415-0.282,0.838-0.577,1.288-0.792l-2.773-1.598
			c-0.526-0.254-1.12,0.103-1.904,0.647l-0.328,0.227c-1.719,1.145-3.412,2.32-5.17,3.601l-0.183,0.132
			C24.284,26.504,22.998,27.447,22.317,28.92L22.317,28.92z M25.826,31.944c-0.078,0-0.153-0.019-0.22-0.058l-4.1-2.371
			c-0.199-0.114-0.282-0.348-0.204-0.559c0.728-1.943,2.287-3.083,3.796-4.188l0.187-0.133c1.771-1.288,3.474-2.475,5.206-3.623
			l0.309-0.216c0.757-0.521,1.786-1.241,2.864-0.701l4.132,2.383c0.216,0.125,0.29,0.395,0.172,0.614
			c-0.117,0.219-0.384,0.305-0.607,0.195c-0.285-0.141-0.486-0.132-0.908,0.024c-0.384,0.172-0.806,0.463-1.218,0.745l-0.369,0.25
			c-1.108,0.737-2.2,1.489-3.29,2.256l-0.576,0.412c-0.925,0.65-1.88,1.328-2.738,2.022c-0.533,0.454-0.964,0.92-1.375,1.503
			c-0.27,0.403-0.45,0.737-0.619,1.148c-0.051,0.126-0.153,0.228-0.282,0.271C25.936,31.932,25.882,31.944,25.826,31.944z"/>
	</g>
</g>
<g id="Layer_1">
</g>
</svg>
