<?xml version="1.0" encoding="iso-8859-1"?>
<!-- Generator: Adobe Illustrator 26.0.3, SVG Export Plug-In . SVG Version: 6.00 Build 0)  -->
<svg version="1.1" xmlns="http://www.w3.org/2000/svg" xmlns:xlink="http://www.w3.org/1999/xlink" x="0px" y="0px"
	 viewBox="0 0 80 80" style="enable-background:new 0 0 80 80;" xml:space="preserve">
<g id="shopping__33">
	<g>
		<path style="fill-rule:evenodd;clip-rule:evenodd;fill:#FFFFFF;" d="M38.246,47.013l-14.667,8.465l1.393,0.805l13.969-8.062
			c0.23-0.149,0.121-0.529,0.028-0.727C38.861,47.263,38.524,46.871,38.246,47.013z"/>
		<path style="fill-rule:evenodd;clip-rule:evenodd;fill:#0083C7;" d="M24.531,55.478l0.44,0.259l13.622-7.868
			c-0.012-0.045-0.028-0.11-0.051-0.173c-0.041-0.077-0.11-0.165-0.163-0.21L24.531,55.478L24.531,55.478z M24.972,56.76
			c-0.081,0-0.158-0.02-0.238-0.065l-1.393-0.808c-0.151-0.085-0.232-0.239-0.232-0.409c0-0.169,0.081-0.327,0.232-0.411
			L38.004,46.6c0.011-0.008,0.011-0.011,0.028-0.016c0.533-0.255,1.11,0.17,1.365,0.702c0.255,0.562,0.187,1.084-0.201,1.334
			l-13.982,8.075C25.134,56.74,25.052,56.76,24.972,56.76z"/>
		<path style="fill-rule:evenodd;clip-rule:evenodd;fill:#FFFFFF;" d="M38.246,42.827l-14.223,8.21l1.394,0.804l13.525-7.807
			c0.23-0.149,0.121-0.524,0.028-0.727C38.861,43.08,38.524,42.686,38.246,42.827z"/>
		<path style="fill-rule:evenodd;clip-rule:evenodd;fill:#0083C7;" d="M24.972,51.037l0.445,0.259l13.177-7.609
			c-0.012-0.048-0.028-0.113-0.051-0.178c-0.041-0.077-0.11-0.162-0.163-0.215L24.972,51.037L24.972,51.037z M25.417,52.319
			c-0.082,0-0.162-0.02-0.243-0.065L23.78,51.45c-0.15-0.085-0.243-0.242-0.243-0.412c0-0.17,0.093-0.328,0.243-0.411l14.225-8.211
			c0.011-0.005,0.011-0.012,0.028-0.017c0.533-0.254,1.098,0.17,1.365,0.703c0.255,0.561,0.187,1.082-0.201,1.334l-13.538,7.818
			C25.578,52.299,25.497,52.319,25.417,52.319z"/>
		<path style="fill-rule:evenodd;clip-rule:evenodd;fill:#C5E6F4;" d="M39.92,50.641c0.258-0.145,1.624-0.945,1.769-1.005
			c0.805-0.335,1.77,0.238,2.361,0.77c1.059,0.966,1.931,2.676,1.81,4.118c-0.041,0.518-0.227,1.071-0.699,1.362L43.5,56.852
			c0.306-0.218,0.496-0.489,0.601-0.857c0.337-1.155-0.226-2.659-0.868-3.616c-0.55-0.824-1.544-1.803-2.586-1.875
			C40.376,50.484,40.178,50.528,39.92,50.641z"/>
		<path style="fill-rule:evenodd;clip-rule:evenodd;fill:#0083C7;" d="M41.543,50.253c0.858,0.372,1.609,1.144,2.09,1.864
			c0.589,0.885,1.167,2.278,1.018,3.518l0.284-0.158c0.335-0.217,0.428-0.713,0.455-0.993c0.106-1.334-0.776-2.914-1.664-3.726
			c-0.505-0.465-1.297-0.923-1.863-0.688C41.822,50.091,41.705,50.161,41.543,50.253L41.543,50.253z M43.5,57.325
			c-0.163,0-0.309-0.076-0.4-0.218c-0.138-0.218-0.082-0.505,0.133-0.646c0.213-0.145,0.335-0.32,0.413-0.603
			c0.283-0.965-0.199-2.311-0.801-3.212c-0.498-0.731-1.37-1.609-2.226-1.666c-0.19-0.011-0.312,0.009-0.496,0.094
			c-0.228,0.105-0.498,0.016-0.619-0.215c-0.118-0.226-0.036-0.501,0.19-0.631l0.227-0.133c1.075-0.626,1.474-0.852,1.583-0.897
			c1.221-0.517,2.505,0.524,2.869,0.856c1.042,0.962,2.101,2.78,1.968,4.51c-0.065,0.78-0.389,1.39-0.926,1.725l-1.688,0.974
			C43.661,57.305,43.581,57.325,43.5,57.325z"/>
		<path style="fill-rule:evenodd;clip-rule:evenodd;fill:#5DC5EA;" d="M44.117,54.428c0.36,1.77-0.444,2.909-1.798,2.549
			c-1.353-0.362-2.735-2.093-3.095-3.862c-0.364-1.767,0.44-2.909,1.782-2.546C42.36,50.932,43.754,52.659,44.117,54.428z"/>
		<path style="fill-rule:evenodd;clip-rule:evenodd;fill:#0083C7;" d="M40.538,50.974c-0.232,0-0.416,0.072-0.561,0.209
			c-0.352,0.332-0.457,1.019-0.3,1.838c0.339,1.58,1.596,3.181,2.763,3.497c0.405,0.104,0.7,0.053,0.909-0.154
			c0.364-0.331,0.474-1.018,0.296-1.838l0,0c-0.32-1.584-1.58-3.183-2.761-3.5C40.764,50.993,40.647,50.974,40.538,50.974
			L40.538,50.974z M42.805,57.518c-0.19,0-0.393-0.027-0.606-0.084c-1.528-0.413-3.043-2.267-3.443-4.223
			c-0.243-1.163-0.029-2.154,0.577-2.718c0.454-0.437,1.096-0.57,1.807-0.385c1.527,0.413,3.044,2.268,3.447,4.227
			c0.226,1.161,0.027,2.154-0.579,2.72C43.689,57.361,43.273,57.518,42.805,57.518z"/>
		<path style="fill-rule:evenodd;clip-rule:evenodd;fill:#C5E6F4;" d="M56.745,60.367c0.255-0.145,1.62-0.948,1.77-1.01
			c0.804-0.335,1.77,0.238,2.359,0.772c1.056,0.969,1.928,2.679,1.807,4.122c-0.037,0.513-0.227,1.071-0.683,1.362l-1.677,0.96
			c0.312-0.217,0.498-0.488,0.606-0.856c0.348-1.156-0.214-2.659-0.857-3.613c-0.565-0.829-1.555-1.801-2.602-1.875
			C57.198,60.21,57,60.254,56.745,60.367z"/>
		<path style="fill-rule:evenodd;clip-rule:evenodd;fill:#0083C7;" d="M58.365,59.975c0.861,0.372,1.613,1.144,2.094,1.864
			c0.589,0.885,1.163,2.274,1.017,3.519L61.76,65.2c0.331-0.218,0.428-0.714,0.453-0.994c0.11-1.329-0.776-2.913-1.662-3.726
			c-0.51-0.461-1.3-0.921-1.851-0.682C58.648,59.814,58.528,59.886,58.365,59.975L58.365,59.975z M60.321,67.051
			c-0.158,0-0.306-0.079-0.4-0.223c-0.133-0.213-0.079-0.501,0.133-0.642c0.216-0.149,0.335-0.323,0.418-0.603
			c0.282-0.968-0.202-2.315-0.805-3.216c-0.496-0.731-1.366-1.604-2.227-1.665c-0.184-0.011-0.306,0.012-0.492,0.093
			c-0.23,0.106-0.498,0.017-0.618-0.209c-0.121-0.227-0.04-0.507,0.186-0.632l0.23-0.141c1.087-0.629,1.475-0.843,1.58-0.893
			c1.22-0.512,2.509,0.53,2.869,0.858c1.047,0.961,2.106,2.779,1.971,4.51c-0.068,0.779-0.391,1.393-0.925,1.724l-1.677,0.974
			C60.483,67.031,60.403,67.051,60.321,67.051z"/>
		<path style="fill-rule:evenodd;clip-rule:evenodd;fill:#5DC5EA;" d="M60.94,64.149c0.364,1.771-0.441,2.911-1.794,2.551
			c-1.342-0.364-2.735-2.09-3.1-3.859c-0.36-1.77,0.445-2.913,1.798-2.551C59.182,60.655,60.579,62.38,60.94,64.149z"/>
		<path style="fill-rule:evenodd;clip-rule:evenodd;fill:#0083C7;" d="M57.364,60.699c-0.23,0-0.416,0.068-0.566,0.206
			c-0.348,0.332-0.456,1.019-0.283,1.838c0.324,1.58,1.583,3.185,2.764,3.5c0.376,0.101,0.683,0.048,0.909-0.158
			c0.352-0.332,0.456-1.019,0.284-1.839c-0.324-1.579-1.581-3.179-2.761-3.494C57.591,60.715,57.469,60.699,57.364,60.699
			L57.364,60.699z M59.626,67.241c-0.184,0-0.387-0.028-0.601-0.081c-1.533-0.411-3.044-2.266-3.447-4.227
			c-0.243-1.164-0.025-2.154,0.578-2.719c0.456-0.436,1.099-0.569,1.809-0.379c1.527,0.407,3.043,2.262,3.443,4.222l0,0
			c0.232,1.164,0.029,2.154-0.574,2.719C60.511,67.083,60.095,67.241,59.626,67.241z"/>
		<path style="fill-rule:evenodd;clip-rule:evenodd;fill:#C5E6F4;" d="M24.948,59.305c0.255-0.145,1.619-0.946,1.753-1.006
			c0.82-0.339,1.787,0.238,2.36,0.772c1.058,0.966,1.943,2.676,1.822,4.118c-0.036,0.516-0.238,1.07-0.694,1.362l-1.665,0.962
			c0.31-0.215,0.485-0.485,0.589-0.853c0.352-1.16-0.214-2.658-0.857-3.616c-0.549-0.824-1.539-1.798-2.586-1.875
			C25.405,59.146,25.191,59.191,24.948,59.305z"/>
		<path style="fill-rule:evenodd;clip-rule:evenodd;fill:#0083C7;" d="M26.568,58.917c0.845,0.372,1.597,1.144,2.078,1.863
			c0.607,0.885,1.181,2.276,1.036,3.52l0.278-0.162c0.334-0.218,0.432-0.715,0.456-0.99c0.108-1.334-0.776-2.919-1.66-3.726
			c-0.509-0.465-1.302-0.921-1.863-0.686C26.851,58.759,26.73,58.824,26.568,58.917L26.568,58.917z M28.524,65.989
			c-0.162,0-0.32-0.076-0.4-0.218c-0.15-0.219-0.081-0.501,0.122-0.646c0.214-0.146,0.334-0.324,0.427-0.598
			c0.283-0.974-0.201-2.316-0.804-3.217c-0.496-0.731-1.382-1.608-2.238-1.664c-0.174-0.012-0.307,0.007-0.486,0.088
			c-0.226,0.108-0.509,0.016-0.614-0.21c-0.121-0.226-0.04-0.501,0.174-0.629l0.295-0.17c1.046-0.607,1.421-0.816,1.527-0.865
			c1.22-0.509,2.492,0.53,2.857,0.861c1.059,0.958,2.117,2.777,1.967,4.505c-0.053,0.781-0.388,1.394-0.908,1.727l-1.689,0.977
			C28.685,65.968,28.605,65.989,28.524,65.989z"/>
		<path style="fill-rule:evenodd;clip-rule:evenodd;fill:#5DC5EA;" d="M29.143,63.091c0.359,1.77-0.44,2.908-1.795,2.546
			c-1.357-0.36-2.735-2.089-3.099-3.859c-0.377-1.771,0.428-2.911,1.786-2.546C27.385,59.591,28.783,61.321,29.143,63.091z"/>
		<path style="fill-rule:evenodd;clip-rule:evenodd;fill:#0083C7;" d="M25.55,59.64c-0.215,0-0.405,0.065-0.549,0.206
			c-0.348,0.328-0.457,1.014-0.295,1.835c0.323,1.584,1.597,3.184,2.764,3.499c0.387,0.102,0.695,0.053,0.909-0.158
			c0.348-0.327,0.455-1.013,0.294-1.834v-0.004c-0.323-1.58-1.596-3.18-2.763-3.496C25.777,59.656,25.658,59.64,25.55,59.64
			L25.55,59.64z M27.83,66.182c-0.202,0-0.405-0.028-0.606-0.084c-1.527-0.412-3.039-2.268-3.444-4.223
			c-0.243-1.163-0.028-2.154,0.566-2.719c0.469-0.436,1.111-0.574,1.806-0.384c1.544,0.413,3.044,2.267,3.447,4.222
			c0.243,1.164,0.04,2.154-0.566,2.724C28.702,66.025,28.286,66.182,27.83,66.182z"/>
		<path style="fill-rule:evenodd;clip-rule:evenodd;fill:#FFFFFF;" d="M38.833,42.346c-0.145-0.076-0.332,0.008-0.454,0.096
			c-0.254,0.199-0.467,0.603-0.443,0.934c0.015,0.097,0.052,0.207,0.149,0.259l25.283,14.599v-1.721L38.833,42.346z"/>
		<path style="fill-rule:evenodd;clip-rule:evenodd;fill:#0083C7;" d="M38.42,43.279L62.884,57.41v-0.623L38.688,42.814
			C38.524,42.944,38.42,43.142,38.42,43.279L38.42,43.279z M63.368,58.711c-0.08,0-0.161-0.025-0.243-0.069L37.842,44.046
			c-0.202-0.125-0.334-0.348-0.376-0.614c-0.052-0.541,0.271-1.099,0.631-1.37c0.323-0.238,0.671-0.292,0.965-0.133v0.003
			l24.544,14.168c0.15,0.084,0.231,0.242,0.231,0.412v1.721c0,0.17-0.082,0.324-0.231,0.408
			C63.526,58.687,63.445,58.711,63.368,58.711z"/>
		<path style="fill-rule:evenodd;clip-rule:evenodd;fill:#FFFFFF;" d="M39.264,47.905c0,0.162-0.173,0.279-0.306,0.335
			c-0.295,0.13-0.768,0.114-1.036-0.08c-0.081-0.059-0.15-0.153-0.15-0.255v-22.96l1.492,0.861V47.905z"/>
		<path style="fill-rule:evenodd;clip-rule:evenodd;fill:#0083C7;" d="M38.246,47.801c0.133,0.065,0.372,0.065,0.522,0.003
			c0.011-0.003,0.011-0.003,0.011-0.003v-21.72l-0.533-0.315V47.801L38.246,47.801z M39.264,47.905h0.012H39.264L39.264,47.905z
			 M38.513,48.799c-0.307,0-0.618-0.077-0.873-0.258c-0.214-0.162-0.335-0.388-0.348-0.622V24.945c0-0.169,0.094-0.328,0.243-0.411
			c0.147-0.085,0.319-0.085,0.47,0l1.498,0.861c0.15,0.084,0.23,0.242,0.23,0.411v22.099c0,0,0,0.006,0,0.009
			c0,0.326-0.23,0.614-0.59,0.764C38.958,48.754,38.739,48.799,38.513,48.799z"/>
		<path style="fill-rule:evenodd;clip-rule:evenodd;fill:#FFFFFF;" d="M38.877,46.957c-0.138-0.077-0.323,0.008-0.444,0.096
			c-0.255,0.198-0.482,0.603-0.445,0.934c0.017,0.101,0.056,0.206,0.15,0.263l25.296,14.607l0.618-1.37L38.877,46.957z"/>
		<path style="fill-rule:evenodd;clip-rule:evenodd;fill:#0083C7;" d="M38.461,47.889l24.759,14.293l0.214-0.496L38.739,47.424
			C38.581,47.558,38.473,47.756,38.461,47.889L38.461,47.889z M63.433,63.329c-0.082,0-0.158-0.02-0.238-0.065l-25.3-14.608
			c-0.213-0.129-0.348-0.351-0.376-0.622c-0.065-0.529,0.271-1.087,0.631-1.362c0.311-0.238,0.67-0.286,0.954-0.129
			c0.012,0,0.012,0,0.012,0l25.162,14.531c0.215,0.125,0.312,0.385,0.202,0.606l-0.618,1.37c-0.053,0.121-0.158,0.214-0.279,0.258
			C63.526,63.32,63.49,63.329,63.433,63.329z"/>
		<path style="fill-rule:evenodd;clip-rule:evenodd;fill:#C5E6F4;" d="M41.77,69.027c0.254-0.145,1.624-0.945,1.769-1.006
			c0.805-0.335,1.77,0.243,2.361,0.773c1.047,0.965,1.931,2.676,1.81,4.117c-0.041,0.517-0.23,1.076-0.699,1.363l-1.66,0.965
			c0.306-0.214,0.484-0.489,0.6-0.858c0.337-1.155-0.226-2.658-0.868-3.615c-0.549-0.825-1.544-1.803-2.59-1.875
			C42.227,68.873,42.012,68.914,41.77,69.027z"/>
		<path style="fill-rule:evenodd;clip-rule:evenodd;fill:#0083C7;" d="M43.394,68.64c0.858,0.372,1.609,1.144,2.09,1.863
			c0.589,0.889,1.167,2.279,1.017,3.519l0.284-0.158c0.335-0.218,0.428-0.714,0.455-0.99c0.106-1.334-0.779-2.917-1.664-3.729
			c-0.51-0.465-1.297-0.918-1.863-0.683C43.673,68.478,43.552,68.546,43.394,68.64L43.394,68.64z M45.351,75.714
			c-0.163,0-0.324-0.08-0.405-0.221c-0.133-0.215-0.082-0.501,0.138-0.646c0.198-0.147,0.32-0.32,0.413-0.603
			c0.283-0.966-0.198-2.307-0.805-3.213c-0.493-0.731-1.365-1.603-2.222-1.665c-0.202-0.016-0.323,0.008-0.496,0.094
			c-0.232,0.104-0.51,0.016-0.62-0.211c-0.116-0.226-0.039-0.504,0.175-0.63l0.243-0.142c1.087-0.631,1.475-0.848,1.579-0.893
			c1.221-0.512,2.51,0.526,2.875,0.858c1.041,0.962,2.1,2.78,1.954,4.51c-0.052,0.779-0.388,1.393-0.914,1.725l-1.688,0.973
			C45.512,75.696,45.431,75.714,45.351,75.714z"/>
		<path style="fill-rule:evenodd;clip-rule:evenodd;fill:#5DC5EA;" d="M45.969,72.817c0.359,1.766-0.445,2.905-1.799,2.546
			c-1.353-0.359-2.735-2.093-3.095-3.859c-0.363-1.77,0.441-2.914,1.782-2.549C44.21,69.318,45.605,71.044,45.969,72.817z"/>
		<path style="fill-rule:evenodd;clip-rule:evenodd;fill:#0083C7;" d="M42.372,69.363c-0.209,0-0.399,0.068-0.55,0.205
			c-0.347,0.332-0.456,1.019-0.294,1.839c0.323,1.58,1.596,3.185,2.763,3.496c0.389,0.102,0.696,0.052,0.909-0.153
			c0.352-0.331,0.473-1.019,0.296-1.839l0,0c-0.32-1.58-1.58-3.184-2.76-3.494C42.615,69.379,42.494,69.363,42.372,69.363
			L42.372,69.363z M44.651,75.905c-0.198,0-0.399-0.028-0.602-0.08c-1.527-0.413-3.043-2.267-3.447-4.227
			c-0.238-1.164-0.025-2.155,0.578-2.719c0.457-0.436,1.099-0.57,1.798-0.384c1.54,0.411,3.056,2.266,3.443,4.222l0.017,0.003
			c0.226,1.164,0.023,2.155-0.578,2.721C45.535,75.747,45.119,75.905,44.651,75.905z"/>
		<path style="fill-rule:evenodd;clip-rule:evenodd;fill:#0083C7;" d="M48.809,48.333c-0.08,0-0.161-0.023-0.243-0.064
			L19.946,31.747c-0.226-0.134-0.295-0.421-0.173-0.651c0.133-0.227,0.428-0.303,0.657-0.174l28.606,16.522
			c0.23,0.13,0.312,0.422,0.174,0.651C49.133,48.245,48.972,48.333,48.809,48.333z"/>
		<path style="fill-rule:evenodd;clip-rule:evenodd;fill:#0083C7;" d="M63.728,39.566c-0.081,0-0.158-0.02-0.238-0.065
			L34.614,22.832c-0.23-0.133-0.311-0.424-0.174-0.651c0.133-0.226,0.413-0.303,0.642-0.173L63.959,38.68
			c0.226,0.13,0.307,0.421,0.173,0.648C64.051,39.481,63.889,39.566,63.728,39.566z"/>
		<path style="fill-rule:evenodd;clip-rule:evenodd;fill:#0083C7;" d="M48.809,48.333c-0.173,0-0.323-0.088-0.416-0.238
			c-0.134-0.229-0.054-0.521,0.173-0.651l14.947-8.627c0.215-0.129,0.509-0.052,0.643,0.174c0.133,0.226,0.056,0.517-0.173,0.651
			L49.035,48.27C48.972,48.31,48.89,48.333,48.809,48.333z"/>
		<path style="fill-rule:evenodd;clip-rule:evenodd;fill:#0083C7;" d="M38.363,60.506c-0.158,0-0.32-0.089-0.413-0.239
			c-0.121-0.23-0.056-0.518,0.174-0.651l25.388-14.652c0.215-0.13,0.509-0.057,0.643,0.174c0.133,0.227,0.056,0.518-0.173,0.646
			L38.607,60.441C38.524,60.48,38.445,60.506,38.363,60.506z"/>
		<path style="fill-rule:evenodd;clip-rule:evenodd;fill:#0083C7;" d="M48.809,60.27c-0.173,0-0.323-0.084-0.416-0.234
			c-0.134-0.23-0.054-0.521,0.173-0.651l14.947-8.627c0.215-0.13,0.509-0.053,0.643,0.173c0.133,0.226,0.056,0.518-0.173,0.647
			l-14.948,8.627C48.972,60.251,48.89,60.27,48.809,60.27z"/>
		<path style="fill-rule:evenodd;clip-rule:evenodd;fill:#0083C7;" d="M23.846,33.847c-0.159,0-0.32-0.085-0.413-0.238
			c-0.122-0.226-0.057-0.517,0.172-0.646l14.948-8.628c0.226-0.133,0.509-0.056,0.643,0.174c0.136,0.227,0.056,0.518-0.173,0.646
			l-14.936,8.627C24.007,33.827,23.925,33.847,23.846,33.847z"/>
		<path style="fill-rule:evenodd;clip-rule:evenodd;fill:#0083C7;" d="M23.846,39.994c-0.159,0-0.32-0.085-0.413-0.238
			c-0.122-0.226-0.057-0.518,0.172-0.651l13.929-8.037c0.226-0.133,0.521-0.057,0.643,0.174c0.133,0.226,0.053,0.517-0.173,0.646
			l-13.917,8.041C24.007,39.974,23.925,39.994,23.846,39.994z"/>
		<path style="fill-rule:evenodd;clip-rule:evenodd;fill:#0083C7;" d="M23.846,45.788c-0.159,0-0.32-0.085-0.413-0.238
			c-0.122-0.227-0.057-0.518,0.172-0.651l13.929-8.038c0.226-0.13,0.521-0.056,0.643,0.173c0.133,0.227,0.053,0.519-0.173,0.647
			l-13.917,8.041C24.007,45.768,23.925,45.788,23.846,45.788z"/>
		<path style="fill-rule:evenodd;clip-rule:evenodd;fill:#0083C7;" d="M23.833,57.504c-0.267,0-0.482-0.211-0.482-0.478V33.447
			c0-0.266,0.215-0.476,0.482-0.476c0.254,0,0.467,0.21,0.467,0.476v23.579C24.301,57.292,24.087,57.504,23.833,57.504z"/>
		<path style="fill-rule:evenodd;clip-rule:evenodd;fill:#0083C7;" d="M48.809,49.191c-0.271,0-0.485-0.21-0.485-0.473v-18.24
			c0-0.264,0.215-0.477,0.485-0.477c0.255,0,0.469,0.213,0.469,0.477v18.24C49.278,48.981,49.064,49.191,48.809,49.191z"/>
		<path style="fill-rule:evenodd;clip-rule:evenodd;fill:#0083C7;" d="M48.7,71.868c-0.081,0-0.161-0.02-0.226-0.064l-24.88-14.366
			c-0.23-0.129-0.311-0.42-0.173-0.646c0.129-0.227,0.413-0.303,0.642-0.173l24.88,14.365c0.226,0.129,0.306,0.42,0.173,0.646
			C49.035,71.783,48.874,71.868,48.7,71.868z"/>
		<path style="fill-rule:evenodd;clip-rule:evenodd;fill:#0083C7;" d="M63.744,58.186c-0.254,0-0.468-0.214-0.468-0.473V39.23
			c0-0.264,0.215-0.478,0.468-0.478c0.267,0,0.481,0.214,0.481,0.478v18.482C64.225,57.972,64.011,58.186,63.744,58.186z"/>
		<path style="fill-rule:evenodd;clip-rule:evenodd;fill:#0083C7;" d="M38.779,60.783c-0.255,0-0.469-0.214-0.469-0.472V48.662
			c0-0.264,0.214-0.478,0.469-0.478c0.272,0,0.485,0.214,0.485,0.478v11.649C39.264,60.57,39.051,60.783,38.779,60.783z"/>
		<path style="fill-rule:evenodd;clip-rule:evenodd;fill:#0083C7;" d="M48.781,54.392c-0.082,0-0.162-0.02-0.227-0.065
			L23.605,39.929c-0.229-0.13-0.294-0.42-0.172-0.646c0.133-0.23,0.427-0.308,0.654-0.178l24.936,14.402
			c0.226,0.129,0.308,0.42,0.174,0.645C49.103,54.307,48.942,54.392,48.781,54.392z"/>
		<path style="fill-rule:evenodd;clip-rule:evenodd;fill:#0083C7;" d="M48.862,60.165c-0.081,0-0.162-0.02-0.243-0.065
			L23.594,45.648c-0.23-0.13-0.311-0.422-0.173-0.647c0.129-0.23,0.413-0.303,0.642-0.173l25.041,14.454
			c0.227,0.13,0.309,0.42,0.174,0.647C49.185,60.08,49.023,60.165,48.862,60.165z"/>
		<path style="fill-rule:evenodd;clip-rule:evenodd;fill:#0083C7;" d="M63.744,45.776c-0.081,0-0.161-0.02-0.23-0.065l-24.49-14.134
			c-0.227-0.13-0.309-0.425-0.175-0.647c0.133-0.23,0.428-0.306,0.654-0.173l24.48,14.131c0.229,0.133,0.306,0.424,0.173,0.651
			C64.064,45.691,63.903,45.776,63.744,45.776z"/>
		<path style="fill-rule:evenodd;clip-rule:evenodd;fill:#0083C7;" d="M63.983,52.002c-0.081,0-0.162-0.019-0.239-0.064
			L39.023,37.667c-0.227-0.13-0.309-0.422-0.175-0.647c0.133-0.23,0.428-0.303,0.654-0.174l24.722,14.272
			c0.226,0.13,0.308,0.42,0.174,0.647C64.305,51.918,64.144,52.002,63.983,52.002z"/>
		<path style="fill-rule:evenodd;clip-rule:evenodd;fill:#0083C7;" d="M44.089,64c-0.266,0-0.481-0.21-0.481-0.472V47.215
			l-14.05,8.114c-0.15,0.085-0.323,0.085-0.47,0c-0.149-0.085-0.241-0.243-0.241-0.413V30.211c0-0.263,0.215-0.472,0.468-0.472
			c0.267,0,0.485,0.209,0.485,0.472v23.882l13.807-7.977V27.819c0-0.258,0.215-0.474,0.481-0.474c0.255,0,0.469,0.216,0.469,0.474
			v18.564c0,0.007,0,0.011,0,0.011v17.134C44.558,63.79,44.344,64,44.089,64z"/>
		<path style="fill-rule:evenodd;clip-rule:evenodd;fill:#0083C7;" d="M33.781,63.261c-0.254,0-0.467-0.215-0.467-0.476v-5.456
			c0-0.004,0-0.012,0-0.016V27.637c0-0.263,0.214-0.476,0.467-0.476c0.267,0,0.481,0.213,0.481,0.476v28.859l14.16-8.178
			c0.227-0.13,0.521-0.056,0.654,0.174c0.134,0.226,0.057,0.517-0.173,0.65l-14.64,8.454v5.189
			C34.262,63.047,34.048,63.261,33.781,63.261z"/>
		<path style="fill-rule:evenodd;clip-rule:evenodd;fill:#0083C7;" d="M54.183,63.722c-0.254,0-0.469-0.215-0.469-0.476v-29.66
			c0-0.264,0.215-0.478,0.469-0.478c0.267,0,0.481,0.214,0.481,0.478v29.66C54.664,63.507,54.451,63.722,54.183,63.722z"/>
		<path style="fill-rule:evenodd;clip-rule:evenodd;fill:#0083C7;" d="M59.171,60.578c-0.255,0-0.47-0.21-0.47-0.472V36.551
			c0-0.263,0.215-0.476,0.47-0.476c0.271,0,0.484,0.214,0.484,0.476v23.555C59.655,60.367,59.441,60.578,59.171,60.578z"/>
		<path style="fill-rule:evenodd;clip-rule:evenodd;fill:#FFFFFF;" d="M24.678,56.836c0,0.162-0.174,0.279-0.308,0.335
			c-0.295,0.13-0.765,0.118-1.03-0.081c-0.082-0.062-0.151-0.15-0.151-0.255v-22.96l1.488,0.86V56.836z"/>
		<path style="fill-rule:evenodd;clip-rule:evenodd;fill:#0083C7;" d="M23.659,56.731c0.133,0.065,0.376,0.068,0.525,0.003
			c0.012,0,0.012-0.003,0.023-0.003v-21.72L23.659,34.7V56.731L23.659,56.731z M24.678,56.836h0.011H24.678L24.678,56.836z
			 M23.925,57.73c-0.308,0-0.614-0.074-0.869-0.259c-0.215-0.157-0.335-0.384-0.347-0.623V33.876c0-0.171,0.093-0.328,0.238-0.413
			c0.149-0.081,0.323-0.085,0.485,0.004l1.486,0.861c0.145,0.079,0.226,0.237,0.226,0.407v22.1c0,0,0,0.008,0,0.011
			c0,0.324-0.226,0.615-0.589,0.764C24.37,57.688,24.155,57.73,23.925,57.73z"/>
		<path style="fill-rule:evenodd;clip-rule:evenodd;fill:#FFFFFF;" d="M24.289,51.264c-0.133-0.082-0.319,0.003-0.443,0.093
			c-0.252,0.201-0.482,0.606-0.442,0.933c0.017,0.102,0.053,0.207,0.145,0.264l25.26,14.579v-1.721l-9.492-5.476L24.289,51.264z"/>
		<path style="fill-rule:evenodd;clip-rule:evenodd;fill:#0083C7;" d="M23.873,52.192l24.451,14.119v-0.626L24.155,51.733
			C23.995,51.862,23.889,52.056,23.873,52.192L23.873,52.192z M48.809,67.61c-0.08,0-0.173-0.026-0.243-0.065l-25.255-14.58
			c-0.215-0.13-0.348-0.351-0.376-0.618c-0.069-0.541,0.271-1.099,0.631-1.367c0.306-0.241,0.671-0.294,0.954-0.136
			c0.011,0.004,0.011,0.004,0.011,0.004l24.504,14.154c0.15,0.085,0.243,0.24,0.243,0.409v1.721c0,0.169-0.093,0.327-0.243,0.413
			C48.972,67.584,48.89,67.61,48.809,67.61z"/>
		<path style="fill-rule:evenodd;clip-rule:evenodd;fill:#FFFFFF;" d="M24.289,55.89c-0.133-0.081-0.319,0.003-0.443,0.093
			c-0.252,0.202-0.482,0.606-0.442,0.938c0.017,0.097,0.053,0.206,0.145,0.258l25.26,14.583v-1.725l-9.492-5.471L24.289,55.89z"/>
		<path style="fill-rule:evenodd;clip-rule:evenodd;fill:#0083C7;" d="M23.873,56.824l24.451,14.115v-0.626L24.155,56.36
			C23.995,56.488,23.889,56.686,23.873,56.824L23.873,56.824z M48.809,72.239c-0.08,0-0.173-0.025-0.243-0.064L23.311,57.592
			c-0.215-0.13-0.348-0.352-0.376-0.615c-0.069-0.546,0.271-1.098,0.631-1.37c0.306-0.243,0.671-0.291,0.954-0.136
			c0.011,0.003,0.011,0.007,0.011,0.007l24.504,14.147c0.15,0.089,0.243,0.247,0.243,0.413v1.725c0,0.17-0.093,0.323-0.243,0.413
			C48.972,72.214,48.89,72.239,48.809,72.239z"/>
		<path style="fill-rule:evenodd;clip-rule:evenodd;fill:#FFFFFF;" d="M63.704,56.921L48.809,65.52v1.612l15.59-8.999
			c0.229-0.154,0.121-0.529,0.028-0.731C64.318,57.176,63.983,56.779,63.704,56.921z"/>
		<path style="fill-rule:evenodd;clip-rule:evenodd;fill:#0083C7;" d="M49.278,65.795v0.517l14.774-8.534
			c0-0.045-0.029-0.11-0.057-0.173c-0.036-0.077-0.105-0.167-0.157-0.211L49.278,65.795L49.278,65.795z M48.809,67.61
			c-0.08,0-0.173-0.026-0.243-0.065c-0.145-0.086-0.243-0.244-0.243-0.413V65.52c0-0.17,0.097-0.328,0.243-0.413l14.894-8.599
			c0.012-0.003,0.029-0.012,0.029-0.012c0.549-0.262,1.099,0.167,1.365,0.7c0.266,0.561,0.186,1.082-0.202,1.333l-15.618,9.016
			C48.972,67.584,48.89,67.61,48.809,67.61z"/>
		<path style="fill-rule:evenodd;clip-rule:evenodd;fill:#FFFFFF;" d="M33.926,20.998c-0.145-0.077-0.331,0.008-0.452,0.096
			c-0.255,0.203-0.47,0.606-0.445,0.934c0.011,0.101,0.052,0.21,0.145,0.263l30.339,17.513l0.161-1.628l-0.843-0.49L33.926,20.998z"
			/>
		<path style="fill-rule:evenodd;clip-rule:evenodd;fill:#0083C7;" d="M33.515,21.932l29.598,17.093l0.053-0.591L33.781,21.467
			C33.62,21.6,33.515,21.798,33.515,21.932L33.515,21.932z M63.514,40.281c-0.093,0-0.173-0.026-0.238-0.065L32.937,22.703
			c-0.215-0.13-0.348-0.356-0.376-0.623c-0.053-0.533,0.271-1.091,0.631-1.361c0.306-0.239,0.67-0.292,0.954-0.138
			c0.011,0.003,0.011,0.008,0.011,0.008l29.762,17.173c0.158,0.097,0.238,0.275,0.226,0.461l-0.161,1.628
			c-0.012,0.158-0.122,0.3-0.255,0.377C63.663,40.261,63.583,40.281,63.514,40.281z"/>
		<path style="fill-rule:evenodd;clip-rule:evenodd;fill:#FFFFFF;" d="M63.809,61.487l-14.999,8.66v1.616l15.698-9.068
			C64.937,62.417,64.277,61.261,63.809,61.487z"/>
		<path style="fill-rule:evenodd;clip-rule:evenodd;fill:#0083C7;" d="M49.278,70.422v0.517l14.895-8.595
			c-0.029-0.12-0.134-0.306-0.231-0.387L49.278,70.422L49.278,70.422z M48.809,72.239c-0.08,0-0.173-0.025-0.243-0.064
			c-0.145-0.089-0.243-0.243-0.243-0.413v-1.616c0-0.17,0.097-0.324,0.243-0.409l15.004-8.663c0.012-0.008,0.023-0.012,0.023-0.017
			c0.47-0.222,0.995,0.028,1.314,0.614c0.335,0.578,0.271,1.148-0.15,1.422l-15.723,9.081C48.972,72.214,48.89,72.239,48.809,72.239
			z"/>
		<path style="fill-rule:evenodd;clip-rule:evenodd;fill:#FFFFFF;" d="M49.561,66.546c0,0.165-0.178,0.282-0.312,0.339
			c-0.291,0.125-0.763,0.113-1.03-0.084c-0.069-0.061-0.15-0.151-0.15-0.255V47.623l1.492-0.3V66.546z"/>
		<path style="fill-rule:evenodd;clip-rule:evenodd;fill:#0083C7;" d="M48.539,66.441c0.136,0.064,0.375,0.068,0.537,0.003
			c0,0,0-0.003,0.012-0.003v-18.54l-0.549,0.11V66.441L48.539,66.441z M49.561,66.546h0.012H49.561L49.561,66.546z M48.809,67.44
			c-0.307,0-0.618-0.077-0.873-0.258c-0.213-0.159-0.335-0.386-0.348-0.623V47.623c0-0.227,0.162-0.425,0.389-0.465l1.486-0.303
			c0.139-0.024,0.283,0.008,0.388,0.102c0.125,0.087,0.178,0.226,0.178,0.367v19.223c0,0.008,0,0.008,0,0.008
			c0,0.331-0.23,0.614-0.59,0.768C49.266,67.399,49.035,67.44,48.809,67.44z"/>
		<path style="fill-rule:evenodd;clip-rule:evenodd;fill:#FFFFFF;" d="M19.355,29.9c-0.133-0.077-0.323,0.003-0.44,0.097
			c-0.255,0.197-0.484,0.602-0.445,0.932c0.017,0.101,0.057,0.206,0.151,0.258l30.189,17.433v-1.725L19.355,29.9z"/>
		<path style="fill-rule:evenodd;clip-rule:evenodd;fill:#0083C7;" d="M18.939,30.833l29.385,16.964v-0.623L19.222,30.369
			C19.06,30.498,18.956,30.696,18.939,30.833L18.939,30.833z M48.809,49.094c-0.08,0-0.173-0.021-0.243-0.06l-30.19-17.433
			c-0.213-0.13-0.347-0.356-0.374-0.623c-0.065-0.532,0.266-1.09,0.629-1.361c0.308-0.238,0.671-0.291,0.954-0.133l0.012,0.003
			l29.438,17c0.15,0.085,0.243,0.243,0.243,0.408v1.725c0,0.17-0.093,0.323-0.243,0.413C48.972,49.073,48.89,49.094,48.809,49.094z"
			/>
		<path style="fill-rule:evenodd;clip-rule:evenodd;fill:#FFFFFF;" d="M64.589,57.765c-0.017,0.158-0.174,0.278-0.312,0.335
			c-0.306,0.125-0.764,0.113-1.03-0.084c-0.082-0.057-0.15-0.151-0.161-0.252V40.208l1.503-1.042V57.765z"/>
		<path style="fill-rule:evenodd;clip-rule:evenodd;fill:#0083C7;" d="M63.571,57.656c0.116,0.065,0.371,0.069,0.521,0.005
			c0.012,0,0.012-0.005,0.012-0.005V40.079l-0.533,0.379V57.656L63.571,57.656z M64.589,57.765H64.6H64.589L64.589,57.765z
			 M63.838,58.655c-0.312,0-0.631-0.074-0.873-0.255c-0.215-0.167-0.335-0.393-0.348-0.623v-17.57c0-0.153,0.08-0.299,0.202-0.388
			l1.486-1.042c0.145-0.105,0.335-0.117,0.498-0.037c0.158,0.082,0.255,0.247,0.255,0.425v18.6c0,0,0,0.004,0,0.012
			c0,0.323-0.23,0.606-0.59,0.759C64.277,58.614,64.064,58.655,63.838,58.655z"/>
		<path style="fill-rule:evenodd;clip-rule:evenodd;fill:#FFFFFF;" d="M63.877,38.143l-15.121,8.728v1.614l15.817-9.129
			c0.23-0.153,0.121-0.533,0.028-0.731C64.492,38.398,64.173,38.001,63.877,38.143z"/>
		<path style="fill-rule:evenodd;clip-rule:evenodd;fill:#0083C7;" d="M49.238,47.147v0.517l14.999-8.659
			c-0.012-0.049-0.025-0.113-0.064-0.174c-0.029-0.081-0.11-0.165-0.162-0.218L49.238,47.147L49.238,47.147z M48.756,48.961
			c-0.081,0-0.161-0.02-0.229-0.065c-0.145-0.085-0.239-0.243-0.239-0.411v-1.614c0-0.169,0.094-0.327,0.239-0.407l15.109-8.733
			c0.012-0.003,0.028-0.012,0.039-0.016c0.538-0.255,1.1,0.169,1.354,0.702c0.267,0.558,0.187,1.08-0.189,1.331l-15.845,9.148
			C48.913,48.941,48.833,48.961,48.756,48.961z"/>
		<path style="fill-rule:evenodd;clip-rule:evenodd;fill:#5DC5EA;" d="M16.942,31.165c-0.172-0.308-0.416-0.574-0.682-0.731
			c-0.266-0.153-0.509-0.171-0.699-0.068c-0.173,0.104-0.28,0.323-0.28,0.633c0,0.312,0.106,0.655,0.28,0.963
			c0.19,0.303,0.433,0.57,0.699,0.727c0.266,0.154,0.51,0.17,0.682,0.069c0.174-0.105,0.296-0.32,0.296-0.631
			C17.238,31.811,17.117,31.468,16.942,31.165z"/>
		<path style="fill-rule:evenodd;clip-rule:evenodd;fill:#0083C7;" d="M15.816,30.776h-0.012c-0.012,0.009-0.041,0.074-0.041,0.222
			c0,0.215,0.082,0.478,0.215,0.724c0.15,0.247,0.335,0.449,0.526,0.555c0.121,0.072,0.202,0.072,0.213,0.068
			c0,0,0.041-0.073,0.041-0.218c0-0.218-0.081-0.481-0.215-0.727c-0.15-0.244-0.34-0.445-0.525-0.555
			C15.925,30.788,15.86,30.776,15.816,30.776L15.816,30.776z M16.688,33.294c-0.214,0-0.441-0.065-0.671-0.194
			c-0.335-0.194-0.63-0.513-0.856-0.905c-0.227-0.389-0.347-0.813-0.347-1.198c0-0.472,0.184-0.852,0.521-1.045
			c0.323-0.19,0.751-0.167,1.168,0.072c0.319,0.189,0.629,0.513,0.856,0.901l0,0c0.227,0.391,0.347,0.815,0.347,1.2
			c0,0.47-0.184,0.848-0.52,1.038C17.036,33.254,16.874,33.294,16.688,33.294z"/>
		<path style="fill-rule:evenodd;clip-rule:evenodd;fill:#C5E6F4;" d="M36.205,18.916c-0.201-0.116-0.441-0.19-0.67-0.076
			L15.59,30.356c0.172-0.085,0.347-0.065,0.52,0.009c0.174,0.072,0.323,0.177,0.457,0.31c0.242,0.232,0.416,0.505,0.537,0.817
			c0.069,0.193,0.122,0.391,0.134,0.602c0,0.247-0.053,0.509-0.284,0.654l19.963-11.52c0.133-0.093,0.213-0.244,0.242-0.408
			c0.012-0.074,0.028-0.138,0.028-0.215c0-0.117-0.016-0.214-0.039-0.331c-0.058-0.258-0.162-0.49-0.3-0.716
			C36.674,19.296,36.477,19.078,36.205,18.916z"/>
		<path style="fill-rule:evenodd;clip-rule:evenodd;fill:#0083C7;" d="M16.77,30.22c0.039,0.036,0.079,0.072,0.121,0.107
			c0.295,0.284,0.509,0.615,0.659,0.986c0.064,0.17,0.105,0.323,0.133,0.473l18.991-10.971c0.029-0.129,0.029-0.173,0.029-0.218
			c0-0.068,0-0.142-0.029-0.226c-0.039-0.195-0.116-0.372-0.226-0.558c-0.145-0.223-0.294-0.376-0.481-0.49
			c-0.108-0.06-0.19-0.08-0.215-0.06L16.77,30.22L16.77,30.22z M16.954,33.221c-0.145,0-0.306-0.081-0.399-0.226
			c-0.133-0.218-0.068-0.505,0.15-0.647c0.023-0.019,0.052-0.101,0.052-0.249c0-0.13-0.029-0.272-0.097-0.441
			c-0.093-0.247-0.238-0.465-0.428-0.647c-0.105-0.101-0.198-0.165-0.308-0.209c-0.093-0.037-0.121-0.026-0.133-0.017
			c-0.23,0.113-0.51,0.025-0.631-0.202c-0.121-0.226-0.04-0.509,0.186-0.634l19.951-11.521c0.254-0.129,0.642-0.206,1.139,0.073
			c0.011,0.004,0.011,0.004,0.011,0.004c0.309,0.189,0.578,0.449,0.793,0.795c0.186,0.283,0.294,0.567,0.376,0.87
			c0.023,0.154,0.04,0.274,0.04,0.424c0,0.126,0,0.215-0.029,0.32c-0.08,0.395-0.294,0.606-0.456,0.716L17.197,33.157
			C17.132,33.201,17.052,33.221,16.954,33.221z"/>
		<path style="fill-rule:evenodd;clip-rule:evenodd;fill:#FFFFFF;" d="M38.246,24.376l-14.223,8.211l1.394,0.808l13.525-7.807
			c0.23-0.15,0.121-0.529,0.028-0.727C38.861,24.63,38.524,24.238,38.246,24.376z"/>
		<path style="fill-rule:evenodd;clip-rule:evenodd;fill:#0083C7;" d="M24.972,32.587l0.445,0.258l13.177-7.609
			c0-0.048-0.028-0.113-0.051-0.177c-0.041-0.074-0.11-0.162-0.163-0.21L24.972,32.587L24.972,32.587z M25.417,33.872
			c-0.082,0-0.162-0.02-0.243-0.064l-1.394-0.81c-0.15-0.084-0.243-0.242-0.243-0.411c0-0.17,0.093-0.323,0.243-0.413l14.225-8.208
			c0.011-0.007,0.011-0.016,0.028-0.016c0.533-0.255,1.098,0.167,1.365,0.699c0.255,0.567,0.174,1.087-0.201,1.334l-13.538,7.824
			C25.578,33.852,25.497,33.872,25.417,33.872z"/>
		<path style="fill-rule:evenodd;clip-rule:evenodd;fill:#FFFFFF;" d="M34.573,61.677c0,0.117-1.449,0.666-1.491-0.716v-2.905
			l1.491,0.861V61.677z"/>
		<path style="fill-rule:evenodd;clip-rule:evenodd;fill:#0083C7;" d="M33.551,58.877v2.084c0.017,0.142,0.045,0.344,0.15,0.409
			c0.11,0.052,0.266,0.044,0.4,0.016v-2.195L33.551,58.877L33.551,58.877z M34.573,61.677h0.012H34.573L34.573,61.677z
			 M33.902,62.36L33.902,62.36c-0.617-0.004-1.271-0.368-1.3-1.382v-2.922c0-0.169,0.094-0.327,0.243-0.412
			c0.145-0.081,0.331-0.081,0.481,0l1.491,0.86c0.146,0.086,0.239,0.244,0.239,0.413v2.76v0.015
			C35.026,62.238,34.198,62.36,33.902,62.36z"/>
		<path style="fill-rule:evenodd;clip-rule:evenodd;fill:#5DC5EA;" d="M54.531,7.361l-4.114-2.373
			c-1.584-0.521-2.76-0.518-4.397-0.21c-4.706,1.172-8.284,4.554-11.141,8.316c-3.204,4.361-5.737,10.284-5.722,15.76
			c0,1.75,0.267,3.652,1.019,5.253c0.371,0.8,0.92,1.619,1.552,2.234l0.387,0.348l4.118,2.371c-0.267-0.242-0.509-0.445-0.751-0.723
			c-0.736-0.836-1.302-1.923-1.637-2.985c-0.885-2.775-0.654-6.118,0-8.927c1.144-4.918,3.904-9.936,7.363-13.613
			c1.619-1.686,3.043-2.882,5.051-4.103C48.93,7.247,51.528,6.374,54.531,7.361z"/>
		<path style="fill-rule:evenodd;clip-rule:evenodd;fill:#0083C7;" d="M47.989,5.041c-0.603,0-1.203,0.081-1.886,0.207
			c-3.863,0.96-7.415,3.624-10.845,8.134c-3.528,4.788-5.63,10.575-5.63,15.472c0,1.345,0.174,3.313,0.978,5.051
			c0.359,0.792,0.897,1.555,1.458,2.097l0.377,0.328l1.758,1.014c-0.323-0.566-0.59-1.192-0.805-1.846
			c-1.075-3.382-0.469-7.201-0.016-9.181c1.143-4.885,3.944-10.057,7.483-13.831c1.782-1.835,3.229-3.007,5.16-4.179
			c1.73-0.949,3.715-1.83,5.952-1.83c0.025,0,0.041,0,0.065,0l-1.862-1.076C49.383,5.144,48.687,5.041,47.989,5.041L47.989,5.041z
			 M36.205,39.53c-0.064,0-0.144-0.021-0.214-0.057l-4.113-2.376l-0.457-0.4c-0.671-0.642-1.26-1.487-1.677-2.392
			c-0.881-1.895-1.071-4.013-1.071-5.451c0-5.092,2.175-11.089,5.831-16.038C38.056,8.12,41.786,5.344,45.9,4.317
			c1.596-0.298,2.909-0.359,4.667,0.223l4.207,2.412c0.202,0.122,0.294,0.385,0.186,0.606c-0.093,0.223-0.348,0.335-0.574,0.258
			c-3.019-0.993-5.576,0.04-7.897,1.309c-1.838,1.119-3.233,2.248-4.946,4.017c-3.418,3.65-6.126,8.66-7.24,13.391
			c-0.428,1.883-1.019,5.508,0,8.676c0.351,1.083,0.885,2.081,1.543,2.812c0.215,0.247,0.416,0.428,0.659,0.639
			c0.169,0.162,0.226,0.457,0.093,0.655C36.489,39.448,36.355,39.53,36.205,39.53z"/>
		<path style="fill-rule:evenodd;clip-rule:evenodd;fill:#C5E6F4;" d="M46.26,38.729c7.183-4.142,13.004-14.215,13.004-22.512
			c0-8.287-5.82-11.653-13.004-7.508c-7.169,4.146-13.003,14.232-13.003,22.52C33.256,39.521,39.091,42.876,46.26,38.729z"/>
		<path style="fill-rule:evenodd;clip-rule:evenodd;fill:#0083C7;" d="M46.26,38.729h0.016H46.26L46.26,38.729z M52.065,7.404
			c-1.701,0-3.592,0.577-5.564,1.718c-7.034,4.061-12.761,13.981-12.761,22.108c0,3.83,1.261,6.671,3.564,8.001
			c2.308,1.328,5.403,1.006,8.73-0.912c7.022-4.062,12.748-13.978,12.748-22.101c0-3.834-1.261-6.676-3.565-8.004
			C54.276,7.672,53.217,7.404,52.065,7.404L52.065,7.404z M40.457,40.988c-1.326,0-2.545-0.311-3.632-0.934
			c-2.603-1.507-4.038-4.638-4.038-8.825c0-8.43,5.94-18.717,13.247-22.932c3.62-2.09,7.05-2.416,9.652-0.91
			c2.614,1.508,4.049,4.643,4.049,8.829c0,8.427-5.94,18.71-13.234,22.924l0,0C44.372,40.368,42.319,40.988,40.457,40.988z"/>
		<polygon style="fill-rule:evenodd;clip-rule:evenodd;fill:#FFFFFF;" points="47.965,12.342 47.965,20.776 55.27,16.557 
			55.27,20.488 52.28,22.21 47.965,24.704 47.965,33.137 44.558,35.101 44.558,26.667 37.269,30.882 37.253,26.958 44.558,22.739 
			44.558,14.306 		"/>
		<path style="fill-rule:evenodd;clip-rule:evenodd;fill:#0083C7;" d="M44.558,26.19c0.081,0,0.161,0.025,0.243,0.065
			c0.145,0.085,0.238,0.243,0.238,0.413v7.608l2.457-1.413v-8.158c0-0.17,0.081-0.328,0.227-0.413l7.067-4.077v-2.834l-6.583,3.806
			c-0.15,0.085-0.334,0.085-0.484,0c-0.147-0.084-0.227-0.242-0.227-0.411v-7.609l-2.457,1.414v8.158
			c0,0.17-0.093,0.328-0.238,0.413l-7.064,4.077v2.833l6.595-3.807C44.397,26.215,44.478,26.19,44.558,26.19L44.558,26.19z
			 M44.558,35.577c-0.081,0-0.161-0.025-0.226-0.068c-0.149-0.085-0.243-0.239-0.243-0.408v-7.609l-6.595,3.802
			c-0.145,0.085-0.323,0.085-0.469,0.004c-0.15-0.088-0.243-0.246-0.243-0.416v-3.924c0-0.17,0.093-0.332,0.243-0.413l7.064-4.081
			v-8.158c0-0.17,0.094-0.327,0.243-0.413l3.391-1.964c0.15-0.081,0.334-0.084,0.484,0.004c0.145,0.082,0.227,0.238,0.227,0.408
			v7.608l6.594-3.802c0.15-0.084,0.323-0.084,0.468,0c0.151,0.085,0.243,0.243,0.243,0.408v3.932c0,0.166-0.092,0.323-0.243,0.409
			l-7.062,4.08v8.159c0,0.169-0.082,0.322-0.227,0.411l-3.406,1.96C44.719,35.553,44.639,35.577,44.558,35.577z"/>
	</g>
</g>
<g id="Layer_1">
</g>
</svg>
