<?xml version="1.0" encoding="UTF-8"?>
<!-- Generator: Adobe Illustrator 26.0.3, SVG Export Plug-In . SVG Version: 6.00 Build 0)  -->
<svg xmlns="http://www.w3.org/2000/svg" xmlns:xlink="http://www.w3.org/1999/xlink" version="1.1" id="Layer_1" x="0px" y="0px" viewBox="0 0 173.8 173.8" style="enable-background:new 0 0 173.8 173.8;" xml:space="preserve">
<style type="text/css">
	.st0{fill-rule:evenodd;clip-rule:evenodd;fill:#BDEDF8;}
	.st1{fill-rule:evenodd;clip-rule:evenodd;fill:#1A87C7;}
	.st2{fill-rule:evenodd;clip-rule:evenodd;fill:#66CEEF;}
	.st3{fill-rule:evenodd;clip-rule:evenodd;fill:#FFFFFF;}
</style>
<g id="Group_62" transform="translate(176.466 298.334)">
	<g id="Group_60" transform="translate(73.455)">
		<path id="Path_2681" class="st0" d="M-80.6-257.1l-45.5-26.3l-45.8,26.5l45.5,26.3L-80.6-257.1z"></path>
		<path id="Path_2682" class="st1" d="M-170.5-256.9l44,25.4l44.3-25.6l-44-25.4L-170.5-256.9L-170.5-256.9z M-126.5-229.8    c-0.1,0-0.3,0-0.4-0.1l-45.5-26.3c-0.2-0.1-0.4-0.4-0.4-0.7c0-0.3,0.1-0.5,0.4-0.7l45.9-26.5c0.2-0.1,0.5-0.1,0.8,0l45.5,26.3    c0.2,0.1,0.4,0.4,0.4,0.7c0,0.3-0.1,0.5-0.4,0.7l-45.8,26.5C-126.2-229.9-126.3-229.8-126.5-229.8L-126.5-229.8z"></path>
		<path id="Path_2683" class="st2" d="M-126.5-230.6l-45.5-26.3v49.5l45.5,26.3L-126.5-230.6z"></path>
		<path id="Path_2684" class="st1" d="M-171.2-207.8l44,25.4v-47.8l-44-25.4V-207.8z M-126.5-180.3c-0.1,0-0.3,0-0.4-0.1l-45.5-26.3    c-0.2-0.1-0.4-0.4-0.4-0.7v-49.5c0-0.3,0.1-0.5,0.4-0.7c0.2-0.1,0.5-0.1,0.8,0l45.5,26.3c0.2,0.1,0.4,0.4,0.4,0.7v49.5    c0,0.3-0.1,0.5-0.4,0.7C-126.2-180.3-126.3-180.3-126.5-180.3L-126.5-180.3z"></path>
		<path id="Path_2685" class="st3" d="M-80.6-207.5v-49.5l-45.8,26.5v49.5L-80.6-207.5z"></path>
		<path id="Path_2686" class="st1" d="M-125.7-230.2v47.8l44.3-25.6v-47.8L-125.7-230.2z M-126.5-180.3c-0.1,0-0.3,0-0.4-0.1    c-0.2-0.1-0.4-0.4-0.4-0.7v-49.5c0-0.3,0.1-0.5,0.4-0.7l45.9-26.5c0.2-0.1,0.5-0.1,0.8,0c0.2,0.1,0.4,0.4,0.4,0.7v49.5    c0,0.3-0.1,0.5-0.4,0.7l-45.8,26.5C-126.2-180.3-126.3-180.3-126.5-180.3L-126.5-180.3z"></path>
		<path id="Path_2687" class="st0" d="M-148.8-270.3l22.6-13.1l45.5,26.3l-22.6,13.1L-148.8-270.3z"></path>
		<path id="Path_2688" class="st1" d="M-147.2-270.3l44,25.4l21.1-12.2l-44-25.4L-147.2-270.3L-147.2-270.3z M-103.3-243.2    c-0.1,0-0.3,0-0.4-0.1l-45.5-26.3c-0.2-0.1-0.4-0.4-0.4-0.7c0-0.3,0.1-0.5,0.4-0.7l22.6-13.1c0.2-0.1,0.5-0.1,0.8,0l45.5,26.3    c0.2,0.1,0.4,0.4,0.4,0.7c0,0.3-0.1,0.5-0.4,0.7l-22.6,13.1C-103-243.3-103.1-243.2-103.3-243.2z"></path>
		<path id="Path_2689" class="st0" d="M-172-256.9l22.6-13.1l45.5,26.3l-22.6,13.1L-172-256.9z"></path>
		<path id="Path_2690" class="st1" d="M-170.5-256.9l44,25.4l21.1-12.2l-44-25.4L-170.5-256.9L-170.5-256.9z M-126.5-229.8    c-0.1,0-0.3,0-0.4-0.1l-45.5-26.3c-0.2-0.1-0.4-0.4-0.4-0.7c0-0.3,0.1-0.5,0.4-0.7l22.6-13.1c0.2-0.1,0.5-0.1,0.8,0l45.5,26.3    c0.2,0.1,0.4,0.4,0.4,0.7c0,0.3-0.2,0.5-0.4,0.7l-22.6,13.1C-126.2-229.9-126.3-229.8-126.5-229.8L-126.5-229.8z"></path>
		<path id="Path_2691" class="st3" d="M-152-268.4l5.9-3.4l45.5,26.3l-5.9,3.4L-152-268.4z"></path>
		<path id="Path_2692" class="st1" d="M-150.5-268.4l44,25.4l4.4-2.5l-44-25.4L-150.5-268.4L-150.5-268.4z M-106.5-241.4    c-0.1,0-0.3,0-0.4-0.1l-45.5-26.3c-0.2-0.1-0.4-0.4-0.4-0.7c0-0.3,0.1-0.5,0.4-0.7l5.9-3.4c0.2-0.1,0.5-0.1,0.8,0l45.5,26.3    c0.2,0.1,0.4,0.4,0.4,0.7c0,0.3-0.2,0.5-0.4,0.7l-5.9,3.4C-106.3-241.4-106.4-241.4-106.5-241.4L-106.5-241.4z"></path>
		<path id="Path_2693" class="st1" d="M-103.6-243.1c-0.1,0-0.3,0-0.4-0.1l-45.5-26.3c-0.4-0.2-0.5-0.7-0.3-1c0,0,0,0,0,0    c0.2-0.4,0.7-0.5,1-0.3c0,0,0,0,0,0l45.5,26.3c0.4,0.2,0.5,0.7,0.3,1c0,0,0,0,0,0C-103-243.2-103.3-243.1-103.6-243.1z"></path>
		<path id="Path_2694" class="st3" d="M-106.5-242.1v10.6l0.7,0.8l0.8-1.8c0-0.1,0.1-0.2,0.1-0.2c0.2-0.3,0.5-0.4,0.6-0.2l0.8,0.9    l0.8-1.8c0-0.1,0.1-0.2,0.1-0.2c0.2-0.3,0.5-0.4,0.6-0.2l0.8,0.9l0.7-1.6v-10.6L-106.5-242.1z"></path>
		<path id="Path_2695" class="st1" d="M-102.6-233.7L-102.6-233.7z M-105.8-241.7v8.8c0.1-0.1,0.1-0.2,0.2-0.4    c0.2-0.3,0.6-0.5,1-0.6c0.3,0,0.6,0.1,0.8,0.3l0.3-0.7c0.1-0.1,0.1-0.2,0.2-0.4c0.2-0.3,0.6-0.6,1-0.6c0.3,0,0.6,0.1,0.7,0.3    l0.2-0.3v-9.1L-105.8-241.7L-105.8-241.7z M-104.9-232.4L-104.9-232.4L-104.9-232.4z M-105.8-230c-0.2,0-0.4-0.1-0.6-0.3l-0.7-0.8    c-0.1-0.1-0.2-0.3-0.2-0.5v-10.6c0-0.3,0.2-0.5,0.4-0.7l5.9-3.4c0.2-0.1,0.5-0.1,0.8,0c0.2,0.1,0.4,0.4,0.4,0.7v10.6    c0,0.1,0,0.2-0.1,0.3l-0.7,1.6c-0.1,0.2-0.3,0.4-0.6,0.5c-0.3,0-0.5-0.1-0.7-0.3l-0.3-0.4l-0.7,1.5c-0.1,0.2-0.3,0.4-0.6,0.5    c-0.3,0-0.5-0.1-0.7-0.3l-0.3-0.4l-0.7,1.5c-0.1,0.2-0.3,0.4-0.6,0.5C-105.8-230-105.8-229.9-105.8-230L-105.8-230z"></path>
		<path id="Path_2696" class="st1" d="M-91.7-203.7c-0.3,0-0.5-0.1-0.7-0.4c-0.2-0.4-0.1-0.8,0.3-1c0,0,0,0,0,0l8-4.6    c0.3-0.2,0.8-0.1,1,0.2c0,0,0,0,0,0c0.2,0.4,0.1,0.8-0.3,1c0,0,0,0,0,0l-8,4.6C-91.4-203.7-91.6-203.7-91.7-203.7z"></path>
		<path id="Path_2697" class="st1" d="M-91.3-211.6c-0.1,0-0.1,0-0.2,0c-0.4-0.1-0.7-0.5-0.5-0.9c0,0,0,0,0,0l0.8-2.7    c0.1-0.5,0.4-1.5,1.2-1.5c0.4,0,0.8,0.1,1.1,0.9l0.8,1.9c0.1,0.4,0,0.8-0.4,1c-0.4,0.2-0.8,0-1-0.4c0,0,0,0,0,0l-0.3-0.9l-0.6,2.2    C-90.6-211.9-91-211.6-91.3-211.6z"></path>
		<path id="Path_2698" class="st1" d="M-90-207.3c-0.4,0-0.8-0.3-0.8-0.8v-8c0-0.4,0.3-0.8,0.8-0.8c0.4,0,0.8,0.3,0.8,0.8    c0,0,0,0,0,0v8C-89.2-207.6-89.6-207.3-90-207.3C-90-207.3-90-207.3-90-207.3z"></path>
		<path id="Path_2699" class="st1" d="M-87.3-214c-0.1,0-0.1,0-0.2,0c-0.4-0.1-0.6-0.5-0.5-0.9c0,0,0,0,0,0l0.8-2.7    c0.1-0.5,0.4-1.5,1.2-1.5c0.4,0,0.8,0.1,1.1,0.9l0.8,1.9c0.2,0.4,0,0.8-0.4,1c-0.4,0.2-0.8,0-1-0.4l-0.4-0.9l-0.6,2.2    C-86.6-214.2-86.9-214-87.3-214z"></path>
		<path id="Path_2700" class="st1" d="M-86-209.6c-0.4,0-0.8-0.3-0.8-0.8l0,0v-8c0-0.4,0.3-0.8,0.8-0.8c0,0,0,0,0,0    c0.4,0,0.8,0.3,0.8,0.8v8C-85.2-209.9-85.5-209.6-86-209.6z"></path>
	</g>
	<g id="Group_61" transform="translate(0 33.99)">
		<path id="Path_2701" class="st2" d="M-169.1-203.2l-2.4-1.6c-0.3-0.6-0.5-1.2-0.5-1.9l0-38.2c0.2-2.8,1.6-5.4,4-6.9l53.8-31    c0.8-0.6,1.9-0.7,2.8-0.3l2.4,1.6c-0.9-0.4-2-0.3-2.8,0.3l-53.8,31c-2.4,1.5-3.8,4.1-4,6.9l0,38.2    C-169.6-204.4-169.5-203.7-169.1-203.2z"></path>
		<path id="Path_2702" class="st1" d="M-170.9-205.3l0.5,0.4c0,0,0-0.1,0-0.1l0-38.2c0.2-3.1,1.8-5.9,4.4-7.6l53.8-31    c0.2-0.1,0.5-0.3,0.7-0.4l-0.3-0.2c-0.5-0.3-1.1-0.2-2,0.3l-53.8,31c-2.1,1.4-3.5,3.7-3.6,6.3l0,38.2    C-171.2-206.2-171.1-205.7-170.9-205.3L-170.9-205.3z M-169.1-202.4c-0.2,0-0.3,0-0.4-0.1l-2.4-1.6c-0.1-0.1-0.2-0.1-0.2-0.2    c-0.4-0.7-0.6-1.5-0.6-2.3l0-38.2c0.1-3.1,1.8-5.9,4.4-7.6l53.8-31c1.1-0.7,2.4-0.8,3.6-0.3l2.4,1.7c0.3,0.2,0.4,0.7,0.2,1    c-0.2,0.3-0.7,0.5-1,0.3c-0.7-0.3-1.5-0.2-2.1,0.3l-53.8,31c-2.1,1.4-3.5,3.7-3.6,6.3l0,38.2c0,0.5,0.1,1.1,0.4,1.5    c0.2,0.3,0.1,0.7-0.1,0.9C-168.8-202.5-168.9-202.4-169.1-202.4z"></path>
		<path id="Path_2703" class="st0" d="M-165.6-250.2l53.8-31c2.2-1.3,4-0.2,4,2.3l0,38.2c-0.2,2.8-1.6,5.4-4,6.9l-53.8,31    c-2.2,1.3-4,0.2-4-2.3l0-38.2C-169.4-246.1-168-248.6-165.6-250.2z"></path>
		<path id="Path_2704" class="st1" d="M-165.6-250.2L-165.6-250.2z M-110.1-281c-0.5,0-1,0.2-1.4,0.4l-53.8,31l0,0    c-2.1,1.4-3.5,3.7-3.6,6.2l0,38.2c-0.1,0.7,0.2,1.5,0.8,1.9c0.7,0.3,1.5,0.2,2-0.3l53.8-31c2.1-1.4,3.5-3.7,3.6-6.2l0-38.2    c0.1-0.7-0.2-1.5-0.8-1.9C-109.6-280.9-109.8-281-110.1-281L-110.1-281z M-167.4-201.5c-0.5,0-1-0.1-1.4-0.4    c-1.1-0.7-1.7-2-1.6-3.2l0-38.2c0.2-3.1,1.8-5.9,4.4-7.6l53.8-31c1.1-0.7,2.4-0.8,3.6-0.3c1.1,0.7,1.7,2,1.6,3.2l0,38.2    c-0.2,3.1-1.8,5.9-4.4,7.6l-53.8,31C-165.9-201.7-166.6-201.5-167.4-201.5L-167.4-201.5z"></path>
		<path id="Path_2705" class="st3" d="M-165.4-247.3l14.2-8.2l39.1-22.6c1-0.6,1.8-0.1,1.8,1.1l0,37.2c-0.1,1.3-0.7,2.5-1.8,3.2    l-44.2,25.5l-9.1,5.3c-1,0.6-1.8,0.1-1.8-1.1l0-37.2C-167.1-245.4-166.4-246.6-165.4-247.3z"></path>
		<path id="Path_2706" class="st1" d="M-165.4-247.3L-165.4-247.3z M-111.3-277.5c-0.2,0-0.3,0.1-0.4,0.1l-53.3,30.8l0,0    c-0.8,0.6-1.4,1.5-1.4,2.5l0,37.2c0,0.3,0.1,0.5,0.2,0.5s0.3,0,0.5-0.1l53.3-30.8c0.8-0.6,1.4-1.5,1.4-2.5l0-37.2    C-111-277.3-111.1-277.5-111.3-277.5C-111.2-277.5-111.2-277.5-111.3-277.5L-111.3-277.5z M-166.2-204.9c-0.3,0-0.6-0.1-0.9-0.2    c-0.6-0.4-1-1.1-0.9-1.8l0-37.2c0.1-1.6,0.9-3,2.2-3.8l53.3-30.8c0.6-0.4,1.4-0.5,2.1-0.1c0.6,0.4,1,1.1,0.9,1.8l0,37.2    c-0.1,1.6-0.9,3-2.2,3.8l-53.3,30.8C-165.4-205-165.8-204.9-166.2-204.9L-166.2-204.9z"></path>
		<path id="Path_2707" class="st3" d="M-157.2-242.5l37-21.3v25.5l-37,21.3V-242.5z"></path>
		<path id="Path_2708" class="st1" d="M-156.4-242.1v23.7l35.4-20.5v-23.7L-156.4-242.1z M-157.2-216.2c-0.1,0-0.3,0-0.4-0.1    c-0.2-0.1-0.4-0.4-0.4-0.7v-25.5c0-0.3,0.1-0.5,0.4-0.7l37-21.3c0.2-0.1,0.5-0.1,0.8,0c0.2,0.1,0.4,0.4,0.4,0.7v25.5    c0,0.3-0.1,0.5-0.4,0.7l-37,21.3C-156.9-216.3-157.1-216.2-157.2-216.2L-157.2-216.2z"></path>
		<path id="Path_2709" class="st0" d="M-157.2-242.5l37-21.3v-3.7l-37,21.3V-242.5z"></path>
		<path id="Path_2710" class="st1" d="M-156.4-245.7v1.9l35.4-20.5v-1.9L-156.4-245.7z M-157.2-241.7c-0.1,0-0.3,0-0.4-0.1    c-0.2-0.1-0.4-0.4-0.4-0.7v-3.7c0-0.3,0.1-0.5,0.4-0.7l37-21.3c0.2-0.1,0.5-0.1,0.8,0c0.2,0.1,0.4,0.4,0.4,0.7v3.7    c0,0.3-0.1,0.5-0.4,0.7l-37,21.3C-156.9-241.8-157.1-241.7-157.2-241.7L-157.2-241.7z"></path>
		<path id="Path_2711" class="st0" d="M-147.8-241.8L-147.8-241.8c0.5-0.3,0.9-0.1,0.9,0.5l0,0c0,0.6-0.4,1.2-0.9,1.6l0,0    c-0.5,0.3-0.9,0.1-0.9-0.5l0,0C-148.7-240.9-148.4-241.5-147.8-241.8z"></path>
		<path id="Path_2712" class="st1" d="M-147.8-241.8L-147.8-241.8z M-148.2-238.9c-0.2,0-0.4-0.1-0.6-0.2c-0.4-0.3-0.7-0.8-0.7-1.3    c0-0.9,0.5-1.7,1.3-2.2c0.4-0.3,1-0.3,1.4-0.1c0.4,0.3,0.7,0.7,0.7,1.2c0,0.9-0.5,1.7-1.3,2.2C-147.7-238.9-148-238.9-148.2-238.9    L-148.2-238.9z"></path>
		<path id="Path_2713" class="st0" d="M-147.8-236.2L-147.8-236.2c0.5-0.3,0.9-0.1,0.9,0.5l0,0c0,0.6-0.4,1.2-0.9,1.6l0,0    c-0.5,0.3-0.9,0.1-0.9-0.5l0,0C-148.7-235.3-148.4-235.9-147.8-236.2z"></path>
		<path id="Path_2714" class="st1" d="M-147.8-236.2L-147.8-236.2z M-148.2-233.2c-0.2,0-0.4-0.1-0.6-0.2c-0.4-0.3-0.7-0.7-0.7-1.3    c0-0.9,0.5-1.8,1.3-2.2c0.4-0.3,1-0.3,1.4-0.1c0.4,0.3,0.7,0.7,0.7,1.2c0,0.9-0.5,1.8-1.3,2.2C-147.7-233.3-148-233.2-148.2-233.2    L-148.2-233.2z"></path>
		<path id="Path_2715" class="st0" d="M-147.8-230.2L-147.8-230.2c0.5-0.3,0.9-0.1,0.9,0.5l0,0c0,0.6-0.4,1.2-0.9,1.6l0,0    c-0.5,0.3-0.9,0.1-0.9-0.5l0,0C-148.7-229.3-148.4-229.9-147.8-230.2z"></path>
		<path id="Path_2716" class="st1" d="M-147.8-230.2L-147.8-230.2z M-148.2-227.2c-0.2,0-0.4-0.1-0.6-0.2c-0.4-0.3-0.7-0.7-0.7-1.2    c0-0.9,0.5-1.8,1.3-2.2c0.4-0.3,1-0.3,1.4-0.1c0.4,0.3,0.7,0.7,0.7,1.2c0,0.9-0.5,1.7-1.3,2.2C-147.7-227.3-148-227.3-148.2-227.2    L-148.2-227.2z"></path>
		<path id="Path_2717" class="st0" d="M-70.9-210.9v2.9c-0.3,0.8-0.8,1.5-1.6,1.8l-54,31.2c-1.2,0.6-2.4,0.9-3.7,0.9    c-1.5,0.1-3-0.3-4.3-0.9l-33.2-19.2c-0.8-0.4-1.3-1-1.6-1.9v-2.9c0.3,0.8,0.8,1.5,1.6,1.8l33.2,19.2c1.3,0.7,2.8,1,4.3,1    c1.3,0,2.6-0.3,3.7-0.9l54-31.2C-71.8-209.4-71.2-210.1-70.9-210.9z"></path>
		<path id="Path_2718" class="st1" d="M-168.5-196.1c0.2,0.6,0.7,1,1.2,1.3l33.1,19.2c1.2,0.6,2.5,0.9,3.9,0.8    c1.2,0,2.3-0.3,3.4-0.9l54-31.2c0.6-0.3,1-0.7,1.2-1.3v-0.6c-0.1,0.1-0.3,0.2-0.4,0.3l-54,31.2c-1.3,0.7-2.7,1-4.1,1.1    c-1.6,0.1-3.2-0.3-4.7-1.1l-33.2-19.2c-0.1-0.1-0.3-0.2-0.4-0.3L-168.5-196.1L-168.5-196.1z M-130.4-173.2c-1.6,0-3.1-0.3-4.5-1.1    l-33.2-19.2c-0.9-0.5-1.6-1.3-1.9-2.3c0-0.1,0-0.1,0-0.2v-2.9c0-0.4,0.3-0.7,0.7-0.8c0.4,0,0.7,0.2,0.8,0.5    c0.2,0.6,0.7,1.1,1.3,1.4l33.1,19.2c1.2,0.6,2.5,0.9,3.9,0.9c1.2,0,2.3-0.3,3.4-0.9l54-31.2c0.6-0.3,1-0.8,1.2-1.4    c0.1-0.4,0.5-0.6,0.8-0.6c0.4,0.1,0.7,0.4,0.7,0.8v2.9c0,0.1,0,0.1,0,0.2c-0.3,1-1,1.8-1.9,2.3l-54,31.2c-1.3,0.7-2.7,1-4.1,1.1    L-130.4-173.2z"></path>
		<path id="Path_2719" class="st2" d="M-167.7-201.7l54-31.2c2.5-1.3,5.5-1.3,8,0l33.2,19.2c2.2,1.3,2.2,3.4,0,4.6l-54,31.2    c-2.5,1.3-5.5,1.3-8,0l-33.2-19.2C-169.9-198.3-169.9-200.4-167.7-201.7z"></path>
		<path id="Path_2720" class="st1" d="M-167.7-201.7L-167.7-201.7z M-167.3-201c-0.7,0.3-1.2,0.9-1.3,1.7c0.1,0.7,0.6,1.4,1.3,1.6    l33.2,19.2c2.3,1.1,5,1.1,7.2,0l54-31.2c0.7-0.3,1.2-0.9,1.3-1.6c-0.1-0.7-0.6-1.4-1.3-1.7l-33.2-19.2c-2.3-1.1-5-1.1-7.2,0    L-167.3-201L-167.3-201z M-130.5-176.1c-1.5,0-3-0.3-4.4-1.1l-33.2-19.2c-1.2-0.5-2-1.7-2-3c0.1-1.3,0.9-2.4,2-3l54-31.2    c2.8-1.4,6-1.4,8.8,0l33.2,19.2c1.2,0.5,2,1.7,2,3c-0.1,1.3-0.9,2.4-2,3l-54,31.2C-127.5-176.5-129-176.1-130.5-176.1    L-130.5-176.1z"></path>
		<path id="Path_2721" class="st0" d="M-109.6-190.8l14.8-8.5l-11.3-6.5l-14.8,8.5L-109.6-190.8z"></path>
		<path id="Path_2722" class="st1" d="M-119.4-197.3l9.8,5.7l13.2-7.7l-9.8-5.6L-119.4-197.3L-119.4-197.3z M-109.6-190    c-0.1,0-0.3,0-0.4-0.1l-11.3-6.5c-0.2-0.1-0.4-0.4-0.4-0.7c0-0.3,0.1-0.5,0.4-0.7l14.8-8.5c0.2-0.1,0.5-0.1,0.8,0l11.3,6.5    c0.2,0.1,0.4,0.4,0.4,0.7c0,0.3-0.1,0.5-0.4,0.7l-14.8,8.5C-109.4-190-109.5-190-109.6-190z"></path>
		<path id="Path_2723" class="st0" d="M-160.9-200.6c16.4-9.4,32.7-18.9,49.1-28.4c1.3-0.7,2.9-0.7,4.3,0l16.7,9.7    c0.7,0.2,1,1,0.8,1.7c-0.1,0.4-0.4,0.7-0.8,0.8c-16.4,9.4-32.7,18.9-49.1,28.4c-1.3,0.7-2.9,0.7-4.3,0l-16.7-9.7    c-0.7-0.2-1-1-0.8-1.7C-161.6-200.2-161.3-200.5-160.9-200.6z"></path>
		<path id="Path_2724" class="st1" d="M-160.9-200.6l0.4,0.7c-0.3,0.2-0.5,0.4-0.5,0.6s0.2,0.4,0.5,0.6l16.7,9.7    c1.1,0.5,2.4,0.5,3.5,0l49.1-28.4c0.3-0.2,0.5-0.4,0.5-0.6s-0.2-0.4-0.5-0.6l-16.7-9.7c-1.1-0.5-2.4-0.5-3.5,0l-49.1,28.4    L-160.9-200.6L-160.9-200.6z M-142-187.2c-0.9,0-1.8-0.2-2.5-0.6l-16.7-9.7c-0.7-0.4-1.2-1.1-1.3-1.9c0-0.8,0.5-1.5,1.3-1.9    l49.1-28.4c1.6-0.8,3.5-0.8,5,0l16.7,9.7c0.7,0.4,1.2,1.1,1.3,1.9c-0.1,0.8-0.5,1.5-1.3,1.9l-49.1,28.3    C-140.3-187.4-141.2-187.1-142-187.2L-142-187.2z"></path>
		<path id="Path_2725" class="st3" d="M-139.4-203.3l2.4-1.4c0.6-0.3,1.2-0.3,1.8,0l2.4,1.4c0.3,0.1,0.4,0.4,0.3,0.7    c-0.1,0.2-0.2,0.3-0.3,0.3l-2.4,1.4c-0.6,0.3-1.2,0.3-1.8,0l-2.4-1.4c-0.3-0.1-0.4-0.4-0.3-0.7    C-139.6-203.1-139.5-203.3-139.4-203.3z"></path>
		<path id="Path_2726" class="st1" d="M-138.7-202.8l2.1,1.2c0.3,0.1,0.7,0.1,1,0l2.1-1.2l-2.1-1.2c-0.3-0.1-0.7-0.1-1,0    L-138.7-202.8z M-136.1-199.9c-0.4,0-0.9-0.1-1.3-0.3l-2.4-1.4c-0.4-0.2-0.7-0.7-0.7-1.2c0-0.5,0.3-1,0.7-1.2l0,0l2.4-1.4    c0.8-0.4,1.7-0.4,2.5,0l2.4,1.4c0.4,0.2,0.7,0.7,0.7,1.2c0,0.5-0.3,0.9-0.7,1.2l-2.4,1.4C-135.2-200-135.6-199.9-136.1-199.9    L-136.1-199.9z"></path>
		<path id="Path_2727" class="st3" d="M-148.8-197.8l-2.4,1.4c-0.3,0.1-0.4,0.4-0.3,0.7c0.1,0.2,0.2,0.3,0.3,0.3l2.4,1.4    c0.6,0.3,1.2,0.3,1.8,0l2.4-1.4c0.3-0.1,0.4-0.4,0.3-0.7c-0.1-0.2-0.2-0.3-0.3-0.3l-2.4-1.4C-147.6-198.1-148.3-198.1-148.8-197.8    z"></path>
		<path id="Path_2728" class="st1" d="M-150.6-195.9l2.1,1.2c0.3,0.1,0.7,0.1,1,0l2.1-1.2l-2.1-1.2c-0.3-0.1-0.7-0.1-1,0    L-150.6-195.9z M-148-193c-0.4,0-0.9-0.1-1.3-0.3l-2.4-1.4c-0.4-0.2-0.7-0.7-0.7-1.2c0-0.5,0.3-1,0.8-1.2l2.4-1.4l0,0    c0.8-0.4,1.7-0.4,2.5,0l2.4,1.4c0.4,0.2,0.7,0.7,0.7,1.2c0,0.5-0.3,1-0.8,1.2l-2.4,1.4C-147.1-193.1-147.5-193-148-193L-148-193z"></path>
		<path id="Path_2729" class="st3" d="M-142.9-194.4l-2.4,1.4c-0.3,0.1-0.4,0.4-0.3,0.7c0.1,0.2,0.2,0.3,0.3,0.3l2.4,1.4    c0.6,0.3,1.2,0.3,1.8,0l2.4-1.4c0.3-0.1,0.4-0.4,0.3-0.7c-0.1-0.2-0.2-0.3-0.3-0.3l-2.4-1.4C-141.7-194.7-142.3-194.7-142.9-194.4    z"></path>
		<path id="Path_2730" class="st1" d="M-144.7-192.5l2.1,1.2c0.3,0.1,0.7,0.1,1,0l2.1-1.2l-2.1-1.2c-0.3-0.1-0.7-0.1-1,0    L-144.7-192.5L-144.7-192.5z M-142-189.6c-0.4,0-0.9-0.1-1.3-0.3l-2.4-1.4c-0.4-0.2-0.7-0.7-0.7-1.2c0-0.5,0.3-0.9,0.7-1.2    l2.4-1.4l0,0c0.8-0.4,1.7-0.4,2.5,0l2.4,1.4c0.4,0.2,0.7,0.7,0.7,1.2c0,0.5-0.3,0.9-0.7,1.2l-2.4,1.4    C-141.1-189.7-141.6-189.6-142-189.6L-142-189.6z"></path>
		<path id="Path_2731" class="st3" d="M-147.1-200.9l2.4-1.4c0.5-0.3,0.5-0.7,0-1l-2.4-1.4c-0.6-0.3-1.2-0.3-1.8,0l-2.4,1.4    c-0.3,0.1-0.4,0.4-0.3,0.7c0.1,0.2,0.2,0.3,0.3,0.3l2.4,1.4C-148.3-200.6-147.6-200.6-147.1-200.9z"></path>
		<path id="Path_2732" class="st1" d="M-150.6-202.8l2.1,1.2c0.3,0.1,0.7,0.1,1,0l2.1-1.2l-2.1-1.2c-0.3-0.1-0.7-0.1-1,0    L-150.6-202.8z M-147.1-200.9L-147.1-200.9z M-148-199.9c-0.4,0-0.9-0.1-1.3-0.3l-2.4-1.4c-0.4-0.2-0.7-0.7-0.7-1.2    c0-0.5,0.3-0.9,0.7-1.2l2.4-1.4c0.8-0.4,1.7-0.4,2.5,0l2.4,1.4c0.4,0.2,0.7,0.7,0.8,1.2c0,0.5-0.3,0.9-0.8,1.2l-2.4,1.4l0,0    C-147.1-200-147.5-199.9-148-199.9L-148-199.9z"></path>
		<path id="Path_2733" class="st3" d="M-141.1-204.3l2.4-1.4c0.3-0.1,0.4-0.4,0.3-0.7c-0.1-0.2-0.2-0.3-0.3-0.3l-2.4-1.4    c-0.6-0.3-1.2-0.3-1.8,0l-2.4,1.4c-0.3,0.1-0.4,0.4-0.3,0.7c0.1,0.2,0.2,0.3,0.3,0.3l2.4,1.4C-142.3-204-141.7-204-141.1-204.3z"></path>
		<path id="Path_2734" class="st1" d="M-144.6-206.2l2.1,1.2c0.3,0.1,0.7,0.1,1,0l2.1-1.2l-2.1-1.2c-0.3-0.1-0.7-0.1-1,0    L-144.6-206.2L-144.6-206.2z M-141.1-204.3L-141.1-204.3z M-142-203.4c-0.4,0-0.9-0.1-1.3-0.3l-2.4-1.4c-0.4-0.2-0.7-0.7-0.8-1.2    c0-0.5,0.3-0.9,0.8-1.2l2.4-1.4c0.8-0.4,1.7-0.4,2.5,0l2.4,1.4c0.4,0.2,0.7,0.7,0.7,1.2c0,0.5-0.3,0.9-0.8,1.2l-2.4,1.4l0,0    C-141.1-203.5-141.6-203.3-142-203.4L-142-203.4z"></path>
		<path id="Path_2735" class="st3" d="M-150.6-198.9l-2.4,1.4c-0.6,0.3-1.2,0.3-1.8,0l-2.4-1.4c-0.3-0.1-0.4-0.4-0.3-0.7    c0.1-0.2,0.2-0.3,0.3-0.3l2.4-1.4c0.6-0.3,1.2-0.3,1.8,0l2.4,1.4c0.3,0.1,0.4,0.4,0.3,0.7C-150.3-199-150.4-198.9-150.6-198.9z"></path>
		<path id="Path_2736" class="st1" d="M-156.5-199.4l2.1,1.2c0.3,0.1,0.7,0.1,1,0l2.1-1.2l-2.1-1.2c-0.3-0.1-0.7-0.1-1,0    L-156.5-199.4L-156.5-199.4z M-153.9-196.5c-0.4,0-0.9-0.1-1.3-0.3l-2.4-1.4c-0.4-0.2-0.7-0.7-0.7-1.2c0-0.5,0.3-0.9,0.8-1.2    l2.4-1.4c0.8-0.4,1.7-0.4,2.5,0l2.4,1.4c0.4,0.2,0.7,0.7,0.7,1.2c0,0.5-0.3,0.9-0.7,1.2l-2.4,1.4    C-153-196.6-153.5-196.5-153.9-196.5L-153.9-196.5z"></path>
		<path id="Path_2737" class="st3" d="M-145.3-199.9l2.4-1.4c0.6-0.3,1.2-0.3,1.8,0l2.4,1.4c0.3,0.1,0.4,0.4,0.3,0.7    c-0.1,0.2-0.2,0.3-0.3,0.3l-2.4,1.4c-0.6,0.3-1.2,0.3-1.8,0l-2.4-1.4c-0.3-0.1-0.4-0.4-0.3-0.7    C-145.6-199.7-145.5-199.8-145.3-199.9z"></path>
		<path id="Path_2738" class="st1" d="M-144.7-199.4l2.1,1.2c0.3,0.1,0.7,0.1,1,0l2.1-1.2l-2.1-1.2c-0.3-0.1-0.7-0.1-1,0    L-144.7-199.4z M-142-196.5c-0.4,0-0.9-0.1-1.3-0.3l-2.4-1.4c-0.4-0.2-0.7-0.7-0.7-1.2c0-0.5,0.3-0.9,0.7-1.2l0,0l2.4-1.4    c0.8-0.4,1.7-0.4,2.5,0l2.4,1.4c0.4,0.2,0.7,0.7,0.7,1.2c0,0.5-0.3,0.9-0.7,1.2l-2.4,1.4C-141.1-196.6-141.6-196.5-142-196.5    L-142-196.5z"></path>
		<path id="Path_2739" class="st3" d="M-127.5-210.2l2.4-1.4c0.6-0.3,1.2-0.3,1.8,0l2.4,1.4c0.3,0.1,0.4,0.4,0.3,0.7    c-0.1,0.2-0.2,0.3-0.3,0.3l-2.4,1.4c-0.6,0.3-1.2,0.3-1.8,0l-2.4-1.4c-0.3-0.1-0.4-0.4-0.3-0.7    C-127.8-210-127.6-210.1-127.5-210.2z"></path>
		<path id="Path_2740" class="st1" d="M-127.5-210.2L-127.5-210.2z M-126.8-209.7l2.1,1.2c0.3,0.1,0.7,0.1,1,0l2.1-1.2l-2.1-1.2    c-0.3-0.1-0.7-0.1-1,0L-126.8-209.7z M-124.2-206.8c-0.4,0-0.9-0.1-1.3-0.3l-2.4-1.4c-0.4-0.2-0.7-0.7-0.7-1.2    c0-0.5,0.3-0.9,0.7-1.2l2.4-1.4c0.8-0.4,1.7-0.4,2.5,0l2.4,1.4c0.4,0.2,0.7,0.7,0.7,1.2c0,0.5-0.3,1-0.8,1.2l-2.4,1.4    C-123.3-206.9-123.7-206.8-124.2-206.8L-124.2-206.8z"></path>
		<path id="Path_2741" class="st3" d="M-121.5-206.7l2.4-1.4c0.6-0.3,1.2-0.3,1.8,0l2.4,1.4c0.3,0.1,0.4,0.4,0.3,0.7    c-0.1,0.2-0.2,0.3-0.3,0.3l-2.4,1.4c-0.6,0.3-1.2,0.3-1.8,0l-2.4-1.4c-0.3-0.1-0.4-0.4-0.3-0.7    C-121.8-206.6-121.7-206.7-121.5-206.7z"></path>
		<path id="Path_2742" class="st1" d="M-121.5-206.7L-121.5-206.7z M-120.9-206.2l2.1,1.2c0.3,0.1,0.7,0.1,1,0l2.1-1.2l-2.1-1.2    c-0.3-0.1-0.7-0.1-1,0L-120.9-206.2L-120.9-206.2z M-118.2-203.4c-0.4,0-0.9-0.1-1.3-0.3l-2.4-1.4c-0.4-0.2-0.7-0.7-0.7-1.2    c0-0.5,0.3-0.9,0.7-1.2l2.4-1.4c0.8-0.4,1.7-0.4,2.5,0l2.4,1.4c0.4,0.2,0.7,0.7,0.8,1.2c0,0.5-0.3,0.9-0.8,1.2l-2.4,1.4    C-117.4-203.4-117.8-203.3-118.2-203.4L-118.2-203.4z"></path>
		<path id="Path_2743" class="st3" d="M-135.2-207.8l2.4-1.4c0.3-0.1,0.4-0.4,0.3-0.7c-0.1-0.2-0.2-0.3-0.3-0.3l-2.4-1.4    c-0.6-0.3-1.2-0.3-1.8,0l-2.4,1.4c-0.3,0.1-0.4,0.4-0.3,0.7c0.1,0.2,0.2,0.3,0.3,0.3l2.4,1.4    C-136.4-207.5-135.7-207.5-135.2-207.8z"></path>
		<path id="Path_2744" class="st1" d="M-138.7-209.7l2.1,1.2c0.3,0.1,0.7,0.1,1,0h0l2.1-1.2l-2.1-1.2c-0.3-0.1-0.7-0.1-1,0    L-138.7-209.7L-138.7-209.7z M-136.1-206.8c-0.4,0-0.9-0.1-1.3-0.3l-2.4-1.4c-0.4-0.2-0.7-0.7-0.8-1.2c0-0.5,0.3-0.9,0.8-1.2    l2.4-1.4c0.8-0.4,1.7-0.4,2.5,0l2.4,1.4c0.4,0.2,0.7,0.7,0.7,1.2c0,0.5-0.3,0.9-0.8,1.2l-2.4,1.4    C-135.2-206.9-135.6-206.8-136.1-206.8L-136.1-206.8z"></path>
		<path id="Path_2745" class="st3" d="M-129.2-211.2l2.4-1.4c0.3-0.1,0.4-0.4,0.3-0.7c-0.1-0.2-0.2-0.3-0.3-0.3l-2.4-1.4    c-0.6-0.3-1.2-0.3-1.8,0l-2.4,1.4c-0.3,0.1-0.4,0.4-0.3,0.7c0.1,0.2,0.2,0.3,0.3,0.3l2.4,1.4    C-130.4-210.9-129.8-210.9-129.2-211.2z"></path>
		<path id="Path_2746" class="st1" d="M-132.8-213.1l2.1,1.2c0.3,0.1,0.7,0.1,1,0l2.1-1.2l-2.1-1.2c-0.3-0.1-0.7-0.1-1,0    L-132.8-213.1z M-129.2-211.2L-129.2-211.2z M-130.1-210.2c-0.4,0-0.9-0.1-1.3-0.3l-2.4-1.4c-0.4-0.2-0.7-0.7-0.8-1.2    c0-0.5,0.3-0.9,0.8-1.2l2.4-1.4c0.8-0.4,1.7-0.4,2.5,0l2.4,1.4c0.4,0.2,0.7,0.7,0.7,1.2c0,0.5-0.3,0.9-0.7,1.2l-2.4,1.4l0,0    C-129.2-210.3-129.7-210.2-130.1-210.2L-130.1-210.2z"></path>
		<path id="Path_2747" class="st3" d="M-133.4-206.7l2.4-1.4c0.6-0.3,1.2-0.3,1.8,0l2.4,1.4c0.3,0.1,0.4,0.4,0.3,0.7    c-0.1,0.2-0.2,0.3-0.3,0.3l-2.4,1.4c-0.6,0.3-1.2,0.3-1.8,0l-2.4-1.4c-0.3-0.1-0.4-0.4-0.3-0.7    C-133.7-206.6-133.6-206.7-133.4-206.7z"></path>
		<path id="Path_2748" class="st1" d="M-133.4-206.7L-133.4-206.7z M-132.8-206.2l2.1,1.2c0.3,0.1,0.7,0.1,1,0l2.1-1.2l-2.1-1.2    c-0.3-0.1-0.7-0.1-1,0L-132.8-206.2z M-130.1-203.4c-0.4,0-0.9-0.1-1.3-0.3l-2.4-1.4c-0.4-0.2-0.7-0.7-0.7-1.2    c0-0.5,0.3-0.9,0.7-1.2l2.4-1.4c0.8-0.4,1.7-0.4,2.5,0l2.4,1.4c0.4,0.2,0.7,0.7,0.7,1.2c0,0.5-0.3,1-0.8,1.2l-2.4,1.4    C-129.2-203.5-129.7-203.3-130.1-203.4L-130.1-203.4z"></path>
		<path id="Path_2749" class="st3" d="M-139.4-196.4l14.3-8.3c0.6-0.3,1.2-0.3,1.8,0l2.4,1.4c0.3,0.1,0.4,0.4,0.3,0.7    c-0.1,0.2-0.2,0.3-0.3,0.3l-14.3,8.3c-0.6,0.3-1.2,0.3-1.8,0l-2.4-1.4c-0.3-0.1-0.4-0.4-0.3-0.7    C-139.6-196.3-139.5-196.4-139.4-196.4z"></path>
		<path id="Path_2750" class="st1" d="M-138.7-195.9l2.1,1.2c0.3,0.1,0.7,0.1,1,0l14-8.1l-2.1-1.2c-0.3-0.1-0.7-0.1-1,0    L-138.7-195.9L-138.7-195.9z M-136.1-193c-0.4,0-0.9-0.1-1.3-0.3l-2.4-1.4c-0.4-0.2-0.7-0.7-0.7-1.2c0-0.5,0.3-0.9,0.7-1.2h0    l14.3-8.3c0.8-0.4,1.7-0.4,2.5,0l2.4,1.4c0.4,0.2,0.7,0.7,0.8,1.2c0,0.5-0.3,1-0.8,1.2l-14.3,8.3    C-135.2-193.1-135.6-193-136.1-193L-136.1-193z"></path>
		<path id="Path_2751" class="st3" d="M-107.7-221.6l2.4-1.4c0.6-0.3,1.2-0.3,1.8,0l2.4,1.4c0.3,0.1,0.4,0.4,0.3,0.7    c-0.1,0.2-0.2,0.3-0.3,0.3l-2.4,1.4c-0.6,0.3-1.2,0.3-1.8,0l-2.4-1.4c-0.3-0.1-0.4-0.4-0.3-0.7    C-108-221.4-107.9-221.5-107.7-221.6z"></path>
		<path id="Path_2752" class="st1" d="M-107.7-221.6L-107.7-221.6z M-107.1-221.1l2.1,1.2c0.3,0.1,0.7,0.1,1,0l2.1-1.2l-2.1-1.2    c-0.3-0.1-0.7-0.1-1,0L-107.1-221.1z M-104.4-218.2c-0.4,0-0.9-0.1-1.3-0.3l-2.4-1.4c-0.4-0.2-0.7-0.7-0.7-1.2    c0-0.5,0.3-0.9,0.7-1.2l2.4-1.4c0.8-0.4,1.7-0.4,2.5,0l2.4,1.4c0.4,0.2,0.7,0.7,0.7,1.2c0,0.5-0.3,0.9-0.8,1.2l-2.4,1.4    C-103.5-218.3-104-218.2-104.4-218.2L-104.4-218.2z"></path>
		<path id="Path_2753" class="st3" d="M-101.8-218.2l2.4-1.4c0.6-0.3,1.2-0.3,1.8,0l2.4,1.4c0.3,0.1,0.4,0.4,0.3,0.7    c-0.1,0.2-0.2,0.3-0.3,0.3l-2.4,1.4c-0.6,0.3-1.2,0.3-1.8,0l-2.4-1.4c-0.3-0.1-0.4-0.4-0.3-0.7    C-102.1-218-101.9-218.1-101.8-218.2z"></path>
		<path id="Path_2754" class="st1" d="M-101.8-218.2L-101.8-218.2z M-101.1-217.6l2.1,1.2c0.3,0.1,0.7,0.1,1,0l2.1-1.2l-2.1-1.2    c-0.3-0.1-0.7-0.1-1,0L-101.1-217.6L-101.1-217.6z M-98.5-214.8c-0.4,0-0.9-0.1-1.3-0.3l-2.4-1.4c-0.4-0.2-0.7-0.7-0.7-1.2    c0-0.5,0.3-0.9,0.8-1.2l2.4-1.4c0.8-0.4,1.7-0.4,2.5,0l2.4,1.4c0.4,0.2,0.7,0.7,0.7,1.2c0,0.5-0.3,1-0.7,1.2l-2.4,1.4    C-97.6-214.9-98-214.8-98.5-214.8L-98.5-214.8z"></path>
		<path id="Path_2755" class="st3" d="M-109.5-222.6l2.4-1.4c0.3-0.1,0.4-0.4,0.3-0.7c-0.1-0.2-0.2-0.3-0.3-0.3l-2.4-1.4    c-0.6-0.3-1.2-0.3-1.8,0l-2.4,1.4c-0.3,0.1-0.4,0.4-0.3,0.7c0.1,0.2,0.2,0.3,0.3,0.3l2.4,1.4C-110.7-222.3-110-222.3-109.5-222.6z    "></path>
		<path id="Path_2756" class="st1" d="M-113-224.5l2.1,1.2c0.3,0.1,0.7,0.1,1,0l0,0l2.1-1.2l-2.1-1.2c-0.3-0.1-0.7-0.1-1,0    L-113-224.5z M-110.4-221.6c-0.4,0-0.9-0.1-1.3-0.3l-2.4-1.4c-0.4-0.2-0.7-0.7-0.7-1.2c0-0.5,0.3-1,0.7-1.2l2.4-1.4    c0.8-0.4,1.7-0.4,2.5,0l2.4,1.4c0.4,0.2,0.7,0.7,0.7,1.2c0,0.5-0.3,0.9-0.7,1.2l-2.4,1.4C-109.5-221.7-109.9-221.6-110.4-221.6    L-110.4-221.6z"></path>
		<path id="Path_2757" class="st3" d="M-113.7-218.2l2.4-1.4c0.6-0.3,1.2-0.3,1.8,0l2.4,1.4c0.3,0.1,0.4,0.4,0.3,0.7    c-0.1,0.2-0.2,0.3-0.3,0.3l-2.4,1.4c-0.6,0.3-1.2,0.3-1.8,0l-2.4-1.4c-0.3-0.1-0.4-0.4-0.3-0.7    C-113.9-218-113.8-218.1-113.7-218.2z"></path>
		<path id="Path_2758" class="st1" d="M-113.7-218.2L-113.7-218.2z M-113-217.6l2.1,1.2c0.3,0.1,0.7,0.1,1,0l2.1-1.2l-2.1-1.2    c-0.3-0.1-0.7-0.1-1,0L-113-217.6z M-110.4-214.8c-0.4,0-0.9-0.1-1.3-0.3l-2.4-1.4c-0.4-0.2-0.7-0.7-0.7-1.2    c0-0.5,0.3-0.9,0.7-1.2l2.4-1.4c0.8-0.4,1.7-0.4,2.5,0l2.4,1.4c0.4,0.2,0.7,0.7,0.7,1.2c0,0.5-0.3,1-0.8,1.2l-2.4,1.4    C-109.5-214.9-109.9-214.8-110.4-214.8z"></path>
		<path id="Path_2759" class="st3" d="M-107.7-214.7l2.4-1.4c0.6-0.3,1.2-0.3,1.8,0l2.4,1.4c0.3,0.1,0.4,0.4,0.3,0.7    c-0.1,0.2-0.2,0.3-0.3,0.3l-2.4,1.4c-0.6,0.3-1.2,0.3-1.8,0l-2.4-1.4c-0.3-0.1-0.4-0.4-0.3-0.7    C-108-214.6-107.9-214.7-107.7-214.7z"></path>
		<path id="Path_2760" class="st1" d="M-107.7-214.7L-107.7-214.7z M-107.1-214.2l2.1,1.2c0.3,0.1,0.7,0.1,1,0l2.1-1.2l-2.1-1.2    c-0.3-0.1-0.7-0.1-1,0L-107.1-214.2L-107.1-214.2z M-104.4-211.3c-0.4,0-0.9-0.1-1.3-0.3l-2.4-1.4c-0.4-0.2-0.7-0.7-0.7-1.2    c0-0.5,0.3-1,0.7-1.2l2.4-1.4c0.8-0.4,1.7-0.4,2.5,0l2.4,1.4c0.4,0.2,0.7,0.7,0.7,1.2c0,0.5-0.3,0.9-0.7,1.2l-2.4,1.4    C-103.5-211.4-104-211.3-104.4-211.3L-104.4-211.3z"></path>
		<path id="Path_2761" class="st3" d="M-121.4-215.7l2.4-1.4c0.3-0.1,0.4-0.4,0.3-0.7c-0.1-0.2-0.2-0.3-0.3-0.3l-2.4-1.4    c-0.6-0.3-1.2-0.3-1.8,0l-2.4,1.4c-0.3,0.1-0.4,0.4-0.3,0.7c0.1,0.2,0.2,0.3,0.3,0.3l2.4,1.4    C-122.6-215.5-121.9-215.5-121.4-215.7z"></path>
		<path id="Path_2762" class="st1" d="M-124.9-217.7l2.1,1.2c0.3,0.1,0.7,0.1,1,0l2.1-1.2l-2.1-1.2c-0.3-0.1-0.7-0.1-1,0    L-124.9-217.7L-124.9-217.7z M-121.4-215.7L-121.4-215.7z M-122.3-214.8c-0.4,0-0.9-0.1-1.3-0.3l-2.4-1.4    c-0.4-0.2-0.7-0.7-0.7-1.2c0-0.5,0.3-1,0.8-1.2l2.4-1.4c0.8-0.4,1.7-0.4,2.5,0l2.4,1.4c0.4,0.2,0.7,0.7,0.7,1.2    c0,0.5-0.3,0.9-0.7,1.2l-2.4,1.4l0,0C-121.4-214.9-121.8-214.8-122.3-214.8L-122.3-214.8z"></path>
		<path id="Path_2763" class="st3" d="M-115.4-219.2l2.4-1.4c0.3-0.1,0.4-0.4,0.3-0.7c-0.1-0.2-0.2-0.3-0.3-0.3l-2.4-1.4    c-0.6-0.3-1.2-0.3-1.8,0l-2.4,1.4c-0.3,0.1-0.4,0.4-0.3,0.7c0.1,0.2,0.2,0.3,0.3,0.3l2.4,1.4C-116.6-218.9-116-218.9-115.4-219.2z    "></path>
		<path id="Path_2764" class="st1" d="M-118.9-221.1l2.1,1.2c0.3,0.1,0.7,0.1,1,0h0l2.1-1.2l-2.1-1.2c-0.3-0.1-0.7-0.1-1,0    L-118.9-221.1z M-116.3-218.2c-0.4,0-0.9-0.1-1.3-0.3l-2.4-1.4c-0.4-0.2-0.7-0.7-0.8-1.2c0-0.5,0.3-0.9,0.8-1.2l2.4-1.4    c0.8-0.4,1.7-0.4,2.5,0l2.4,1.4c0.4,0.2,0.7,0.7,0.7,1.2c0,0.5-0.3,0.9-0.7,1.2l-2.4,1.4C-115.4-218.3-115.9-218.2-116.3-218.2z"></path>
		<path id="Path_2765" class="st3" d="M-119.6-214.7l2.4-1.4c0.6-0.3,1.2-0.3,1.8,0l2.4,1.4c0.3,0.1,0.4,0.4,0.3,0.7    c-0.1,0.2-0.2,0.3-0.3,0.3l-2.4,1.4c-0.6,0.3-1.2,0.3-1.8,0l-2.4-1.4c-0.3-0.1-0.4-0.4-0.3-0.7    C-119.9-214.5-119.8-214.7-119.6-214.7z"></path>
		<path id="Path_2766" class="st1" d="M-118.9-214.2l2.1,1.2c0.3,0.1,0.7,0.1,1,0l2.1-1.2l-2.1-1.2c-0.3-0.1-0.7-0.1-1,0    L-118.9-214.2L-118.9-214.2z M-116.3-211.3c-0.4,0-0.9-0.1-1.3-0.3l-2.4-1.4c-0.4-0.2-0.7-0.7-0.7-1.2c0-0.5,0.3-0.9,0.7-1.2h0    l2.4-1.4c0.8-0.4,1.7-0.4,2.5,0l2.4,1.4c0.4,0.2,0.7,0.7,0.7,1.2c0,0.5-0.3,0.9-0.7,1.2l-2.4,1.4    C-115.4-211.4-115.9-211.3-116.3-211.3z"></path>
		<path id="Path_2767" class="st3" d="M-113.7-211.3l2.4-1.4c0.6-0.3,1.2-0.3,1.8,0l2.4,1.4c0.3,0.1,0.4,0.4,0.3,0.7    c-0.1,0.2-0.2,0.3-0.3,0.3l-2.4,1.4c-0.6,0.3-1.2,0.3-1.8,0l-2.4-1.4c-0.3-0.1-0.4-0.4-0.3-0.7    C-113.9-211.1-113.8-211.2-113.7-211.3z"></path>
		<path id="Path_2768" class="st1" d="M-113-210.8l2.1,1.2c0.3,0.1,0.7,0.1,1,0l2.1-1.2l-2.1-1.2c-0.3-0.1-0.7-0.1-1,0L-113-210.8z     M-110.4-207.9c-0.4,0-0.9-0.1-1.3-0.3l-2.4-1.4c-0.4-0.2-0.7-0.7-0.7-1.2c0-0.5,0.3-0.9,0.7-1.2l0,0l2.4-1.4    c0.8-0.4,1.7-0.4,2.5,0l2.4,1.4c0.4,0.2,0.7,0.7,0.7,1.2c0,0.5-0.3,0.9-0.8,1.2l-2.4,1.4C-109.5-208-109.9-207.9-110.4-207.9    L-110.4-207.9z"></path>
		<path id="Path_2769" class="st2" d="M-130.2-174v-2.9h0c-1.5,0.1-3-0.3-4.3-1l-33.2-19.2c-0.8-0.4-1.3-1-1.6-1.8v2.9    c0.3,0.8,0.8,1.5,1.6,1.9l33.2,19.2C-133.2-174.3-131.7-173.9-130.2-174L-130.2-174z"></path>
		<path id="Path_2770" class="st1" d="M-168.5-196.1c0.2,0.6,0.7,1,1.2,1.3l33.1,19.2c1,0.5,2.1,0.8,3.2,0.8v-1.4    c-1.4,0-2.7-0.4-3.9-1l-33.2-19.2c-0.1-0.1-0.3-0.2-0.4-0.3V-196.1L-168.5-196.1z M-130.2-174L-130.2-174z M-130.4-173.2    c-1.6,0.1-3.1-0.3-4.5-1.1l-33.2-19.2c-0.9-0.5-1.6-1.3-1.9-2.3c0-0.1,0-0.1,0-0.2v-2.9c0-0.4,0.3-0.7,0.7-0.8    c0.4-0.1,0.7,0.2,0.8,0.5c0.2,0.6,0.7,1.1,1.3,1.4l33.1,19.2c1.2,0.6,2.5,0.9,3.9,0.9c0.2,0,0.4,0.1,0.6,0.2    c0.2,0.1,0.2,0.3,0.2,0.6v2.9c0,0.4-0.3,0.7-0.7,0.8L-130.4-173.2L-130.4-173.2z"></path>
		<path id="Path_2771" class="st1" d="M-144.3-236.4c-0.3,0-0.5-0.1-0.7-0.4c-0.2-0.4-0.1-0.8,0.3-1c0,0,0,0,0,0l14.5-8.3    c0.4-0.2,0.8-0.1,1,0.3c0,0,0,0,0,0c0.2,0.4,0.1,0.8-0.3,1c0,0,0,0,0,0l-14.5,8.3C-144.1-236.4-144.2-236.4-144.3-236.4z"></path>
		<path id="Path_2772" class="st1" d="M-144.3-242c-0.3,0-0.5-0.1-0.7-0.4c-0.2-0.4-0.1-0.8,0.3-1c0,0,0,0,0,0l14.5-8.3    c0.4-0.2,0.8-0.1,1,0.3c0,0,0,0,0,0c0.2,0.4,0.1,0.8-0.3,1c0,0,0,0,0,0l-14.5,8.3C-144.1-242.1-144.2-242-144.3-242z"></path>
		<path id="Path_2773" class="st1" d="M-144.3-230.4c-0.3,0-0.5-0.1-0.7-0.4c-0.2-0.4-0.1-0.8,0.3-1c0,0,0,0,0,0l11.7-6.8    c0.4-0.2,0.8-0.1,1,0.3c0,0,0,0,0,0c0.2,0.4,0.1,0.8-0.3,1.1l-11.7,6.7C-144.1-230.5-144.2-230.4-144.3-230.4z"></path>
	</g>
</g>
</svg>
