<?xml version="1.0" encoding="iso-8859-1"?>
<!-- Generator: Adobe Illustrator 26.0.3, SVG Export Plug-In . SVG Version: 6.00 Build 0)  -->
<svg version="1.1" xmlns="http://www.w3.org/2000/svg" xmlns:xlink="http://www.w3.org/1999/xlink" x="0px" y="0px"
	 viewBox="0 0 80 80" style="enable-background:new 0 0 80 80;" xml:space="preserve">
<g id="support21">
	<g>
		<path style="fill-rule:evenodd;clip-rule:evenodd;fill:#5DC5EA;" d="M44.621,16.384c0.027,0.007,0.064,0.016,0.088,0.031
			l-2.174-1.252c-0.315-0.121-0.579,0.148-0.754,0.387l-9.197,12.457c-0.174,0.261-0.428,0.841-0.076,1.053l2.154,1.243
			c-0.315-0.219-0.103-0.785,0.102-1.046l0.338-0.473c2.941-3.977,5.872-7.953,8.813-11.93
			C44.083,16.626,44.322,16.324,44.621,16.384L44.621,16.384z M44.875,20.042l4.374-2.592c1.248-0.735,2.854-1.217,4.19-0.439
			l-2.165-1.252c-1.569-0.739-2.73-0.341-4.2,0.44l-2.199,1.308V20.042z"/>
		<path style="fill-rule:evenodd;clip-rule:evenodd;fill:#0083C7;" d="M45.315,17.761v1.501l3.707-2.196
			c0.52-0.311,1.312-0.689,2.177-0.837l-0.148-0.083c-1.308-0.619-2.302-0.335-3.765,0.443L45.315,17.761L45.315,17.761z
			 M44.875,20.49c-0.076,0-0.152-0.019-0.227-0.061c-0.142-0.08-0.229-0.228-0.229-0.387v-2.535c0-0.159,0.087-0.304,0.229-0.384
			l2.198-1.307c1.398-0.743,2.783-1.327,4.617-0.459l2.199,1.266l0,0c0.217,0.125,0.293,0.398,0.168,0.61
			c-0.126,0.217-0.402,0.284-0.606,0.164l0,0c-1.331-0.766-2.915-0.054-3.746,0.435l-4.374,2.593
			C45.027,20.467,44.952,20.49,44.875,20.49L44.875,20.49z M42.321,15.55c0.037,0.034-0.05,0.083-0.175,0.257l-9.192,12.461
			c-0.125,0.181-0.19,0.406-0.177,0.467l1.359,0.766c0.072-0.214,0.174-0.395,0.262-0.509l9.155-12.403
			c0.053-0.064,0.102-0.141,0.178-0.223L42.321,15.55L42.321,15.55z M34.689,30.759c0.136,0,0.289-0.068,0.364-0.193
			c0.125-0.201,0.087-0.444-0.103-0.583c-0.022-0.069,0.049-0.3,0.164-0.459l9.154-12.403c0.129-0.163,0.216-0.261,0.266-0.293
			c0.2,0.084,0.44,0.008,0.553-0.185c0.125-0.212,0.049-0.486-0.151-0.611l-0.011-0.003l-2.226-1.282
			c-0.264-0.099-0.78-0.158-1.269,0.541l-9.208,12.471c-0.098,0.152-0.412,0.683-0.314,1.168c0.053,0.22,0.177,0.395,0.379,0.52
			l2.148,1.243C34.512,30.737,34.599,30.759,34.689,30.759z"/>
		<path style="fill-rule:evenodd;clip-rule:evenodd;fill:#C5E6F4;" d="M53.439,17.011c1.107,0.632,1.785,2,1.849,3.9l0.109,3.613
			l0,0c0,0.231-0.098,0.519-0.287,0.75c-0.261,0.338-0.614,0.429-0.766,0.205c-0.39-0.541-1.357-0.679-2.502-0.557
			c-1.433,0.152-3.093,0.706-4.238,1.357l-2.729,1.581v3.278c0,0.126-0.038,0.27-0.102,0.418c-0.175,0.402-0.528,0.686-0.782,0.633
			l-9.227-1.842c-0.467-0.086-0.189-0.845,0-1.088l9.178-12.453c0.103-0.148,0.228-0.273,0.367-0.349
			c0.312-0.181,0.565-0.034,0.565,0.326v3.26l4.374-2.592C50.9,16.471,52.369,16.392,53.439,17.011z"/>
		<path style="fill-rule:evenodd;clip-rule:evenodd;fill:#0083C7;" d="M54.708,25.22L54.708,25.22L54.708,25.22L54.708,25.22z
			 M34.836,29.906L34.836,29.906L34.836,29.906L34.836,29.906z M34.951,29.929l9.132,1.823c0.011-0.012,0.174-0.133,0.287-0.372
			c0.039-0.086,0.049-0.173,0.049-0.242v-3.278c0-0.159,0.087-0.308,0.229-0.383l2.74-1.584c1.22-0.706,2.956-1.263,4.401-1.415
			c1.373-0.144,2.365,0.08,2.843,0.648c0.039-0.026,0.088-0.068,0.142-0.133c0.125-0.163,0.186-0.348,0.173-0.463l-0.098-3.608
			c-0.064-1.698-0.629-2.95-1.626-3.526l0,0c-0.979-0.564-2.313-0.409-3.746,0.435l-4.374,2.593
			c-0.14,0.084-0.318,0.084-0.454,0.004c-0.142-0.08-0.229-0.228-0.229-0.387v-3.119c-0.038,0.041-0.075,0.082-0.098,0.128
			l-9.208,12.472C35.053,29.614,34.978,29.807,34.951,29.929L34.951,29.929z M44.057,32.639c-0.049,0-0.1-0.004-0.152-0.011
			l-9.231-1.847c-0.25-0.044-0.451-0.212-0.553-0.45c-0.19-0.473,0.102-1.108,0.277-1.338l9.192-12.453
			c0.128-0.193,0.303-0.36,0.493-0.47c0.287-0.171,0.591-0.182,0.841-0.041c0.251,0.143,0.39,0.42,0.39,0.753v2.48l3.707-2.196
			c1.726-1.02,3.372-1.174,4.64-0.443l0,0c1.275,0.735,2.014,2.251,2.066,4.271l0.11,3.613c0.016,0.349-0.122,0.74-0.376,1.047
			c-0.25,0.315-0.58,0.493-0.879,0.493c-0.012,0-0.027,0-0.027,0c-0.238-0.008-0.451-0.125-0.576-0.315
			c-0.242-0.342-1.035-0.478-2.089-0.368c-1.346,0.141-2.931,0.648-4.064,1.3l-2.513,1.452v3.021c0,0.198-0.054,0.399-0.125,0.596
			C44.974,32.207,44.534,32.639,44.057,32.639z"/>
		<path style="fill-rule:evenodd;clip-rule:evenodd;fill:#C5E6F4;" d="M25.937,64.232c-1.095-0.634-1.785-2.001-1.85-3.897
			l-0.113-3.617l0,0c0-0.231,0.103-0.515,0.287-0.75c0.277-0.333,0.618-0.429,0.771-0.206c0.385,0.546,1.356,0.68,2.501,0.557
			c1.434-0.147,3.105-0.705,4.238-1.356l2.729-1.581v-3.275l0.013-0.004c0-0.125,0.025-0.269,0.087-0.416
			c0.177-0.399,0.53-0.683,0.791-0.634l9.231,1.846c0.053,0.012,0.113,0.038,0.152,0.091c0.178,0.196,0.102,0.644-0.152,0.997
			l-9.192,12.453c-0.1,0.144-0.225,0.269-0.354,0.348C34.765,64.97,34.5,64.822,34.5,64.46v-3.26l-4.367,2.592
			C28.476,64.77,27.016,64.853,25.937,64.232z"/>
		<path style="fill-rule:evenodd;clip-rule:evenodd;fill:#0083C7;" d="M44.534,51.336c0,0,0,0,0.011,0.003L44.534,51.336
			L44.534,51.336z M24.663,56.02L24.663,56.02L24.663,56.02L24.663,56.02z M34.5,60.751c0.087,0,0.164,0.022,0.225,0.061
			c0.139,0.08,0.227,0.228,0.227,0.387v3.12c0.039-0.038,0.076-0.08,0.103-0.126l9.204-12.471c0.125-0.159,0.162-0.318,0.162-0.405
			l-9.117-1.827c-0.026,0.015-0.189,0.136-0.288,0.376c-0.037,0.086-0.064,0.173-0.064,0.238v3.279c0,0.159-0.087,0.306-0.227,0.387
			l-2.742,1.581c-1.22,0.708-2.952,1.262-4.4,1.417c-1.384,0.14-2.35-0.083-2.843-0.648c-0.023,0.022-0.076,0.064-0.136,0.129
			c-0.129,0.163-0.178,0.352-0.178,0.458l0.113,3.613c0.054,1.699,0.629,2.954,1.623,3.526l0,0c0.982,0.565,2.316,0.413,3.737-0.436
			l4.375-2.592C34.349,60.773,34.424,60.751,34.5,60.751L34.5,60.751z M34.814,65.312c-0.125,0-0.254-0.035-0.367-0.1
			c-0.251-0.14-0.387-0.417-0.387-0.753v-2.477l-3.7,2.191c-1.722,1.02-3.371,1.18-4.651,0.445l0,0
			c-1.27-0.736-2.001-2.252-2.062-4.273l-0.114-3.614c-0.011-0.348,0.136-0.738,0.375-1.042c0.265-0.326,0.592-0.497,0.918-0.492
			c0.228,0.006,0.439,0.121,0.568,0.309c0.25,0.342,1.031,0.478,2.1,0.371c1.334-0.139,2.919-0.651,4.048-1.304l2.518-1.451v-3.018
			c0-0.197,0.049-0.399,0.136-0.599c0.228-0.523,0.743-0.993,1.27-0.892l9.243,1.847c0.151,0.025,0.291,0.106,0.405,0.234
			c0.364,0.414,0.2,1.096-0.14,1.555L35.78,64.705c-0.125,0.19-0.299,0.36-0.488,0.467C35.141,65.266,34.978,65.312,34.814,65.312z"
			/>
		<path style="fill-rule:evenodd;clip-rule:evenodd;fill:#5DC5EA;" d="M44.105,59.572l4.428,2.556
			c0.489-6.65,4.618-13.639,10.326-17.108c2.351-1.289,4.815-2.047,7.331-0.728c-1.839-1.057-4.503-2.964-6.376-3.199
			c-1.926-0.239-3.723,0.467-5.372,1.372C48.723,45.933,44.61,52.924,44.105,59.572z"/>
		<path style="fill-rule:evenodd;clip-rule:evenodd;fill:#0083C7;" d="M44.572,59.327l3.582,2.065
			c0.743-6.698,4.882-13.359,10.477-16.755c1.372-0.747,3.018-1.482,4.803-1.482c0,0,0.015,0,0.026,0
			c-1.297-0.765-2.664-1.49-3.71-1.618c-1.937-0.242-3.746,0.576-5.092,1.32C49.2,46.168,45.164,52.764,44.572,59.327L44.572,59.327
			z M48.533,62.57c-0.076,0-0.151-0.018-0.228-0.061l-4.424-2.553c-0.151-0.084-0.228-0.248-0.216-0.418
			c0.515-6.93,4.754-13.943,10.539-17.457c1.497-0.814,3.472-1.703,5.659-1.428c1.558,0.193,3.521,1.401,5.258,2.467
			c0.451,0.284,0.891,0.553,1.298,0.784c0.199,0.122,0.276,0.387,0.162,0.603c-0.113,0.213-0.39,0.289-0.591,0.178
			c-2.541-1.323-5.031-0.311-6.919,0.725c-5.533,3.359-9.594,10.095-10.098,16.747c-0.013,0.155-0.103,0.292-0.239,0.36
			C48.674,62.552,48.598,62.57,48.533,62.57z"/>
		<path style="fill-rule:evenodd;clip-rule:evenodd;fill:#C5E6F4;" d="M63.173,29.679c-1.346-0.777-4.351-2.783-5.571-2.935
			c-6.013-0.747-12.552,12.229-7.472,15.304l4.427,2.555C48.988,41.074,57.351,26.622,63.173,29.679z"/>
		<path style="fill-rule:evenodd;clip-rule:evenodd;fill:#0083C7;" d="M57.085,27.157c-3.12,0-6.376,3.893-7.695,7.721
			c-1.121,3.204-0.754,5.743,0.966,6.786l2.328,1.339c-0.97-2.374-0.076-5.797,1.521-8.556c1.61-2.79,4.165-5.289,6.728-5.607
			c-1.259-0.755-2.703-1.569-3.397-1.653C57.389,27.169,57.238,27.157,57.085,27.157L57.085,27.157z M54.556,45.046
			c-0.076,0-0.151-0.019-0.227-0.061l-4.425-2.55c-2.115-1.285-2.63-4.216-1.361-7.847c1.536-4.439,5.371-8.753,9.105-8.287
			c0.982,0.122,2.692,1.134,4.678,2.347c0.405,0.25,0.77,0.477,1.057,0.644c0.212,0.121,0.289,0.387,0.174,0.599
			c-0.125,0.212-0.387,0.291-0.602,0.182c-2.729-1.437-6.049,1.491-7.972,4.818c-1.937,3.333-2.817,7.672-0.19,9.334
			c0.201,0.132,0.265,0.401,0.141,0.606C54.849,44.971,54.708,45.046,54.556,45.046z"/>
		<path style="fill-rule:evenodd;clip-rule:evenodd;fill:#C5E6F4;" d="M66.191,44.292c-4.052-2.335-10.603,1.452-14.651,8.458
			c-1.725,2.976-2.831,6.299-3.006,9.378l20.663-11.933C69.03,47.317,67.912,45.285,66.191,44.292z"/>
		<path style="fill-rule:evenodd;clip-rule:evenodd;fill:#0083C7;" d="M63.473,44.038c-3.697,0-8.4,3.477-11.543,8.935
			c-1.573,2.725-2.577,5.655-2.88,8.34L68.73,49.948c-0.2-2.49-1.182-4.36-2.767-5.273l0,0
			C65.221,44.246,64.379,44.038,63.473,44.038L63.473,44.038z M48.533,62.57c-0.086,0-0.164-0.022-0.238-0.064
			c-0.141-0.087-0.216-0.242-0.216-0.405c0.178-3.044,1.273-6.445,3.07-9.575c4.162-7.207,11.015-11.074,15.27-8.622
			c1.895,1.1,3.055,3.324,3.229,6.264c0,0.166-0.077,0.326-0.225,0.408L48.749,62.509C48.685,62.552,48.609,62.57,48.533,62.57z"/>
		<path style="fill-rule:evenodd;clip-rule:evenodd;fill:#FFFFFF;" d="M64.959,33.62c0-1.941-0.693-3.308-1.786-3.941
			c-1.107-0.641-2.631-0.546-4.313,0.424c-1.687,0.973-3.207,2.638-4.303,4.548c-1.107,1.911-1.784,4.064-1.784,6.005
			c0,1.941,0.678,3.309,1.784,3.946C58.382,46.809,64.959,39.868,64.959,33.62z"/>
		<path style="fill-rule:evenodd;clip-rule:evenodd;fill:#0083C7;" d="M61.574,29.716c-0.755,0-1.596,0.258-2.487,0.774
			c-1.562,0.901-3.033,2.46-4.151,4.386c-1.107,1.929-1.726,3.98-1.726,5.781c0,1.714,0.554,2.976,1.563,3.559
			c1.292,0.747,2.789,0.197,3.81-0.39c2.853-1.645,5.922-6.017,5.922-10.206c0-1.713-0.555-2.975-1.559-3.559
			C62.543,29.83,62.078,29.716,61.574,29.716L61.574,29.716z M56.156,45.463c-0.656,0-1.274-0.158-1.826-0.478
			c-1.293-0.747-2.014-2.285-2.014-4.328c0-1.956,0.657-4.167,1.85-6.229c1.183-2.058,2.783-3.729,4.478-4.707
			c1.762-1.028,3.445-1.179,4.741-0.429c1.297,0.747,2.013,2.286,2.013,4.328c0,4.569-3.246,9.167-6.376,10.975
			C58.029,45.172,57.048,45.463,56.156,45.463z"/>
		<path style="fill-rule:evenodd;clip-rule:evenodd;fill:#5DC5EA;" d="M25.558,39.022c2.35-1.288,4.802-2.046,7.319-0.728
			c-1.823-1.057-4.503-2.963-6.376-3.195c-1.926-0.242-3.723,0.463-5.371,1.369c-5.721,3.468-9.833,10.458-10.339,17.107
			l4.428,2.555C15.724,49.482,19.837,42.491,25.558,39.022z"/>
		<path style="fill-rule:evenodd;clip-rule:evenodd;fill:#0083C7;" d="M11.27,53.329l3.571,2.067
			c0.744-6.698,4.894-13.362,10.478-16.756c0.012-0.003,0.012-0.003,0.022-0.007c1.346-0.743,2.995-1.475,4.78-1.475
			c0.011,0,0.011,0,0.027,0c-1.285-0.766-2.67-1.49-3.697-1.619c-1.938-0.242-3.749,0.576-5.106,1.32
			C15.887,40.171,11.861,46.767,11.27,53.329L11.27,53.329z M15.219,56.574c-0.076,0-0.151-0.019-0.227-0.06l-4.413-2.556
			c-0.151-0.083-0.238-0.245-0.227-0.416c0.515-6.93,4.753-13.943,10.55-17.457c1.486-0.814,3.461-1.706,5.659-1.429
			c1.562,0.193,3.523,1.402,5.247,2.472c0.466,0.283,0.906,0.553,1.291,0.78c0.217,0.121,0.293,0.386,0.167,0.603
			c-0.113,0.208-0.379,0.287-0.591,0.177c-2.528-1.323-5.02-0.315-6.907,0.721c-5.546,3.369-9.607,10.102-10.11,16.751
			c-0.012,0.155-0.099,0.292-0.228,0.36C15.356,56.555,15.296,56.574,15.219,56.574z"/>
		<path style="fill-rule:evenodd;clip-rule:evenodd;fill:#C5E6F4;" d="M29.856,23.682c-1.342-0.777-4.336-2.783-5.568-2.935
			c-6.012-0.746-12.541,12.229-7.472,15.304l4.428,2.555C15.686,35.076,24.034,20.625,29.856,23.682z"/>
		<path style="fill-rule:evenodd;clip-rule:evenodd;fill:#0083C7;" d="M23.783,21.16c-3.119,0-6.376,3.894-7.71,7.723
			c-1.118,3.207-0.751,5.743,0.982,6.785l2.316,1.339c-0.956-2.373-0.064-5.797,1.532-8.557c1.61-2.786,4.165-5.288,6.717-5.606
			c-1.259-0.754-2.702-1.569-3.382-1.653C24.086,21.172,23.935,21.16,23.783,21.16L23.783,21.16z M21.244,39.05
			c-0.077,0-0.152-0.02-0.228-0.062l-4.412-2.55c-2.126-1.285-2.628-4.216-1.373-7.848c1.536-4.439,5.383-8.753,9.106-8.286
			c0.982,0.121,2.703,1.133,4.677,2.347c0.417,0.25,0.781,0.477,1.07,0.644c0.215,0.122,0.276,0.387,0.167,0.599
			c-0.119,0.212-0.396,0.292-0.596,0.181c-2.74-1.436-6.061,1.491-7.984,4.818c-1.926,3.333-2.805,7.672-0.19,9.333
			c0.202,0.132,0.266,0.402,0.142,0.61C21.547,38.973,21.395,39.05,21.244,39.05z"/>
		<path style="fill-rule:evenodd;clip-rule:evenodd;fill:#C5E6F4;" d="M32.877,38.295c-4.036-2.339-10.602,1.452-14.651,8.457
			c-1.713,2.977-2.828,6.301-3.006,9.379l20.676-11.933C35.72,41.32,34.599,39.288,32.877,38.295z"/>
		<path style="fill-rule:evenodd;clip-rule:evenodd;fill:#0083C7;" d="M30.175,38.041c-3.711,0-8.403,3.476-11.559,8.935
			c-1.572,2.722-2.577,5.652-2.881,8.34l19.694-11.365c-0.212-2.495-1.195-4.359-2.767-5.269c0,0,0,0,0-0.004
			C31.908,38.249,31.065,38.041,30.175,38.041L30.175,38.041z M15.219,56.574c-0.076,0-0.162-0.023-0.227-0.065
			c-0.152-0.087-0.223-0.242-0.213-0.405c0.164-3.048,1.259-6.445,3.067-9.575c4.162-7.207,11.005-11.073,15.253-8.621
			c1.914,1.099,3.06,3.324,3.235,6.258c0.014,0.171-0.078,0.33-0.229,0.413l-20.66,11.934
			C15.372,56.555,15.296,56.574,15.219,56.574z"/>
		<path style="fill-rule:evenodd;clip-rule:evenodd;fill:#FFFFFF;" d="M31.645,27.623c0-1.94-0.679-3.309-1.79-3.941
			c-1.104-0.638-2.627-0.547-4.298,0.424c-1.684,0.975-3.208,2.638-4.314,4.549c-1.107,1.911-1.785,4.065-1.785,6.005
			c0,1.941,0.679,3.31,1.785,3.946C25.068,40.812,31.645,33.871,31.645,27.623z"/>
		<path style="fill-rule:evenodd;clip-rule:evenodd;fill:#0083C7;" d="M28.271,23.72c-0.75,0-1.606,0.258-2.501,0.773
			c-1.558,0.902-3.029,2.46-4.136,4.386c-1.118,1.926-1.736,3.981-1.736,5.781c0,1.713,0.564,2.976,1.573,3.559
			c1.292,0.747,2.779,0.2,3.794-0.39c2.859-1.649,5.936-6.016,5.936-10.206c0-1.712-0.554-2.975-1.569-3.559
			C29.23,23.833,28.776,23.72,28.271,23.72L28.271,23.72z M22.855,39.466c-0.668,0-1.285-0.159-1.839-0.478
			c-1.294-0.746-1.997-2.281-1.997-4.328c0-1.952,0.651-4.167,1.835-6.229c1.194-2.058,2.782-3.729,4.477-4.711
			c1.774-1.02,3.457-1.172,4.754-0.425c1.296,0.747,2,2.286,2,4.328c0,4.568-3.233,9.166-6.364,10.974
			C24.716,39.175,23.745,39.466,22.855,39.466z"/>
		<path style="fill-rule:evenodd;clip-rule:evenodd;fill:#5DC5EA;" d="M42.449,49.648c0.035,0.008,0.061,0.016,0.087,0.03
			l2.161,1.248l-0.011-0.009h-0.012v-0.003l-0.015-0.004l0,0l-0.027-0.007l0,0h-0.011v-0.004l-9.231-1.846
			c-0.462-0.087-0.891,0.645-0.891,1.076v3.253c-1.671,0.967-2.946,1.823-4.731,2.449c-1.269,0.379-2.453,0.651-3.772,0.463
			c-0.363-0.1-0.731-0.197-0.965-0.532c-0.088-0.139-0.267-0.155-0.441-0.064c-0.129,0.064-0.242,0.164-0.33,0.27
			c-0.087,0.109-0.163,0.246-0.212,0.379c-0.064,0.155-0.075,0.288-0.064,0.451l0.102,3.537c0.023,0.822,0.174,1.675,0.538,2.422
			c0.293,0.606,0.716,1.137,1.312,1.475l-2.165-1.252c-0.841-0.583-1.144-1.046-1.535-1.998c-0.201-0.716-0.266-1.159-0.315-1.902
			l-0.113-3.521c-0.013-0.342,0.074-0.565,0.292-0.842c0.174-0.201,0.401-0.418,0.701-0.273c1.247,0.716,1.221,0.731,2.567,0.625
			c1.584-0.212,2.832-0.606,4.226-1.356l2.741-1.582v-3.256c0-0.447,0.38-1.091,0.879-1.072L42.449,49.648L42.449,49.648z
			 M32.335,62.484v0.724c0.012,0.178,0.026,0.254,0.163,0.368l2.176,1.25c-0.125-0.072-0.174-0.228-0.174-0.367v-3.26L32.335,62.484
			L32.335,62.484z"/>
		<path style="fill-rule:evenodd;clip-rule:evenodd;fill:#0083C7;" d="M25.406,55.513c0.125,0.186,0.352,0.258,0.705,0.349
			c1.134,0.158,2.187-0.058,3.521-0.456c1.395-0.488,2.464-1.126,3.711-1.86c0.235-0.136,0.478-0.278,0.716-0.418v-2.999
			c0-0.435,0.262-0.986,0.614-1.281c0.14-0.106,0.277-0.178,0.413-0.22l-1.96-0.39c0,0-0.061,0.064-0.099,0.099
			c-0.152,0.148-0.242,0.391-0.242,0.538v3.256c0,0.159-0.088,0.307-0.225,0.387l-2.74,1.581c-1.433,0.766-2.741,1.186-4.39,1.414
			C25.416,55.513,25.406,55.513,25.406,55.513L25.406,55.513z M24.663,56.02c0,0,0.015,0,0.015,0.004
			C24.678,56.02,24.663,56.02,24.663,56.02L24.663,56.02z M22.579,54.831c0.022,0.015-0.027,0.045-0.153,0.19
			c-0.125,0.173-0.177,0.299-0.163,0.521l0.099,3.526c0.053,0.664,0.114,1.089,0.303,1.794c0.352,0.846,0.603,1.233,1.357,1.751
			l0.064,0.042c-0.264-0.666-0.417-1.44-0.439-2.308l-0.114-3.533c0-0.182,0.011-0.38,0.103-0.622
			c0.061-0.181,0.163-0.36,0.273-0.505c0.054-0.057,0.103-0.114,0.152-0.163c-0.391-0.068-0.716-0.254-1.384-0.637L22.579,54.831
			L22.579,54.831z M25.937,64.679c-0.075,0-0.152-0.019-0.228-0.06l0,0l0,0c0,0,0-0.005-0.015-0.008l-2.151-1.243
			c-0.965-0.671-1.307-1.225-1.709-2.218c-0.239-0.823-0.303-1.305-0.353-2.036l-0.112-3.545c-0.013-0.424,0.086-0.747,0.363-1.118
			c0.19-0.2,0.644-0.709,1.259-0.409l0.14,0.075c1.032,0.599,1.032,0.599,2.2,0.508c1.535-0.209,2.717-0.587,4.063-1.307
			l2.503-1.445v-2.999c0-0.412,0.2-0.875,0.515-1.178c0.239-0.232,0.527-0.353,0.831-0.342l9.294,1.853
			c0.012,0.004,0.012,0.004,0.023,0.008c0.038,0.008,0.152,0.05,0.178,0.065l2.176,1.259c0.213,0.117,0.287,0.376,0.174,0.583
			c-0.102,0.213-0.364,0.303-0.58,0.209l-9.204-1.842c-0.099,0.027-0.352,0.398-0.352,0.64v3.253c0,0.159-0.087,0.306-0.227,0.387
			c-0.312,0.186-0.629,0.367-0.918,0.541c-1.297,0.763-2.399,1.421-3.897,1.942c-1.209,0.363-2.502,0.693-3.973,0.48
			c-0.417-0.106-0.857-0.224-1.183-0.614c-0.064,0.035-0.102,0.08-0.151,0.133c-0.054,0.067-0.103,0.162-0.141,0.25
			c-0.023,0.087-0.038,0.155-0.038,0.284l0.113,3.533c0.026,0.872,0.19,1.63,0.494,2.244c0.26,0.57,0.651,1.009,1.117,1.279
			l0.012,0.003c0.216,0.125,0.277,0.394,0.163,0.61C26.236,64.599,26.085,64.679,25.937,64.679L25.937,64.679z M32.787,62.738v0.47
			l1.273,0.747V61.98L32.787,62.738L32.787,62.738z M34.674,65.274c0.152,0,0.304-0.08,0.38-0.223
			c0.11-0.197,0.061-0.443-0.114-0.576l0.012-3.275c0-0.159-0.087-0.307-0.227-0.387c-0.137-0.08-0.312-0.08-0.451,0.004
			l-2.161,1.285c-0.14,0.079-0.216,0.223-0.216,0.383v0.762c0.011,0.204,0.038,0.436,0.39,0.716l2.161,1.25l0,0
			C34.523,65.255,34.599,65.274,34.674,65.274z"/>
		<path style="fill-rule:evenodd;clip-rule:evenodd;fill:#0083C7;" d="M34.826,49.785c-0.076,0-0.163-0.02-0.227-0.061l-2.177-1.251
			c-0.212-0.126-0.277-0.399-0.164-0.61c0.125-0.217,0.403-0.284,0.618-0.164l2.162,1.251c0.215,0.125,0.291,0.398,0.166,0.609
			C35.129,49.706,34.978,49.785,34.826,49.785z"/>
		<path style="fill-rule:evenodd;clip-rule:evenodd;fill:#0083C7;" d="M24.26,56.415c-0.076,0-0.151-0.019-0.227-0.061l-2.161-1.251
			c-0.213-0.122-0.289-0.394-0.163-0.607c0.125-0.216,0.39-0.287,0.602-0.162l2.176,1.25c0.213,0.123,0.277,0.395,0.164,0.607
			C24.564,56.336,24.413,56.415,24.26,56.415z"/>
	</g>
</g>
<g id="Layer_1">
</g>
</svg>
